%TF.GenerationSoftware,KiCad,Pcbnew,10.0.0*%
%TF.CreationDate,2026-04-21T22:51:41+03:00*%
%TF.ProjectId,Dobule shawarma PCB,446f6275-6c65-4207-9368-617761726d61,rev?*%
%TF.SameCoordinates,Original*%
%TF.FileFunction,Legend,Bot*%
%TF.FilePolarity,Positive*%
%FSLAX46Y46*%
G04 Gerber Fmt 4.6, Leading zero omitted, Abs format (unit mm)*
G04 Created by KiCad (PCBNEW 10.0.0) date 2026-04-21 22:51:41*
%MOMM*%
%LPD*%
G01*
G04 APERTURE LIST*
%ADD10C,0.150000*%
%ADD11C,0.120000*%
G04 APERTURE END LIST*
D10*
X140076190Y-101674819D02*
X140076190Y-100674819D01*
X140076190Y-100674819D02*
X139838095Y-100674819D01*
X139838095Y-100674819D02*
X139695238Y-100722438D01*
X139695238Y-100722438D02*
X139600000Y-100817676D01*
X139600000Y-100817676D02*
X139552381Y-100912914D01*
X139552381Y-100912914D02*
X139504762Y-101103390D01*
X139504762Y-101103390D02*
X139504762Y-101246247D01*
X139504762Y-101246247D02*
X139552381Y-101436723D01*
X139552381Y-101436723D02*
X139600000Y-101531961D01*
X139600000Y-101531961D02*
X139695238Y-101627200D01*
X139695238Y-101627200D02*
X139838095Y-101674819D01*
X139838095Y-101674819D02*
X140076190Y-101674819D01*
X138885714Y-100674819D02*
X138695238Y-100674819D01*
X138695238Y-100674819D02*
X138600000Y-100722438D01*
X138600000Y-100722438D02*
X138504762Y-100817676D01*
X138504762Y-100817676D02*
X138457143Y-101008152D01*
X138457143Y-101008152D02*
X138457143Y-101341485D01*
X138457143Y-101341485D02*
X138504762Y-101531961D01*
X138504762Y-101531961D02*
X138600000Y-101627200D01*
X138600000Y-101627200D02*
X138695238Y-101674819D01*
X138695238Y-101674819D02*
X138885714Y-101674819D01*
X138885714Y-101674819D02*
X138980952Y-101627200D01*
X138980952Y-101627200D02*
X139076190Y-101531961D01*
X139076190Y-101531961D02*
X139123809Y-101341485D01*
X139123809Y-101341485D02*
X139123809Y-101008152D01*
X139123809Y-101008152D02*
X139076190Y-100817676D01*
X139076190Y-100817676D02*
X138980952Y-100722438D01*
X138980952Y-100722438D02*
X138885714Y-100674819D01*
X138028571Y-100674819D02*
X138028571Y-101484342D01*
X138028571Y-101484342D02*
X137980952Y-101579580D01*
X137980952Y-101579580D02*
X137933333Y-101627200D01*
X137933333Y-101627200D02*
X137838095Y-101674819D01*
X137838095Y-101674819D02*
X137647619Y-101674819D01*
X137647619Y-101674819D02*
X137552381Y-101627200D01*
X137552381Y-101627200D02*
X137504762Y-101579580D01*
X137504762Y-101579580D02*
X137457143Y-101484342D01*
X137457143Y-101484342D02*
X137457143Y-100674819D01*
X136647619Y-101151009D02*
X136504762Y-101198628D01*
X136504762Y-101198628D02*
X136457143Y-101246247D01*
X136457143Y-101246247D02*
X136409524Y-101341485D01*
X136409524Y-101341485D02*
X136409524Y-101484342D01*
X136409524Y-101484342D02*
X136457143Y-101579580D01*
X136457143Y-101579580D02*
X136504762Y-101627200D01*
X136504762Y-101627200D02*
X136600000Y-101674819D01*
X136600000Y-101674819D02*
X136980952Y-101674819D01*
X136980952Y-101674819D02*
X136980952Y-100674819D01*
X136980952Y-100674819D02*
X136647619Y-100674819D01*
X136647619Y-100674819D02*
X136552381Y-100722438D01*
X136552381Y-100722438D02*
X136504762Y-100770057D01*
X136504762Y-100770057D02*
X136457143Y-100865295D01*
X136457143Y-100865295D02*
X136457143Y-100960533D01*
X136457143Y-100960533D02*
X136504762Y-101055771D01*
X136504762Y-101055771D02*
X136552381Y-101103390D01*
X136552381Y-101103390D02*
X136647619Y-101151009D01*
X136647619Y-101151009D02*
X136980952Y-101151009D01*
X135504762Y-101674819D02*
X135980952Y-101674819D01*
X135980952Y-101674819D02*
X135980952Y-100674819D01*
X135171428Y-101151009D02*
X134838095Y-101151009D01*
X134695238Y-101674819D02*
X135171428Y-101674819D01*
X135171428Y-101674819D02*
X135171428Y-100674819D01*
X135171428Y-100674819D02*
X134695238Y-100674819D01*
X133552380Y-101627200D02*
X133409523Y-101674819D01*
X133409523Y-101674819D02*
X133171428Y-101674819D01*
X133171428Y-101674819D02*
X133076190Y-101627200D01*
X133076190Y-101627200D02*
X133028571Y-101579580D01*
X133028571Y-101579580D02*
X132980952Y-101484342D01*
X132980952Y-101484342D02*
X132980952Y-101389104D01*
X132980952Y-101389104D02*
X133028571Y-101293866D01*
X133028571Y-101293866D02*
X133076190Y-101246247D01*
X133076190Y-101246247D02*
X133171428Y-101198628D01*
X133171428Y-101198628D02*
X133361904Y-101151009D01*
X133361904Y-101151009D02*
X133457142Y-101103390D01*
X133457142Y-101103390D02*
X133504761Y-101055771D01*
X133504761Y-101055771D02*
X133552380Y-100960533D01*
X133552380Y-100960533D02*
X133552380Y-100865295D01*
X133552380Y-100865295D02*
X133504761Y-100770057D01*
X133504761Y-100770057D02*
X133457142Y-100722438D01*
X133457142Y-100722438D02*
X133361904Y-100674819D01*
X133361904Y-100674819D02*
X133123809Y-100674819D01*
X133123809Y-100674819D02*
X132980952Y-100722438D01*
X132552380Y-101674819D02*
X132552380Y-100674819D01*
X132552380Y-101151009D02*
X131980952Y-101151009D01*
X131980952Y-101674819D02*
X131980952Y-100674819D01*
X131552380Y-101389104D02*
X131076190Y-101389104D01*
X131647618Y-101674819D02*
X131314285Y-100674819D01*
X131314285Y-100674819D02*
X130980952Y-101674819D01*
X130742856Y-100674819D02*
X130504761Y-101674819D01*
X130504761Y-101674819D02*
X130314285Y-100960533D01*
X130314285Y-100960533D02*
X130123809Y-101674819D01*
X130123809Y-101674819D02*
X129885714Y-100674819D01*
X129552380Y-101389104D02*
X129076190Y-101389104D01*
X129647618Y-101674819D02*
X129314285Y-100674819D01*
X129314285Y-100674819D02*
X128980952Y-101674819D01*
X128076190Y-101674819D02*
X128409523Y-101198628D01*
X128647618Y-101674819D02*
X128647618Y-100674819D01*
X128647618Y-100674819D02*
X128266666Y-100674819D01*
X128266666Y-100674819D02*
X128171428Y-100722438D01*
X128171428Y-100722438D02*
X128123809Y-100770057D01*
X128123809Y-100770057D02*
X128076190Y-100865295D01*
X128076190Y-100865295D02*
X128076190Y-101008152D01*
X128076190Y-101008152D02*
X128123809Y-101103390D01*
X128123809Y-101103390D02*
X128171428Y-101151009D01*
X128171428Y-101151009D02*
X128266666Y-101198628D01*
X128266666Y-101198628D02*
X128647618Y-101198628D01*
X127647618Y-101674819D02*
X127647618Y-100674819D01*
X127647618Y-100674819D02*
X127314285Y-101389104D01*
X127314285Y-101389104D02*
X126980952Y-100674819D01*
X126980952Y-100674819D02*
X126980952Y-101674819D01*
X126552380Y-101389104D02*
X126076190Y-101389104D01*
X126647618Y-101674819D02*
X126314285Y-100674819D01*
X126314285Y-100674819D02*
X125980952Y-101674819D01*
X153455676Y-109706777D02*
X152916928Y-110245525D01*
X153455676Y-110245525D02*
X152916928Y-109706777D01*
X154841605Y-108122858D02*
X154302857Y-108661606D01*
X148844819Y-85063333D02*
X148368628Y-84730000D01*
X148844819Y-84491905D02*
X147844819Y-84491905D01*
X147844819Y-84491905D02*
X147844819Y-84872857D01*
X147844819Y-84872857D02*
X147892438Y-84968095D01*
X147892438Y-84968095D02*
X147940057Y-85015714D01*
X147940057Y-85015714D02*
X148035295Y-85063333D01*
X148035295Y-85063333D02*
X148178152Y-85063333D01*
X148178152Y-85063333D02*
X148273390Y-85015714D01*
X148273390Y-85015714D02*
X148321009Y-84968095D01*
X148321009Y-84968095D02*
X148368628Y-84872857D01*
X148368628Y-84872857D02*
X148368628Y-84491905D01*
X147844819Y-85396667D02*
X148844819Y-86063333D01*
X147844819Y-86063333D02*
X148844819Y-85396667D01*
X147864819Y-82318095D02*
X147864819Y-82889523D01*
X148864819Y-82603809D02*
X147864819Y-82603809D01*
X147864819Y-83127619D02*
X148864819Y-83794285D01*
X147864819Y-83794285D02*
X148864819Y-83127619D01*
X147972438Y-87018095D02*
X147924819Y-86922857D01*
X147924819Y-86922857D02*
X147924819Y-86780000D01*
X147924819Y-86780000D02*
X147972438Y-86637143D01*
X147972438Y-86637143D02*
X148067676Y-86541905D01*
X148067676Y-86541905D02*
X148162914Y-86494286D01*
X148162914Y-86494286D02*
X148353390Y-86446667D01*
X148353390Y-86446667D02*
X148496247Y-86446667D01*
X148496247Y-86446667D02*
X148686723Y-86494286D01*
X148686723Y-86494286D02*
X148781961Y-86541905D01*
X148781961Y-86541905D02*
X148877200Y-86637143D01*
X148877200Y-86637143D02*
X148924819Y-86780000D01*
X148924819Y-86780000D02*
X148924819Y-86875238D01*
X148924819Y-86875238D02*
X148877200Y-87018095D01*
X148877200Y-87018095D02*
X148829580Y-87065714D01*
X148829580Y-87065714D02*
X148496247Y-87065714D01*
X148496247Y-87065714D02*
X148496247Y-86875238D01*
X148924819Y-87494286D02*
X147924819Y-87494286D01*
X147924819Y-87494286D02*
X148924819Y-88065714D01*
X148924819Y-88065714D02*
X147924819Y-88065714D01*
X148924819Y-88541905D02*
X147924819Y-88541905D01*
X147924819Y-88541905D02*
X147924819Y-88780000D01*
X147924819Y-88780000D02*
X147972438Y-88922857D01*
X147972438Y-88922857D02*
X148067676Y-89018095D01*
X148067676Y-89018095D02*
X148162914Y-89065714D01*
X148162914Y-89065714D02*
X148353390Y-89113333D01*
X148353390Y-89113333D02*
X148496247Y-89113333D01*
X148496247Y-89113333D02*
X148686723Y-89065714D01*
X148686723Y-89065714D02*
X148781961Y-89018095D01*
X148781961Y-89018095D02*
X148877200Y-88922857D01*
X148877200Y-88922857D02*
X148924819Y-88780000D01*
X148924819Y-88780000D02*
X148924819Y-88541905D01*
X148084819Y-89523810D02*
X148084819Y-90142857D01*
X148084819Y-90142857D02*
X148465771Y-89809524D01*
X148465771Y-89809524D02*
X148465771Y-89952381D01*
X148465771Y-89952381D02*
X148513390Y-90047619D01*
X148513390Y-90047619D02*
X148561009Y-90095238D01*
X148561009Y-90095238D02*
X148656247Y-90142857D01*
X148656247Y-90142857D02*
X148894342Y-90142857D01*
X148894342Y-90142857D02*
X148989580Y-90095238D01*
X148989580Y-90095238D02*
X149037200Y-90047619D01*
X149037200Y-90047619D02*
X149084819Y-89952381D01*
X149084819Y-89952381D02*
X149084819Y-89666667D01*
X149084819Y-89666667D02*
X149037200Y-89571429D01*
X149037200Y-89571429D02*
X148989580Y-89523810D01*
X148989580Y-90571429D02*
X149037200Y-90619048D01*
X149037200Y-90619048D02*
X149084819Y-90571429D01*
X149084819Y-90571429D02*
X149037200Y-90523810D01*
X149037200Y-90523810D02*
X148989580Y-90571429D01*
X148989580Y-90571429D02*
X149084819Y-90571429D01*
X148084819Y-90952381D02*
X148084819Y-91571428D01*
X148084819Y-91571428D02*
X148465771Y-91238095D01*
X148465771Y-91238095D02*
X148465771Y-91380952D01*
X148465771Y-91380952D02*
X148513390Y-91476190D01*
X148513390Y-91476190D02*
X148561009Y-91523809D01*
X148561009Y-91523809D02*
X148656247Y-91571428D01*
X148656247Y-91571428D02*
X148894342Y-91571428D01*
X148894342Y-91571428D02*
X148989580Y-91523809D01*
X148989580Y-91523809D02*
X149037200Y-91476190D01*
X149037200Y-91476190D02*
X149084819Y-91380952D01*
X149084819Y-91380952D02*
X149084819Y-91095238D01*
X149084819Y-91095238D02*
X149037200Y-91000000D01*
X149037200Y-91000000D02*
X148989580Y-90952381D01*
X148084819Y-91857143D02*
X149084819Y-92190476D01*
X149084819Y-92190476D02*
X148084819Y-92523809D01*
X150473866Y-94209048D02*
X150473866Y-94970953D01*
X150613866Y-96309048D02*
X150613866Y-97070953D01*
X150994819Y-96690000D02*
X150232914Y-96690000D01*
X113282858Y-107878394D02*
X113821606Y-108417142D01*
X114866777Y-109264323D02*
X115405525Y-109803071D01*
X115405525Y-109264323D02*
X114866777Y-109803071D01*
X152602858Y-81418394D02*
X153141606Y-81957142D01*
X154186777Y-82804323D02*
X154725525Y-83343071D01*
X154725525Y-82804323D02*
X154186777Y-83343071D01*
X112918394Y-83197141D02*
X113457142Y-82658393D01*
X114304323Y-81613222D02*
X114843071Y-81074474D01*
X114304323Y-81074474D02*
X114843071Y-81613222D01*
X147254874Y-86189338D02*
X146716126Y-85650590D01*
X146581440Y-85111842D02*
X145840661Y-84775124D01*
X145840661Y-84775124D02*
X146177379Y-85515903D01*
X146624819Y-96156902D02*
X145624819Y-96156902D01*
X145624819Y-96156902D02*
X145624819Y-96394997D01*
X145624819Y-96394997D02*
X145672438Y-96537854D01*
X145672438Y-96537854D02*
X145767676Y-96633092D01*
X145767676Y-96633092D02*
X145862914Y-96680711D01*
X145862914Y-96680711D02*
X146053390Y-96728330D01*
X146053390Y-96728330D02*
X146196247Y-96728330D01*
X146196247Y-96728330D02*
X146386723Y-96680711D01*
X146386723Y-96680711D02*
X146481961Y-96633092D01*
X146481961Y-96633092D02*
X146577200Y-96537854D01*
X146577200Y-96537854D02*
X146624819Y-96394997D01*
X146624819Y-96394997D02*
X146624819Y-96156902D01*
X145624819Y-97061664D02*
X145624819Y-97728330D01*
X145624819Y-97728330D02*
X146624819Y-97299759D01*
X119484819Y-92028333D02*
X119008628Y-91695000D01*
X119484819Y-91456905D02*
X118484819Y-91456905D01*
X118484819Y-91456905D02*
X118484819Y-91837857D01*
X118484819Y-91837857D02*
X118532438Y-91933095D01*
X118532438Y-91933095D02*
X118580057Y-91980714D01*
X118580057Y-91980714D02*
X118675295Y-92028333D01*
X118675295Y-92028333D02*
X118818152Y-92028333D01*
X118818152Y-92028333D02*
X118913390Y-91980714D01*
X118913390Y-91980714D02*
X118961009Y-91933095D01*
X118961009Y-91933095D02*
X119008628Y-91837857D01*
X119008628Y-91837857D02*
X119008628Y-91456905D01*
X118484819Y-92361667D02*
X118484819Y-92980714D01*
X118484819Y-92980714D02*
X118865771Y-92647381D01*
X118865771Y-92647381D02*
X118865771Y-92790238D01*
X118865771Y-92790238D02*
X118913390Y-92885476D01*
X118913390Y-92885476D02*
X118961009Y-92933095D01*
X118961009Y-92933095D02*
X119056247Y-92980714D01*
X119056247Y-92980714D02*
X119294342Y-92980714D01*
X119294342Y-92980714D02*
X119389580Y-92933095D01*
X119389580Y-92933095D02*
X119437200Y-92885476D01*
X119437200Y-92885476D02*
X119484819Y-92790238D01*
X119484819Y-92790238D02*
X119484819Y-92504524D01*
X119484819Y-92504524D02*
X119437200Y-92409286D01*
X119437200Y-92409286D02*
X119389580Y-92361667D01*
X143794819Y-92819642D02*
X143318628Y-92486309D01*
X143794819Y-92248214D02*
X142794819Y-92248214D01*
X142794819Y-92248214D02*
X142794819Y-92629166D01*
X142794819Y-92629166D02*
X142842438Y-92724404D01*
X142842438Y-92724404D02*
X142890057Y-92772023D01*
X142890057Y-92772023D02*
X142985295Y-92819642D01*
X142985295Y-92819642D02*
X143128152Y-92819642D01*
X143128152Y-92819642D02*
X143223390Y-92772023D01*
X143223390Y-92772023D02*
X143271009Y-92724404D01*
X143271009Y-92724404D02*
X143318628Y-92629166D01*
X143318628Y-92629166D02*
X143318628Y-92248214D01*
X143794819Y-93772023D02*
X143794819Y-93200595D01*
X143794819Y-93486309D02*
X142794819Y-93486309D01*
X142794819Y-93486309D02*
X142937676Y-93391071D01*
X142937676Y-93391071D02*
X143032914Y-93295833D01*
X143032914Y-93295833D02*
X143080533Y-93200595D01*
X143794819Y-94248214D02*
X143794819Y-94438690D01*
X143794819Y-94438690D02*
X143747200Y-94533928D01*
X143747200Y-94533928D02*
X143699580Y-94581547D01*
X143699580Y-94581547D02*
X143556723Y-94676785D01*
X143556723Y-94676785D02*
X143366247Y-94724404D01*
X143366247Y-94724404D02*
X142985295Y-94724404D01*
X142985295Y-94724404D02*
X142890057Y-94676785D01*
X142890057Y-94676785D02*
X142842438Y-94629166D01*
X142842438Y-94629166D02*
X142794819Y-94533928D01*
X142794819Y-94533928D02*
X142794819Y-94343452D01*
X142794819Y-94343452D02*
X142842438Y-94248214D01*
X142842438Y-94248214D02*
X142890057Y-94200595D01*
X142890057Y-94200595D02*
X142985295Y-94152976D01*
X142985295Y-94152976D02*
X143223390Y-94152976D01*
X143223390Y-94152976D02*
X143318628Y-94200595D01*
X143318628Y-94200595D02*
X143366247Y-94248214D01*
X143366247Y-94248214D02*
X143413866Y-94343452D01*
X143413866Y-94343452D02*
X143413866Y-94533928D01*
X143413866Y-94533928D02*
X143366247Y-94629166D01*
X143366247Y-94629166D02*
X143318628Y-94676785D01*
X143318628Y-94676785D02*
X143223390Y-94724404D01*
X122319819Y-94869405D02*
X121319819Y-94869405D01*
X121319819Y-94869405D02*
X121319819Y-95107500D01*
X121319819Y-95107500D02*
X121367438Y-95250357D01*
X121367438Y-95250357D02*
X121462676Y-95345595D01*
X121462676Y-95345595D02*
X121557914Y-95393214D01*
X121557914Y-95393214D02*
X121748390Y-95440833D01*
X121748390Y-95440833D02*
X121891247Y-95440833D01*
X121891247Y-95440833D02*
X122081723Y-95393214D01*
X122081723Y-95393214D02*
X122176961Y-95345595D01*
X122176961Y-95345595D02*
X122272200Y-95250357D01*
X122272200Y-95250357D02*
X122319819Y-95107500D01*
X122319819Y-95107500D02*
X122319819Y-94869405D01*
X121319819Y-96345595D02*
X121319819Y-95869405D01*
X121319819Y-95869405D02*
X121796009Y-95821786D01*
X121796009Y-95821786D02*
X121748390Y-95869405D01*
X121748390Y-95869405D02*
X121700771Y-95964643D01*
X121700771Y-95964643D02*
X121700771Y-96202738D01*
X121700771Y-96202738D02*
X121748390Y-96297976D01*
X121748390Y-96297976D02*
X121796009Y-96345595D01*
X121796009Y-96345595D02*
X121891247Y-96393214D01*
X121891247Y-96393214D02*
X122129342Y-96393214D01*
X122129342Y-96393214D02*
X122224580Y-96345595D01*
X122224580Y-96345595D02*
X122272200Y-96297976D01*
X122272200Y-96297976D02*
X122319819Y-96202738D01*
X122319819Y-96202738D02*
X122319819Y-95964643D01*
X122319819Y-95964643D02*
X122272200Y-95869405D01*
X122272200Y-95869405D02*
X122224580Y-95821786D01*
%TO.C,D7*%
D11*
X144005000Y-98554997D02*
X144005000Y-96094997D01*
X145475000Y-96094997D02*
X145475000Y-98554997D01*
X145475000Y-98554997D02*
X144005000Y-98554997D01*
%TO.C,R3*%
X119937500Y-91940276D02*
X119937500Y-92449724D01*
X120982500Y-91940276D02*
X120982500Y-92449724D01*
%TO.C,R19*%
X144247500Y-93207776D02*
X144247500Y-93717224D01*
X145292500Y-93207776D02*
X145292500Y-93717224D01*
%TO.C,D5*%
X119700000Y-97267500D02*
X119700000Y-94807500D01*
X121170000Y-94807500D02*
X121170000Y-97267500D01*
X121170000Y-97267500D02*
X119700000Y-97267500D01*
%TD*%
M02*
