%TF.GenerationSoftware,KiCad,Pcbnew,10.0.0*%
%TF.CreationDate,2026-04-21T22:51:41+03:00*%
%TF.ProjectId,Dobule shawarma PCB,446f6275-6c65-4207-9368-617761726d61,rev?*%
%TF.SameCoordinates,Original*%
%TF.FileFunction,Soldermask,Top*%
%TF.FilePolarity,Negative*%
%FSLAX46Y46*%
G04 Gerber Fmt 4.6, Leading zero omitted, Abs format (unit mm)*
G04 Created by KiCad (PCBNEW 10.0.0) date 2026-04-21 22:51:41*
%MOMM*%
%LPD*%
G01*
G04 APERTURE LIST*
G04 APERTURE END LIST*
G36*
X151725527Y-108101318D02*
G01*
X151852306Y-108153831D01*
X151966403Y-108230069D01*
X152063435Y-108327101D01*
X152139673Y-108441198D01*
X152192186Y-108567977D01*
X152218957Y-108702564D01*
X152218957Y-108839788D01*
X152192186Y-108974375D01*
X152139673Y-109101154D01*
X152063435Y-109215251D01*
X151966403Y-109312283D01*
X151852306Y-109388521D01*
X151725527Y-109441034D01*
X151590940Y-109467805D01*
X151453716Y-109467805D01*
X151319129Y-109441034D01*
X151192350Y-109388521D01*
X151078253Y-109312283D01*
X150981221Y-109215251D01*
X150904983Y-109101154D01*
X150852470Y-108974375D01*
X150825699Y-108839788D01*
X150825699Y-108702564D01*
X150852470Y-108567977D01*
X150904983Y-108441198D01*
X150981221Y-108327101D01*
X151078253Y-108230069D01*
X151192350Y-108153831D01*
X151319129Y-108101318D01*
X151453716Y-108074547D01*
X151590940Y-108074547D01*
X151725527Y-108101318D01*
G37*
G36*
X116503489Y-108090432D02*
G01*
X116630268Y-108142945D01*
X116744365Y-108219183D01*
X116841397Y-108316215D01*
X116917635Y-108430312D01*
X116970148Y-108557091D01*
X116996919Y-108691678D01*
X116996919Y-108828902D01*
X116970148Y-108963489D01*
X116917635Y-109090268D01*
X116841397Y-109204365D01*
X116744365Y-109301397D01*
X116630268Y-109377635D01*
X116503489Y-109430148D01*
X116368902Y-109456919D01*
X116231678Y-109456919D01*
X116097091Y-109430148D01*
X115970312Y-109377635D01*
X115856215Y-109301397D01*
X115759183Y-109204365D01*
X115682945Y-109090268D01*
X115630432Y-108963489D01*
X115603661Y-108828902D01*
X115603661Y-108691678D01*
X115630432Y-108557091D01*
X115682945Y-108430312D01*
X115759183Y-108316215D01*
X115856215Y-108219183D01*
X115970312Y-108142945D01*
X116097091Y-108090432D01*
X116231678Y-108063661D01*
X116368902Y-108063661D01*
X116503489Y-108090432D01*
G37*
G36*
X119082070Y-106980056D02*
G01*
X119100869Y-106980056D01*
X119120708Y-106987741D01*
X119148278Y-106993226D01*
X119166786Y-107005593D01*
X119183645Y-107012124D01*
X119221835Y-107042374D01*
X119225329Y-107044709D01*
X119561205Y-107380585D01*
X119563537Y-107384075D01*
X119593789Y-107422269D01*
X119600319Y-107439124D01*
X119612688Y-107457636D01*
X119618172Y-107485206D01*
X119625858Y-107505045D01*
X119625858Y-107523844D01*
X119630767Y-107548523D01*
X119625858Y-107573201D01*
X119625858Y-107592000D01*
X119618172Y-107611837D01*
X119612688Y-107639410D01*
X119600318Y-107657922D01*
X119593789Y-107674777D01*
X119563544Y-107712959D01*
X119561205Y-107716461D01*
X119136941Y-108140725D01*
X119133443Y-108143061D01*
X119095256Y-108173309D01*
X119078402Y-108179838D01*
X119059890Y-108192208D01*
X119032318Y-108197692D01*
X119012481Y-108205378D01*
X118993682Y-108205378D01*
X118969003Y-108210287D01*
X118944324Y-108205378D01*
X118925525Y-108205378D01*
X118905686Y-108197692D01*
X118878116Y-108192208D01*
X118859605Y-108179839D01*
X118842748Y-108173309D01*
X118804560Y-108143060D01*
X118801065Y-108140725D01*
X118465189Y-107804849D01*
X118462857Y-107801359D01*
X118432604Y-107763164D01*
X118426073Y-107746308D01*
X118413706Y-107727798D01*
X118408221Y-107700226D01*
X118400536Y-107680388D01*
X118400536Y-107661589D01*
X118395627Y-107636911D01*
X118400536Y-107612232D01*
X118400536Y-107593433D01*
X118408222Y-107573593D01*
X118413706Y-107546024D01*
X118426072Y-107527516D01*
X118432604Y-107510656D01*
X118462858Y-107472460D01*
X118465189Y-107468973D01*
X118651602Y-107282560D01*
X118887373Y-107046788D01*
X118887377Y-107046784D01*
X118889453Y-107044709D01*
X118892935Y-107042381D01*
X118931137Y-107012124D01*
X118947995Y-107005593D01*
X118966504Y-106993226D01*
X118994073Y-106987741D01*
X119013913Y-106980056D01*
X119032712Y-106980056D01*
X119057391Y-106975147D01*
X119082070Y-106980056D01*
G37*
G36*
X149141879Y-106625705D02*
G01*
X149160678Y-106625705D01*
X149180517Y-106633390D01*
X149208087Y-106638875D01*
X149226595Y-106651242D01*
X149243454Y-106657773D01*
X149281644Y-106688023D01*
X149285138Y-106690358D01*
X149709402Y-107114622D01*
X149711734Y-107118112D01*
X149741986Y-107156306D01*
X149748516Y-107173161D01*
X149760885Y-107191673D01*
X149766369Y-107219243D01*
X149774055Y-107239082D01*
X149774055Y-107257881D01*
X149778964Y-107282560D01*
X149774055Y-107307238D01*
X149774055Y-107326037D01*
X149766369Y-107345874D01*
X149760885Y-107373447D01*
X149748515Y-107391959D01*
X149741986Y-107408814D01*
X149711741Y-107446996D01*
X149709402Y-107450498D01*
X149373526Y-107786374D01*
X149370028Y-107788710D01*
X149331841Y-107818958D01*
X149314987Y-107825487D01*
X149296475Y-107837857D01*
X149268903Y-107843341D01*
X149249066Y-107851027D01*
X149230267Y-107851027D01*
X149205588Y-107855936D01*
X149180909Y-107851027D01*
X149162110Y-107851027D01*
X149142271Y-107843341D01*
X149114701Y-107837857D01*
X149096190Y-107825488D01*
X149079333Y-107818958D01*
X149041145Y-107788709D01*
X149037650Y-107786374D01*
X148613386Y-107362110D01*
X148611054Y-107358620D01*
X148580801Y-107320425D01*
X148574270Y-107303569D01*
X148561903Y-107285059D01*
X148556418Y-107257487D01*
X148548733Y-107237649D01*
X148548733Y-107218850D01*
X148543824Y-107194172D01*
X148548733Y-107169493D01*
X148548733Y-107150694D01*
X148556419Y-107130854D01*
X148561903Y-107103285D01*
X148574269Y-107084777D01*
X148580801Y-107067917D01*
X148611055Y-107029721D01*
X148613386Y-107026234D01*
X148743993Y-106895627D01*
X148947182Y-106692437D01*
X148947186Y-106692433D01*
X148949262Y-106690358D01*
X148952744Y-106688030D01*
X148990946Y-106657773D01*
X149007804Y-106651242D01*
X149026313Y-106638875D01*
X149053882Y-106633390D01*
X149073722Y-106625705D01*
X149092521Y-106625705D01*
X149117200Y-106620796D01*
X149141879Y-106625705D01*
G37*
G36*
X153521578Y-106305267D02*
G01*
X153648357Y-106357780D01*
X153762454Y-106434018D01*
X153859486Y-106531050D01*
X153935724Y-106645147D01*
X153988237Y-106771926D01*
X154015008Y-106906513D01*
X154015008Y-107043737D01*
X153988237Y-107178324D01*
X153935724Y-107305103D01*
X153859486Y-107419200D01*
X153762454Y-107516232D01*
X153648357Y-107592470D01*
X153521578Y-107644983D01*
X153386991Y-107671754D01*
X153249767Y-107671754D01*
X153115180Y-107644983D01*
X152988401Y-107592470D01*
X152874304Y-107516232D01*
X152777272Y-107419200D01*
X152701034Y-107305103D01*
X152648521Y-107178324D01*
X152621750Y-107043737D01*
X152621750Y-106906513D01*
X152648521Y-106771926D01*
X152701034Y-106645147D01*
X152777272Y-106531050D01*
X152874304Y-106434018D01*
X152988401Y-106357780D01*
X153115180Y-106305267D01*
X153249767Y-106278496D01*
X153386991Y-106278496D01*
X153521578Y-106305267D01*
G37*
G36*
X114707438Y-106294381D02*
G01*
X114834217Y-106346894D01*
X114948314Y-106423132D01*
X115045346Y-106520164D01*
X115121584Y-106634261D01*
X115174097Y-106761040D01*
X115200868Y-106895627D01*
X115200868Y-107032851D01*
X115174097Y-107167438D01*
X115121584Y-107294217D01*
X115045346Y-107408314D01*
X114948314Y-107505346D01*
X114834217Y-107581584D01*
X114707438Y-107634097D01*
X114572851Y-107660868D01*
X114435627Y-107660868D01*
X114301040Y-107634097D01*
X114174261Y-107581584D01*
X114060164Y-107505346D01*
X113963132Y-107408314D01*
X113886894Y-107294217D01*
X113834381Y-107167438D01*
X113807610Y-107032851D01*
X113807610Y-106895627D01*
X113834381Y-106761040D01*
X113886894Y-106634261D01*
X113963132Y-106520164D01*
X114060164Y-106423132D01*
X114174261Y-106346894D01*
X114301040Y-106294381D01*
X114435627Y-106267610D01*
X114572851Y-106267610D01*
X114707438Y-106294381D01*
G37*
G36*
X120301830Y-105760296D02*
G01*
X120320629Y-105760296D01*
X120340468Y-105767981D01*
X120368038Y-105773466D01*
X120386546Y-105785833D01*
X120403405Y-105792364D01*
X120441595Y-105822614D01*
X120445089Y-105824949D01*
X120780965Y-106160825D01*
X120783297Y-106164315D01*
X120813549Y-106202509D01*
X120820079Y-106219364D01*
X120832448Y-106237876D01*
X120837932Y-106265446D01*
X120845618Y-106285285D01*
X120845618Y-106304084D01*
X120850527Y-106328763D01*
X120845618Y-106353441D01*
X120845618Y-106372240D01*
X120837932Y-106392077D01*
X120832448Y-106419650D01*
X120820078Y-106438162D01*
X120813549Y-106455017D01*
X120783304Y-106493199D01*
X120780965Y-106496701D01*
X120356701Y-106920965D01*
X120353203Y-106923301D01*
X120315016Y-106953549D01*
X120298162Y-106960078D01*
X120279650Y-106972448D01*
X120252078Y-106977932D01*
X120232241Y-106985618D01*
X120213442Y-106985618D01*
X120188763Y-106990527D01*
X120164084Y-106985618D01*
X120145285Y-106985618D01*
X120125446Y-106977932D01*
X120097876Y-106972448D01*
X120079365Y-106960079D01*
X120062508Y-106953549D01*
X120024320Y-106923300D01*
X120020825Y-106920965D01*
X119684949Y-106585089D01*
X119682617Y-106581599D01*
X119652364Y-106543404D01*
X119645833Y-106526548D01*
X119633466Y-106508038D01*
X119627981Y-106480466D01*
X119620296Y-106460628D01*
X119620296Y-106441829D01*
X119615387Y-106417151D01*
X119620296Y-106392472D01*
X119620296Y-106373673D01*
X119627982Y-106353833D01*
X119633466Y-106326264D01*
X119645832Y-106307756D01*
X119652364Y-106290896D01*
X119682618Y-106252700D01*
X119684949Y-106249213D01*
X119894078Y-106040084D01*
X120107133Y-105827028D01*
X120107137Y-105827024D01*
X120109213Y-105824949D01*
X120112695Y-105822621D01*
X120150897Y-105792364D01*
X120167755Y-105785833D01*
X120186264Y-105773466D01*
X120213833Y-105767981D01*
X120233673Y-105760296D01*
X120252472Y-105760296D01*
X120277151Y-105755387D01*
X120301830Y-105760296D01*
G37*
G36*
X175339199Y-102392272D02*
G01*
X175617167Y-102466754D01*
X175883035Y-102576880D01*
X176132255Y-102720767D01*
X176360561Y-102895952D01*
X176564048Y-103099439D01*
X176739233Y-103327745D01*
X176883120Y-103576965D01*
X176993246Y-103842833D01*
X177067728Y-104120801D01*
X177105290Y-104406113D01*
X177105290Y-104693887D01*
X177067728Y-104979199D01*
X176993246Y-105257167D01*
X176883120Y-105523035D01*
X176739233Y-105772255D01*
X176564048Y-106000561D01*
X176360561Y-106204048D01*
X176132255Y-106379233D01*
X175883035Y-106523120D01*
X175617167Y-106633246D01*
X175339199Y-106707728D01*
X175053887Y-106745290D01*
X174766113Y-106745290D01*
X174480801Y-106707728D01*
X174202833Y-106633246D01*
X173936965Y-106523120D01*
X173687745Y-106379233D01*
X173459439Y-106204048D01*
X173255952Y-106000561D01*
X173080767Y-105772255D01*
X172936880Y-105523035D01*
X172826754Y-105257167D01*
X172752272Y-104979199D01*
X172714710Y-104693887D01*
X172714710Y-104406113D01*
X172752272Y-104120801D01*
X172826754Y-103842833D01*
X172936880Y-103576965D01*
X173080767Y-103327745D01*
X173255952Y-103099439D01*
X173459439Y-102895952D01*
X173687745Y-102720767D01*
X173936965Y-102576880D01*
X174202833Y-102466754D01*
X174480801Y-102392272D01*
X174766113Y-102354710D01*
X175053887Y-102354710D01*
X175339199Y-102392272D01*
G37*
G36*
X147922119Y-105405945D02*
G01*
X147940918Y-105405945D01*
X147960757Y-105413630D01*
X147988327Y-105419115D01*
X148006835Y-105431482D01*
X148023694Y-105438013D01*
X148061884Y-105468263D01*
X148065378Y-105470598D01*
X148489642Y-105894862D01*
X148491974Y-105898352D01*
X148522226Y-105936546D01*
X148528756Y-105953401D01*
X148541125Y-105971913D01*
X148546609Y-105999483D01*
X148554295Y-106019322D01*
X148554295Y-106038121D01*
X148559204Y-106062800D01*
X148554295Y-106087478D01*
X148554295Y-106106277D01*
X148546609Y-106126114D01*
X148541125Y-106153687D01*
X148528755Y-106172199D01*
X148522226Y-106189054D01*
X148491981Y-106227236D01*
X148489642Y-106230738D01*
X148153766Y-106566614D01*
X148150268Y-106568950D01*
X148112081Y-106599198D01*
X148095227Y-106605727D01*
X148076715Y-106618097D01*
X148049143Y-106623581D01*
X148029306Y-106631267D01*
X148010507Y-106631267D01*
X147985828Y-106636176D01*
X147961149Y-106631267D01*
X147942350Y-106631267D01*
X147922511Y-106623581D01*
X147894941Y-106618097D01*
X147876430Y-106605728D01*
X147859573Y-106599198D01*
X147821385Y-106568949D01*
X147817890Y-106566614D01*
X147393626Y-106142350D01*
X147391294Y-106138860D01*
X147361041Y-106100665D01*
X147354510Y-106083809D01*
X147342143Y-106065299D01*
X147336658Y-106037727D01*
X147328973Y-106017889D01*
X147328973Y-105999090D01*
X147324064Y-105974412D01*
X147328973Y-105949733D01*
X147328973Y-105930934D01*
X147336659Y-105911094D01*
X147342143Y-105883525D01*
X147354509Y-105865017D01*
X147361041Y-105848157D01*
X147391295Y-105809961D01*
X147393626Y-105806474D01*
X147551798Y-105648302D01*
X147727422Y-105472677D01*
X147727426Y-105472673D01*
X147729502Y-105470598D01*
X147732984Y-105468270D01*
X147771186Y-105438013D01*
X147788044Y-105431482D01*
X147806553Y-105419115D01*
X147834122Y-105413630D01*
X147853962Y-105405945D01*
X147872761Y-105405945D01*
X147897440Y-105401036D01*
X147922119Y-105405945D01*
G37*
G36*
X117967346Y-105334057D02*
G01*
X118574153Y-105940863D01*
X118574155Y-105940866D01*
X118577693Y-105944404D01*
X118254404Y-106267693D01*
X117639922Y-105653211D01*
X117431760Y-105445050D01*
X117431757Y-105445046D01*
X117428221Y-105441510D01*
X117509589Y-105360142D01*
X117747969Y-105121760D01*
X117747975Y-105121755D01*
X117751510Y-105118221D01*
X117967346Y-105334057D01*
G37*
G36*
X150546376Y-105018679D02*
G01*
X150781953Y-105254255D01*
X150781955Y-105254258D01*
X150785493Y-105257796D01*
X149959310Y-106083979D01*
X149723488Y-105848157D01*
X149639560Y-105764230D01*
X149639557Y-105764226D01*
X149636021Y-105760690D01*
X149819428Y-105577283D01*
X150458663Y-104938046D01*
X150458669Y-104938041D01*
X150462204Y-104934507D01*
X150546376Y-105018679D01*
G37*
G36*
X145888281Y-104917929D02*
G01*
X145907082Y-104917929D01*
X145926924Y-104925616D01*
X145954491Y-104931100D01*
X145972997Y-104943465D01*
X145989857Y-104949997D01*
X146028048Y-104980248D01*
X146031542Y-104982583D01*
X146128794Y-105079835D01*
X146365338Y-105316378D01*
X146365341Y-105316382D01*
X146367417Y-105318458D01*
X146369744Y-105321940D01*
X146400002Y-105360142D01*
X146406533Y-105377000D01*
X146418900Y-105395509D01*
X146424383Y-105423076D01*
X146432071Y-105442918D01*
X146432071Y-105461718D01*
X146436980Y-105486396D01*
X146432071Y-105511073D01*
X146432071Y-105529873D01*
X146424384Y-105549713D01*
X146418900Y-105577283D01*
X146406532Y-105595792D01*
X146400002Y-105612649D01*
X146369756Y-105650832D01*
X146367417Y-105654334D01*
X146013864Y-106007887D01*
X146010374Y-106010218D01*
X145972179Y-106040472D01*
X145955322Y-106047002D01*
X145936813Y-106059370D01*
X145909245Y-106064853D01*
X145889404Y-106072541D01*
X145870603Y-106072541D01*
X145845926Y-106077450D01*
X145821249Y-106072541D01*
X145802448Y-106072541D01*
X145782606Y-106064853D01*
X145755039Y-106059370D01*
X145736530Y-106047003D01*
X145719672Y-106040472D01*
X145681483Y-106010222D01*
X145677988Y-106007887D01*
X145427252Y-105757151D01*
X145344191Y-105674091D01*
X145344187Y-105674086D01*
X145342113Y-105672012D01*
X145339787Y-105668530D01*
X145309527Y-105630327D01*
X145302995Y-105613467D01*
X145290630Y-105594961D01*
X145285145Y-105567393D01*
X145277459Y-105547551D01*
X145277459Y-105528751D01*
X145272550Y-105504074D01*
X145277459Y-105479396D01*
X145277459Y-105460596D01*
X145285146Y-105440752D01*
X145290630Y-105413187D01*
X145302994Y-105394681D01*
X145309527Y-105377820D01*
X145339782Y-105339623D01*
X145342113Y-105336136D01*
X145430476Y-105247773D01*
X145693586Y-104984661D01*
X145693595Y-104984653D01*
X145695666Y-104982583D01*
X145699140Y-104980261D01*
X145737350Y-104949997D01*
X145754211Y-104943464D01*
X145772717Y-104931100D01*
X145800282Y-104925616D01*
X145820126Y-104917929D01*
X145838927Y-104917929D01*
X145863604Y-104913020D01*
X145888281Y-104917929D01*
G37*
G36*
X121806834Y-104493690D02*
G01*
X121825635Y-104493690D01*
X121845477Y-104501377D01*
X121873044Y-104506861D01*
X121891550Y-104519226D01*
X121908410Y-104525758D01*
X121946601Y-104556009D01*
X121950095Y-104558344D01*
X122057418Y-104665667D01*
X122301569Y-104909817D01*
X122301572Y-104909821D01*
X122303648Y-104911897D01*
X122305975Y-104915379D01*
X122336233Y-104953581D01*
X122342764Y-104970439D01*
X122355131Y-104988948D01*
X122360614Y-105016515D01*
X122368302Y-105036357D01*
X122368302Y-105055157D01*
X122373211Y-105079835D01*
X122368302Y-105104512D01*
X122368302Y-105123312D01*
X122360615Y-105143152D01*
X122355131Y-105170722D01*
X122342763Y-105189231D01*
X122336233Y-105206088D01*
X122305987Y-105244271D01*
X122303648Y-105247773D01*
X121967773Y-105583648D01*
X121964283Y-105585979D01*
X121926088Y-105616233D01*
X121909231Y-105622763D01*
X121890722Y-105635131D01*
X121863154Y-105640614D01*
X121843313Y-105648302D01*
X121824512Y-105648302D01*
X121799835Y-105653211D01*
X121775158Y-105648302D01*
X121756357Y-105648302D01*
X121736515Y-105640614D01*
X121708948Y-105635131D01*
X121690439Y-105622764D01*
X121673581Y-105616233D01*
X121635392Y-105585983D01*
X121631897Y-105583648D01*
X121382306Y-105334057D01*
X121280422Y-105232174D01*
X121280418Y-105232169D01*
X121278344Y-105230095D01*
X121276018Y-105226613D01*
X121245758Y-105188410D01*
X121239226Y-105171550D01*
X121226861Y-105153044D01*
X121221376Y-105125476D01*
X121213690Y-105105634D01*
X121213690Y-105086834D01*
X121208781Y-105062157D01*
X121213690Y-105037479D01*
X121213690Y-105018679D01*
X121221377Y-104998835D01*
X121226861Y-104971270D01*
X121239225Y-104952764D01*
X121245758Y-104935903D01*
X121276013Y-104897706D01*
X121278344Y-104894219D01*
X121344889Y-104827674D01*
X121612139Y-104560422D01*
X121612148Y-104560414D01*
X121614219Y-104558344D01*
X121617693Y-104556022D01*
X121655903Y-104525758D01*
X121672764Y-104519225D01*
X121691270Y-104506861D01*
X121718835Y-104501377D01*
X121738679Y-104493690D01*
X121757480Y-104493690D01*
X121782157Y-104488781D01*
X121806834Y-104493690D01*
G37*
G36*
X147178751Y-103627459D02*
G01*
X147197552Y-103627459D01*
X147217394Y-103635146D01*
X147244961Y-103640630D01*
X147263467Y-103652995D01*
X147280327Y-103659527D01*
X147318518Y-103689778D01*
X147322012Y-103692113D01*
X147419264Y-103789365D01*
X147655808Y-104025908D01*
X147655811Y-104025912D01*
X147657887Y-104027988D01*
X147660214Y-104031470D01*
X147690472Y-104069672D01*
X147697003Y-104086530D01*
X147709370Y-104105039D01*
X147714853Y-104132606D01*
X147722541Y-104152448D01*
X147722541Y-104171248D01*
X147727450Y-104195926D01*
X147722541Y-104220603D01*
X147722541Y-104239403D01*
X147714854Y-104259243D01*
X147709370Y-104286813D01*
X147697002Y-104305322D01*
X147690472Y-104322179D01*
X147660226Y-104360362D01*
X147657887Y-104363864D01*
X147304334Y-104717417D01*
X147300844Y-104719748D01*
X147262649Y-104750002D01*
X147245792Y-104756532D01*
X147227283Y-104768900D01*
X147199715Y-104774383D01*
X147179874Y-104782071D01*
X147161073Y-104782071D01*
X147136396Y-104786980D01*
X147111719Y-104782071D01*
X147092918Y-104782071D01*
X147073076Y-104774383D01*
X147045509Y-104768900D01*
X147027000Y-104756533D01*
X147010142Y-104750002D01*
X146971953Y-104719752D01*
X146968458Y-104717417D01*
X146732994Y-104481953D01*
X146634661Y-104383621D01*
X146634657Y-104383616D01*
X146632583Y-104381542D01*
X146630257Y-104378060D01*
X146599997Y-104339857D01*
X146593465Y-104322997D01*
X146581100Y-104304491D01*
X146575615Y-104276923D01*
X146567929Y-104257081D01*
X146567929Y-104238281D01*
X146563020Y-104213604D01*
X146567929Y-104188926D01*
X146567929Y-104170126D01*
X146575616Y-104150282D01*
X146581100Y-104122717D01*
X146593464Y-104104211D01*
X146599997Y-104087350D01*
X146630252Y-104049153D01*
X146632583Y-104045666D01*
X146720946Y-103957303D01*
X146984056Y-103694191D01*
X146984065Y-103694183D01*
X146986136Y-103692113D01*
X146989610Y-103689791D01*
X147027820Y-103659527D01*
X147044681Y-103652994D01*
X147063187Y-103640630D01*
X147090752Y-103635146D01*
X147110596Y-103627459D01*
X147129397Y-103627459D01*
X147154074Y-103622550D01*
X147178751Y-103627459D01*
G37*
G36*
X144668281Y-103607929D02*
G01*
X144687082Y-103607929D01*
X144706924Y-103615616D01*
X144734491Y-103621100D01*
X144752997Y-103633465D01*
X144769857Y-103639997D01*
X144808048Y-103670248D01*
X144811542Y-103672583D01*
X144910646Y-103771687D01*
X145145338Y-104006378D01*
X145145341Y-104006382D01*
X145147417Y-104008458D01*
X145149744Y-104011940D01*
X145180002Y-104050142D01*
X145186533Y-104067000D01*
X145198900Y-104085509D01*
X145204383Y-104113076D01*
X145212071Y-104132918D01*
X145212071Y-104151718D01*
X145216980Y-104176396D01*
X145212071Y-104201073D01*
X145212071Y-104219873D01*
X145204384Y-104239713D01*
X145198900Y-104267283D01*
X145186532Y-104285792D01*
X145180002Y-104302649D01*
X145149756Y-104340832D01*
X145147417Y-104344334D01*
X144793864Y-104697887D01*
X144790374Y-104700218D01*
X144752179Y-104730472D01*
X144735322Y-104737002D01*
X144716813Y-104749370D01*
X144689245Y-104754853D01*
X144669404Y-104762541D01*
X144650603Y-104762541D01*
X144625926Y-104767450D01*
X144601249Y-104762541D01*
X144582448Y-104762541D01*
X144562606Y-104754853D01*
X144535039Y-104749370D01*
X144516530Y-104737003D01*
X144499672Y-104730472D01*
X144461483Y-104700222D01*
X144457988Y-104697887D01*
X144242054Y-104481953D01*
X144124191Y-104364091D01*
X144124187Y-104364086D01*
X144122113Y-104362012D01*
X144119787Y-104358530D01*
X144089527Y-104320327D01*
X144082995Y-104303467D01*
X144070630Y-104284961D01*
X144065145Y-104257393D01*
X144057459Y-104237551D01*
X144057459Y-104218751D01*
X144052550Y-104194074D01*
X144057459Y-104169396D01*
X144057459Y-104150596D01*
X144065146Y-104130752D01*
X144070630Y-104103187D01*
X144082994Y-104084681D01*
X144089527Y-104067820D01*
X144119782Y-104029623D01*
X144122113Y-104026136D01*
X144208624Y-103939625D01*
X144473586Y-103674661D01*
X144473595Y-103674653D01*
X144475666Y-103672583D01*
X144479140Y-103670261D01*
X144517350Y-103639997D01*
X144534211Y-103633464D01*
X144552717Y-103621100D01*
X144580282Y-103615616D01*
X144600126Y-103607929D01*
X144618927Y-103607929D01*
X144643604Y-103603020D01*
X144668281Y-103607929D01*
G37*
G36*
X116361498Y-103728209D02*
G01*
X116975667Y-104342377D01*
X116975669Y-104342380D01*
X116979207Y-104345918D01*
X116655918Y-104669207D01*
X116054531Y-104067820D01*
X115833274Y-103846564D01*
X115833271Y-103846560D01*
X115829735Y-103843024D01*
X115901072Y-103771687D01*
X116149483Y-103523274D01*
X116149489Y-103523269D01*
X116153024Y-103519735D01*
X116361498Y-103728209D01*
G37*
G36*
X152153627Y-103428958D02*
G01*
X152380439Y-103655769D01*
X152380441Y-103655772D01*
X152383979Y-103659310D01*
X151557796Y-104485493D01*
X151329384Y-104257081D01*
X151238046Y-104165744D01*
X151238043Y-104165740D01*
X151234507Y-104162204D01*
X151439408Y-103957303D01*
X152057149Y-103339560D01*
X152057155Y-103339555D01*
X152060690Y-103336021D01*
X152153627Y-103428958D01*
G37*
G36*
X123112748Y-103229604D02*
G01*
X123131549Y-103229604D01*
X123151391Y-103237291D01*
X123178958Y-103242775D01*
X123197464Y-103255140D01*
X123214324Y-103261672D01*
X123252515Y-103291923D01*
X123256009Y-103294258D01*
X123351110Y-103389359D01*
X123607483Y-103645731D01*
X123607486Y-103645735D01*
X123609562Y-103647811D01*
X123611889Y-103651293D01*
X123642147Y-103689495D01*
X123648678Y-103706353D01*
X123661045Y-103724862D01*
X123666528Y-103752429D01*
X123674216Y-103772271D01*
X123674216Y-103791071D01*
X123679125Y-103815749D01*
X123674216Y-103840426D01*
X123674216Y-103859226D01*
X123666529Y-103879066D01*
X123661045Y-103906636D01*
X123648677Y-103925145D01*
X123642147Y-103942002D01*
X123611901Y-103980185D01*
X123609562Y-103983687D01*
X123273687Y-104319562D01*
X123270197Y-104321893D01*
X123232002Y-104352147D01*
X123215145Y-104358677D01*
X123196636Y-104371045D01*
X123169068Y-104376528D01*
X123149227Y-104384216D01*
X123130426Y-104384216D01*
X123105749Y-104389125D01*
X123081072Y-104384216D01*
X123062271Y-104384216D01*
X123042429Y-104376528D01*
X123014862Y-104371045D01*
X122996353Y-104358678D01*
X122979495Y-104352147D01*
X122941306Y-104321897D01*
X122937811Y-104319562D01*
X122686069Y-104067820D01*
X122586336Y-103968088D01*
X122586332Y-103968083D01*
X122584258Y-103966009D01*
X122581932Y-103962527D01*
X122551672Y-103924324D01*
X122545140Y-103907464D01*
X122532775Y-103888958D01*
X122527290Y-103861390D01*
X122519604Y-103841548D01*
X122519604Y-103822748D01*
X122514695Y-103798071D01*
X122519604Y-103773393D01*
X122519604Y-103754593D01*
X122527291Y-103734749D01*
X122532775Y-103707184D01*
X122545139Y-103688678D01*
X122551672Y-103671817D01*
X122581927Y-103633620D01*
X122584258Y-103630133D01*
X122637426Y-103576965D01*
X122918053Y-103296336D01*
X122918062Y-103296328D01*
X122920133Y-103294258D01*
X122923607Y-103291936D01*
X122961817Y-103261672D01*
X122978678Y-103255139D01*
X122997184Y-103242775D01*
X123024749Y-103237291D01*
X123044593Y-103229604D01*
X123063394Y-103229604D01*
X123088071Y-103224695D01*
X123112748Y-103229604D01*
G37*
G36*
X120516364Y-103203220D02*
G01*
X120535165Y-103203220D01*
X120555007Y-103210907D01*
X120582574Y-103216391D01*
X120601080Y-103228756D01*
X120617940Y-103235288D01*
X120656131Y-103265539D01*
X120659625Y-103267874D01*
X120755203Y-103363452D01*
X121011099Y-103619347D01*
X121011102Y-103619351D01*
X121013178Y-103621427D01*
X121015505Y-103624909D01*
X121045763Y-103663111D01*
X121052294Y-103679969D01*
X121064661Y-103698478D01*
X121070144Y-103726045D01*
X121077832Y-103745887D01*
X121077832Y-103764687D01*
X121082741Y-103789365D01*
X121077832Y-103814042D01*
X121077832Y-103832842D01*
X121070145Y-103852682D01*
X121064661Y-103880252D01*
X121052293Y-103898761D01*
X121045763Y-103915618D01*
X121015517Y-103953801D01*
X121013178Y-103957303D01*
X120677303Y-104293178D01*
X120673813Y-104295509D01*
X120635618Y-104325763D01*
X120618761Y-104332293D01*
X120600252Y-104344661D01*
X120572684Y-104350144D01*
X120552843Y-104357832D01*
X120534042Y-104357832D01*
X120509365Y-104362741D01*
X120484688Y-104357832D01*
X120465887Y-104357832D01*
X120446045Y-104350144D01*
X120418478Y-104344661D01*
X120399969Y-104332294D01*
X120383111Y-104325763D01*
X120344922Y-104295513D01*
X120341427Y-104293178D01*
X120091836Y-104043587D01*
X119989952Y-103941704D01*
X119989948Y-103941699D01*
X119987874Y-103939625D01*
X119985548Y-103936143D01*
X119955288Y-103897940D01*
X119948756Y-103881080D01*
X119936391Y-103862574D01*
X119930906Y-103835006D01*
X119923220Y-103815164D01*
X119923220Y-103796364D01*
X119918311Y-103771687D01*
X119923220Y-103747009D01*
X119923220Y-103728209D01*
X119930907Y-103708365D01*
X119936391Y-103680800D01*
X119948755Y-103662294D01*
X119955288Y-103645433D01*
X119985543Y-103607236D01*
X119987874Y-103603749D01*
X120071888Y-103519735D01*
X120321669Y-103269952D01*
X120321678Y-103269944D01*
X120323749Y-103267874D01*
X120327223Y-103265552D01*
X120365433Y-103235288D01*
X120382294Y-103228755D01*
X120400800Y-103216391D01*
X120428365Y-103210907D01*
X120448209Y-103203220D01*
X120467010Y-103203220D01*
X120491687Y-103198311D01*
X120516364Y-103203220D01*
G37*
G36*
X149236761Y-102419926D02*
G01*
X149285425Y-102452443D01*
X149288960Y-102455978D01*
X149288964Y-102455981D01*
X149494018Y-102661034D01*
X149494022Y-102661040D01*
X149497557Y-102664575D01*
X149530074Y-102713239D01*
X149541491Y-102770641D01*
X149530074Y-102828043D01*
X149497557Y-102876707D01*
X148666707Y-103707557D01*
X148618043Y-103740074D01*
X148560641Y-103751491D01*
X148503239Y-103740074D01*
X148454575Y-103707557D01*
X148451038Y-103704020D01*
X148451035Y-103704018D01*
X148245981Y-103498965D01*
X148245976Y-103498958D01*
X148242443Y-103495425D01*
X148209926Y-103446761D01*
X148198509Y-103389359D01*
X148209926Y-103331957D01*
X148242443Y-103283293D01*
X148445161Y-103080575D01*
X149069753Y-102455981D01*
X149069759Y-102455976D01*
X149073293Y-102452443D01*
X149121957Y-102419926D01*
X149179359Y-102408509D01*
X149236761Y-102419926D01*
G37*
G36*
X145958751Y-102317459D02*
G01*
X145977552Y-102317459D01*
X145997394Y-102325146D01*
X146024961Y-102330630D01*
X146043467Y-102342995D01*
X146060327Y-102349527D01*
X146098518Y-102379778D01*
X146102012Y-102382113D01*
X146201700Y-102481801D01*
X146435808Y-102715908D01*
X146435811Y-102715912D01*
X146437887Y-102717988D01*
X146440214Y-102721470D01*
X146470472Y-102759672D01*
X146477003Y-102776530D01*
X146489370Y-102795039D01*
X146494853Y-102822606D01*
X146502541Y-102842448D01*
X146502541Y-102861248D01*
X146507450Y-102885926D01*
X146502541Y-102910603D01*
X146502541Y-102929403D01*
X146494854Y-102949243D01*
X146489370Y-102976813D01*
X146477002Y-102995322D01*
X146470472Y-103012179D01*
X146440226Y-103050362D01*
X146437887Y-103053864D01*
X146084334Y-103407417D01*
X146080844Y-103409748D01*
X146042649Y-103440002D01*
X146025792Y-103446532D01*
X146007283Y-103458900D01*
X145979715Y-103464383D01*
X145959874Y-103472071D01*
X145941073Y-103472071D01*
X145916396Y-103476980D01*
X145891719Y-103472071D01*
X145872918Y-103472071D01*
X145853076Y-103464383D01*
X145825509Y-103458900D01*
X145807000Y-103446533D01*
X145790142Y-103440002D01*
X145751953Y-103409752D01*
X145748458Y-103407417D01*
X145511248Y-103170207D01*
X145414661Y-103073621D01*
X145414657Y-103073616D01*
X145412583Y-103071542D01*
X145410257Y-103068060D01*
X145379997Y-103029857D01*
X145373465Y-103012997D01*
X145361100Y-102994491D01*
X145355615Y-102966923D01*
X145347929Y-102947081D01*
X145347929Y-102928281D01*
X145343020Y-102903604D01*
X145347929Y-102878926D01*
X145347929Y-102860126D01*
X145355616Y-102840282D01*
X145361100Y-102812717D01*
X145373464Y-102794211D01*
X145379997Y-102777350D01*
X145410252Y-102739153D01*
X145412583Y-102735666D01*
X145496717Y-102651532D01*
X145764056Y-102384191D01*
X145764065Y-102384183D01*
X145766136Y-102382113D01*
X145769610Y-102379791D01*
X145807820Y-102349527D01*
X145824681Y-102342994D01*
X145843187Y-102330630D01*
X145870752Y-102325146D01*
X145890596Y-102317459D01*
X145909397Y-102317459D01*
X145934074Y-102312550D01*
X145958751Y-102317459D01*
G37*
G36*
X118611000Y-102032883D02*
G01*
X118659664Y-102065400D01*
X118871796Y-102277532D01*
X119486975Y-102892710D01*
X119486977Y-102892713D01*
X119490514Y-102896250D01*
X119523031Y-102944914D01*
X119534448Y-103002316D01*
X119523031Y-103059718D01*
X119490514Y-103108382D01*
X119486975Y-103111921D01*
X119281922Y-103316975D01*
X119281918Y-103316977D01*
X119278382Y-103320514D01*
X119229718Y-103353031D01*
X119172316Y-103364448D01*
X119114914Y-103353031D01*
X119066250Y-103320514D01*
X118458975Y-102713239D01*
X118238938Y-102493203D01*
X118238935Y-102493199D01*
X118235400Y-102489664D01*
X118202883Y-102441000D01*
X118191466Y-102383598D01*
X118202883Y-102326196D01*
X118235400Y-102277532D01*
X118238933Y-102273998D01*
X118238938Y-102273992D01*
X118443991Y-102068938D01*
X118444000Y-102068931D01*
X118447532Y-102065400D01*
X118496196Y-102032883D01*
X118553598Y-102021466D01*
X118611000Y-102032883D01*
G37*
G36*
X121822278Y-101939134D02*
G01*
X121841079Y-101939134D01*
X121860921Y-101946821D01*
X121888488Y-101952305D01*
X121906994Y-101964670D01*
X121923854Y-101971202D01*
X121962045Y-102001453D01*
X121965539Y-102003788D01*
X122064629Y-102102878D01*
X122317013Y-102355261D01*
X122317016Y-102355265D01*
X122319092Y-102357341D01*
X122321419Y-102360823D01*
X122351677Y-102399025D01*
X122358208Y-102415883D01*
X122370575Y-102434392D01*
X122376058Y-102461959D01*
X122383746Y-102481801D01*
X122383746Y-102500601D01*
X122388655Y-102525279D01*
X122383746Y-102549956D01*
X122383746Y-102568756D01*
X122376059Y-102588596D01*
X122370575Y-102616166D01*
X122358207Y-102634675D01*
X122351677Y-102651532D01*
X122321431Y-102689715D01*
X122319092Y-102693217D01*
X121983217Y-103029092D01*
X121979727Y-103031423D01*
X121941532Y-103061677D01*
X121924675Y-103068207D01*
X121906166Y-103080575D01*
X121878598Y-103086058D01*
X121858757Y-103093746D01*
X121839956Y-103093746D01*
X121815279Y-103098655D01*
X121790602Y-103093746D01*
X121771801Y-103093746D01*
X121751959Y-103086058D01*
X121724392Y-103080575D01*
X121705883Y-103068208D01*
X121689025Y-103061677D01*
X121650836Y-103031427D01*
X121647341Y-103029092D01*
X121384310Y-102766061D01*
X121295866Y-102677618D01*
X121295862Y-102677613D01*
X121293788Y-102675539D01*
X121291462Y-102672057D01*
X121261202Y-102633854D01*
X121254670Y-102616994D01*
X121242305Y-102598488D01*
X121236820Y-102570920D01*
X121229134Y-102551078D01*
X121229134Y-102532278D01*
X121224225Y-102507601D01*
X121229134Y-102482923D01*
X121229134Y-102464123D01*
X121236821Y-102444279D01*
X121242305Y-102416714D01*
X121254669Y-102398208D01*
X121261202Y-102381347D01*
X121291457Y-102343150D01*
X121293788Y-102339663D01*
X121376697Y-102256754D01*
X121627583Y-102005866D01*
X121627592Y-102005858D01*
X121629663Y-102003788D01*
X121633137Y-102001466D01*
X121671347Y-101971202D01*
X121688208Y-101964669D01*
X121706714Y-101952305D01*
X121734279Y-101946821D01*
X121754123Y-101939134D01*
X121772924Y-101939134D01*
X121797601Y-101934225D01*
X121822278Y-101939134D01*
G37*
G36*
X113256790Y-100930393D02*
G01*
X113420952Y-100983733D01*
X113574748Y-101062096D01*
X113714393Y-101163553D01*
X113836447Y-101285607D01*
X113937904Y-101425252D01*
X114016267Y-101579048D01*
X114069607Y-101743210D01*
X114096609Y-101913695D01*
X114096609Y-102086305D01*
X114069607Y-102256790D01*
X114016267Y-102420952D01*
X113937904Y-102574748D01*
X113836447Y-102714393D01*
X113714393Y-102836447D01*
X113574748Y-102937904D01*
X113420952Y-103016267D01*
X113256790Y-103069607D01*
X113086305Y-103096609D01*
X112913695Y-103096609D01*
X112743210Y-103069607D01*
X112579048Y-103016267D01*
X112425252Y-102937904D01*
X112285607Y-102836447D01*
X112163553Y-102714393D01*
X112062096Y-102574748D01*
X111983733Y-102420952D01*
X111930393Y-102256790D01*
X111903391Y-102086305D01*
X111903391Y-101913695D01*
X111930393Y-101743210D01*
X111983733Y-101579048D01*
X112062096Y-101425252D01*
X112163553Y-101285607D01*
X112285607Y-101163553D01*
X112425252Y-101062096D01*
X112579048Y-100983733D01*
X112743210Y-100930393D01*
X112913695Y-100903391D01*
X113086305Y-100903391D01*
X113256790Y-100930393D01*
G37*
G36*
X147893258Y-101076423D02*
G01*
X147941922Y-101108940D01*
X147945457Y-101112475D01*
X147945461Y-101112478D01*
X148150515Y-101317531D01*
X148150519Y-101317537D01*
X148154054Y-101321072D01*
X148186571Y-101369736D01*
X148197988Y-101427138D01*
X148186571Y-101484540D01*
X148154054Y-101533204D01*
X147323204Y-102364054D01*
X147274540Y-102396571D01*
X147217138Y-102407988D01*
X147159736Y-102396571D01*
X147111072Y-102364054D01*
X147107535Y-102360517D01*
X147107532Y-102360515D01*
X146902478Y-102155462D01*
X146902473Y-102155455D01*
X146898940Y-102151922D01*
X146866423Y-102103258D01*
X146855006Y-102045856D01*
X146866423Y-101988454D01*
X146898940Y-101939790D01*
X147097154Y-101741576D01*
X147726250Y-101112478D01*
X147726256Y-101112473D01*
X147729790Y-101108940D01*
X147778454Y-101076423D01*
X147835856Y-101065006D01*
X147893258Y-101076423D01*
G37*
G36*
X119954503Y-100689380D02*
G01*
X120003167Y-100721897D01*
X120215299Y-100934029D01*
X120830478Y-101549207D01*
X120830480Y-101549210D01*
X120834017Y-101552747D01*
X120866534Y-101601411D01*
X120877951Y-101658813D01*
X120866534Y-101716215D01*
X120834017Y-101764879D01*
X120830478Y-101768418D01*
X120625425Y-101973472D01*
X120625421Y-101973474D01*
X120621885Y-101977011D01*
X120573221Y-102009528D01*
X120515819Y-102020945D01*
X120458417Y-102009528D01*
X120409753Y-101977011D01*
X119798617Y-101365875D01*
X119582441Y-101149700D01*
X119582438Y-101149696D01*
X119578903Y-101146161D01*
X119546386Y-101097497D01*
X119534969Y-101040095D01*
X119546386Y-100982693D01*
X119578903Y-100934029D01*
X119582436Y-100930495D01*
X119582441Y-100930489D01*
X119787494Y-100725435D01*
X119787503Y-100725428D01*
X119791035Y-100721897D01*
X119839699Y-100689380D01*
X119897101Y-100677963D01*
X119954503Y-100689380D01*
G37*
G36*
X149890835Y-100422349D02*
G01*
X149939499Y-100454866D01*
X149943034Y-100458401D01*
X149943038Y-100458404D01*
X150148092Y-100663457D01*
X150148096Y-100663463D01*
X150151631Y-100666998D01*
X150184148Y-100715662D01*
X150195565Y-100773064D01*
X150184148Y-100830466D01*
X150151631Y-100879130D01*
X149320781Y-101709980D01*
X149272117Y-101742497D01*
X149214715Y-101753914D01*
X149157313Y-101742497D01*
X149108649Y-101709980D01*
X149105112Y-101706443D01*
X149105109Y-101706441D01*
X148900055Y-101501388D01*
X148900050Y-101501381D01*
X148896517Y-101497848D01*
X148864000Y-101449184D01*
X148852583Y-101391782D01*
X148864000Y-101334380D01*
X148896517Y-101285716D01*
X149105810Y-101076423D01*
X149723827Y-100458404D01*
X149723833Y-100458399D01*
X149727367Y-100454866D01*
X149776031Y-100422349D01*
X149833433Y-100410932D01*
X149890835Y-100422349D01*
G37*
G36*
X117956926Y-100035306D02*
G01*
X118005590Y-100067823D01*
X118217722Y-100279955D01*
X118832901Y-100895133D01*
X118832903Y-100895136D01*
X118836440Y-100898673D01*
X118868957Y-100947337D01*
X118880374Y-101004739D01*
X118868957Y-101062141D01*
X118836440Y-101110805D01*
X118832901Y-101114344D01*
X118627848Y-101319398D01*
X118627844Y-101319400D01*
X118624308Y-101322937D01*
X118575644Y-101355454D01*
X118518242Y-101366871D01*
X118460840Y-101355454D01*
X118412176Y-101322937D01*
X117804901Y-100715662D01*
X117584864Y-100495626D01*
X117584861Y-100495622D01*
X117581326Y-100492087D01*
X117548809Y-100443423D01*
X117537392Y-100386021D01*
X117548809Y-100328619D01*
X117581326Y-100279955D01*
X117584859Y-100276421D01*
X117584864Y-100276415D01*
X117789917Y-100071361D01*
X117789926Y-100071354D01*
X117793458Y-100067823D01*
X117842122Y-100035306D01*
X117899524Y-100023889D01*
X117956926Y-100035306D01*
G37*
G36*
X175339199Y-96442272D02*
G01*
X175617167Y-96516754D01*
X175883035Y-96626880D01*
X176132255Y-96770767D01*
X176360561Y-96945952D01*
X176564048Y-97149439D01*
X176739233Y-97377745D01*
X176883120Y-97626965D01*
X176993246Y-97892833D01*
X177067728Y-98170801D01*
X177105290Y-98456113D01*
X177105290Y-98743887D01*
X177067728Y-99029199D01*
X176993246Y-99307167D01*
X176883120Y-99573035D01*
X176739233Y-99822255D01*
X176564048Y-100050561D01*
X176360561Y-100254048D01*
X176132255Y-100429233D01*
X175883035Y-100573120D01*
X175617167Y-100683246D01*
X175339199Y-100757728D01*
X175053887Y-100795290D01*
X174766113Y-100795290D01*
X174480801Y-100757728D01*
X174202833Y-100683246D01*
X173936965Y-100573120D01*
X173687745Y-100429233D01*
X173459439Y-100254048D01*
X173255952Y-100050561D01*
X173080767Y-99822255D01*
X172936880Y-99573035D01*
X172826754Y-99307167D01*
X172752272Y-99029199D01*
X172714710Y-98743887D01*
X172714710Y-98456113D01*
X172752272Y-98170801D01*
X172826754Y-97892833D01*
X172936880Y-97626965D01*
X173080767Y-97377745D01*
X173255952Y-97149439D01*
X173459439Y-96945952D01*
X173687745Y-96770767D01*
X173936965Y-96626880D01*
X174202833Y-96516754D01*
X174480801Y-96442272D01*
X174766113Y-96404710D01*
X175053887Y-96404710D01*
X175339199Y-96442272D01*
G37*
G36*
X128179115Y-97125818D02*
G01*
X128227517Y-97131434D01*
X128244055Y-97138736D01*
X128265887Y-97143079D01*
X128289259Y-97158695D01*
X128308724Y-97167290D01*
X128322017Y-97180583D01*
X128342938Y-97194562D01*
X128356916Y-97215482D01*
X128370209Y-97228775D01*
X128378802Y-97248238D01*
X128394421Y-97271613D01*
X128398764Y-97293446D01*
X128406065Y-97309982D01*
X128411678Y-97358372D01*
X128412500Y-97362500D01*
X128412500Y-97837500D01*
X128411678Y-97841627D01*
X128406065Y-97890017D01*
X128398764Y-97906551D01*
X128394421Y-97928387D01*
X128378801Y-97951763D01*
X128370209Y-97971224D01*
X128356918Y-97984514D01*
X128342938Y-98005438D01*
X128322014Y-98019418D01*
X128308724Y-98032709D01*
X128289263Y-98041301D01*
X128265887Y-98056921D01*
X128244051Y-98061264D01*
X128227517Y-98068565D01*
X128179129Y-98074178D01*
X128175000Y-98075000D01*
X127575000Y-98075000D01*
X127570873Y-98074179D01*
X127522482Y-98068565D01*
X127505946Y-98061264D01*
X127484113Y-98056921D01*
X127460738Y-98041302D01*
X127441275Y-98032709D01*
X127427982Y-98019416D01*
X127407062Y-98005438D01*
X127393083Y-97984517D01*
X127379790Y-97971224D01*
X127371195Y-97951759D01*
X127355579Y-97928387D01*
X127351236Y-97906555D01*
X127343934Y-97890017D01*
X127338318Y-97841616D01*
X127337500Y-97837500D01*
X127337500Y-97362500D01*
X127338318Y-97358385D01*
X127343934Y-97309982D01*
X127351236Y-97293442D01*
X127355579Y-97271613D01*
X127371194Y-97248242D01*
X127379790Y-97228775D01*
X127393085Y-97215479D01*
X127407062Y-97194562D01*
X127427979Y-97180585D01*
X127441275Y-97167290D01*
X127460742Y-97158694D01*
X127484113Y-97143079D01*
X127505942Y-97138736D01*
X127522482Y-97131434D01*
X127570884Y-97125818D01*
X127575000Y-97125000D01*
X128175000Y-97125000D01*
X128179115Y-97125818D01*
G37*
G36*
X129904115Y-97125818D02*
G01*
X129952517Y-97131434D01*
X129969055Y-97138736D01*
X129990887Y-97143079D01*
X130014259Y-97158695D01*
X130033724Y-97167290D01*
X130047017Y-97180583D01*
X130067938Y-97194562D01*
X130081916Y-97215482D01*
X130095209Y-97228775D01*
X130103802Y-97248238D01*
X130119421Y-97271613D01*
X130123764Y-97293446D01*
X130131065Y-97309982D01*
X130136678Y-97358372D01*
X130137500Y-97362500D01*
X130137500Y-97837500D01*
X130136678Y-97841627D01*
X130131065Y-97890017D01*
X130123764Y-97906551D01*
X130119421Y-97928387D01*
X130103801Y-97951763D01*
X130095209Y-97971224D01*
X130081918Y-97984514D01*
X130067938Y-98005438D01*
X130047014Y-98019418D01*
X130033724Y-98032709D01*
X130014263Y-98041301D01*
X129990887Y-98056921D01*
X129969051Y-98061264D01*
X129952517Y-98068565D01*
X129904129Y-98074178D01*
X129900000Y-98075000D01*
X129300000Y-98075000D01*
X129295873Y-98074179D01*
X129247482Y-98068565D01*
X129230946Y-98061264D01*
X129209113Y-98056921D01*
X129185738Y-98041302D01*
X129166275Y-98032709D01*
X129152982Y-98019416D01*
X129132062Y-98005438D01*
X129118083Y-97984517D01*
X129104790Y-97971224D01*
X129096195Y-97951759D01*
X129080579Y-97928387D01*
X129076236Y-97906555D01*
X129068934Y-97890017D01*
X129063318Y-97841616D01*
X129062500Y-97837500D01*
X129062500Y-97362500D01*
X129063318Y-97358385D01*
X129068934Y-97309982D01*
X129076236Y-97293442D01*
X129080579Y-97271613D01*
X129096194Y-97248242D01*
X129104790Y-97228775D01*
X129118085Y-97215479D01*
X129132062Y-97194562D01*
X129152979Y-97180585D01*
X129166275Y-97167290D01*
X129185742Y-97158694D01*
X129209113Y-97143079D01*
X129230942Y-97138736D01*
X129247482Y-97131434D01*
X129295884Y-97125818D01*
X129300000Y-97125000D01*
X129900000Y-97125000D01*
X129904115Y-97125818D01*
G37*
G36*
X149331615Y-96265818D02*
G01*
X149380017Y-96271434D01*
X149396555Y-96278736D01*
X149418387Y-96283079D01*
X149441759Y-96298695D01*
X149461224Y-96307290D01*
X149474517Y-96320583D01*
X149495438Y-96334562D01*
X149509416Y-96355482D01*
X149522709Y-96368775D01*
X149531302Y-96388238D01*
X149546921Y-96411613D01*
X149551264Y-96433446D01*
X149558565Y-96449982D01*
X149564178Y-96498372D01*
X149565000Y-96502500D01*
X149565000Y-97102500D01*
X149564178Y-97106627D01*
X149558565Y-97155017D01*
X149551264Y-97171551D01*
X149546921Y-97193387D01*
X149531301Y-97216763D01*
X149522709Y-97236224D01*
X149509418Y-97249514D01*
X149495438Y-97270438D01*
X149474514Y-97284418D01*
X149461224Y-97297709D01*
X149441763Y-97306301D01*
X149418387Y-97321921D01*
X149396551Y-97326264D01*
X149380017Y-97333565D01*
X149331629Y-97339178D01*
X149327500Y-97340000D01*
X148852500Y-97340000D01*
X148848373Y-97339179D01*
X148799982Y-97333565D01*
X148783446Y-97326264D01*
X148761613Y-97321921D01*
X148738238Y-97306302D01*
X148718775Y-97297709D01*
X148705482Y-97284416D01*
X148684562Y-97270438D01*
X148670583Y-97249517D01*
X148657290Y-97236224D01*
X148648695Y-97216759D01*
X148633079Y-97193387D01*
X148628736Y-97171555D01*
X148621434Y-97155017D01*
X148615818Y-97106616D01*
X148615000Y-97102500D01*
X148615000Y-96502500D01*
X148615818Y-96498385D01*
X148621434Y-96449982D01*
X148628736Y-96433442D01*
X148633079Y-96411613D01*
X148648694Y-96388242D01*
X148657290Y-96368775D01*
X148670585Y-96355479D01*
X148684562Y-96334562D01*
X148705479Y-96320585D01*
X148718775Y-96307290D01*
X148738242Y-96298694D01*
X148761613Y-96283079D01*
X148783442Y-96278736D01*
X148799982Y-96271434D01*
X148848384Y-96265818D01*
X148852500Y-96265000D01*
X149327500Y-96265000D01*
X149331615Y-96265818D01*
G37*
G36*
X138301615Y-96215818D02*
G01*
X138350017Y-96221434D01*
X138366555Y-96228736D01*
X138388387Y-96233079D01*
X138411759Y-96248695D01*
X138431224Y-96257290D01*
X138444517Y-96270583D01*
X138465438Y-96284562D01*
X138479416Y-96305482D01*
X138492709Y-96318775D01*
X138501302Y-96338238D01*
X138516921Y-96361613D01*
X138521264Y-96383446D01*
X138528565Y-96399982D01*
X138534178Y-96448372D01*
X138535000Y-96452500D01*
X138535000Y-97052500D01*
X138534178Y-97056627D01*
X138528565Y-97105017D01*
X138521264Y-97121551D01*
X138516921Y-97143387D01*
X138501301Y-97166763D01*
X138492709Y-97186224D01*
X138479418Y-97199514D01*
X138465438Y-97220438D01*
X138444514Y-97234418D01*
X138431224Y-97247709D01*
X138411763Y-97256301D01*
X138388387Y-97271921D01*
X138366551Y-97276264D01*
X138350017Y-97283565D01*
X138301629Y-97289178D01*
X138297500Y-97290000D01*
X137822500Y-97290000D01*
X137818373Y-97289179D01*
X137769982Y-97283565D01*
X137753446Y-97276264D01*
X137731613Y-97271921D01*
X137708238Y-97256302D01*
X137688775Y-97247709D01*
X137675482Y-97234416D01*
X137654562Y-97220438D01*
X137640583Y-97199517D01*
X137627290Y-97186224D01*
X137618695Y-97166759D01*
X137603079Y-97143387D01*
X137598736Y-97121555D01*
X137591434Y-97105017D01*
X137585818Y-97056616D01*
X137585000Y-97052500D01*
X137585000Y-96452500D01*
X137585818Y-96448385D01*
X137591434Y-96399982D01*
X137598736Y-96383442D01*
X137603079Y-96361613D01*
X137618694Y-96338242D01*
X137627290Y-96318775D01*
X137640585Y-96305479D01*
X137654562Y-96284562D01*
X137675479Y-96270585D01*
X137688775Y-96257290D01*
X137708242Y-96248694D01*
X137731613Y-96233079D01*
X137753442Y-96228736D01*
X137769982Y-96221434D01*
X137818384Y-96215818D01*
X137822500Y-96215000D01*
X138297500Y-96215000D01*
X138301615Y-96215818D01*
G37*
G36*
X136491615Y-96145818D02*
G01*
X136540017Y-96151434D01*
X136556555Y-96158736D01*
X136578387Y-96163079D01*
X136601759Y-96178695D01*
X136621224Y-96187290D01*
X136634517Y-96200583D01*
X136655438Y-96214562D01*
X136669416Y-96235482D01*
X136682709Y-96248775D01*
X136691302Y-96268238D01*
X136706921Y-96291613D01*
X136711264Y-96313446D01*
X136718565Y-96329982D01*
X136724178Y-96378372D01*
X136725000Y-96382500D01*
X136725000Y-96982500D01*
X136724178Y-96986627D01*
X136718565Y-97035017D01*
X136711264Y-97051551D01*
X136706921Y-97073387D01*
X136691301Y-97096763D01*
X136682709Y-97116224D01*
X136669418Y-97129514D01*
X136655438Y-97150438D01*
X136634514Y-97164418D01*
X136621224Y-97177709D01*
X136601763Y-97186301D01*
X136578387Y-97201921D01*
X136556551Y-97206264D01*
X136540017Y-97213565D01*
X136491629Y-97219178D01*
X136487500Y-97220000D01*
X136012500Y-97220000D01*
X136008373Y-97219179D01*
X135959982Y-97213565D01*
X135943446Y-97206264D01*
X135921613Y-97201921D01*
X135898238Y-97186302D01*
X135878775Y-97177709D01*
X135865482Y-97164416D01*
X135844562Y-97150438D01*
X135830583Y-97129517D01*
X135817290Y-97116224D01*
X135808695Y-97096759D01*
X135793079Y-97073387D01*
X135788736Y-97051555D01*
X135781434Y-97035017D01*
X135775818Y-96986616D01*
X135775000Y-96982500D01*
X135775000Y-96382500D01*
X135775818Y-96378385D01*
X135781434Y-96329982D01*
X135788736Y-96313442D01*
X135793079Y-96291613D01*
X135808694Y-96268242D01*
X135817290Y-96248775D01*
X135830585Y-96235479D01*
X135844562Y-96214562D01*
X135865479Y-96200585D01*
X135878775Y-96187290D01*
X135898242Y-96178694D01*
X135921613Y-96163079D01*
X135943442Y-96158736D01*
X135959982Y-96151434D01*
X136008384Y-96145818D01*
X136012500Y-96145000D01*
X136487500Y-96145000D01*
X136491615Y-96145818D01*
G37*
G36*
X152828744Y-96020245D02*
G01*
X152882555Y-96022889D01*
X152889178Y-96024206D01*
X152903316Y-96025133D01*
X152930622Y-96032449D01*
X152999100Y-96046070D01*
X153031423Y-96059459D01*
X153054610Y-96065672D01*
X153075401Y-96077676D01*
X153107722Y-96091064D01*
X153165770Y-96129850D01*
X153190257Y-96143988D01*
X153196959Y-96150690D01*
X153205482Y-96156385D01*
X153288614Y-96239517D01*
X153294308Y-96248039D01*
X153301012Y-96254743D01*
X153315151Y-96279233D01*
X153353935Y-96337277D01*
X153367321Y-96369594D01*
X153379328Y-96390390D01*
X153385541Y-96413580D01*
X153398929Y-96445899D01*
X153412548Y-96514371D01*
X153419867Y-96541684D01*
X153419867Y-96551164D01*
X153421866Y-96561214D01*
X153421866Y-96678785D01*
X153419867Y-96688834D01*
X153419867Y-96698316D01*
X153412547Y-96725631D01*
X153398929Y-96794100D01*
X153385542Y-96826416D01*
X153379328Y-96849610D01*
X153367320Y-96870407D01*
X153353935Y-96902722D01*
X153315155Y-96960759D01*
X153301012Y-96985257D01*
X153294306Y-96991962D01*
X153288614Y-97000482D01*
X153205482Y-97083614D01*
X153196962Y-97089306D01*
X153190257Y-97096012D01*
X153165759Y-97110155D01*
X153107722Y-97148935D01*
X153075407Y-97162320D01*
X153054610Y-97174328D01*
X153031416Y-97180542D01*
X152999100Y-97193929D01*
X152930636Y-97207546D01*
X152903316Y-97214867D01*
X152889170Y-97215794D01*
X152882555Y-97217110D01*
X152828749Y-97219754D01*
X152825000Y-97220000D01*
X152823749Y-97220000D01*
X152276251Y-97220000D01*
X152275000Y-97220000D01*
X152271250Y-97219754D01*
X152217444Y-97217110D01*
X152210827Y-97215794D01*
X152196684Y-97214867D01*
X152169366Y-97207547D01*
X152100899Y-97193929D01*
X152068580Y-97180541D01*
X152045390Y-97174328D01*
X152024594Y-97162321D01*
X151992277Y-97148935D01*
X151934233Y-97110151D01*
X151909743Y-97096012D01*
X151903039Y-97089308D01*
X151894517Y-97083614D01*
X151811385Y-97000482D01*
X151805690Y-96991959D01*
X151798988Y-96985257D01*
X151784850Y-96960770D01*
X151746064Y-96902722D01*
X151732676Y-96870401D01*
X151720672Y-96849610D01*
X151714459Y-96826423D01*
X151701070Y-96794100D01*
X151687450Y-96725625D01*
X151680133Y-96698316D01*
X151680133Y-96688835D01*
X151678134Y-96678785D01*
X151678134Y-96561214D01*
X151680133Y-96551163D01*
X151680133Y-96541684D01*
X151687449Y-96514377D01*
X151701070Y-96445899D01*
X151714459Y-96413573D01*
X151720672Y-96390390D01*
X151732674Y-96369600D01*
X151746064Y-96337277D01*
X151784854Y-96279222D01*
X151798988Y-96254743D01*
X151805688Y-96248042D01*
X151811385Y-96239517D01*
X151894517Y-96156385D01*
X151903042Y-96150688D01*
X151909743Y-96143988D01*
X151934222Y-96129854D01*
X151992277Y-96091064D01*
X152024600Y-96077674D01*
X152045390Y-96065672D01*
X152068573Y-96059459D01*
X152100899Y-96046070D01*
X152169380Y-96032448D01*
X152196684Y-96025133D01*
X152210820Y-96024206D01*
X152217444Y-96022889D01*
X152271256Y-96020245D01*
X152275000Y-96020000D01*
X152825000Y-96020000D01*
X152828744Y-96020245D01*
G37*
G36*
X140969116Y-95315818D02*
G01*
X141020379Y-95321766D01*
X141037892Y-95329499D01*
X141060671Y-95334030D01*
X141085057Y-95350324D01*
X141105788Y-95359478D01*
X141119946Y-95373636D01*
X141141777Y-95388223D01*
X141156363Y-95410053D01*
X141170521Y-95424211D01*
X141179673Y-95444939D01*
X141195970Y-95469329D01*
X141200501Y-95492109D01*
X141208233Y-95509620D01*
X141214178Y-95560872D01*
X141215000Y-95565000D01*
X141215000Y-96655000D01*
X141214178Y-96659128D01*
X141208233Y-96710379D01*
X141200501Y-96727888D01*
X141195970Y-96750671D01*
X141179672Y-96775062D01*
X141170521Y-96795788D01*
X141156365Y-96809943D01*
X141141777Y-96831777D01*
X141119943Y-96846365D01*
X141105788Y-96860521D01*
X141085062Y-96869672D01*
X141060671Y-96885970D01*
X141037888Y-96890501D01*
X141020379Y-96898233D01*
X140969129Y-96904178D01*
X140965000Y-96905000D01*
X140075000Y-96905000D01*
X140070873Y-96904179D01*
X140019620Y-96898233D01*
X140002109Y-96890501D01*
X139979329Y-96885970D01*
X139954939Y-96869673D01*
X139934211Y-96860521D01*
X139920053Y-96846363D01*
X139898223Y-96831777D01*
X139883636Y-96809946D01*
X139869478Y-96795788D01*
X139860324Y-96775057D01*
X139844030Y-96750671D01*
X139839499Y-96727892D01*
X139831766Y-96710379D01*
X139825818Y-96659117D01*
X139825000Y-96655000D01*
X139825000Y-95565000D01*
X139825818Y-95560885D01*
X139831766Y-95509620D01*
X139839499Y-95492105D01*
X139844030Y-95469329D01*
X139860323Y-95444944D01*
X139869478Y-95424211D01*
X139883638Y-95410050D01*
X139898223Y-95388223D01*
X139920050Y-95373638D01*
X139934211Y-95359478D01*
X139954944Y-95350323D01*
X139979329Y-95334030D01*
X140002105Y-95329499D01*
X140019620Y-95321766D01*
X140070884Y-95315818D01*
X140075000Y-95315000D01*
X140965000Y-95315000D01*
X140969116Y-95315818D01*
G37*
G36*
X132729115Y-95935818D02*
G01*
X132777517Y-95941434D01*
X132794055Y-95948736D01*
X132815887Y-95953079D01*
X132839259Y-95968695D01*
X132858724Y-95977290D01*
X132872017Y-95990583D01*
X132892938Y-96004562D01*
X132906916Y-96025482D01*
X132920209Y-96038775D01*
X132928802Y-96058238D01*
X132944421Y-96081613D01*
X132948764Y-96103446D01*
X132956065Y-96119982D01*
X132961678Y-96168372D01*
X132962500Y-96172500D01*
X132962500Y-96647500D01*
X132961678Y-96651627D01*
X132956065Y-96700017D01*
X132948764Y-96716551D01*
X132944421Y-96738387D01*
X132928801Y-96761763D01*
X132920209Y-96781224D01*
X132906918Y-96794514D01*
X132892938Y-96815438D01*
X132872014Y-96829418D01*
X132858724Y-96842709D01*
X132839263Y-96851301D01*
X132815887Y-96866921D01*
X132794051Y-96871264D01*
X132777517Y-96878565D01*
X132729129Y-96884178D01*
X132725000Y-96885000D01*
X132125000Y-96885000D01*
X132120873Y-96884179D01*
X132072482Y-96878565D01*
X132055946Y-96871264D01*
X132034113Y-96866921D01*
X132010738Y-96851302D01*
X131991275Y-96842709D01*
X131977982Y-96829416D01*
X131957062Y-96815438D01*
X131943083Y-96794517D01*
X131929790Y-96781224D01*
X131921195Y-96761759D01*
X131905579Y-96738387D01*
X131901236Y-96716555D01*
X131893934Y-96700017D01*
X131888318Y-96651616D01*
X131887500Y-96647500D01*
X131887500Y-96172500D01*
X131888318Y-96168385D01*
X131893934Y-96119982D01*
X131901236Y-96103442D01*
X131905579Y-96081613D01*
X131921194Y-96058242D01*
X131929790Y-96038775D01*
X131943085Y-96025479D01*
X131957062Y-96004562D01*
X131977979Y-95990585D01*
X131991275Y-95977290D01*
X132010742Y-95968694D01*
X132034113Y-95953079D01*
X132055942Y-95948736D01*
X132072482Y-95941434D01*
X132120884Y-95935818D01*
X132125000Y-95935000D01*
X132725000Y-95935000D01*
X132729115Y-95935818D01*
G37*
G36*
X134454115Y-95935818D02*
G01*
X134502517Y-95941434D01*
X134519055Y-95948736D01*
X134540887Y-95953079D01*
X134564259Y-95968695D01*
X134583724Y-95977290D01*
X134597017Y-95990583D01*
X134617938Y-96004562D01*
X134631916Y-96025482D01*
X134645209Y-96038775D01*
X134653802Y-96058238D01*
X134669421Y-96081613D01*
X134673764Y-96103446D01*
X134681065Y-96119982D01*
X134686678Y-96168372D01*
X134687500Y-96172500D01*
X134687500Y-96647500D01*
X134686678Y-96651627D01*
X134681065Y-96700017D01*
X134673764Y-96716551D01*
X134669421Y-96738387D01*
X134653801Y-96761763D01*
X134645209Y-96781224D01*
X134631918Y-96794514D01*
X134617938Y-96815438D01*
X134597014Y-96829418D01*
X134583724Y-96842709D01*
X134564263Y-96851301D01*
X134540887Y-96866921D01*
X134519051Y-96871264D01*
X134502517Y-96878565D01*
X134454129Y-96884178D01*
X134450000Y-96885000D01*
X133850000Y-96885000D01*
X133845873Y-96884179D01*
X133797482Y-96878565D01*
X133780946Y-96871264D01*
X133759113Y-96866921D01*
X133735738Y-96851302D01*
X133716275Y-96842709D01*
X133702982Y-96829416D01*
X133682062Y-96815438D01*
X133668083Y-96794517D01*
X133654790Y-96781224D01*
X133646195Y-96761759D01*
X133630579Y-96738387D01*
X133626236Y-96716555D01*
X133618934Y-96700017D01*
X133613318Y-96651616D01*
X133612500Y-96647500D01*
X133612500Y-96172500D01*
X133613318Y-96168385D01*
X133618934Y-96119982D01*
X133626236Y-96103442D01*
X133630579Y-96081613D01*
X133646194Y-96058242D01*
X133654790Y-96038775D01*
X133668085Y-96025479D01*
X133682062Y-96004562D01*
X133702979Y-95990585D01*
X133716275Y-95977290D01*
X133735742Y-95968694D01*
X133759113Y-95953079D01*
X133780942Y-95948736D01*
X133797482Y-95941434D01*
X133845884Y-95935818D01*
X133850000Y-95935000D01*
X134450000Y-95935000D01*
X134454115Y-95935818D01*
G37*
G36*
X145466254Y-95989190D02*
G01*
X145513945Y-96021055D01*
X145545810Y-96068746D01*
X145557000Y-96125000D01*
X145557000Y-96635000D01*
X145545810Y-96691254D01*
X145513945Y-96738945D01*
X145466254Y-96770810D01*
X145410000Y-96782000D01*
X144150000Y-96782000D01*
X144093746Y-96770810D01*
X144046055Y-96738945D01*
X144014190Y-96691254D01*
X144003000Y-96635000D01*
X144003000Y-96125000D01*
X144014190Y-96068746D01*
X144046055Y-96021055D01*
X144093746Y-95989190D01*
X144150000Y-95978000D01*
X145410000Y-95978000D01*
X145466254Y-95989190D01*
G37*
G36*
X147836254Y-95989190D02*
G01*
X147883945Y-96021055D01*
X147915810Y-96068746D01*
X147927000Y-96125000D01*
X147927000Y-96635000D01*
X147915810Y-96691254D01*
X147883945Y-96738945D01*
X147836254Y-96770810D01*
X147780000Y-96782000D01*
X146520000Y-96782000D01*
X146463746Y-96770810D01*
X146416055Y-96738945D01*
X146384190Y-96691254D01*
X146373000Y-96635000D01*
X146373000Y-96125000D01*
X146384190Y-96068746D01*
X146416055Y-96021055D01*
X146463746Y-95989190D01*
X146520000Y-95978000D01*
X147780000Y-95978000D01*
X147836254Y-95989190D01*
G37*
G36*
X142951615Y-95705818D02*
G01*
X143000017Y-95711434D01*
X143016555Y-95718736D01*
X143038387Y-95723079D01*
X143061759Y-95738695D01*
X143081224Y-95747290D01*
X143094517Y-95760583D01*
X143115438Y-95774562D01*
X143129416Y-95795482D01*
X143142709Y-95808775D01*
X143151302Y-95828238D01*
X143166921Y-95851613D01*
X143171264Y-95873446D01*
X143178565Y-95889982D01*
X143184178Y-95938372D01*
X143185000Y-95942500D01*
X143185000Y-96542500D01*
X143184178Y-96546627D01*
X143178565Y-96595017D01*
X143171264Y-96611551D01*
X143166921Y-96633387D01*
X143151301Y-96656763D01*
X143142709Y-96676224D01*
X143129418Y-96689514D01*
X143115438Y-96710438D01*
X143094514Y-96724418D01*
X143081224Y-96737709D01*
X143061763Y-96746301D01*
X143038387Y-96761921D01*
X143016551Y-96766264D01*
X143000017Y-96773565D01*
X142951629Y-96779178D01*
X142947500Y-96780000D01*
X142472500Y-96780000D01*
X142468373Y-96779179D01*
X142419982Y-96773565D01*
X142403446Y-96766264D01*
X142381613Y-96761921D01*
X142358238Y-96746302D01*
X142338775Y-96737709D01*
X142325482Y-96724416D01*
X142304562Y-96710438D01*
X142290583Y-96689517D01*
X142277290Y-96676224D01*
X142268695Y-96656759D01*
X142253079Y-96633387D01*
X142248736Y-96611555D01*
X142241434Y-96595017D01*
X142235818Y-96546616D01*
X142235000Y-96542500D01*
X142235000Y-95942500D01*
X142235818Y-95938385D01*
X142241434Y-95889982D01*
X142248736Y-95873442D01*
X142253079Y-95851613D01*
X142268694Y-95828242D01*
X142277290Y-95808775D01*
X142290585Y-95795479D01*
X142304562Y-95774562D01*
X142325479Y-95760585D01*
X142338775Y-95747290D01*
X142358242Y-95738694D01*
X142381613Y-95723079D01*
X142403442Y-95718736D01*
X142419982Y-95711434D01*
X142468384Y-95705818D01*
X142472500Y-95705000D01*
X142947500Y-95705000D01*
X142951615Y-95705818D01*
G37*
G36*
X126511615Y-95375818D02*
G01*
X126560017Y-95381434D01*
X126576555Y-95388736D01*
X126598387Y-95393079D01*
X126621759Y-95408695D01*
X126641224Y-95417290D01*
X126654517Y-95430583D01*
X126675438Y-95444562D01*
X126689416Y-95465482D01*
X126702709Y-95478775D01*
X126711302Y-95498238D01*
X126726921Y-95521613D01*
X126731264Y-95543446D01*
X126738565Y-95559982D01*
X126744178Y-95608372D01*
X126745000Y-95612500D01*
X126745000Y-96212500D01*
X126744178Y-96216627D01*
X126738565Y-96265017D01*
X126731264Y-96281551D01*
X126726921Y-96303387D01*
X126711301Y-96326763D01*
X126702709Y-96346224D01*
X126689418Y-96359514D01*
X126675438Y-96380438D01*
X126654514Y-96394418D01*
X126641224Y-96407709D01*
X126621763Y-96416301D01*
X126598387Y-96431921D01*
X126576551Y-96436264D01*
X126560017Y-96443565D01*
X126511629Y-96449178D01*
X126507500Y-96450000D01*
X126032500Y-96450000D01*
X126028373Y-96449179D01*
X125979982Y-96443565D01*
X125963446Y-96436264D01*
X125941613Y-96431921D01*
X125918238Y-96416302D01*
X125898775Y-96407709D01*
X125885482Y-96394416D01*
X125864562Y-96380438D01*
X125850583Y-96359517D01*
X125837290Y-96346224D01*
X125828695Y-96326759D01*
X125813079Y-96303387D01*
X125808736Y-96281555D01*
X125801434Y-96265017D01*
X125795818Y-96216616D01*
X125795000Y-96212500D01*
X125795000Y-95612500D01*
X125795818Y-95608385D01*
X125801434Y-95559982D01*
X125808736Y-95543442D01*
X125813079Y-95521613D01*
X125828694Y-95498242D01*
X125837290Y-95478775D01*
X125850585Y-95465479D01*
X125864562Y-95444562D01*
X125885479Y-95430585D01*
X125898775Y-95417290D01*
X125918242Y-95408694D01*
X125941613Y-95393079D01*
X125963442Y-95388736D01*
X125979982Y-95381434D01*
X126028384Y-95375818D01*
X126032500Y-95375000D01*
X126507500Y-95375000D01*
X126511615Y-95375818D01*
G37*
G36*
X128057802Y-96324000D02*
G01*
X127702202Y-96324000D01*
X127702202Y-95816000D01*
X128057802Y-95816000D01*
X128057802Y-96324000D01*
G37*
G36*
X128707800Y-96324000D02*
G01*
X128352200Y-96324000D01*
X128352200Y-95816000D01*
X128707800Y-95816000D01*
X128707800Y-96324000D01*
G37*
G36*
X129357802Y-96324000D02*
G01*
X129002202Y-96324000D01*
X129002202Y-95816000D01*
X129357802Y-95816000D01*
X129357802Y-96324000D01*
G37*
G36*
X130007800Y-96324000D02*
G01*
X129652200Y-96324000D01*
X129652200Y-95816000D01*
X130007800Y-95816000D01*
X130007800Y-96324000D01*
G37*
G36*
X147836255Y-95039190D02*
G01*
X147883946Y-95071055D01*
X147915811Y-95118746D01*
X147927001Y-95175000D01*
X147927001Y-95685000D01*
X147915811Y-95741254D01*
X147883946Y-95788945D01*
X147836255Y-95820810D01*
X147780001Y-95832000D01*
X146520001Y-95832000D01*
X146463747Y-95820810D01*
X146416056Y-95788945D01*
X146384191Y-95741254D01*
X146373001Y-95685000D01*
X146373001Y-95175000D01*
X146384191Y-95118746D01*
X146416056Y-95071055D01*
X146463747Y-95039190D01*
X146520001Y-95028000D01*
X147780001Y-95028000D01*
X147836255Y-95039190D01*
G37*
G36*
X149331615Y-94540818D02*
G01*
X149380017Y-94546434D01*
X149396555Y-94553736D01*
X149418387Y-94558079D01*
X149441759Y-94573695D01*
X149461224Y-94582290D01*
X149474517Y-94595583D01*
X149495438Y-94609562D01*
X149509416Y-94630482D01*
X149522709Y-94643775D01*
X149531302Y-94663238D01*
X149546921Y-94686613D01*
X149551264Y-94708446D01*
X149558565Y-94724982D01*
X149564178Y-94773372D01*
X149565000Y-94777500D01*
X149565000Y-95377500D01*
X149564178Y-95381627D01*
X149558565Y-95430017D01*
X149551264Y-95446551D01*
X149546921Y-95468387D01*
X149531301Y-95491763D01*
X149522709Y-95511224D01*
X149509418Y-95524514D01*
X149495438Y-95545438D01*
X149474514Y-95559418D01*
X149461224Y-95572709D01*
X149441763Y-95581301D01*
X149418387Y-95596921D01*
X149396551Y-95601264D01*
X149380017Y-95608565D01*
X149331629Y-95614178D01*
X149327500Y-95615000D01*
X148852500Y-95615000D01*
X148848373Y-95614179D01*
X148799982Y-95608565D01*
X148783446Y-95601264D01*
X148761613Y-95596921D01*
X148738238Y-95581302D01*
X148718775Y-95572709D01*
X148705482Y-95559416D01*
X148684562Y-95545438D01*
X148670583Y-95524517D01*
X148657290Y-95511224D01*
X148648695Y-95491759D01*
X148633079Y-95468387D01*
X148628736Y-95446555D01*
X148621434Y-95430017D01*
X148615818Y-95381616D01*
X148615000Y-95377500D01*
X148615000Y-94777500D01*
X148615818Y-94773385D01*
X148621434Y-94724982D01*
X148628736Y-94708442D01*
X148633079Y-94686613D01*
X148648694Y-94663242D01*
X148657290Y-94643775D01*
X148670585Y-94630479D01*
X148684562Y-94609562D01*
X148705479Y-94595585D01*
X148718775Y-94582290D01*
X148738242Y-94573694D01*
X148761613Y-94558079D01*
X148783442Y-94553736D01*
X148799982Y-94546434D01*
X148848384Y-94540818D01*
X148852500Y-94540000D01*
X149327500Y-94540000D01*
X149331615Y-94540818D01*
G37*
G36*
X138301615Y-94490818D02*
G01*
X138350017Y-94496434D01*
X138366555Y-94503736D01*
X138388387Y-94508079D01*
X138411759Y-94523695D01*
X138431224Y-94532290D01*
X138444517Y-94545583D01*
X138465438Y-94559562D01*
X138479416Y-94580482D01*
X138492709Y-94593775D01*
X138501302Y-94613238D01*
X138516921Y-94636613D01*
X138521264Y-94658446D01*
X138528565Y-94674982D01*
X138534178Y-94723372D01*
X138535000Y-94727500D01*
X138535000Y-95327500D01*
X138534178Y-95331627D01*
X138528565Y-95380017D01*
X138521264Y-95396551D01*
X138516921Y-95418387D01*
X138501301Y-95441763D01*
X138492709Y-95461224D01*
X138479418Y-95474514D01*
X138465438Y-95495438D01*
X138444514Y-95509418D01*
X138431224Y-95522709D01*
X138411763Y-95531301D01*
X138388387Y-95546921D01*
X138366551Y-95551264D01*
X138350017Y-95558565D01*
X138301629Y-95564178D01*
X138297500Y-95565000D01*
X137822500Y-95565000D01*
X137818373Y-95564179D01*
X137769982Y-95558565D01*
X137753446Y-95551264D01*
X137731613Y-95546921D01*
X137708238Y-95531302D01*
X137688775Y-95522709D01*
X137675482Y-95509416D01*
X137654562Y-95495438D01*
X137640583Y-95474517D01*
X137627290Y-95461224D01*
X137618695Y-95441759D01*
X137603079Y-95418387D01*
X137598736Y-95396555D01*
X137591434Y-95380017D01*
X137585818Y-95331616D01*
X137585000Y-95327500D01*
X137585000Y-94727500D01*
X137585818Y-94723385D01*
X137591434Y-94674982D01*
X137598736Y-94658442D01*
X137603079Y-94636613D01*
X137618694Y-94613242D01*
X137627290Y-94593775D01*
X137640585Y-94580479D01*
X137654562Y-94559562D01*
X137675479Y-94545585D01*
X137688775Y-94532290D01*
X137708242Y-94523694D01*
X137731613Y-94508079D01*
X137753442Y-94503736D01*
X137769982Y-94496434D01*
X137818384Y-94490818D01*
X137822500Y-94490000D01*
X138297500Y-94490000D01*
X138301615Y-94490818D01*
G37*
G36*
X136491615Y-94420818D02*
G01*
X136540017Y-94426434D01*
X136556555Y-94433736D01*
X136578387Y-94438079D01*
X136601759Y-94453695D01*
X136621224Y-94462290D01*
X136634517Y-94475583D01*
X136655438Y-94489562D01*
X136669416Y-94510482D01*
X136682709Y-94523775D01*
X136691302Y-94543238D01*
X136706921Y-94566613D01*
X136711264Y-94588446D01*
X136718565Y-94604982D01*
X136724178Y-94653372D01*
X136725000Y-94657500D01*
X136725000Y-95257500D01*
X136724178Y-95261627D01*
X136718565Y-95310017D01*
X136711264Y-95326551D01*
X136706921Y-95348387D01*
X136691301Y-95371763D01*
X136682709Y-95391224D01*
X136669418Y-95404514D01*
X136655438Y-95425438D01*
X136634514Y-95439418D01*
X136621224Y-95452709D01*
X136601763Y-95461301D01*
X136578387Y-95476921D01*
X136556551Y-95481264D01*
X136540017Y-95488565D01*
X136491629Y-95494178D01*
X136487500Y-95495000D01*
X136012500Y-95495000D01*
X136008373Y-95494179D01*
X135959982Y-95488565D01*
X135943446Y-95481264D01*
X135921613Y-95476921D01*
X135898238Y-95461302D01*
X135878775Y-95452709D01*
X135865482Y-95439416D01*
X135844562Y-95425438D01*
X135830583Y-95404517D01*
X135817290Y-95391224D01*
X135808695Y-95371759D01*
X135793079Y-95348387D01*
X135788736Y-95326555D01*
X135781434Y-95310017D01*
X135775818Y-95261616D01*
X135775000Y-95257500D01*
X135775000Y-94657500D01*
X135775818Y-94653385D01*
X135781434Y-94604982D01*
X135788736Y-94588442D01*
X135793079Y-94566613D01*
X135808694Y-94543242D01*
X135817290Y-94523775D01*
X135830585Y-94510479D01*
X135844562Y-94489562D01*
X135865479Y-94475585D01*
X135878775Y-94462290D01*
X135898242Y-94453694D01*
X135921613Y-94438079D01*
X135943442Y-94433736D01*
X135959982Y-94426434D01*
X136008384Y-94420818D01*
X136012500Y-94420000D01*
X136487500Y-94420000D01*
X136491615Y-94420818D01*
G37*
G36*
X153179116Y-94020818D02*
G01*
X153230379Y-94026766D01*
X153247892Y-94034499D01*
X153270671Y-94039030D01*
X153295057Y-94055324D01*
X153315788Y-94064478D01*
X153329946Y-94078636D01*
X153351777Y-94093223D01*
X153366363Y-94115053D01*
X153380521Y-94129211D01*
X153389673Y-94149939D01*
X153405970Y-94174329D01*
X153410501Y-94197109D01*
X153418233Y-94214620D01*
X153424178Y-94265872D01*
X153425000Y-94270000D01*
X153425000Y-94970000D01*
X153424178Y-94974128D01*
X153418233Y-95025379D01*
X153410501Y-95042888D01*
X153405970Y-95065671D01*
X153389672Y-95090062D01*
X153380521Y-95110788D01*
X153366365Y-95124943D01*
X153351777Y-95146777D01*
X153329943Y-95161365D01*
X153315788Y-95175521D01*
X153295062Y-95184672D01*
X153270671Y-95200970D01*
X153247888Y-95205501D01*
X153230379Y-95213233D01*
X153179129Y-95219178D01*
X153175000Y-95220000D01*
X151925000Y-95220000D01*
X151920873Y-95219179D01*
X151869620Y-95213233D01*
X151852109Y-95205501D01*
X151829329Y-95200970D01*
X151804939Y-95184673D01*
X151784211Y-95175521D01*
X151770053Y-95161363D01*
X151748223Y-95146777D01*
X151733636Y-95124946D01*
X151719478Y-95110788D01*
X151710324Y-95090057D01*
X151694030Y-95065671D01*
X151689499Y-95042892D01*
X151681766Y-95025379D01*
X151675818Y-94974117D01*
X151675000Y-94970000D01*
X151675000Y-94270000D01*
X151675818Y-94265885D01*
X151681766Y-94214620D01*
X151689499Y-94197105D01*
X151694030Y-94174329D01*
X151710323Y-94149944D01*
X151719478Y-94129211D01*
X151733638Y-94115050D01*
X151748223Y-94093223D01*
X151770050Y-94078638D01*
X151784211Y-94064478D01*
X151804944Y-94055323D01*
X151829329Y-94039030D01*
X151852105Y-94034499D01*
X151869620Y-94026766D01*
X151920884Y-94020818D01*
X151925000Y-94020000D01*
X153175000Y-94020000D01*
X153179116Y-94020818D01*
G37*
G36*
X133189570Y-94497929D02*
G01*
X133192499Y-94505000D01*
X133192499Y-95080000D01*
X133189570Y-95087071D01*
X133182499Y-95090000D01*
X133172394Y-95090000D01*
X132842604Y-95090000D01*
X132832499Y-95090000D01*
X132825428Y-95087071D01*
X132822499Y-95080000D01*
X132822499Y-94505000D01*
X132825428Y-94497929D01*
X132832499Y-94495000D01*
X133182499Y-94495000D01*
X133189570Y-94497929D01*
G37*
G36*
X133689570Y-94497929D02*
G01*
X133692499Y-94505000D01*
X133692499Y-95080000D01*
X133689570Y-95087071D01*
X133682499Y-95090000D01*
X133672394Y-95090000D01*
X133342604Y-95090000D01*
X133332499Y-95090000D01*
X133325428Y-95087071D01*
X133322499Y-95080000D01*
X133322499Y-94505000D01*
X133325428Y-94497929D01*
X133332499Y-94495000D01*
X133682499Y-94495000D01*
X133689570Y-94497929D01*
G37*
G36*
X134189570Y-94497929D02*
G01*
X134192499Y-94505000D01*
X134192499Y-95080000D01*
X134189570Y-95087071D01*
X134182499Y-95090000D01*
X134172394Y-95090000D01*
X133842604Y-95090000D01*
X133832499Y-95090000D01*
X133825428Y-95087071D01*
X133822499Y-95080000D01*
X133822499Y-94505000D01*
X133825428Y-94497929D01*
X133832499Y-94495000D01*
X134182499Y-94495000D01*
X134189570Y-94497929D01*
G37*
G36*
X142951615Y-93980818D02*
G01*
X143000017Y-93986434D01*
X143016555Y-93993736D01*
X143038387Y-93998079D01*
X143061759Y-94013695D01*
X143081224Y-94022290D01*
X143094517Y-94035583D01*
X143115438Y-94049562D01*
X143129416Y-94070482D01*
X143142709Y-94083775D01*
X143151302Y-94103238D01*
X143166921Y-94126613D01*
X143171264Y-94148446D01*
X143178565Y-94164982D01*
X143184178Y-94213372D01*
X143185000Y-94217500D01*
X143185000Y-94817500D01*
X143184178Y-94821627D01*
X143178565Y-94870017D01*
X143171264Y-94886551D01*
X143166921Y-94908387D01*
X143151301Y-94931763D01*
X143142709Y-94951224D01*
X143129418Y-94964514D01*
X143115438Y-94985438D01*
X143094514Y-94999418D01*
X143081224Y-95012709D01*
X143061763Y-95021301D01*
X143038387Y-95036921D01*
X143016551Y-95041264D01*
X143000017Y-95048565D01*
X142951629Y-95054178D01*
X142947500Y-95055000D01*
X142472500Y-95055000D01*
X142468373Y-95054179D01*
X142419982Y-95048565D01*
X142403446Y-95041264D01*
X142381613Y-95036921D01*
X142358238Y-95021302D01*
X142338775Y-95012709D01*
X142325482Y-94999416D01*
X142304562Y-94985438D01*
X142290583Y-94964517D01*
X142277290Y-94951224D01*
X142268695Y-94931759D01*
X142253079Y-94908387D01*
X142248736Y-94886555D01*
X142241434Y-94870017D01*
X142235818Y-94821616D01*
X142235000Y-94817500D01*
X142235000Y-94217500D01*
X142235818Y-94213385D01*
X142241434Y-94164982D01*
X142248736Y-94148442D01*
X142253079Y-94126613D01*
X142268694Y-94103242D01*
X142277290Y-94083775D01*
X142290585Y-94070479D01*
X142304562Y-94049562D01*
X142325479Y-94035585D01*
X142338775Y-94022290D01*
X142358242Y-94013694D01*
X142381613Y-93998079D01*
X142403442Y-93993736D01*
X142419982Y-93986434D01*
X142468384Y-93980818D01*
X142472500Y-93980000D01*
X142947500Y-93980000D01*
X142951615Y-93980818D01*
G37*
G36*
X145466254Y-94089190D02*
G01*
X145513945Y-94121055D01*
X145545810Y-94168746D01*
X145557000Y-94225000D01*
X145557000Y-94735000D01*
X145545810Y-94791254D01*
X145513945Y-94838945D01*
X145466254Y-94870810D01*
X145410000Y-94882000D01*
X144150000Y-94882000D01*
X144093746Y-94870810D01*
X144046055Y-94838945D01*
X144014190Y-94791254D01*
X144003000Y-94735000D01*
X144003000Y-94225000D01*
X144014190Y-94168746D01*
X144046055Y-94121055D01*
X144093746Y-94089190D01*
X144150000Y-94078000D01*
X145410000Y-94078000D01*
X145466254Y-94089190D01*
G37*
G36*
X147836254Y-94089190D02*
G01*
X147883945Y-94121055D01*
X147915810Y-94168746D01*
X147927000Y-94225000D01*
X147927000Y-94735000D01*
X147915810Y-94791254D01*
X147883945Y-94838945D01*
X147836254Y-94870810D01*
X147780000Y-94882000D01*
X146520000Y-94882000D01*
X146463746Y-94870810D01*
X146416055Y-94838945D01*
X146384190Y-94791254D01*
X146373000Y-94735000D01*
X146373000Y-94225000D01*
X146384190Y-94168746D01*
X146416055Y-94121055D01*
X146463746Y-94089190D01*
X146520000Y-94078000D01*
X147780000Y-94078000D01*
X147836254Y-94089190D01*
G37*
G36*
X175339199Y-90492272D02*
G01*
X175617167Y-90566754D01*
X175883035Y-90676880D01*
X176132255Y-90820767D01*
X176360561Y-90995952D01*
X176564048Y-91199439D01*
X176739233Y-91427745D01*
X176883120Y-91676965D01*
X176993246Y-91942833D01*
X177067728Y-92220801D01*
X177105290Y-92506113D01*
X177105290Y-92793887D01*
X177067728Y-93079199D01*
X176993246Y-93357167D01*
X176883120Y-93623035D01*
X176739233Y-93872255D01*
X176564048Y-94100561D01*
X176360561Y-94304048D01*
X176132255Y-94479233D01*
X175883035Y-94623120D01*
X175617167Y-94733246D01*
X175339199Y-94807728D01*
X175053887Y-94845290D01*
X174766113Y-94845290D01*
X174480801Y-94807728D01*
X174202833Y-94733246D01*
X173936965Y-94623120D01*
X173687745Y-94479233D01*
X173459439Y-94304048D01*
X173255952Y-94100561D01*
X173080767Y-93872255D01*
X172936880Y-93623035D01*
X172826754Y-93357167D01*
X172752272Y-93079199D01*
X172714710Y-92793887D01*
X172714710Y-92506113D01*
X172752272Y-92220801D01*
X172826754Y-91942833D01*
X172936880Y-91676965D01*
X173080767Y-91427745D01*
X173255952Y-91199439D01*
X173459439Y-90995952D01*
X173687745Y-90820767D01*
X173936965Y-90676880D01*
X174202833Y-90566754D01*
X174480801Y-90492272D01*
X174766113Y-90454710D01*
X175053887Y-90454710D01*
X175339199Y-90492272D01*
G37*
G36*
X132639570Y-94447929D02*
G01*
X132642499Y-94455000D01*
X132642499Y-94805000D01*
X132639570Y-94812071D01*
X132632499Y-94815000D01*
X132622394Y-94815000D01*
X132067604Y-94815000D01*
X132057499Y-94815000D01*
X132050428Y-94812071D01*
X132047499Y-94805000D01*
X132047499Y-94455000D01*
X132050428Y-94447929D01*
X132057499Y-94445000D01*
X132632499Y-94445000D01*
X132639570Y-94447929D01*
G37*
G36*
X134964570Y-94447929D02*
G01*
X134967499Y-94455000D01*
X134967499Y-94805000D01*
X134964570Y-94812071D01*
X134957499Y-94815000D01*
X134947394Y-94815000D01*
X134392604Y-94815000D01*
X134382499Y-94815000D01*
X134375428Y-94812071D01*
X134372499Y-94805000D01*
X134372499Y-94455000D01*
X134375428Y-94447929D01*
X134382499Y-94445000D01*
X134957499Y-94445000D01*
X134964570Y-94447929D01*
G37*
G36*
X126511615Y-93650818D02*
G01*
X126560017Y-93656434D01*
X126576555Y-93663736D01*
X126598387Y-93668079D01*
X126621759Y-93683695D01*
X126641224Y-93692290D01*
X126654517Y-93705583D01*
X126675438Y-93719562D01*
X126689416Y-93740482D01*
X126702709Y-93753775D01*
X126711302Y-93773238D01*
X126726921Y-93796613D01*
X126731264Y-93818446D01*
X126738565Y-93834982D01*
X126744178Y-93883372D01*
X126745000Y-93887500D01*
X126745000Y-94487500D01*
X126744178Y-94491627D01*
X126738565Y-94540017D01*
X126731264Y-94556551D01*
X126726921Y-94578387D01*
X126711301Y-94601763D01*
X126702709Y-94621224D01*
X126689418Y-94634514D01*
X126675438Y-94655438D01*
X126654514Y-94669418D01*
X126641224Y-94682709D01*
X126621763Y-94691301D01*
X126598387Y-94706921D01*
X126576551Y-94711264D01*
X126560017Y-94718565D01*
X126511629Y-94724178D01*
X126507500Y-94725000D01*
X126032500Y-94725000D01*
X126028373Y-94724179D01*
X125979982Y-94718565D01*
X125963446Y-94711264D01*
X125941613Y-94706921D01*
X125918238Y-94691302D01*
X125898775Y-94682709D01*
X125885482Y-94669416D01*
X125864562Y-94655438D01*
X125850583Y-94634517D01*
X125837290Y-94621224D01*
X125828695Y-94601759D01*
X125813079Y-94578387D01*
X125808736Y-94556555D01*
X125801434Y-94540017D01*
X125795818Y-94491616D01*
X125795000Y-94487500D01*
X125795000Y-93887500D01*
X125795818Y-93883385D01*
X125801434Y-93834982D01*
X125808736Y-93818442D01*
X125813079Y-93796613D01*
X125828694Y-93773242D01*
X125837290Y-93753775D01*
X125850585Y-93740479D01*
X125864562Y-93719562D01*
X125885479Y-93705585D01*
X125898775Y-93692290D01*
X125918242Y-93683694D01*
X125941613Y-93668079D01*
X125963442Y-93663736D01*
X125979982Y-93656434D01*
X126028384Y-93650818D01*
X126032500Y-93650000D01*
X126507500Y-93650000D01*
X126511615Y-93650818D01*
G37*
G36*
X132639571Y-93947929D02*
G01*
X132642500Y-93955000D01*
X132642499Y-94305000D01*
X132639570Y-94312071D01*
X132632499Y-94315000D01*
X132622395Y-94315000D01*
X132067604Y-94315000D01*
X132057499Y-94315000D01*
X132050428Y-94312071D01*
X132047499Y-94305000D01*
X132047499Y-93955000D01*
X132050428Y-93947929D01*
X132057499Y-93945000D01*
X132632500Y-93945000D01*
X132639571Y-93947929D01*
G37*
G36*
X134964570Y-93947929D02*
G01*
X134967499Y-93955000D01*
X134967499Y-94305000D01*
X134964570Y-94312071D01*
X134957499Y-94315000D01*
X134947394Y-94315000D01*
X134392604Y-94315000D01*
X134382499Y-94315000D01*
X134375428Y-94312071D01*
X134372499Y-94305000D01*
X134372498Y-94294897D01*
X134372498Y-94294895D01*
X134372498Y-93965103D01*
X134372498Y-93965102D01*
X134372498Y-93955000D01*
X134375427Y-93947929D01*
X134382498Y-93945000D01*
X134957499Y-93945000D01*
X134964570Y-93947929D01*
G37*
G36*
X128057802Y-94274002D02*
G01*
X127702202Y-94274002D01*
X127702202Y-93766002D01*
X128057802Y-93766002D01*
X128057802Y-94274002D01*
G37*
G36*
X128707800Y-94274002D02*
G01*
X128352200Y-94274002D01*
X128352200Y-93766002D01*
X128707800Y-93766002D01*
X128707800Y-94274002D01*
G37*
G36*
X129357802Y-94274002D02*
G01*
X129002202Y-94274002D01*
X129002202Y-93766002D01*
X129357802Y-93766002D01*
X129357802Y-94274002D01*
G37*
G36*
X130007800Y-94274002D02*
G01*
X129652200Y-94274002D01*
X129652200Y-93766002D01*
X130007800Y-93766002D01*
X130007800Y-94274002D01*
G37*
G36*
X140969116Y-92435818D02*
G01*
X141020379Y-92441766D01*
X141037892Y-92449499D01*
X141060671Y-92454030D01*
X141085057Y-92470324D01*
X141105788Y-92479478D01*
X141119946Y-92493636D01*
X141141777Y-92508223D01*
X141156363Y-92530053D01*
X141170521Y-92544211D01*
X141179673Y-92564939D01*
X141195970Y-92589329D01*
X141200501Y-92612109D01*
X141208233Y-92629620D01*
X141214178Y-92680872D01*
X141215000Y-92685000D01*
X141215000Y-93775000D01*
X141214178Y-93779128D01*
X141208233Y-93830379D01*
X141200501Y-93847888D01*
X141195970Y-93870671D01*
X141179672Y-93895062D01*
X141170521Y-93915788D01*
X141156365Y-93929943D01*
X141141777Y-93951777D01*
X141119943Y-93966365D01*
X141105788Y-93980521D01*
X141085062Y-93989672D01*
X141060671Y-94005970D01*
X141037888Y-94010501D01*
X141020379Y-94018233D01*
X140969129Y-94024178D01*
X140965000Y-94025000D01*
X140075000Y-94025000D01*
X140070873Y-94024179D01*
X140019620Y-94018233D01*
X140002109Y-94010501D01*
X139979329Y-94005970D01*
X139954939Y-93989673D01*
X139934211Y-93980521D01*
X139920053Y-93966363D01*
X139898223Y-93951777D01*
X139883636Y-93929946D01*
X139869478Y-93915788D01*
X139860324Y-93895057D01*
X139844030Y-93870671D01*
X139839499Y-93847892D01*
X139831766Y-93830379D01*
X139825818Y-93779117D01*
X139825000Y-93775000D01*
X139825000Y-92685000D01*
X139825818Y-92680885D01*
X139831766Y-92629620D01*
X139839499Y-92612105D01*
X139844030Y-92589329D01*
X139860323Y-92564944D01*
X139869478Y-92544211D01*
X139883638Y-92530050D01*
X139898223Y-92508223D01*
X139920050Y-92493638D01*
X139934211Y-92479478D01*
X139954944Y-92470323D01*
X139979329Y-92454030D01*
X140002105Y-92449499D01*
X140019620Y-92441766D01*
X140070884Y-92435818D01*
X140075000Y-92435000D01*
X140965000Y-92435000D01*
X140969116Y-92435818D01*
G37*
G36*
X132639570Y-93447929D02*
G01*
X132642499Y-93455000D01*
X132642500Y-93805000D01*
X132639571Y-93812071D01*
X132632500Y-93815000D01*
X132622396Y-93815000D01*
X132067604Y-93815000D01*
X132057499Y-93815000D01*
X132050428Y-93812071D01*
X132047499Y-93805000D01*
X132047499Y-93455000D01*
X132050428Y-93447929D01*
X132057499Y-93445000D01*
X132632499Y-93445000D01*
X132639570Y-93447929D01*
G37*
G36*
X134964570Y-93447929D02*
G01*
X134967499Y-93455000D01*
X134967499Y-93805000D01*
X134964570Y-93812071D01*
X134957499Y-93815000D01*
X134947394Y-93815000D01*
X134392603Y-93815000D01*
X134382498Y-93815000D01*
X134375427Y-93812071D01*
X134372498Y-93805000D01*
X134372498Y-93650000D01*
X134372498Y-93465104D01*
X134372498Y-93465101D01*
X134372499Y-93455000D01*
X134375428Y-93447929D01*
X134382499Y-93445000D01*
X134957499Y-93445000D01*
X134964570Y-93447929D01*
G37*
G36*
X132639570Y-92947929D02*
G01*
X132642499Y-92955000D01*
X132642499Y-93305000D01*
X132639570Y-93312071D01*
X132632499Y-93315000D01*
X132622394Y-93315000D01*
X132067604Y-93315000D01*
X132057499Y-93315000D01*
X132050428Y-93312071D01*
X132047499Y-93305000D01*
X132047499Y-92955000D01*
X132050428Y-92947929D01*
X132057499Y-92945000D01*
X132632499Y-92945000D01*
X132639570Y-92947929D01*
G37*
G36*
X134964570Y-92947929D02*
G01*
X134967499Y-92955000D01*
X134967499Y-93305000D01*
X134964570Y-93312071D01*
X134957499Y-93315000D01*
X134947394Y-93315000D01*
X134392604Y-93315000D01*
X134382499Y-93315000D01*
X134375428Y-93312071D01*
X134372499Y-93305000D01*
X134372499Y-92955000D01*
X134375428Y-92947929D01*
X134382499Y-92945000D01*
X134957499Y-92945000D01*
X134964570Y-92947929D01*
G37*
G36*
X133189570Y-92672929D02*
G01*
X133192499Y-92680000D01*
X133192499Y-93255000D01*
X133189570Y-93262071D01*
X133182499Y-93265000D01*
X133172394Y-93265000D01*
X132842604Y-93265000D01*
X132832499Y-93265000D01*
X132825428Y-93262071D01*
X132822499Y-93255000D01*
X132822499Y-92680000D01*
X132825428Y-92672929D01*
X132832499Y-92670000D01*
X133182499Y-92670000D01*
X133189570Y-92672929D01*
G37*
G36*
X133689570Y-92672929D02*
G01*
X133692499Y-92680000D01*
X133692499Y-93255000D01*
X133689570Y-93262071D01*
X133682499Y-93265000D01*
X133672394Y-93265000D01*
X133342604Y-93265000D01*
X133332499Y-93265000D01*
X133325428Y-93262071D01*
X133322499Y-93255000D01*
X133322499Y-92680000D01*
X133325428Y-92672929D01*
X133332499Y-92670000D01*
X133682499Y-92670000D01*
X133689570Y-92672929D01*
G37*
G36*
X134189570Y-92672929D02*
G01*
X134192499Y-92680000D01*
X134192499Y-93255000D01*
X134189570Y-93262071D01*
X134182499Y-93265000D01*
X134172394Y-93265000D01*
X133842604Y-93265000D01*
X133832499Y-93265000D01*
X133825428Y-93262071D01*
X133822499Y-93255000D01*
X133822499Y-92680000D01*
X133825428Y-92672929D01*
X133832499Y-92670000D01*
X134182499Y-92670000D01*
X134189570Y-92672929D01*
G37*
G36*
X148805022Y-90977929D02*
G01*
X148823823Y-90977929D01*
X148843665Y-90985616D01*
X148871232Y-90991100D01*
X148889738Y-91003465D01*
X148906598Y-91009997D01*
X148944789Y-91040248D01*
X148948283Y-91042583D01*
X149039639Y-91133939D01*
X149299757Y-91394056D01*
X149299760Y-91394060D01*
X149301836Y-91396136D01*
X149304163Y-91399618D01*
X149334421Y-91437820D01*
X149340952Y-91454678D01*
X149353319Y-91473187D01*
X149358802Y-91500754D01*
X149366490Y-91520596D01*
X149366490Y-91539396D01*
X149371399Y-91564074D01*
X149366490Y-91588751D01*
X149366490Y-91607551D01*
X149358803Y-91627391D01*
X149353319Y-91654961D01*
X149340951Y-91673470D01*
X149334421Y-91690327D01*
X149304175Y-91728510D01*
X149301836Y-91732012D01*
X148965961Y-92067887D01*
X148962471Y-92070218D01*
X148924276Y-92100472D01*
X148907419Y-92107002D01*
X148888910Y-92119370D01*
X148861342Y-92124853D01*
X148841501Y-92132541D01*
X148822700Y-92132541D01*
X148798023Y-92137450D01*
X148773346Y-92132541D01*
X148754545Y-92132541D01*
X148734703Y-92124853D01*
X148707136Y-92119370D01*
X148688627Y-92107003D01*
X148671769Y-92100472D01*
X148633580Y-92070222D01*
X148630085Y-92067887D01*
X148368830Y-91806632D01*
X148278610Y-91716413D01*
X148278606Y-91716408D01*
X148276532Y-91714334D01*
X148274206Y-91710852D01*
X148243946Y-91672649D01*
X148237414Y-91655789D01*
X148225049Y-91637283D01*
X148219564Y-91609715D01*
X148211878Y-91589873D01*
X148211878Y-91571073D01*
X148206969Y-91546396D01*
X148211878Y-91521718D01*
X148211878Y-91502918D01*
X148219565Y-91483074D01*
X148225049Y-91455509D01*
X148237413Y-91437003D01*
X148243946Y-91420142D01*
X148274201Y-91381945D01*
X148276532Y-91378458D01*
X148340431Y-91314559D01*
X148610327Y-91044661D01*
X148610336Y-91044653D01*
X148612407Y-91042583D01*
X148615881Y-91040261D01*
X148654091Y-91009997D01*
X148670952Y-91003464D01*
X148689458Y-90991100D01*
X148717023Y-90985616D01*
X148736867Y-90977929D01*
X148755668Y-90977929D01*
X148780345Y-90973020D01*
X148805022Y-90977929D01*
G37*
G36*
X125631615Y-90600817D02*
G01*
X125680017Y-90606433D01*
X125696555Y-90613735D01*
X125718387Y-90618078D01*
X125741759Y-90633694D01*
X125761224Y-90642289D01*
X125774517Y-90655582D01*
X125795438Y-90669561D01*
X125809416Y-90690481D01*
X125822709Y-90703774D01*
X125831302Y-90723237D01*
X125846921Y-90746612D01*
X125851264Y-90768445D01*
X125858565Y-90784981D01*
X125864178Y-90833371D01*
X125865000Y-90837499D01*
X125865000Y-91337499D01*
X125864178Y-91341626D01*
X125858565Y-91390016D01*
X125851264Y-91406550D01*
X125846921Y-91428386D01*
X125831301Y-91451762D01*
X125822709Y-91471223D01*
X125809418Y-91484513D01*
X125795438Y-91505437D01*
X125774514Y-91519417D01*
X125761224Y-91532708D01*
X125741763Y-91541300D01*
X125718387Y-91556920D01*
X125696551Y-91561263D01*
X125680017Y-91568564D01*
X125631629Y-91574177D01*
X125627500Y-91574999D01*
X125152500Y-91574999D01*
X125148373Y-91574178D01*
X125099982Y-91568564D01*
X125083446Y-91561263D01*
X125061613Y-91556920D01*
X125038238Y-91541301D01*
X125018775Y-91532708D01*
X125005482Y-91519415D01*
X124984562Y-91505437D01*
X124970583Y-91484516D01*
X124957290Y-91471223D01*
X124948695Y-91451758D01*
X124933079Y-91428386D01*
X124928736Y-91406554D01*
X124921434Y-91390016D01*
X124915818Y-91341615D01*
X124915000Y-91337499D01*
X124915000Y-90837499D01*
X124915818Y-90833384D01*
X124921434Y-90784981D01*
X124928736Y-90768441D01*
X124933079Y-90746612D01*
X124948694Y-90723241D01*
X124957290Y-90703774D01*
X124970585Y-90690478D01*
X124984562Y-90669561D01*
X125005479Y-90655584D01*
X125018775Y-90642289D01*
X125038242Y-90633693D01*
X125061613Y-90618078D01*
X125083442Y-90613735D01*
X125099982Y-90606433D01*
X125148384Y-90600817D01*
X125152500Y-90599999D01*
X125627500Y-90599999D01*
X125631615Y-90600817D01*
G37*
G36*
X127479114Y-90605819D02*
G01*
X127527516Y-90611435D01*
X127544054Y-90618737D01*
X127565886Y-90623080D01*
X127589258Y-90638696D01*
X127608723Y-90647291D01*
X127622016Y-90660584D01*
X127642937Y-90674563D01*
X127656915Y-90695483D01*
X127670208Y-90708776D01*
X127678801Y-90728239D01*
X127694420Y-90751614D01*
X127698763Y-90773447D01*
X127706064Y-90789983D01*
X127711677Y-90838373D01*
X127712499Y-90842501D01*
X127712499Y-91317501D01*
X127711677Y-91321628D01*
X127706064Y-91370018D01*
X127698763Y-91386552D01*
X127694420Y-91408388D01*
X127678800Y-91431764D01*
X127670208Y-91451225D01*
X127656917Y-91464515D01*
X127642937Y-91485439D01*
X127622013Y-91499419D01*
X127608723Y-91512710D01*
X127589262Y-91521302D01*
X127565886Y-91536922D01*
X127544050Y-91541265D01*
X127527516Y-91548566D01*
X127479128Y-91554179D01*
X127474999Y-91555001D01*
X126974999Y-91555001D01*
X126970872Y-91554180D01*
X126922481Y-91548566D01*
X126905945Y-91541265D01*
X126884112Y-91536922D01*
X126860737Y-91521303D01*
X126841274Y-91512710D01*
X126827981Y-91499417D01*
X126807061Y-91485439D01*
X126793082Y-91464518D01*
X126779789Y-91451225D01*
X126771194Y-91431760D01*
X126755578Y-91408388D01*
X126751235Y-91386556D01*
X126743933Y-91370018D01*
X126738317Y-91321617D01*
X126737499Y-91317501D01*
X126737499Y-90842501D01*
X126738317Y-90838386D01*
X126743933Y-90789983D01*
X126751235Y-90773443D01*
X126755578Y-90751614D01*
X126771193Y-90728243D01*
X126779789Y-90708776D01*
X126793084Y-90695480D01*
X126807061Y-90674563D01*
X126827978Y-90660586D01*
X126841274Y-90647291D01*
X126860741Y-90638695D01*
X126884112Y-90623080D01*
X126905941Y-90618737D01*
X126922481Y-90611435D01*
X126970883Y-90605819D01*
X126974999Y-90605001D01*
X127474999Y-90605001D01*
X127479114Y-90605819D01*
G37*
G36*
X129304114Y-90605819D02*
G01*
X129352516Y-90611435D01*
X129369054Y-90618737D01*
X129390886Y-90623080D01*
X129414258Y-90638696D01*
X129433723Y-90647291D01*
X129447016Y-90660584D01*
X129467937Y-90674563D01*
X129481915Y-90695483D01*
X129495208Y-90708776D01*
X129503801Y-90728239D01*
X129519420Y-90751614D01*
X129523763Y-90773447D01*
X129531064Y-90789983D01*
X129536677Y-90838373D01*
X129537499Y-90842501D01*
X129537499Y-91317501D01*
X129536677Y-91321628D01*
X129531064Y-91370018D01*
X129523763Y-91386552D01*
X129519420Y-91408388D01*
X129503800Y-91431764D01*
X129495208Y-91451225D01*
X129481917Y-91464515D01*
X129467937Y-91485439D01*
X129447013Y-91499419D01*
X129433723Y-91512710D01*
X129414262Y-91521302D01*
X129390886Y-91536922D01*
X129369050Y-91541265D01*
X129352516Y-91548566D01*
X129304128Y-91554179D01*
X129299999Y-91555001D01*
X128799999Y-91555001D01*
X128795872Y-91554180D01*
X128747481Y-91548566D01*
X128730945Y-91541265D01*
X128709112Y-91536922D01*
X128685737Y-91521303D01*
X128666274Y-91512710D01*
X128652981Y-91499417D01*
X128632061Y-91485439D01*
X128618082Y-91464518D01*
X128604789Y-91451225D01*
X128596194Y-91431760D01*
X128580578Y-91408388D01*
X128576235Y-91386556D01*
X128568933Y-91370018D01*
X128563317Y-91321617D01*
X128562499Y-91317501D01*
X128562499Y-90842501D01*
X128563317Y-90838386D01*
X128568933Y-90789983D01*
X128576235Y-90773443D01*
X128580578Y-90751614D01*
X128596193Y-90728243D01*
X128604789Y-90708776D01*
X128618084Y-90695480D01*
X128632061Y-90674563D01*
X128652978Y-90660586D01*
X128666274Y-90647291D01*
X128685741Y-90638695D01*
X128709112Y-90623080D01*
X128730941Y-90618737D01*
X128747481Y-90611435D01*
X128795883Y-90605819D01*
X128799999Y-90605001D01*
X129299999Y-90605001D01*
X129304114Y-90605819D01*
G37*
G36*
X150135022Y-89747929D02*
G01*
X150153823Y-89747929D01*
X150173665Y-89755616D01*
X150201232Y-89761100D01*
X150219738Y-89773465D01*
X150236598Y-89779997D01*
X150274789Y-89810248D01*
X150278283Y-89812583D01*
X150385258Y-89919558D01*
X150629757Y-90164056D01*
X150629760Y-90164060D01*
X150631836Y-90166136D01*
X150634163Y-90169618D01*
X150664421Y-90207820D01*
X150670952Y-90224678D01*
X150683319Y-90243187D01*
X150688802Y-90270754D01*
X150696490Y-90290596D01*
X150696490Y-90309396D01*
X150701399Y-90334074D01*
X150696490Y-90358751D01*
X150696490Y-90377551D01*
X150688803Y-90397391D01*
X150683319Y-90424961D01*
X150670951Y-90443470D01*
X150664421Y-90460327D01*
X150634175Y-90498510D01*
X150631836Y-90502012D01*
X150295961Y-90837887D01*
X150292471Y-90840218D01*
X150254276Y-90870472D01*
X150237419Y-90877002D01*
X150218910Y-90889370D01*
X150191342Y-90894853D01*
X150171501Y-90902541D01*
X150152700Y-90902541D01*
X150128023Y-90907450D01*
X150103346Y-90902541D01*
X150084545Y-90902541D01*
X150064703Y-90894853D01*
X150037136Y-90889370D01*
X150018627Y-90877003D01*
X150001769Y-90870472D01*
X149963580Y-90840222D01*
X149960085Y-90837887D01*
X149722197Y-90599999D01*
X149608610Y-90486413D01*
X149608606Y-90486408D01*
X149606532Y-90484334D01*
X149604206Y-90480852D01*
X149573946Y-90442649D01*
X149567414Y-90425789D01*
X149555049Y-90407283D01*
X149549564Y-90379715D01*
X149541878Y-90359873D01*
X149541878Y-90341073D01*
X149536969Y-90316396D01*
X149541878Y-90291718D01*
X149541878Y-90272918D01*
X149549565Y-90253074D01*
X149555049Y-90225509D01*
X149567413Y-90207003D01*
X149573946Y-90190142D01*
X149604201Y-90151945D01*
X149606532Y-90148458D01*
X149685537Y-90069453D01*
X149940327Y-89814661D01*
X149940336Y-89814653D01*
X149942407Y-89812583D01*
X149945881Y-89810261D01*
X149984091Y-89779997D01*
X150000952Y-89773464D01*
X150019458Y-89761100D01*
X150047023Y-89755616D01*
X150066867Y-89747929D01*
X150085668Y-89747929D01*
X150110345Y-89743020D01*
X150135022Y-89747929D01*
G37*
G36*
X147514552Y-89687459D02*
G01*
X147533353Y-89687459D01*
X147553195Y-89695146D01*
X147580762Y-89700630D01*
X147599268Y-89712995D01*
X147616128Y-89719527D01*
X147654319Y-89749778D01*
X147657813Y-89752113D01*
X147748409Y-89842709D01*
X148009287Y-90103586D01*
X148009290Y-90103590D01*
X148011366Y-90105666D01*
X148013693Y-90109148D01*
X148043951Y-90147350D01*
X148050482Y-90164208D01*
X148062849Y-90182717D01*
X148068332Y-90210284D01*
X148076020Y-90230126D01*
X148076020Y-90248926D01*
X148080929Y-90273604D01*
X148076020Y-90298281D01*
X148076020Y-90317081D01*
X148068333Y-90336921D01*
X148062849Y-90364491D01*
X148050481Y-90383000D01*
X148043951Y-90399857D01*
X148013705Y-90438040D01*
X148011366Y-90441542D01*
X147675491Y-90777417D01*
X147672001Y-90779748D01*
X147633806Y-90810002D01*
X147616949Y-90816532D01*
X147598440Y-90828900D01*
X147570872Y-90834383D01*
X147551031Y-90842071D01*
X147532230Y-90842071D01*
X147507553Y-90846980D01*
X147482876Y-90842071D01*
X147464075Y-90842071D01*
X147444233Y-90834383D01*
X147416666Y-90828900D01*
X147398157Y-90816533D01*
X147381299Y-90810002D01*
X147343110Y-90779752D01*
X147339615Y-90777417D01*
X147128952Y-90566754D01*
X146988140Y-90425943D01*
X146988136Y-90425938D01*
X146986062Y-90423864D01*
X146983736Y-90420382D01*
X146953476Y-90382179D01*
X146946944Y-90365319D01*
X146934579Y-90346813D01*
X146929094Y-90319245D01*
X146921408Y-90299403D01*
X146921408Y-90280603D01*
X146916499Y-90255926D01*
X146921408Y-90231248D01*
X146921408Y-90212448D01*
X146929095Y-90192604D01*
X146934579Y-90165039D01*
X146946943Y-90146533D01*
X146953476Y-90129672D01*
X146983731Y-90091475D01*
X146986062Y-90087988D01*
X147067657Y-90006393D01*
X147319857Y-89754191D01*
X147319866Y-89754183D01*
X147321937Y-89752113D01*
X147325411Y-89749791D01*
X147363621Y-89719527D01*
X147380482Y-89712994D01*
X147398988Y-89700630D01*
X147426553Y-89695146D01*
X147446397Y-89687459D01*
X147465198Y-89687459D01*
X147489875Y-89682550D01*
X147514552Y-89687459D01*
G37*
G36*
X118031173Y-88979938D02*
G01*
X118079837Y-89012455D01*
X118083372Y-89015990D01*
X118083376Y-89015993D01*
X118288430Y-89221046D01*
X118288434Y-89221052D01*
X118291969Y-89224587D01*
X118324486Y-89273251D01*
X118335903Y-89330653D01*
X118324486Y-89388055D01*
X118291969Y-89436719D01*
X117461119Y-90267569D01*
X117412455Y-90300086D01*
X117355053Y-90311503D01*
X117297651Y-90300086D01*
X117248987Y-90267569D01*
X117245450Y-90264032D01*
X117245447Y-90264030D01*
X117040393Y-90058977D01*
X117040388Y-90058970D01*
X117036855Y-90055437D01*
X117004338Y-90006773D01*
X116992921Y-89949371D01*
X117004338Y-89891969D01*
X117036855Y-89843305D01*
X117235602Y-89644558D01*
X117864165Y-89015993D01*
X117864171Y-89015988D01*
X117867705Y-89012455D01*
X117916369Y-88979938D01*
X117973771Y-88968521D01*
X118031173Y-88979938D01*
G37*
G36*
X131856615Y-89215818D02*
G01*
X131905017Y-89221434D01*
X131921555Y-89228736D01*
X131943387Y-89233079D01*
X131966759Y-89248695D01*
X131986224Y-89257290D01*
X131999517Y-89270583D01*
X132020438Y-89284562D01*
X132034416Y-89305482D01*
X132047709Y-89318775D01*
X132056302Y-89338238D01*
X132071921Y-89361613D01*
X132076264Y-89383446D01*
X132083565Y-89399982D01*
X132089178Y-89448372D01*
X132090000Y-89452500D01*
X132090000Y-89927500D01*
X132089178Y-89931627D01*
X132083565Y-89980017D01*
X132076264Y-89996551D01*
X132071921Y-90018387D01*
X132056301Y-90041763D01*
X132047709Y-90061224D01*
X132034418Y-90074514D01*
X132020438Y-90095438D01*
X131999514Y-90109418D01*
X131986224Y-90122709D01*
X131966763Y-90131301D01*
X131943387Y-90146921D01*
X131921551Y-90151264D01*
X131905017Y-90158565D01*
X131856629Y-90164178D01*
X131852500Y-90165000D01*
X131352500Y-90165000D01*
X131348373Y-90164179D01*
X131299982Y-90158565D01*
X131283446Y-90151264D01*
X131261613Y-90146921D01*
X131238238Y-90131302D01*
X131218775Y-90122709D01*
X131205482Y-90109416D01*
X131184562Y-90095438D01*
X131170583Y-90074517D01*
X131157290Y-90061224D01*
X131148695Y-90041759D01*
X131133079Y-90018387D01*
X131128736Y-89996555D01*
X131121434Y-89980017D01*
X131115818Y-89931616D01*
X131115000Y-89927500D01*
X131115000Y-89452500D01*
X131115818Y-89448385D01*
X131121434Y-89399982D01*
X131128736Y-89383442D01*
X131133079Y-89361613D01*
X131148694Y-89338242D01*
X131157290Y-89318775D01*
X131170585Y-89305479D01*
X131184562Y-89284562D01*
X131205479Y-89270585D01*
X131218775Y-89257290D01*
X131238242Y-89248694D01*
X131261613Y-89233079D01*
X131283442Y-89228736D01*
X131299982Y-89221434D01*
X131348384Y-89215818D01*
X131352500Y-89215000D01*
X131852500Y-89215000D01*
X131856615Y-89215818D01*
G37*
G36*
X133681615Y-89215818D02*
G01*
X133730017Y-89221434D01*
X133746555Y-89228736D01*
X133768387Y-89233079D01*
X133791759Y-89248695D01*
X133811224Y-89257290D01*
X133824517Y-89270583D01*
X133845438Y-89284562D01*
X133859416Y-89305482D01*
X133872709Y-89318775D01*
X133881302Y-89338238D01*
X133896921Y-89361613D01*
X133901264Y-89383446D01*
X133908565Y-89399982D01*
X133914178Y-89448372D01*
X133915000Y-89452500D01*
X133915000Y-89927500D01*
X133914178Y-89931627D01*
X133908565Y-89980017D01*
X133901264Y-89996551D01*
X133896921Y-90018387D01*
X133881301Y-90041763D01*
X133872709Y-90061224D01*
X133859418Y-90074514D01*
X133845438Y-90095438D01*
X133824514Y-90109418D01*
X133811224Y-90122709D01*
X133791763Y-90131301D01*
X133768387Y-90146921D01*
X133746551Y-90151264D01*
X133730017Y-90158565D01*
X133681629Y-90164178D01*
X133677500Y-90165000D01*
X133177500Y-90165000D01*
X133173373Y-90164179D01*
X133124982Y-90158565D01*
X133108446Y-90151264D01*
X133086613Y-90146921D01*
X133063238Y-90131302D01*
X133043775Y-90122709D01*
X133030482Y-90109416D01*
X133009562Y-90095438D01*
X132995583Y-90074517D01*
X132982290Y-90061224D01*
X132973695Y-90041759D01*
X132958079Y-90018387D01*
X132953736Y-89996555D01*
X132946434Y-89980017D01*
X132940818Y-89931616D01*
X132940000Y-89927500D01*
X132940000Y-89452500D01*
X132940818Y-89448385D01*
X132946434Y-89399982D01*
X132953736Y-89383442D01*
X132958079Y-89361613D01*
X132973694Y-89338242D01*
X132982290Y-89318775D01*
X132995585Y-89305479D01*
X133009562Y-89284562D01*
X133030479Y-89270585D01*
X133043775Y-89257290D01*
X133063242Y-89248694D01*
X133086613Y-89233079D01*
X133108442Y-89228736D01*
X133124982Y-89221434D01*
X133173384Y-89215818D01*
X133177500Y-89215000D01*
X133677500Y-89215000D01*
X133681615Y-89215818D01*
G37*
G36*
X135271615Y-89210818D02*
G01*
X135320017Y-89216434D01*
X135336555Y-89223736D01*
X135358387Y-89228079D01*
X135381759Y-89243695D01*
X135401224Y-89252290D01*
X135414517Y-89265583D01*
X135435438Y-89279562D01*
X135449416Y-89300482D01*
X135462709Y-89313775D01*
X135471302Y-89333238D01*
X135486921Y-89356613D01*
X135491264Y-89378446D01*
X135498565Y-89394982D01*
X135504178Y-89443372D01*
X135505000Y-89447500D01*
X135505000Y-89922500D01*
X135504178Y-89926627D01*
X135498565Y-89975017D01*
X135491264Y-89991551D01*
X135486921Y-90013387D01*
X135471301Y-90036763D01*
X135462709Y-90056224D01*
X135449418Y-90069514D01*
X135435438Y-90090438D01*
X135414514Y-90104418D01*
X135401224Y-90117709D01*
X135381763Y-90126301D01*
X135358387Y-90141921D01*
X135336551Y-90146264D01*
X135320017Y-90153565D01*
X135271629Y-90159178D01*
X135267500Y-90160000D01*
X134767500Y-90160000D01*
X134763373Y-90159179D01*
X134714982Y-90153565D01*
X134698446Y-90146264D01*
X134676613Y-90141921D01*
X134653238Y-90126302D01*
X134633775Y-90117709D01*
X134620482Y-90104416D01*
X134599562Y-90090438D01*
X134585583Y-90069517D01*
X134572290Y-90056224D01*
X134563695Y-90036759D01*
X134548079Y-90013387D01*
X134543736Y-89991555D01*
X134536434Y-89975017D01*
X134530818Y-89926616D01*
X134530000Y-89922500D01*
X134530000Y-89447500D01*
X134530818Y-89443385D01*
X134536434Y-89394982D01*
X134543736Y-89378442D01*
X134548079Y-89356613D01*
X134563694Y-89333242D01*
X134572290Y-89313775D01*
X134585585Y-89300479D01*
X134599562Y-89279562D01*
X134620479Y-89265585D01*
X134633775Y-89252290D01*
X134653242Y-89243694D01*
X134676613Y-89228079D01*
X134698442Y-89223736D01*
X134714982Y-89216434D01*
X134763384Y-89210818D01*
X134767500Y-89210000D01*
X135267500Y-89210000D01*
X135271615Y-89210818D01*
G37*
G36*
X137096615Y-89210818D02*
G01*
X137145017Y-89216434D01*
X137161555Y-89223736D01*
X137183387Y-89228079D01*
X137206759Y-89243695D01*
X137226224Y-89252290D01*
X137239517Y-89265583D01*
X137260438Y-89279562D01*
X137274416Y-89300482D01*
X137287709Y-89313775D01*
X137296302Y-89333238D01*
X137311921Y-89356613D01*
X137316264Y-89378446D01*
X137323565Y-89394982D01*
X137329178Y-89443372D01*
X137330000Y-89447500D01*
X137330000Y-89922500D01*
X137329178Y-89926627D01*
X137323565Y-89975017D01*
X137316264Y-89991551D01*
X137311921Y-90013387D01*
X137296301Y-90036763D01*
X137287709Y-90056224D01*
X137274418Y-90069514D01*
X137260438Y-90090438D01*
X137239514Y-90104418D01*
X137226224Y-90117709D01*
X137206763Y-90126301D01*
X137183387Y-90141921D01*
X137161551Y-90146264D01*
X137145017Y-90153565D01*
X137096629Y-90159178D01*
X137092500Y-90160000D01*
X136592500Y-90160000D01*
X136588373Y-90159179D01*
X136539982Y-90153565D01*
X136523446Y-90146264D01*
X136501613Y-90141921D01*
X136478238Y-90126302D01*
X136458775Y-90117709D01*
X136445482Y-90104416D01*
X136424562Y-90090438D01*
X136410583Y-90069517D01*
X136397290Y-90056224D01*
X136388695Y-90036759D01*
X136373079Y-90013387D01*
X136368736Y-89991555D01*
X136361434Y-89975017D01*
X136355818Y-89926616D01*
X136355000Y-89922500D01*
X136355000Y-89447500D01*
X136355818Y-89443385D01*
X136361434Y-89394982D01*
X136368736Y-89378442D01*
X136373079Y-89356613D01*
X136388694Y-89333242D01*
X136397290Y-89313775D01*
X136410585Y-89300479D01*
X136424562Y-89279562D01*
X136445479Y-89265585D01*
X136458775Y-89252290D01*
X136478242Y-89243694D01*
X136501613Y-89228079D01*
X136523442Y-89223736D01*
X136539982Y-89216434D01*
X136588384Y-89210818D01*
X136592500Y-89210000D01*
X137092500Y-89210000D01*
X137096615Y-89210818D01*
G37*
G36*
X154756790Y-87930393D02*
G01*
X154920952Y-87983733D01*
X155074748Y-88062096D01*
X155214393Y-88163553D01*
X155336447Y-88285607D01*
X155437904Y-88425252D01*
X155516267Y-88579048D01*
X155569607Y-88743210D01*
X155596609Y-88913695D01*
X155596609Y-89086305D01*
X155569607Y-89256790D01*
X155516267Y-89420952D01*
X155437904Y-89574748D01*
X155336447Y-89714393D01*
X155214393Y-89836447D01*
X155074748Y-89937904D01*
X154920952Y-90016267D01*
X154756790Y-90069607D01*
X154586305Y-90096609D01*
X154413695Y-90096609D01*
X154243210Y-90069607D01*
X154079048Y-90016267D01*
X153925252Y-89937904D01*
X153785607Y-89836447D01*
X153663553Y-89714393D01*
X153562096Y-89574748D01*
X153483733Y-89420952D01*
X153430393Y-89256790D01*
X153403391Y-89086305D01*
X153403391Y-88913695D01*
X153430393Y-88743210D01*
X153483733Y-88579048D01*
X153562096Y-88425252D01*
X153663553Y-88285607D01*
X153785607Y-88163553D01*
X153925252Y-88062096D01*
X154079048Y-87983733D01*
X154243210Y-87930393D01*
X154413695Y-87903391D01*
X154586305Y-87903391D01*
X154756790Y-87930393D01*
G37*
G36*
X127411614Y-88935818D02*
G01*
X127460016Y-88941434D01*
X127476554Y-88948736D01*
X127498386Y-88953079D01*
X127521758Y-88968695D01*
X127541223Y-88977290D01*
X127554516Y-88990583D01*
X127575437Y-89004562D01*
X127589415Y-89025482D01*
X127602708Y-89038775D01*
X127611301Y-89058238D01*
X127626920Y-89081613D01*
X127631263Y-89103446D01*
X127638564Y-89119982D01*
X127644177Y-89168372D01*
X127644999Y-89172500D01*
X127644999Y-89647500D01*
X127644177Y-89651627D01*
X127638564Y-89700017D01*
X127631263Y-89716551D01*
X127626920Y-89738387D01*
X127611300Y-89761763D01*
X127602708Y-89781224D01*
X127589417Y-89794514D01*
X127575437Y-89815438D01*
X127554513Y-89829418D01*
X127541223Y-89842709D01*
X127521762Y-89851301D01*
X127498386Y-89866921D01*
X127476550Y-89871264D01*
X127460016Y-89878565D01*
X127411628Y-89884178D01*
X127407499Y-89885000D01*
X126807499Y-89885000D01*
X126803372Y-89884179D01*
X126754981Y-89878565D01*
X126738445Y-89871264D01*
X126716612Y-89866921D01*
X126693237Y-89851302D01*
X126673774Y-89842709D01*
X126660481Y-89829416D01*
X126639561Y-89815438D01*
X126625582Y-89794517D01*
X126612289Y-89781224D01*
X126603694Y-89761759D01*
X126588078Y-89738387D01*
X126583735Y-89716555D01*
X126576433Y-89700017D01*
X126570817Y-89651616D01*
X126569999Y-89647500D01*
X126569999Y-89172500D01*
X126570817Y-89168385D01*
X126576433Y-89119982D01*
X126583735Y-89103442D01*
X126588078Y-89081613D01*
X126603693Y-89058242D01*
X126612289Y-89038775D01*
X126625584Y-89025479D01*
X126639561Y-89004562D01*
X126660478Y-88990585D01*
X126673774Y-88977290D01*
X126693241Y-88968694D01*
X126716612Y-88953079D01*
X126738441Y-88948736D01*
X126754981Y-88941434D01*
X126803383Y-88935818D01*
X126807499Y-88935000D01*
X127407499Y-88935000D01*
X127411614Y-88935818D01*
G37*
G36*
X129136616Y-88935818D02*
G01*
X129185018Y-88941434D01*
X129201556Y-88948736D01*
X129223388Y-88953079D01*
X129246760Y-88968695D01*
X129266225Y-88977290D01*
X129279518Y-88990583D01*
X129300439Y-89004562D01*
X129314417Y-89025482D01*
X129327710Y-89038775D01*
X129336303Y-89058238D01*
X129351922Y-89081613D01*
X129356265Y-89103446D01*
X129363566Y-89119982D01*
X129369179Y-89168372D01*
X129370001Y-89172500D01*
X129370001Y-89647500D01*
X129369179Y-89651627D01*
X129363566Y-89700017D01*
X129356265Y-89716551D01*
X129351922Y-89738387D01*
X129336302Y-89761763D01*
X129327710Y-89781224D01*
X129314419Y-89794514D01*
X129300439Y-89815438D01*
X129279515Y-89829418D01*
X129266225Y-89842709D01*
X129246764Y-89851301D01*
X129223388Y-89866921D01*
X129201552Y-89871264D01*
X129185018Y-89878565D01*
X129136630Y-89884178D01*
X129132501Y-89885000D01*
X128532501Y-89885000D01*
X128528374Y-89884179D01*
X128479983Y-89878565D01*
X128463447Y-89871264D01*
X128441614Y-89866921D01*
X128418239Y-89851302D01*
X128398776Y-89842709D01*
X128385483Y-89829416D01*
X128364563Y-89815438D01*
X128350584Y-89794517D01*
X128337291Y-89781224D01*
X128328696Y-89761759D01*
X128313080Y-89738387D01*
X128308737Y-89716555D01*
X128301435Y-89700017D01*
X128295819Y-89651616D01*
X128295001Y-89647500D01*
X128295001Y-89172500D01*
X128295819Y-89168385D01*
X128301435Y-89119982D01*
X128308737Y-89103442D01*
X128313080Y-89081613D01*
X128328695Y-89058242D01*
X128337291Y-89038775D01*
X128350586Y-89025479D01*
X128364563Y-89004562D01*
X128385480Y-88990585D01*
X128398776Y-88977290D01*
X128418243Y-88968694D01*
X128441614Y-88953079D01*
X128463443Y-88948736D01*
X128479983Y-88941434D01*
X128528385Y-88935818D01*
X128532501Y-88935000D01*
X129132501Y-88935000D01*
X129136616Y-88935818D01*
G37*
G36*
X125631615Y-88775817D02*
G01*
X125680017Y-88781433D01*
X125696555Y-88788735D01*
X125718387Y-88793078D01*
X125741759Y-88808694D01*
X125761224Y-88817289D01*
X125774517Y-88830582D01*
X125795438Y-88844561D01*
X125809416Y-88865481D01*
X125822709Y-88878774D01*
X125831302Y-88898237D01*
X125846921Y-88921612D01*
X125851264Y-88943445D01*
X125858565Y-88959981D01*
X125864178Y-89008371D01*
X125865000Y-89012499D01*
X125865000Y-89512499D01*
X125864178Y-89516626D01*
X125858565Y-89565016D01*
X125851264Y-89581550D01*
X125846921Y-89603386D01*
X125831301Y-89626762D01*
X125822709Y-89646223D01*
X125809418Y-89659513D01*
X125795438Y-89680437D01*
X125774514Y-89694417D01*
X125761224Y-89707708D01*
X125741763Y-89716300D01*
X125718387Y-89731920D01*
X125696551Y-89736263D01*
X125680017Y-89743564D01*
X125631629Y-89749177D01*
X125627500Y-89749999D01*
X125152500Y-89749999D01*
X125148373Y-89749178D01*
X125099982Y-89743564D01*
X125083446Y-89736263D01*
X125061613Y-89731920D01*
X125038238Y-89716301D01*
X125018775Y-89707708D01*
X125005482Y-89694415D01*
X124984562Y-89680437D01*
X124970583Y-89659516D01*
X124957290Y-89646223D01*
X124948695Y-89626758D01*
X124933079Y-89603386D01*
X124928736Y-89581554D01*
X124921434Y-89565016D01*
X124915818Y-89516615D01*
X124915000Y-89512499D01*
X124915000Y-89012499D01*
X124915818Y-89008384D01*
X124921434Y-88959981D01*
X124928736Y-88943441D01*
X124933079Y-88921612D01*
X124948694Y-88898241D01*
X124957290Y-88878774D01*
X124970585Y-88865478D01*
X124984562Y-88844561D01*
X125005479Y-88830584D01*
X125018775Y-88817289D01*
X125038242Y-88808693D01*
X125061613Y-88793078D01*
X125083442Y-88788735D01*
X125099982Y-88781433D01*
X125148384Y-88775817D01*
X125152500Y-88774999D01*
X125627500Y-88774999D01*
X125631615Y-88775817D01*
G37*
G36*
X120028750Y-88325864D02*
G01*
X120077414Y-88358381D01*
X120080949Y-88361916D01*
X120080953Y-88361919D01*
X120286007Y-88566972D01*
X120286011Y-88566978D01*
X120289546Y-88570513D01*
X120322063Y-88619177D01*
X120333480Y-88676579D01*
X120322063Y-88733981D01*
X120289546Y-88782645D01*
X119458696Y-89613495D01*
X119410032Y-89646012D01*
X119352630Y-89657429D01*
X119295228Y-89646012D01*
X119246564Y-89613495D01*
X119243027Y-89609958D01*
X119243024Y-89609956D01*
X119037970Y-89404903D01*
X119037965Y-89404896D01*
X119034432Y-89401363D01*
X119001915Y-89352699D01*
X118990498Y-89295297D01*
X119001915Y-89237895D01*
X119034432Y-89189231D01*
X119243725Y-88979938D01*
X119861742Y-88361919D01*
X119861748Y-88361914D01*
X119865282Y-88358381D01*
X119913946Y-88325864D01*
X119971348Y-88314447D01*
X120028750Y-88325864D01*
G37*
G36*
X148844552Y-88457459D02*
G01*
X148863353Y-88457459D01*
X148883195Y-88465146D01*
X148910762Y-88470630D01*
X148929268Y-88482995D01*
X148946128Y-88489527D01*
X148984319Y-88519778D01*
X148987813Y-88522113D01*
X149084877Y-88619177D01*
X149339287Y-88873586D01*
X149339290Y-88873590D01*
X149341366Y-88875666D01*
X149343693Y-88879148D01*
X149373951Y-88917350D01*
X149380482Y-88934208D01*
X149392849Y-88952717D01*
X149398332Y-88980284D01*
X149406020Y-89000126D01*
X149406020Y-89018926D01*
X149410929Y-89043604D01*
X149406020Y-89068281D01*
X149406020Y-89087081D01*
X149398333Y-89106921D01*
X149392849Y-89134491D01*
X149380481Y-89153000D01*
X149373951Y-89169857D01*
X149343705Y-89208040D01*
X149341366Y-89211542D01*
X149005491Y-89547417D01*
X149002001Y-89549748D01*
X148963806Y-89580002D01*
X148946949Y-89586532D01*
X148928440Y-89598900D01*
X148900872Y-89604383D01*
X148881031Y-89612071D01*
X148862230Y-89612071D01*
X148837553Y-89616980D01*
X148812876Y-89612071D01*
X148794075Y-89612071D01*
X148774233Y-89604383D01*
X148746666Y-89598900D01*
X148728157Y-89586533D01*
X148711299Y-89580002D01*
X148673110Y-89549752D01*
X148669615Y-89547417D01*
X148406760Y-89284562D01*
X148318140Y-89195943D01*
X148318136Y-89195938D01*
X148316062Y-89193864D01*
X148313736Y-89190382D01*
X148283476Y-89152179D01*
X148276944Y-89135319D01*
X148264579Y-89116813D01*
X148259094Y-89089245D01*
X148251408Y-89069403D01*
X148251408Y-89050603D01*
X148246499Y-89025926D01*
X148251408Y-89001248D01*
X148251408Y-88982448D01*
X148259095Y-88962604D01*
X148264579Y-88935039D01*
X148276943Y-88916533D01*
X148283476Y-88899672D01*
X148313731Y-88861475D01*
X148316062Y-88857988D01*
X148399051Y-88774999D01*
X148649857Y-88524191D01*
X148649866Y-88524183D01*
X148651937Y-88522113D01*
X148655411Y-88519791D01*
X148693621Y-88489527D01*
X148710482Y-88482994D01*
X148728988Y-88470630D01*
X148756553Y-88465146D01*
X148776397Y-88457459D01*
X148795198Y-88457459D01*
X148819875Y-88452550D01*
X148844552Y-88457459D01*
G37*
G36*
X175279199Y-84842272D02*
G01*
X175557167Y-84916754D01*
X175823035Y-85026880D01*
X176072255Y-85170767D01*
X176300561Y-85345952D01*
X176504048Y-85549439D01*
X176679233Y-85777745D01*
X176823120Y-86026965D01*
X176933246Y-86292833D01*
X177007728Y-86570801D01*
X177045290Y-86856113D01*
X177045290Y-87143887D01*
X177007728Y-87429199D01*
X176933246Y-87707167D01*
X176823120Y-87973035D01*
X176679233Y-88222255D01*
X176504048Y-88450561D01*
X176300561Y-88654048D01*
X176072255Y-88829233D01*
X175823035Y-88973120D01*
X175557167Y-89083246D01*
X175279199Y-89157728D01*
X174993887Y-89195290D01*
X174706113Y-89195290D01*
X174420801Y-89157728D01*
X174142833Y-89083246D01*
X173876965Y-88973120D01*
X173627745Y-88829233D01*
X173399439Y-88654048D01*
X173195952Y-88450561D01*
X173020767Y-88222255D01*
X172876880Y-87973035D01*
X172766754Y-87707167D01*
X172692272Y-87429199D01*
X172654710Y-87143887D01*
X172654710Y-86856113D01*
X172692272Y-86570801D01*
X172766754Y-86292833D01*
X172876880Y-86026965D01*
X173020767Y-85777745D01*
X173195952Y-85549439D01*
X173399439Y-85345952D01*
X173627745Y-85170767D01*
X173876965Y-85026880D01*
X174142833Y-84916754D01*
X174420801Y-84842272D01*
X174706113Y-84804710D01*
X174993887Y-84804710D01*
X175279199Y-84842272D01*
G37*
G36*
X146371992Y-87769926D02*
G01*
X146420656Y-87802443D01*
X146632730Y-88014517D01*
X147247967Y-88629753D01*
X147247969Y-88629756D01*
X147251506Y-88633293D01*
X147284023Y-88681957D01*
X147295440Y-88739359D01*
X147284023Y-88796761D01*
X147251506Y-88845425D01*
X147247967Y-88848964D01*
X147042914Y-89054018D01*
X147042910Y-89054020D01*
X147039374Y-89057557D01*
X146990710Y-89090074D01*
X146933308Y-89101491D01*
X146875906Y-89090074D01*
X146827242Y-89057557D01*
X146206618Y-88436933D01*
X145999930Y-88230246D01*
X145999927Y-88230242D01*
X145996392Y-88226707D01*
X145963875Y-88178043D01*
X145952458Y-88120641D01*
X145963875Y-88063239D01*
X145996392Y-88014575D01*
X145999925Y-88011041D01*
X145999930Y-88011035D01*
X146204983Y-87805981D01*
X146204992Y-87805974D01*
X146208524Y-87802443D01*
X146257188Y-87769926D01*
X146314590Y-87758509D01*
X146371992Y-87769926D01*
G37*
G36*
X150362942Y-87577219D02*
G01*
X150381741Y-87577219D01*
X150401580Y-87584904D01*
X150429150Y-87590389D01*
X150447658Y-87602756D01*
X150464517Y-87609287D01*
X150502707Y-87639537D01*
X150506201Y-87641872D01*
X150842077Y-87977748D01*
X150844409Y-87981238D01*
X150874661Y-88019432D01*
X150881191Y-88036287D01*
X150893560Y-88054799D01*
X150899044Y-88082369D01*
X150906730Y-88102208D01*
X150906730Y-88121007D01*
X150911639Y-88145686D01*
X150906730Y-88170364D01*
X150906730Y-88189163D01*
X150899044Y-88209000D01*
X150893560Y-88236573D01*
X150881190Y-88255085D01*
X150874661Y-88271940D01*
X150844416Y-88310122D01*
X150842077Y-88313624D01*
X150417813Y-88737888D01*
X150414315Y-88740224D01*
X150376128Y-88770472D01*
X150359274Y-88777001D01*
X150340762Y-88789371D01*
X150313190Y-88794855D01*
X150293353Y-88802541D01*
X150274554Y-88802541D01*
X150249875Y-88807450D01*
X150225196Y-88802541D01*
X150206397Y-88802541D01*
X150186558Y-88794855D01*
X150158988Y-88789371D01*
X150140477Y-88777002D01*
X150123620Y-88770472D01*
X150085432Y-88740223D01*
X150081937Y-88737888D01*
X149746061Y-88402012D01*
X149743729Y-88398522D01*
X149713476Y-88360327D01*
X149706945Y-88343471D01*
X149694578Y-88324961D01*
X149689093Y-88297389D01*
X149681408Y-88277551D01*
X149681408Y-88258752D01*
X149676499Y-88234074D01*
X149681408Y-88209395D01*
X149681408Y-88190596D01*
X149689094Y-88170756D01*
X149694578Y-88143187D01*
X149706944Y-88124679D01*
X149713476Y-88107819D01*
X149743730Y-88069623D01*
X149746061Y-88066136D01*
X149923145Y-87889052D01*
X150168245Y-87643951D01*
X150168249Y-87643947D01*
X150170325Y-87641872D01*
X150173807Y-87639544D01*
X150212009Y-87609287D01*
X150228867Y-87602756D01*
X150247376Y-87590389D01*
X150274945Y-87584904D01*
X150294785Y-87577219D01*
X150313584Y-87577219D01*
X150338263Y-87572310D01*
X150362942Y-87577219D01*
G37*
G36*
X121798741Y-87598389D02*
G01*
X121817542Y-87598389D01*
X121837384Y-87606076D01*
X121864951Y-87611560D01*
X121883457Y-87623925D01*
X121900317Y-87630457D01*
X121938508Y-87660708D01*
X121942002Y-87663043D01*
X122035951Y-87756992D01*
X122275798Y-87996838D01*
X122275801Y-87996842D01*
X122277877Y-87998918D01*
X122280204Y-88002400D01*
X122310462Y-88040602D01*
X122316993Y-88057460D01*
X122329360Y-88075969D01*
X122334843Y-88103536D01*
X122342531Y-88123378D01*
X122342531Y-88142178D01*
X122347440Y-88166856D01*
X122342531Y-88191533D01*
X122342531Y-88210333D01*
X122334844Y-88230173D01*
X122329360Y-88257743D01*
X122316992Y-88276252D01*
X122310462Y-88293109D01*
X122280216Y-88331292D01*
X122277877Y-88334794D01*
X121924324Y-88688347D01*
X121920834Y-88690678D01*
X121882639Y-88720932D01*
X121865782Y-88727462D01*
X121847273Y-88739830D01*
X121819705Y-88745313D01*
X121799864Y-88753001D01*
X121781063Y-88753001D01*
X121756386Y-88757910D01*
X121731709Y-88753001D01*
X121712908Y-88753001D01*
X121693066Y-88745313D01*
X121665499Y-88739830D01*
X121646990Y-88727463D01*
X121630132Y-88720932D01*
X121591943Y-88690682D01*
X121588448Y-88688347D01*
X121344501Y-88444400D01*
X121254651Y-88354551D01*
X121254647Y-88354546D01*
X121252573Y-88352472D01*
X121250247Y-88348990D01*
X121219987Y-88310787D01*
X121213455Y-88293927D01*
X121201090Y-88275421D01*
X121195605Y-88247853D01*
X121187919Y-88228011D01*
X121187919Y-88209211D01*
X121183010Y-88184534D01*
X121187919Y-88159856D01*
X121187919Y-88141056D01*
X121195606Y-88121212D01*
X121201090Y-88093647D01*
X121213454Y-88075141D01*
X121219987Y-88058280D01*
X121250242Y-88020083D01*
X121252573Y-88016596D01*
X121338776Y-87930393D01*
X121604046Y-87665121D01*
X121604055Y-87665113D01*
X121606126Y-87663043D01*
X121609600Y-87660721D01*
X121647810Y-87630457D01*
X121664671Y-87623924D01*
X121683177Y-87611560D01*
X121710742Y-87606076D01*
X121730586Y-87598389D01*
X121749387Y-87598389D01*
X121774064Y-87593480D01*
X121798741Y-87598389D01*
G37*
G36*
X118685247Y-86982361D02*
G01*
X118733911Y-87014878D01*
X118737446Y-87018413D01*
X118737450Y-87018416D01*
X118942504Y-87223469D01*
X118942508Y-87223475D01*
X118946043Y-87227010D01*
X118978560Y-87275674D01*
X118989977Y-87333076D01*
X118978560Y-87390478D01*
X118946043Y-87439142D01*
X118115193Y-88269992D01*
X118066529Y-88302509D01*
X118009127Y-88313926D01*
X117951725Y-88302509D01*
X117903061Y-88269992D01*
X117899524Y-88266455D01*
X117899521Y-88266453D01*
X117694467Y-88061400D01*
X117694462Y-88061393D01*
X117690929Y-88057860D01*
X117658412Y-88009196D01*
X117646995Y-87951794D01*
X117658412Y-87894392D01*
X117690929Y-87845728D01*
X117894785Y-87641872D01*
X118518239Y-87018416D01*
X118518245Y-87018411D01*
X118521779Y-87014878D01*
X118570443Y-86982361D01*
X118627845Y-86970944D01*
X118685247Y-86982361D01*
G37*
G36*
X116055394Y-86750132D02*
G01*
X116291196Y-86985933D01*
X116291198Y-86985936D01*
X116294736Y-86989474D01*
X115468553Y-87815657D01*
X115230115Y-87577219D01*
X115148803Y-87495908D01*
X115148800Y-87495904D01*
X115145264Y-87492368D01*
X115351382Y-87286250D01*
X115967906Y-86669724D01*
X115967912Y-86669719D01*
X115971447Y-86666185D01*
X116055394Y-86750132D01*
G37*
G36*
X147715495Y-86426423D02*
G01*
X147764159Y-86458940D01*
X147974943Y-86669724D01*
X148591470Y-87286250D01*
X148591472Y-87286253D01*
X148595009Y-87289790D01*
X148627526Y-87338454D01*
X148638943Y-87395856D01*
X148627526Y-87453258D01*
X148595009Y-87501922D01*
X148591470Y-87505461D01*
X148386417Y-87710515D01*
X148386413Y-87710517D01*
X148382877Y-87714054D01*
X148334213Y-87746571D01*
X148276811Y-87757988D01*
X148219409Y-87746571D01*
X148170745Y-87714054D01*
X147550555Y-87093864D01*
X147343433Y-86886743D01*
X147343430Y-86886739D01*
X147339895Y-86883204D01*
X147307378Y-86834540D01*
X147295961Y-86777138D01*
X147307378Y-86719736D01*
X147339895Y-86671072D01*
X147343428Y-86667538D01*
X147343433Y-86667532D01*
X147548486Y-86462478D01*
X147548495Y-86462471D01*
X147552027Y-86458940D01*
X147600691Y-86426423D01*
X147658093Y-86415006D01*
X147715495Y-86426423D01*
G37*
G36*
X151582702Y-86357459D02*
G01*
X151601501Y-86357459D01*
X151621340Y-86365144D01*
X151648910Y-86370629D01*
X151667418Y-86382996D01*
X151684277Y-86389527D01*
X151722467Y-86419777D01*
X151725961Y-86422112D01*
X152061837Y-86757988D01*
X152064169Y-86761478D01*
X152094421Y-86799672D01*
X152100951Y-86816527D01*
X152113320Y-86835039D01*
X152118804Y-86862609D01*
X152126490Y-86882448D01*
X152126490Y-86901247D01*
X152131399Y-86925926D01*
X152126490Y-86950604D01*
X152126490Y-86969403D01*
X152118804Y-86989240D01*
X152113320Y-87016813D01*
X152100950Y-87035325D01*
X152094421Y-87052180D01*
X152064176Y-87090362D01*
X152061837Y-87093864D01*
X151637573Y-87518128D01*
X151634075Y-87520464D01*
X151595888Y-87550712D01*
X151579034Y-87557241D01*
X151560522Y-87569611D01*
X151532950Y-87575095D01*
X151513113Y-87582781D01*
X151494314Y-87582781D01*
X151469635Y-87587690D01*
X151444956Y-87582781D01*
X151426157Y-87582781D01*
X151406318Y-87575095D01*
X151378748Y-87569611D01*
X151360237Y-87557242D01*
X151343380Y-87550712D01*
X151305192Y-87520463D01*
X151301697Y-87518128D01*
X150965821Y-87182252D01*
X150963489Y-87178762D01*
X150933236Y-87140567D01*
X150926705Y-87123711D01*
X150914338Y-87105201D01*
X150908853Y-87077629D01*
X150901168Y-87057791D01*
X150901168Y-87038992D01*
X150896259Y-87014314D01*
X150901168Y-86989635D01*
X150901168Y-86970836D01*
X150908854Y-86950996D01*
X150914338Y-86923427D01*
X150926704Y-86904919D01*
X150933236Y-86888059D01*
X150963490Y-86849863D01*
X150965821Y-86846376D01*
X151176481Y-86635716D01*
X151388005Y-86424191D01*
X151388009Y-86424187D01*
X151390085Y-86422112D01*
X151393567Y-86419784D01*
X151431769Y-86389527D01*
X151448627Y-86382996D01*
X151467136Y-86370629D01*
X151494705Y-86365144D01*
X151514545Y-86357459D01*
X151533344Y-86357459D01*
X151558023Y-86352550D01*
X151582702Y-86357459D01*
G37*
G36*
X120611545Y-86395586D02*
G01*
X120630346Y-86395586D01*
X120650188Y-86403273D01*
X120677755Y-86408757D01*
X120696261Y-86421122D01*
X120713121Y-86427654D01*
X120751312Y-86457905D01*
X120754806Y-86460240D01*
X120865367Y-86570801D01*
X121088602Y-86794035D01*
X121088605Y-86794039D01*
X121090681Y-86796115D01*
X121093008Y-86799597D01*
X121123266Y-86837799D01*
X121129797Y-86854657D01*
X121142164Y-86873166D01*
X121147647Y-86900733D01*
X121155335Y-86920575D01*
X121155335Y-86939375D01*
X121160244Y-86964053D01*
X121155335Y-86988730D01*
X121155335Y-87007530D01*
X121147648Y-87027370D01*
X121142164Y-87054940D01*
X121129796Y-87073449D01*
X121123266Y-87090306D01*
X121093020Y-87128489D01*
X121090681Y-87131991D01*
X120737128Y-87485544D01*
X120733638Y-87487875D01*
X120695443Y-87518129D01*
X120678586Y-87524659D01*
X120660077Y-87537027D01*
X120632509Y-87542510D01*
X120612668Y-87550198D01*
X120593867Y-87550198D01*
X120569190Y-87555107D01*
X120544513Y-87550198D01*
X120525712Y-87550198D01*
X120505870Y-87542510D01*
X120478303Y-87537027D01*
X120459794Y-87524660D01*
X120442936Y-87518129D01*
X120404747Y-87487879D01*
X120401252Y-87485544D01*
X120191382Y-87275674D01*
X120067455Y-87151748D01*
X120067451Y-87151743D01*
X120065377Y-87149669D01*
X120063051Y-87146187D01*
X120032791Y-87107984D01*
X120026259Y-87091124D01*
X120013894Y-87072618D01*
X120008409Y-87045050D01*
X120000723Y-87025208D01*
X120000723Y-87006408D01*
X119995814Y-86981731D01*
X120000723Y-86957053D01*
X120000723Y-86938253D01*
X120008410Y-86918409D01*
X120013894Y-86890844D01*
X120026258Y-86872338D01*
X120032791Y-86855477D01*
X120063046Y-86817280D01*
X120065377Y-86813793D01*
X120153044Y-86726126D01*
X120416850Y-86462318D01*
X120416859Y-86462310D01*
X120418930Y-86460240D01*
X120422404Y-86457918D01*
X120460614Y-86427654D01*
X120477475Y-86421121D01*
X120495981Y-86408757D01*
X120523546Y-86403273D01*
X120543390Y-86395586D01*
X120562191Y-86395586D01*
X120586868Y-86390677D01*
X120611545Y-86395586D01*
G37*
G36*
X123089211Y-86307919D02*
G01*
X123108012Y-86307919D01*
X123127854Y-86315606D01*
X123155421Y-86321090D01*
X123173927Y-86333455D01*
X123190787Y-86339987D01*
X123228978Y-86370238D01*
X123232472Y-86372573D01*
X123318839Y-86458940D01*
X123566268Y-86706368D01*
X123566271Y-86706372D01*
X123568347Y-86708448D01*
X123570674Y-86711930D01*
X123600932Y-86750132D01*
X123607463Y-86766990D01*
X123619830Y-86785499D01*
X123625313Y-86813066D01*
X123633001Y-86832908D01*
X123633001Y-86851708D01*
X123637910Y-86876386D01*
X123633001Y-86901063D01*
X123633001Y-86919863D01*
X123625314Y-86939703D01*
X123619830Y-86967273D01*
X123607462Y-86985782D01*
X123600932Y-87002639D01*
X123570686Y-87040822D01*
X123568347Y-87044324D01*
X123214794Y-87397877D01*
X123211304Y-87400208D01*
X123173109Y-87430462D01*
X123156252Y-87436992D01*
X123137743Y-87449360D01*
X123110175Y-87454843D01*
X123090334Y-87462531D01*
X123071533Y-87462531D01*
X123046856Y-87467440D01*
X123022179Y-87462531D01*
X123003378Y-87462531D01*
X122983536Y-87454843D01*
X122955969Y-87449360D01*
X122937460Y-87436993D01*
X122920602Y-87430462D01*
X122882413Y-87400212D01*
X122878918Y-87397877D01*
X122630710Y-87149669D01*
X122545121Y-87064081D01*
X122545117Y-87064076D01*
X122543043Y-87062002D01*
X122540717Y-87058520D01*
X122510457Y-87020317D01*
X122503925Y-87003457D01*
X122491560Y-86984951D01*
X122486075Y-86957383D01*
X122478389Y-86937541D01*
X122478389Y-86918741D01*
X122473480Y-86894064D01*
X122478389Y-86869386D01*
X122478389Y-86850586D01*
X122486076Y-86830742D01*
X122491560Y-86803177D01*
X122503924Y-86784671D01*
X122510457Y-86767810D01*
X122540712Y-86729613D01*
X122543043Y-86726126D01*
X122616175Y-86652994D01*
X122894516Y-86374651D01*
X122894525Y-86374643D01*
X122896596Y-86372573D01*
X122900070Y-86370251D01*
X122938280Y-86339987D01*
X122955141Y-86333454D01*
X122973647Y-86321090D01*
X123001212Y-86315606D01*
X123021056Y-86307919D01*
X123039857Y-86307919D01*
X123064534Y-86303010D01*
X123089211Y-86307919D01*
G37*
G36*
X127549034Y-86305764D02*
G01*
X127582125Y-86327875D01*
X127604236Y-86360966D01*
X127612000Y-86400000D01*
X127612000Y-87100000D01*
X127604236Y-87139034D01*
X127582125Y-87172125D01*
X127549034Y-87194236D01*
X127510000Y-87202000D01*
X126810000Y-87202000D01*
X126770966Y-87194236D01*
X126737875Y-87172125D01*
X126715764Y-87139034D01*
X126708000Y-87100000D01*
X126708000Y-86400000D01*
X126715764Y-86360966D01*
X126737875Y-86327875D01*
X126770966Y-86305764D01*
X126810000Y-86298000D01*
X127510000Y-86298000D01*
X127549034Y-86305764D01*
G37*
G36*
X128549034Y-86205764D02*
G01*
X128582125Y-86227875D01*
X128604236Y-86260966D01*
X128612000Y-86300000D01*
X128612000Y-87100000D01*
X128604236Y-87139034D01*
X128582125Y-87172125D01*
X128549034Y-87194236D01*
X128510000Y-87202000D01*
X128110000Y-87202000D01*
X128070966Y-87194236D01*
X128037875Y-87172125D01*
X128015764Y-87139034D01*
X128008000Y-87100000D01*
X128008000Y-86300000D01*
X128015764Y-86260966D01*
X128037875Y-86227875D01*
X128070966Y-86205764D01*
X128110000Y-86198000D01*
X128510000Y-86198000D01*
X128549034Y-86205764D01*
G37*
G36*
X129349034Y-86205764D02*
G01*
X129382125Y-86227875D01*
X129404236Y-86260966D01*
X129412000Y-86300000D01*
X129412000Y-87100000D01*
X129404236Y-87139034D01*
X129382125Y-87172125D01*
X129349034Y-87194236D01*
X129310000Y-87202000D01*
X128910000Y-87202000D01*
X128870966Y-87194236D01*
X128837875Y-87172125D01*
X128815764Y-87139034D01*
X128808000Y-87100000D01*
X128808000Y-86300000D01*
X128815764Y-86260966D01*
X128837875Y-86227875D01*
X128870966Y-86205764D01*
X128910000Y-86198000D01*
X129310000Y-86198000D01*
X129349034Y-86205764D01*
G37*
G36*
X130149034Y-86205764D02*
G01*
X130182125Y-86227875D01*
X130204236Y-86260966D01*
X130212000Y-86300000D01*
X130212000Y-87100000D01*
X130204236Y-87139034D01*
X130182125Y-87172125D01*
X130149034Y-87194236D01*
X130110000Y-87202000D01*
X129710000Y-87202000D01*
X129670966Y-87194236D01*
X129637875Y-87172125D01*
X129615764Y-87139034D01*
X129608000Y-87100000D01*
X129608000Y-86300000D01*
X129615764Y-86260966D01*
X129637875Y-86227875D01*
X129670966Y-86205764D01*
X129710000Y-86198000D01*
X130110000Y-86198000D01*
X130149034Y-86205764D01*
G37*
G36*
X130949034Y-86205764D02*
G01*
X130982125Y-86227875D01*
X131004236Y-86260966D01*
X131012000Y-86300000D01*
X131012000Y-87100000D01*
X131004236Y-87139034D01*
X130982125Y-87172125D01*
X130949034Y-87194236D01*
X130910000Y-87202000D01*
X130510000Y-87202000D01*
X130470966Y-87194236D01*
X130437875Y-87172125D01*
X130415764Y-87139034D01*
X130408000Y-87100000D01*
X130408000Y-86300000D01*
X130415764Y-86260966D01*
X130437875Y-86227875D01*
X130470966Y-86205764D01*
X130510000Y-86198000D01*
X130910000Y-86198000D01*
X130949034Y-86205764D01*
G37*
G36*
X131749034Y-86205764D02*
G01*
X131782125Y-86227875D01*
X131804236Y-86260966D01*
X131812000Y-86300000D01*
X131812000Y-87100000D01*
X131804236Y-87139034D01*
X131782125Y-87172125D01*
X131749034Y-87194236D01*
X131710000Y-87202000D01*
X131310000Y-87202000D01*
X131270966Y-87194236D01*
X131237875Y-87172125D01*
X131215764Y-87139034D01*
X131208000Y-87100000D01*
X131208000Y-86300000D01*
X131215764Y-86260966D01*
X131237875Y-86227875D01*
X131270966Y-86205764D01*
X131310000Y-86198000D01*
X131710000Y-86198000D01*
X131749034Y-86205764D01*
G37*
G36*
X132549034Y-86205764D02*
G01*
X132582125Y-86227875D01*
X132604236Y-86260966D01*
X132612000Y-86300000D01*
X132612000Y-87100000D01*
X132604236Y-87139034D01*
X132582125Y-87172125D01*
X132549034Y-87194236D01*
X132510000Y-87202000D01*
X132110000Y-87202000D01*
X132070966Y-87194236D01*
X132037875Y-87172125D01*
X132015764Y-87139034D01*
X132008000Y-87100000D01*
X132008000Y-86300000D01*
X132015764Y-86260966D01*
X132037875Y-86227875D01*
X132070966Y-86205764D01*
X132110000Y-86198000D01*
X132510000Y-86198000D01*
X132549034Y-86205764D01*
G37*
G36*
X133349034Y-86205764D02*
G01*
X133382125Y-86227875D01*
X133404236Y-86260966D01*
X133412000Y-86300000D01*
X133412000Y-87100000D01*
X133404236Y-87139034D01*
X133382125Y-87172125D01*
X133349034Y-87194236D01*
X133310000Y-87202000D01*
X132910000Y-87202000D01*
X132870966Y-87194236D01*
X132837875Y-87172125D01*
X132815764Y-87139034D01*
X132808000Y-87100000D01*
X132808000Y-86300000D01*
X132815764Y-86260966D01*
X132837875Y-86227875D01*
X132870966Y-86205764D01*
X132910000Y-86198000D01*
X133310000Y-86198000D01*
X133349034Y-86205764D01*
G37*
G36*
X134149034Y-86205764D02*
G01*
X134182125Y-86227875D01*
X134204236Y-86260966D01*
X134212000Y-86300000D01*
X134212000Y-87100000D01*
X134204236Y-87139034D01*
X134182125Y-87172125D01*
X134149034Y-87194236D01*
X134110000Y-87202000D01*
X133710000Y-87202000D01*
X133670966Y-87194236D01*
X133637875Y-87172125D01*
X133615764Y-87139034D01*
X133608000Y-87100000D01*
X133608000Y-86300000D01*
X133615764Y-86260966D01*
X133637875Y-86227875D01*
X133670966Y-86205764D01*
X133710000Y-86198000D01*
X134110000Y-86198000D01*
X134149034Y-86205764D01*
G37*
G36*
X134949034Y-86205764D02*
G01*
X134982125Y-86227875D01*
X135004236Y-86260966D01*
X135012000Y-86300000D01*
X135012000Y-87100000D01*
X135004236Y-87139034D01*
X134982125Y-87172125D01*
X134949034Y-87194236D01*
X134910000Y-87202000D01*
X134510000Y-87202000D01*
X134470966Y-87194236D01*
X134437875Y-87172125D01*
X134415764Y-87139034D01*
X134408000Y-87100000D01*
X134408000Y-86300000D01*
X134415764Y-86260966D01*
X134437875Y-86227875D01*
X134470966Y-86205764D01*
X134510000Y-86198000D01*
X134910000Y-86198000D01*
X134949034Y-86205764D01*
G37*
G36*
X135749034Y-86205764D02*
G01*
X135782125Y-86227875D01*
X135804236Y-86260966D01*
X135812000Y-86300000D01*
X135812000Y-87100000D01*
X135804236Y-87139034D01*
X135782125Y-87172125D01*
X135749034Y-87194236D01*
X135710000Y-87202000D01*
X135310000Y-87202000D01*
X135270966Y-87194236D01*
X135237875Y-87172125D01*
X135215764Y-87139034D01*
X135208000Y-87100000D01*
X135208000Y-86300000D01*
X135215764Y-86260966D01*
X135237875Y-86227875D01*
X135270966Y-86205764D01*
X135310000Y-86198000D01*
X135710000Y-86198000D01*
X135749034Y-86205764D01*
G37*
G36*
X136549034Y-86205764D02*
G01*
X136582125Y-86227875D01*
X136604236Y-86260966D01*
X136612000Y-86300000D01*
X136612000Y-87100000D01*
X136604236Y-87139034D01*
X136582125Y-87172125D01*
X136549034Y-87194236D01*
X136510000Y-87202000D01*
X136110000Y-87202000D01*
X136070966Y-87194236D01*
X136037875Y-87172125D01*
X136015764Y-87139034D01*
X136008000Y-87100000D01*
X136008000Y-86300000D01*
X136015764Y-86260966D01*
X136037875Y-86227875D01*
X136070966Y-86205764D01*
X136110000Y-86198000D01*
X136510000Y-86198000D01*
X136549034Y-86205764D01*
G37*
G36*
X137349034Y-86205764D02*
G01*
X137382125Y-86227875D01*
X137404236Y-86260966D01*
X137412000Y-86300000D01*
X137412000Y-87100000D01*
X137404236Y-87139034D01*
X137382125Y-87172125D01*
X137349034Y-87194236D01*
X137310000Y-87202000D01*
X136910000Y-87202000D01*
X136870966Y-87194236D01*
X136837875Y-87172125D01*
X136815764Y-87139034D01*
X136808000Y-87100000D01*
X136808000Y-86300000D01*
X136815764Y-86260966D01*
X136837875Y-86227875D01*
X136870966Y-86205764D01*
X136910000Y-86198000D01*
X137310000Y-86198000D01*
X137349034Y-86205764D01*
G37*
G36*
X138149034Y-86205764D02*
G01*
X138182125Y-86227875D01*
X138204236Y-86260966D01*
X138212000Y-86300000D01*
X138212000Y-87100000D01*
X138204236Y-87139034D01*
X138182125Y-87172125D01*
X138149034Y-87194236D01*
X138110000Y-87202000D01*
X137710000Y-87202000D01*
X137670966Y-87194236D01*
X137637875Y-87172125D01*
X137615764Y-87139034D01*
X137608000Y-87100000D01*
X137608000Y-86300000D01*
X137615764Y-86260966D01*
X137637875Y-86227875D01*
X137670966Y-86205764D01*
X137710000Y-86198000D01*
X138110000Y-86198000D01*
X138149034Y-86205764D01*
G37*
G36*
X139449034Y-86305764D02*
G01*
X139482125Y-86327875D01*
X139504236Y-86360966D01*
X139512000Y-86400000D01*
X139512000Y-87100000D01*
X139504236Y-87139034D01*
X139482125Y-87172125D01*
X139449034Y-87194236D01*
X139410000Y-87202000D01*
X138710000Y-87202000D01*
X138670966Y-87194236D01*
X138637875Y-87172125D01*
X138615764Y-87139034D01*
X138608000Y-87100000D01*
X138608000Y-86400000D01*
X138615764Y-86360966D01*
X138637875Y-86327875D01*
X138670966Y-86305764D01*
X138710000Y-86298000D01*
X139410000Y-86298000D01*
X139449034Y-86305764D01*
G37*
G36*
X145717918Y-85772349D02*
G01*
X145766582Y-85804866D01*
X145978714Y-86016998D01*
X146593893Y-86632176D01*
X146593895Y-86632179D01*
X146597432Y-86635716D01*
X146629949Y-86684380D01*
X146641366Y-86741782D01*
X146629949Y-86799184D01*
X146597432Y-86847848D01*
X146593893Y-86851387D01*
X146388840Y-87056441D01*
X146388836Y-87056443D01*
X146385300Y-87059980D01*
X146336636Y-87092497D01*
X146279234Y-87103914D01*
X146221832Y-87092497D01*
X146173168Y-87059980D01*
X145572128Y-86458940D01*
X145345856Y-86232669D01*
X145345853Y-86232665D01*
X145342318Y-86229130D01*
X145309801Y-86180466D01*
X145298384Y-86123064D01*
X145309801Y-86065662D01*
X145342318Y-86016998D01*
X145345851Y-86013464D01*
X145345856Y-86013458D01*
X145550909Y-85808404D01*
X145550918Y-85808397D01*
X145554450Y-85804866D01*
X145603114Y-85772349D01*
X145660516Y-85760932D01*
X145717918Y-85772349D01*
G37*
G36*
X149711764Y-85394526D02*
G01*
X150324388Y-86007149D01*
X150324390Y-86007152D01*
X150327928Y-86010690D01*
X150004639Y-86333979D01*
X149387720Y-85717060D01*
X149181995Y-85511336D01*
X149181992Y-85511332D01*
X149178456Y-85507796D01*
X149202313Y-85483939D01*
X149498204Y-85188046D01*
X149498210Y-85188041D01*
X149501745Y-85184507D01*
X149711764Y-85394526D01*
G37*
G36*
X121902015Y-85105116D02*
G01*
X121920816Y-85105116D01*
X121940658Y-85112803D01*
X121968225Y-85118287D01*
X121986731Y-85130652D01*
X122003591Y-85137184D01*
X122041782Y-85167435D01*
X122045276Y-85169770D01*
X122146926Y-85271420D01*
X122379072Y-85503565D01*
X122379075Y-85503569D01*
X122381151Y-85505645D01*
X122383478Y-85509127D01*
X122413736Y-85547329D01*
X122420267Y-85564187D01*
X122432634Y-85582696D01*
X122438117Y-85610263D01*
X122445805Y-85630105D01*
X122445805Y-85648905D01*
X122450714Y-85673583D01*
X122445805Y-85698260D01*
X122445805Y-85717060D01*
X122438118Y-85736900D01*
X122432634Y-85764470D01*
X122420266Y-85782979D01*
X122413736Y-85799836D01*
X122383490Y-85838019D01*
X122381151Y-85841521D01*
X122027598Y-86195074D01*
X122024108Y-86197405D01*
X121985913Y-86227659D01*
X121969056Y-86234189D01*
X121950547Y-86246557D01*
X121922979Y-86252040D01*
X121903138Y-86259728D01*
X121884337Y-86259728D01*
X121859660Y-86264637D01*
X121834983Y-86259728D01*
X121816182Y-86259728D01*
X121796340Y-86252040D01*
X121768773Y-86246557D01*
X121750264Y-86234190D01*
X121733406Y-86227659D01*
X121695217Y-86197409D01*
X121691722Y-86195074D01*
X121463861Y-85967213D01*
X121357925Y-85861278D01*
X121357921Y-85861273D01*
X121355847Y-85859199D01*
X121353521Y-85855717D01*
X121323261Y-85817514D01*
X121316729Y-85800654D01*
X121304364Y-85782148D01*
X121298879Y-85754580D01*
X121291193Y-85734738D01*
X121291193Y-85715938D01*
X121286284Y-85691261D01*
X121291193Y-85666583D01*
X121291193Y-85647783D01*
X121298880Y-85627939D01*
X121304364Y-85600374D01*
X121316728Y-85581868D01*
X121323261Y-85565007D01*
X121353516Y-85526810D01*
X121355847Y-85523323D01*
X121395231Y-85483939D01*
X121707320Y-85171848D01*
X121707329Y-85171840D01*
X121709400Y-85169770D01*
X121712874Y-85167448D01*
X121751084Y-85137184D01*
X121767945Y-85130651D01*
X121786451Y-85118287D01*
X121814016Y-85112803D01*
X121833860Y-85105116D01*
X121852661Y-85105116D01*
X121877338Y-85100207D01*
X121902015Y-85105116D01*
G37*
G36*
X117653832Y-85151598D02*
G01*
X117889682Y-85387447D01*
X117889684Y-85387450D01*
X117893222Y-85390988D01*
X117067039Y-86217171D01*
X116844864Y-85994996D01*
X116747289Y-85897422D01*
X116747286Y-85897418D01*
X116743750Y-85893882D01*
X116946371Y-85691261D01*
X117566392Y-85071238D01*
X117566398Y-85071233D01*
X117569933Y-85067699D01*
X117653832Y-85151598D01*
G37*
G36*
X127649034Y-85505764D02*
G01*
X127682125Y-85527875D01*
X127704236Y-85560966D01*
X127712000Y-85600000D01*
X127712000Y-86000000D01*
X127704236Y-86039034D01*
X127682125Y-86072125D01*
X127649034Y-86094236D01*
X127610000Y-86102000D01*
X126810000Y-86102000D01*
X126770966Y-86094236D01*
X126737875Y-86072125D01*
X126715764Y-86039034D01*
X126708000Y-86000000D01*
X126708000Y-85600000D01*
X126715764Y-85560966D01*
X126737875Y-85527875D01*
X126770966Y-85505764D01*
X126810000Y-85498000D01*
X127610000Y-85498000D01*
X127649034Y-85505764D01*
G37*
G36*
X139449034Y-85505764D02*
G01*
X139482125Y-85527875D01*
X139504236Y-85560966D01*
X139512000Y-85600000D01*
X139512000Y-86000000D01*
X139504236Y-86039034D01*
X139482125Y-86072125D01*
X139449034Y-86094236D01*
X139410000Y-86102000D01*
X138610000Y-86102000D01*
X138570966Y-86094236D01*
X138537875Y-86072125D01*
X138515764Y-86039034D01*
X138508000Y-86000000D01*
X138508000Y-85600000D01*
X138515764Y-85560966D01*
X138537875Y-85527875D01*
X138570966Y-85505764D01*
X138610000Y-85498000D01*
X139410000Y-85498000D01*
X139449034Y-85505764D01*
G37*
G36*
X119908851Y-84539654D02*
G01*
X119927650Y-84539654D01*
X119947489Y-84547339D01*
X119975059Y-84552824D01*
X119993567Y-84565191D01*
X120010426Y-84571722D01*
X120048616Y-84601972D01*
X120052110Y-84604307D01*
X120476374Y-85028571D01*
X120478706Y-85032061D01*
X120508958Y-85070255D01*
X120515488Y-85087110D01*
X120527857Y-85105622D01*
X120533341Y-85133192D01*
X120541027Y-85153031D01*
X120541027Y-85171830D01*
X120545936Y-85196509D01*
X120541027Y-85221187D01*
X120541027Y-85239986D01*
X120533341Y-85259823D01*
X120527857Y-85287396D01*
X120515487Y-85305908D01*
X120508958Y-85322763D01*
X120478713Y-85360945D01*
X120476374Y-85364447D01*
X120140498Y-85700323D01*
X120137000Y-85702659D01*
X120098813Y-85732907D01*
X120081959Y-85739436D01*
X120063447Y-85751806D01*
X120035875Y-85757290D01*
X120016038Y-85764976D01*
X119997239Y-85764976D01*
X119972560Y-85769885D01*
X119947881Y-85764976D01*
X119929082Y-85764976D01*
X119909243Y-85757290D01*
X119881673Y-85751806D01*
X119863162Y-85739437D01*
X119846305Y-85732907D01*
X119808117Y-85702658D01*
X119804622Y-85700323D01*
X119380358Y-85276059D01*
X119378026Y-85272569D01*
X119347773Y-85234374D01*
X119341242Y-85217518D01*
X119328875Y-85199008D01*
X119323390Y-85171436D01*
X119315705Y-85151598D01*
X119315705Y-85132799D01*
X119310796Y-85108121D01*
X119315705Y-85083442D01*
X119315705Y-85064643D01*
X119323391Y-85044803D01*
X119328875Y-85017234D01*
X119341241Y-84998726D01*
X119347773Y-84981866D01*
X119378027Y-84943670D01*
X119380358Y-84940183D01*
X119543928Y-84776613D01*
X119714154Y-84606386D01*
X119714158Y-84606382D01*
X119716234Y-84604307D01*
X119719716Y-84601979D01*
X119757918Y-84571722D01*
X119774776Y-84565191D01*
X119793285Y-84552824D01*
X119820854Y-84547339D01*
X119840694Y-84539654D01*
X119859493Y-84539654D01*
X119884172Y-84534745D01*
X119908851Y-84539654D01*
G37*
G36*
X153611225Y-84038168D02*
G01*
X153738004Y-84090681D01*
X153852101Y-84166919D01*
X153949133Y-84263951D01*
X154025371Y-84378048D01*
X154077884Y-84504827D01*
X154104655Y-84639414D01*
X154104655Y-84776638D01*
X154077884Y-84911225D01*
X154025371Y-85038004D01*
X153949133Y-85152101D01*
X153852101Y-85249133D01*
X153738004Y-85325371D01*
X153611225Y-85377884D01*
X153476638Y-85404655D01*
X153339414Y-85404655D01*
X153204827Y-85377884D01*
X153078048Y-85325371D01*
X152963951Y-85249133D01*
X152866919Y-85152101D01*
X152790681Y-85038004D01*
X152738168Y-84911225D01*
X152711397Y-84776638D01*
X152711397Y-84639414D01*
X152738168Y-84504827D01*
X152790681Y-84378048D01*
X152866919Y-84263951D01*
X152963951Y-84166919D01*
X153078048Y-84090681D01*
X153204827Y-84038168D01*
X153339414Y-84011397D01*
X153476638Y-84011397D01*
X153611225Y-84038168D01*
G37*
G36*
X127649034Y-84705764D02*
G01*
X127682125Y-84727875D01*
X127704236Y-84760966D01*
X127712000Y-84800000D01*
X127712000Y-85200000D01*
X127704236Y-85239034D01*
X127682125Y-85272125D01*
X127649034Y-85294236D01*
X127610000Y-85302000D01*
X126810000Y-85302000D01*
X126770966Y-85294236D01*
X126737875Y-85272125D01*
X126715764Y-85239034D01*
X126708000Y-85200000D01*
X126708000Y-84800000D01*
X126715764Y-84760966D01*
X126737875Y-84727875D01*
X126770966Y-84705764D01*
X126810000Y-84698000D01*
X127610000Y-84698000D01*
X127649034Y-84705764D01*
G37*
G36*
X139449034Y-84705764D02*
G01*
X139482125Y-84727875D01*
X139504236Y-84760966D01*
X139512000Y-84800000D01*
X139512000Y-85200000D01*
X139504236Y-85239034D01*
X139482125Y-85272125D01*
X139449034Y-85294236D01*
X139410000Y-85302000D01*
X138610000Y-85302000D01*
X138570966Y-85294236D01*
X138537875Y-85272125D01*
X138515764Y-85239034D01*
X138508000Y-85200000D01*
X138508000Y-84800000D01*
X138515764Y-84760966D01*
X138537875Y-84727875D01*
X138570966Y-84705764D01*
X138610000Y-84698000D01*
X139410000Y-84698000D01*
X139449034Y-84705764D01*
G37*
G36*
X114367148Y-83646193D02*
G01*
X114493927Y-83698706D01*
X114608024Y-83774944D01*
X114705056Y-83871976D01*
X114781294Y-83986073D01*
X114833807Y-84112852D01*
X114860578Y-84247439D01*
X114860578Y-84384663D01*
X114833807Y-84519250D01*
X114781294Y-84646029D01*
X114705056Y-84760126D01*
X114608024Y-84857158D01*
X114493927Y-84933396D01*
X114367148Y-84985909D01*
X114232561Y-85012680D01*
X114095337Y-85012680D01*
X113960750Y-84985909D01*
X113833971Y-84933396D01*
X113719874Y-84857158D01*
X113622842Y-84760126D01*
X113546604Y-84646029D01*
X113494091Y-84519250D01*
X113467320Y-84384663D01*
X113467320Y-84247439D01*
X113494091Y-84112852D01*
X113546604Y-83986073D01*
X113622842Y-83871976D01*
X113719874Y-83774944D01*
X113833971Y-83698706D01*
X113960750Y-83646193D01*
X114095337Y-83619422D01*
X114232561Y-83619422D01*
X114367148Y-83646193D01*
G37*
G36*
X148114712Y-83797474D02*
G01*
X148725902Y-84408663D01*
X148725904Y-84408666D01*
X148729442Y-84412204D01*
X148406153Y-84735493D01*
X147815347Y-84144687D01*
X147583509Y-83912850D01*
X147583506Y-83912846D01*
X147579970Y-83909310D01*
X147644397Y-83844883D01*
X147899718Y-83589560D01*
X147899724Y-83589555D01*
X147903259Y-83586021D01*
X148114712Y-83797474D01*
G37*
G36*
X131899034Y-82955764D02*
G01*
X131932125Y-82977875D01*
X131954236Y-83010966D01*
X131962000Y-83050000D01*
X131962000Y-84500000D01*
X131954236Y-84539034D01*
X131932125Y-84572125D01*
X131899034Y-84594236D01*
X131860000Y-84602000D01*
X130410000Y-84602000D01*
X130370966Y-84594236D01*
X130337875Y-84572125D01*
X130315764Y-84539034D01*
X130308000Y-84500000D01*
X130308000Y-83050000D01*
X130315764Y-83010966D01*
X130337875Y-82977875D01*
X130370966Y-82955764D01*
X130410000Y-82948000D01*
X131860000Y-82948000D01*
X131899034Y-82955764D01*
G37*
G36*
X133874034Y-82955764D02*
G01*
X133907125Y-82977875D01*
X133929236Y-83010966D01*
X133937000Y-83050000D01*
X133937000Y-84500000D01*
X133929236Y-84539034D01*
X133907125Y-84572125D01*
X133874034Y-84594236D01*
X133835000Y-84602000D01*
X132385000Y-84602000D01*
X132345966Y-84594236D01*
X132312875Y-84572125D01*
X132290764Y-84539034D01*
X132283000Y-84500000D01*
X132283000Y-83050000D01*
X132290764Y-83010966D01*
X132312875Y-82977875D01*
X132345966Y-82955764D01*
X132385000Y-82948000D01*
X133835000Y-82948000D01*
X133874034Y-82955764D01*
G37*
G36*
X135849034Y-82955764D02*
G01*
X135882125Y-82977875D01*
X135904236Y-83010966D01*
X135912000Y-83050000D01*
X135912000Y-84500000D01*
X135904236Y-84539034D01*
X135882125Y-84572125D01*
X135849034Y-84594236D01*
X135810000Y-84602000D01*
X134360000Y-84602000D01*
X134320966Y-84594236D01*
X134287875Y-84572125D01*
X134265764Y-84539034D01*
X134258000Y-84500000D01*
X134258000Y-83050000D01*
X134265764Y-83010966D01*
X134287875Y-82977875D01*
X134320966Y-82955764D01*
X134360000Y-82948000D01*
X135810000Y-82948000D01*
X135849034Y-82955764D01*
G37*
G36*
X118689091Y-83319894D02*
G01*
X118707890Y-83319894D01*
X118727729Y-83327579D01*
X118755299Y-83333064D01*
X118773807Y-83345431D01*
X118790666Y-83351962D01*
X118828856Y-83382212D01*
X118832350Y-83384547D01*
X119256614Y-83808811D01*
X119258946Y-83812301D01*
X119289198Y-83850495D01*
X119295728Y-83867350D01*
X119308097Y-83885862D01*
X119313581Y-83913432D01*
X119321267Y-83933271D01*
X119321267Y-83952070D01*
X119326176Y-83976749D01*
X119321267Y-84001427D01*
X119321267Y-84020226D01*
X119313581Y-84040063D01*
X119308097Y-84067636D01*
X119295727Y-84086148D01*
X119289198Y-84103003D01*
X119258953Y-84141185D01*
X119256614Y-84144687D01*
X118920738Y-84480563D01*
X118917240Y-84482899D01*
X118879053Y-84513147D01*
X118862199Y-84519676D01*
X118843687Y-84532046D01*
X118816115Y-84537530D01*
X118796278Y-84545216D01*
X118777479Y-84545216D01*
X118752800Y-84550125D01*
X118728121Y-84545216D01*
X118709322Y-84545216D01*
X118689483Y-84537530D01*
X118661913Y-84532046D01*
X118643402Y-84519677D01*
X118626545Y-84513147D01*
X118588357Y-84482898D01*
X118584862Y-84480563D01*
X118160598Y-84056299D01*
X118158266Y-84052809D01*
X118128013Y-84014614D01*
X118121482Y-83997758D01*
X118109115Y-83979248D01*
X118103630Y-83951676D01*
X118095945Y-83931838D01*
X118095945Y-83913039D01*
X118091036Y-83888361D01*
X118095945Y-83863682D01*
X118095945Y-83844883D01*
X118103631Y-83825043D01*
X118109115Y-83797474D01*
X118121481Y-83778966D01*
X118128013Y-83762106D01*
X118158267Y-83723910D01*
X118160598Y-83720423D01*
X118315303Y-83565718D01*
X118494394Y-83386626D01*
X118494398Y-83386622D01*
X118496474Y-83384547D01*
X118499956Y-83382219D01*
X118538158Y-83351962D01*
X118555016Y-83345431D01*
X118573525Y-83333064D01*
X118601094Y-83327579D01*
X118620934Y-83319894D01*
X118639733Y-83319894D01*
X118664412Y-83314985D01*
X118689091Y-83319894D01*
G37*
G36*
X127649034Y-83905764D02*
G01*
X127682125Y-83927875D01*
X127704236Y-83960966D01*
X127712000Y-84000000D01*
X127712000Y-84400000D01*
X127704236Y-84439034D01*
X127682125Y-84472125D01*
X127649034Y-84494236D01*
X127610000Y-84502000D01*
X126810000Y-84502000D01*
X126770966Y-84494236D01*
X126737875Y-84472125D01*
X126715764Y-84439034D01*
X126708000Y-84400000D01*
X126708000Y-84000000D01*
X126715764Y-83960966D01*
X126737875Y-83927875D01*
X126770966Y-83905764D01*
X126810000Y-83898000D01*
X127610000Y-83898000D01*
X127649034Y-83905764D01*
G37*
G36*
X139449034Y-83905764D02*
G01*
X139482125Y-83927875D01*
X139504236Y-83960966D01*
X139512000Y-84000000D01*
X139512000Y-84400000D01*
X139504236Y-84439034D01*
X139482125Y-84472125D01*
X139449034Y-84494236D01*
X139410000Y-84502000D01*
X138610000Y-84502000D01*
X138570966Y-84494236D01*
X138537875Y-84472125D01*
X138515764Y-84439034D01*
X138508000Y-84400000D01*
X138508000Y-84000000D01*
X138515764Y-83960966D01*
X138537875Y-83927875D01*
X138570966Y-83905764D01*
X138610000Y-83898000D01*
X139410000Y-83898000D01*
X139449034Y-83905764D01*
G37*
G36*
X127649034Y-83105764D02*
G01*
X127682125Y-83127875D01*
X127704236Y-83160966D01*
X127712000Y-83200000D01*
X127712000Y-83600000D01*
X127704236Y-83639034D01*
X127682125Y-83672125D01*
X127649034Y-83694236D01*
X127610000Y-83702000D01*
X126810000Y-83702000D01*
X126770966Y-83694236D01*
X126737875Y-83672125D01*
X126715764Y-83639034D01*
X126708000Y-83600000D01*
X126708000Y-83200000D01*
X126715764Y-83160966D01*
X126737875Y-83127875D01*
X126770966Y-83105764D01*
X126810000Y-83098000D01*
X127610000Y-83098000D01*
X127649034Y-83105764D01*
G37*
G36*
X139449034Y-83105764D02*
G01*
X139482125Y-83127875D01*
X139504236Y-83160966D01*
X139512000Y-83200000D01*
X139512000Y-83600000D01*
X139504236Y-83639034D01*
X139482125Y-83672125D01*
X139449034Y-83694236D01*
X139410000Y-83702000D01*
X138610000Y-83702000D01*
X138570966Y-83694236D01*
X138537875Y-83672125D01*
X138515764Y-83639034D01*
X138508000Y-83600000D01*
X138508000Y-83200000D01*
X138515764Y-83160966D01*
X138537875Y-83127875D01*
X138570966Y-83105764D01*
X138610000Y-83098000D01*
X139410000Y-83098000D01*
X139449034Y-83105764D01*
G37*
G36*
X145711537Y-82840224D02*
G01*
X145776421Y-82883579D01*
X145819776Y-82948463D01*
X145835000Y-83025000D01*
X145835000Y-83425000D01*
X145819776Y-83501537D01*
X145776421Y-83566421D01*
X145711537Y-83609776D01*
X145635000Y-83625000D01*
X145085000Y-83625000D01*
X145008463Y-83609776D01*
X144943579Y-83566421D01*
X144900224Y-83501537D01*
X144885000Y-83425000D01*
X144885000Y-83025000D01*
X144900224Y-82948463D01*
X144943579Y-82883579D01*
X145008463Y-82840224D01*
X145085000Y-82825000D01*
X145635000Y-82825000D01*
X145711537Y-82840224D01*
G37*
G36*
X151815174Y-82242117D02*
G01*
X151941953Y-82294630D01*
X152056050Y-82370868D01*
X152153082Y-82467900D01*
X152229320Y-82581997D01*
X152281833Y-82708776D01*
X152308604Y-82843363D01*
X152308604Y-82980587D01*
X152281833Y-83115174D01*
X152229320Y-83241953D01*
X152153082Y-83356050D01*
X152056050Y-83453082D01*
X151941953Y-83529320D01*
X151815174Y-83581833D01*
X151680587Y-83608604D01*
X151543363Y-83608604D01*
X151408776Y-83581833D01*
X151281997Y-83529320D01*
X151167900Y-83453082D01*
X151070868Y-83356050D01*
X150994630Y-83241953D01*
X150942117Y-83115174D01*
X150915346Y-82980587D01*
X150915346Y-82843363D01*
X150942117Y-82708776D01*
X150994630Y-82581997D01*
X151070868Y-82467900D01*
X151167900Y-82370868D01*
X151281997Y-82294630D01*
X151408776Y-82242117D01*
X151543363Y-82215346D01*
X151680587Y-82215346D01*
X151815174Y-82242117D01*
G37*
G36*
X116163199Y-81850142D02*
G01*
X116289978Y-81902655D01*
X116404075Y-81978893D01*
X116501107Y-82075925D01*
X116577345Y-82190022D01*
X116629858Y-82316801D01*
X116656629Y-82451388D01*
X116656629Y-82588612D01*
X116629858Y-82723199D01*
X116577345Y-82849978D01*
X116501107Y-82964075D01*
X116404075Y-83061107D01*
X116289978Y-83137345D01*
X116163199Y-83189858D01*
X116028612Y-83216629D01*
X115891388Y-83216629D01*
X115756801Y-83189858D01*
X115630022Y-83137345D01*
X115515925Y-83061107D01*
X115418893Y-82964075D01*
X115342655Y-82849978D01*
X115290142Y-82723199D01*
X115263371Y-82588612D01*
X115263371Y-82451388D01*
X115290142Y-82316801D01*
X115342655Y-82190022D01*
X115418893Y-82075925D01*
X115515925Y-81978893D01*
X115630022Y-81902655D01*
X115756801Y-81850142D01*
X115891388Y-81823371D01*
X116028612Y-81823371D01*
X116163199Y-81850142D01*
G37*
G36*
X127649034Y-82305764D02*
G01*
X127682125Y-82327875D01*
X127704236Y-82360966D01*
X127712000Y-82400000D01*
X127712000Y-82800000D01*
X127704236Y-82839034D01*
X127682125Y-82872125D01*
X127649034Y-82894236D01*
X127610000Y-82902000D01*
X126810000Y-82902000D01*
X126770966Y-82894236D01*
X126737875Y-82872125D01*
X126715764Y-82839034D01*
X126708000Y-82800000D01*
X126708000Y-82400000D01*
X126715764Y-82360966D01*
X126737875Y-82327875D01*
X126770966Y-82305764D01*
X126810000Y-82298000D01*
X127610000Y-82298000D01*
X127649034Y-82305764D01*
G37*
G36*
X139449034Y-82305764D02*
G01*
X139482125Y-82327875D01*
X139504236Y-82360966D01*
X139512000Y-82400000D01*
X139512000Y-82800000D01*
X139504236Y-82839034D01*
X139482125Y-82872125D01*
X139449034Y-82894236D01*
X139410000Y-82902000D01*
X138610000Y-82902000D01*
X138570966Y-82894236D01*
X138537875Y-82872125D01*
X138515764Y-82839034D01*
X138508000Y-82800000D01*
X138508000Y-82400000D01*
X138515764Y-82360966D01*
X138537875Y-82327875D01*
X138570966Y-82305764D01*
X138610000Y-82298000D01*
X139410000Y-82298000D01*
X139449034Y-82305764D01*
G37*
G36*
X142565000Y-82655001D02*
G01*
X141715000Y-82655001D01*
X141715000Y-81805001D01*
X142565000Y-81805001D01*
X142565000Y-82655001D01*
G37*
G36*
X131899034Y-80980764D02*
G01*
X131932125Y-81002875D01*
X131954236Y-81035966D01*
X131962000Y-81075000D01*
X131962000Y-82525000D01*
X131954236Y-82564034D01*
X131932125Y-82597125D01*
X131899034Y-82619236D01*
X131860000Y-82627000D01*
X130410000Y-82627000D01*
X130370966Y-82619236D01*
X130337875Y-82597125D01*
X130315764Y-82564034D01*
X130308000Y-82525000D01*
X130308000Y-81075000D01*
X130315764Y-81035966D01*
X130337875Y-81002875D01*
X130370966Y-80980764D01*
X130410000Y-80973000D01*
X131860000Y-80973000D01*
X131899034Y-80980764D01*
G37*
G36*
X133874034Y-80980764D02*
G01*
X133907125Y-81002875D01*
X133929236Y-81035966D01*
X133937000Y-81075000D01*
X133937000Y-82525000D01*
X133929236Y-82564034D01*
X133907125Y-82597125D01*
X133874034Y-82619236D01*
X133835000Y-82627000D01*
X132385000Y-82627000D01*
X132345966Y-82619236D01*
X132312875Y-82597125D01*
X132290764Y-82564034D01*
X132283000Y-82525000D01*
X132283000Y-81075000D01*
X132290764Y-81035966D01*
X132312875Y-81002875D01*
X132345966Y-80980764D01*
X132385000Y-80973000D01*
X133835000Y-80973000D01*
X133874034Y-80980764D01*
G37*
G36*
X135849034Y-80980764D02*
G01*
X135882125Y-81002875D01*
X135904236Y-81035966D01*
X135912000Y-81075000D01*
X135912000Y-82525000D01*
X135904236Y-82564034D01*
X135882125Y-82597125D01*
X135849034Y-82619236D01*
X135810000Y-82627000D01*
X134360000Y-82627000D01*
X134320966Y-82619236D01*
X134287875Y-82597125D01*
X134265764Y-82564034D01*
X134258000Y-82525000D01*
X134258000Y-81075000D01*
X134265764Y-81035966D01*
X134287875Y-81002875D01*
X134320966Y-80980764D01*
X134360000Y-80973000D01*
X135810000Y-80973000D01*
X135849034Y-80980764D01*
G37*
G36*
X127649034Y-81505764D02*
G01*
X127682125Y-81527875D01*
X127704236Y-81560966D01*
X127712000Y-81600000D01*
X127712000Y-82000000D01*
X127704236Y-82039034D01*
X127682125Y-82072125D01*
X127649034Y-82094236D01*
X127610000Y-82102000D01*
X126810000Y-82102000D01*
X126770966Y-82094236D01*
X126737875Y-82072125D01*
X126715764Y-82039034D01*
X126708000Y-82000000D01*
X126708000Y-81600000D01*
X126715764Y-81560966D01*
X126737875Y-81527875D01*
X126770966Y-81505764D01*
X126810000Y-81498000D01*
X127610000Y-81498000D01*
X127649034Y-81505764D01*
G37*
G36*
X139449034Y-81505764D02*
G01*
X139482125Y-81527875D01*
X139504236Y-81560966D01*
X139512000Y-81600000D01*
X139512000Y-82000000D01*
X139504236Y-82039034D01*
X139482125Y-82072125D01*
X139449034Y-82094236D01*
X139410000Y-82102000D01*
X138610000Y-82102000D01*
X138570966Y-82094236D01*
X138537875Y-82072125D01*
X138515764Y-82039034D01*
X138508000Y-82000000D01*
X138508000Y-81600000D01*
X138515764Y-81560966D01*
X138537875Y-81527875D01*
X138570966Y-81505764D01*
X138610000Y-81498000D01*
X139410000Y-81498000D01*
X139449034Y-81505764D01*
G37*
G36*
X123801537Y-81080224D02*
G01*
X123866421Y-81123579D01*
X123909776Y-81188463D01*
X123925000Y-81265000D01*
X123925000Y-81815000D01*
X123909776Y-81891537D01*
X123866421Y-81956421D01*
X123801537Y-81999776D01*
X123725000Y-82015000D01*
X123325000Y-82015000D01*
X123248463Y-81999776D01*
X123183579Y-81956421D01*
X123140224Y-81891537D01*
X123125000Y-81815000D01*
X123125000Y-81265000D01*
X123140224Y-81188463D01*
X123183579Y-81123579D01*
X123248463Y-81080224D01*
X123325000Y-81065000D01*
X123725000Y-81065000D01*
X123801537Y-81080224D01*
G37*
G36*
X125451537Y-81080224D02*
G01*
X125516421Y-81123579D01*
X125559776Y-81188463D01*
X125575000Y-81265000D01*
X125575000Y-81815000D01*
X125559776Y-81891537D01*
X125516421Y-81956421D01*
X125451537Y-81999776D01*
X125375000Y-82015000D01*
X124975000Y-82015000D01*
X124898463Y-81999776D01*
X124833579Y-81956421D01*
X124790224Y-81891537D01*
X124775000Y-81815000D01*
X124775000Y-81265000D01*
X124790224Y-81188463D01*
X124833579Y-81123579D01*
X124898463Y-81080224D01*
X124975000Y-81065000D01*
X125375000Y-81065000D01*
X125451537Y-81080224D01*
G37*
G36*
X145711537Y-81190224D02*
G01*
X145776421Y-81233579D01*
X145819776Y-81298463D01*
X145835000Y-81375000D01*
X145835000Y-81775000D01*
X145819776Y-81851537D01*
X145776421Y-81916421D01*
X145711537Y-81959776D01*
X145635000Y-81975000D01*
X145085000Y-81975000D01*
X145008463Y-81959776D01*
X144943579Y-81916421D01*
X144900224Y-81851537D01*
X144885000Y-81775000D01*
X144885000Y-81375000D01*
X144900224Y-81298463D01*
X144943579Y-81233579D01*
X145008463Y-81190224D01*
X145085000Y-81175000D01*
X145635000Y-81175000D01*
X145711537Y-81190224D01*
G37*
G36*
X142302640Y-80837352D02*
G01*
X142398724Y-80892826D01*
X142477175Y-80971277D01*
X142532649Y-81067361D01*
X142561364Y-81174527D01*
X142561364Y-81285475D01*
X142532649Y-81392641D01*
X142477175Y-81488725D01*
X142398724Y-81567176D01*
X142302640Y-81622650D01*
X142195474Y-81651365D01*
X142084526Y-81651365D01*
X141977360Y-81622650D01*
X141881276Y-81567176D01*
X141802825Y-81488725D01*
X141747351Y-81392641D01*
X141718636Y-81285475D01*
X141718636Y-81174527D01*
X141747351Y-81067361D01*
X141802825Y-80971277D01*
X141881276Y-80892826D01*
X141977360Y-80837352D01*
X142084526Y-80808637D01*
X142195474Y-80808637D01*
X142302640Y-80837352D01*
G37*
G36*
X127649034Y-80705764D02*
G01*
X127682125Y-80727875D01*
X127704236Y-80760966D01*
X127712000Y-80800000D01*
X127712000Y-81200000D01*
X127704236Y-81239034D01*
X127682125Y-81272125D01*
X127649034Y-81294236D01*
X127610000Y-81302000D01*
X126810000Y-81302000D01*
X126770966Y-81294236D01*
X126737875Y-81272125D01*
X126715764Y-81239034D01*
X126708000Y-81200000D01*
X126708000Y-80800000D01*
X126715764Y-80760966D01*
X126737875Y-80727875D01*
X126770966Y-80705764D01*
X126810000Y-80698000D01*
X127610000Y-80698000D01*
X127649034Y-80705764D01*
G37*
G36*
X139449034Y-80705764D02*
G01*
X139482125Y-80727875D01*
X139504236Y-80760966D01*
X139512000Y-80800000D01*
X139512000Y-81200000D01*
X139504236Y-81239034D01*
X139482125Y-81272125D01*
X139449034Y-81294236D01*
X139410000Y-81302000D01*
X138610000Y-81302000D01*
X138570966Y-81294236D01*
X138537875Y-81272125D01*
X138515764Y-81239034D01*
X138508000Y-81200000D01*
X138508000Y-80800000D01*
X138515764Y-80760966D01*
X138537875Y-80727875D01*
X138570966Y-80705764D01*
X138610000Y-80698000D01*
X139410000Y-80698000D01*
X139449034Y-80705764D01*
G37*
G36*
X131967071Y-78992929D02*
G01*
X131970000Y-79000000D01*
X131970000Y-80650000D01*
X131967071Y-80657071D01*
X131960000Y-80660000D01*
X131949895Y-80660000D01*
X130320105Y-80660000D01*
X130310000Y-80660000D01*
X130302929Y-80657071D01*
X130300000Y-80650000D01*
X130300000Y-79660000D01*
X130302929Y-79652929D01*
X130310073Y-79645784D01*
X130310074Y-79645783D01*
X130955783Y-79000074D01*
X130955784Y-79000073D01*
X130962929Y-78992929D01*
X130970000Y-78990000D01*
X131960000Y-78990000D01*
X131967071Y-78992929D01*
G37*
G36*
X133874034Y-79005764D02*
G01*
X133907125Y-79027875D01*
X133929236Y-79060966D01*
X133937000Y-79100000D01*
X133937000Y-80550000D01*
X133929236Y-80589034D01*
X133907125Y-80622125D01*
X133874034Y-80644236D01*
X133835000Y-80652000D01*
X132385000Y-80652000D01*
X132345966Y-80644236D01*
X132312875Y-80622125D01*
X132290764Y-80589034D01*
X132283000Y-80550000D01*
X132283000Y-79100000D01*
X132290764Y-79060966D01*
X132312875Y-79027875D01*
X132345966Y-79005764D01*
X132385000Y-78998000D01*
X133835000Y-78998000D01*
X133874034Y-79005764D01*
G37*
G36*
X135849034Y-79005764D02*
G01*
X135882125Y-79027875D01*
X135904236Y-79060966D01*
X135912000Y-79100000D01*
X135912000Y-80550000D01*
X135904236Y-80589034D01*
X135882125Y-80622125D01*
X135849034Y-80644236D01*
X135810000Y-80652000D01*
X134360000Y-80652000D01*
X134320966Y-80644236D01*
X134287875Y-80622125D01*
X134265764Y-80589034D01*
X134258000Y-80550000D01*
X134258000Y-79100000D01*
X134265764Y-79060966D01*
X134287875Y-79027875D01*
X134320966Y-79005764D01*
X134360000Y-78998000D01*
X135810000Y-78998000D01*
X135849034Y-79005764D01*
G37*
G36*
X142302640Y-79837351D02*
G01*
X142398724Y-79892825D01*
X142477175Y-79971276D01*
X142532649Y-80067360D01*
X142561364Y-80174526D01*
X142561364Y-80285474D01*
X142532649Y-80392640D01*
X142477175Y-80488724D01*
X142398724Y-80567175D01*
X142302640Y-80622649D01*
X142195474Y-80651364D01*
X142084526Y-80651364D01*
X141977360Y-80622649D01*
X141881276Y-80567175D01*
X141802825Y-80488724D01*
X141747351Y-80392640D01*
X141718636Y-80285474D01*
X141718636Y-80174526D01*
X141747351Y-80067360D01*
X141802825Y-79971276D01*
X141881276Y-79892825D01*
X141977360Y-79837351D01*
X142084526Y-79808636D01*
X142195474Y-79808636D01*
X142302640Y-79837351D01*
G37*
G36*
X146600000Y-80550000D02*
G01*
X145900000Y-80550000D01*
X145900000Y-79050000D01*
X146600000Y-79050000D01*
X146600000Y-80550000D01*
G37*
G36*
X148100000Y-80550000D02*
G01*
X147400000Y-80550000D01*
X147400000Y-79050000D01*
X148100000Y-79050000D01*
X148100000Y-80550000D01*
G37*
G36*
X151100000Y-80550000D02*
G01*
X150400000Y-80550000D01*
X150400000Y-79050000D01*
X151100000Y-79050000D01*
X151100000Y-80550000D01*
G37*
G36*
X127649034Y-79905764D02*
G01*
X127682125Y-79927875D01*
X127704236Y-79960966D01*
X127712000Y-80000000D01*
X127712000Y-80400000D01*
X127704236Y-80439034D01*
X127682125Y-80472125D01*
X127649034Y-80494236D01*
X127610000Y-80502000D01*
X126810000Y-80502000D01*
X126770966Y-80494236D01*
X126737875Y-80472125D01*
X126715764Y-80439034D01*
X126708000Y-80400000D01*
X126708000Y-80000000D01*
X126715764Y-79960966D01*
X126737875Y-79927875D01*
X126770966Y-79905764D01*
X126810000Y-79898000D01*
X127610000Y-79898000D01*
X127649034Y-79905764D01*
G37*
G36*
X139449034Y-79905764D02*
G01*
X139482125Y-79927875D01*
X139504236Y-79960966D01*
X139512000Y-80000000D01*
X139512000Y-80400000D01*
X139504236Y-80439034D01*
X139482125Y-80472125D01*
X139449034Y-80494236D01*
X139410000Y-80502000D01*
X138610000Y-80502000D01*
X138570966Y-80494236D01*
X138537875Y-80472125D01*
X138515764Y-80439034D01*
X138508000Y-80400000D01*
X138508000Y-80000000D01*
X138515764Y-79960966D01*
X138537875Y-79927875D01*
X138570966Y-79905764D01*
X138610000Y-79898000D01*
X139410000Y-79898000D01*
X139449034Y-79905764D01*
G37*
G36*
X114231615Y-79095818D02*
G01*
X114280017Y-79101434D01*
X114296555Y-79108736D01*
X114318387Y-79113079D01*
X114341759Y-79128695D01*
X114361224Y-79137290D01*
X114374517Y-79150583D01*
X114395438Y-79164562D01*
X114409416Y-79185482D01*
X114422709Y-79198775D01*
X114431302Y-79218238D01*
X114446921Y-79241613D01*
X114451264Y-79263446D01*
X114458565Y-79279982D01*
X114464178Y-79328372D01*
X114465000Y-79332500D01*
X114465000Y-79932500D01*
X114464178Y-79936627D01*
X114458565Y-79985017D01*
X114451264Y-80001551D01*
X114446921Y-80023387D01*
X114431301Y-80046763D01*
X114422709Y-80066224D01*
X114409418Y-80079514D01*
X114395438Y-80100438D01*
X114374514Y-80114418D01*
X114361224Y-80127709D01*
X114341763Y-80136301D01*
X114318387Y-80151921D01*
X114296551Y-80156264D01*
X114280017Y-80163565D01*
X114231629Y-80169178D01*
X114227500Y-80170000D01*
X113752500Y-80170000D01*
X113748373Y-80169179D01*
X113699982Y-80163565D01*
X113683446Y-80156264D01*
X113661613Y-80151921D01*
X113638238Y-80136302D01*
X113618775Y-80127709D01*
X113605482Y-80114416D01*
X113584562Y-80100438D01*
X113570583Y-80079517D01*
X113557290Y-80066224D01*
X113548695Y-80046759D01*
X113533079Y-80023387D01*
X113528736Y-80001555D01*
X113521434Y-79985017D01*
X113515818Y-79936616D01*
X113515000Y-79932500D01*
X113515000Y-79332500D01*
X113515818Y-79328385D01*
X113521434Y-79279982D01*
X113528736Y-79263442D01*
X113533079Y-79241613D01*
X113548694Y-79218242D01*
X113557290Y-79198775D01*
X113570585Y-79185479D01*
X113584562Y-79164562D01*
X113605479Y-79150585D01*
X113618775Y-79137290D01*
X113638242Y-79128694D01*
X113661613Y-79113079D01*
X113683442Y-79108736D01*
X113699982Y-79101434D01*
X113748384Y-79095818D01*
X113752500Y-79095000D01*
X114227500Y-79095000D01*
X114231615Y-79095818D01*
G37*
G36*
X116395000Y-80155000D02*
G01*
X115345000Y-80155000D01*
X115345000Y-79505000D01*
X116395000Y-79505000D01*
X116395000Y-80155000D01*
G37*
G36*
X120545000Y-80155000D02*
G01*
X119495000Y-80155000D01*
X119495000Y-79505000D01*
X120545000Y-79505000D01*
X120545000Y-80155000D01*
G37*
G36*
X122211615Y-79175818D02*
G01*
X122260017Y-79181434D01*
X122276555Y-79188736D01*
X122298387Y-79193079D01*
X122321759Y-79208695D01*
X122341224Y-79217290D01*
X122354517Y-79230583D01*
X122375438Y-79244562D01*
X122389416Y-79265482D01*
X122402709Y-79278775D01*
X122411302Y-79298238D01*
X122426921Y-79321613D01*
X122431264Y-79343446D01*
X122438565Y-79359982D01*
X122444178Y-79408372D01*
X122445000Y-79412500D01*
X122445000Y-79912500D01*
X122444178Y-79916627D01*
X122438565Y-79965017D01*
X122431264Y-79981551D01*
X122426921Y-80003387D01*
X122411301Y-80026763D01*
X122402709Y-80046224D01*
X122389418Y-80059514D01*
X122375438Y-80080438D01*
X122354514Y-80094418D01*
X122341224Y-80107709D01*
X122321763Y-80116301D01*
X122298387Y-80131921D01*
X122276551Y-80136264D01*
X122260017Y-80143565D01*
X122211629Y-80149178D01*
X122207500Y-80150000D01*
X121732500Y-80150000D01*
X121728373Y-80149179D01*
X121679982Y-80143565D01*
X121663446Y-80136264D01*
X121641613Y-80131921D01*
X121618238Y-80116302D01*
X121598775Y-80107709D01*
X121585482Y-80094416D01*
X121564562Y-80080438D01*
X121550583Y-80059517D01*
X121537290Y-80046224D01*
X121528695Y-80026759D01*
X121513079Y-80003387D01*
X121508736Y-79981555D01*
X121501434Y-79965017D01*
X121495818Y-79916616D01*
X121495000Y-79912500D01*
X121495000Y-79412500D01*
X121495818Y-79408385D01*
X121501434Y-79359982D01*
X121508736Y-79343442D01*
X121513079Y-79321613D01*
X121528694Y-79298242D01*
X121537290Y-79278775D01*
X121550585Y-79265479D01*
X121564562Y-79244562D01*
X121585479Y-79230585D01*
X121598775Y-79217290D01*
X121618242Y-79208694D01*
X121641613Y-79193079D01*
X121663442Y-79188736D01*
X121679982Y-79181434D01*
X121728384Y-79175818D01*
X121732500Y-79175000D01*
X122207500Y-79175000D01*
X122211615Y-79175818D01*
G37*
G36*
X125521615Y-79023318D02*
G01*
X125570017Y-79028934D01*
X125586555Y-79036236D01*
X125608387Y-79040579D01*
X125631759Y-79056195D01*
X125651224Y-79064790D01*
X125664517Y-79078083D01*
X125685438Y-79092062D01*
X125699416Y-79112982D01*
X125712709Y-79126275D01*
X125721302Y-79145738D01*
X125736921Y-79169113D01*
X125741264Y-79190946D01*
X125748565Y-79207482D01*
X125754178Y-79255872D01*
X125755000Y-79260000D01*
X125755000Y-79860000D01*
X125754178Y-79864127D01*
X125748565Y-79912517D01*
X125741264Y-79929051D01*
X125736921Y-79950887D01*
X125721301Y-79974263D01*
X125712709Y-79993724D01*
X125699418Y-80007014D01*
X125685438Y-80027938D01*
X125664514Y-80041918D01*
X125651224Y-80055209D01*
X125631763Y-80063801D01*
X125608387Y-80079421D01*
X125586551Y-80083764D01*
X125570017Y-80091065D01*
X125521629Y-80096678D01*
X125517500Y-80097500D01*
X125042500Y-80097500D01*
X125038373Y-80096679D01*
X124989982Y-80091065D01*
X124973446Y-80083764D01*
X124951613Y-80079421D01*
X124928238Y-80063802D01*
X124908775Y-80055209D01*
X124895482Y-80041916D01*
X124874562Y-80027938D01*
X124860583Y-80007017D01*
X124847290Y-79993724D01*
X124838695Y-79974259D01*
X124823079Y-79950887D01*
X124818736Y-79929055D01*
X124811434Y-79912517D01*
X124805818Y-79864116D01*
X124805000Y-79860000D01*
X124805000Y-79260000D01*
X124805818Y-79255885D01*
X124811434Y-79207482D01*
X124818736Y-79190942D01*
X124823079Y-79169113D01*
X124838694Y-79145742D01*
X124847290Y-79126275D01*
X124860585Y-79112979D01*
X124874562Y-79092062D01*
X124895479Y-79078085D01*
X124908775Y-79064790D01*
X124928242Y-79056194D01*
X124951613Y-79040579D01*
X124973442Y-79036236D01*
X124989982Y-79028934D01*
X125038384Y-79023318D01*
X125042500Y-79022500D01*
X125517500Y-79022500D01*
X125521615Y-79023318D01*
G37*
G36*
X127649034Y-79105764D02*
G01*
X127682125Y-79127875D01*
X127704236Y-79160966D01*
X127712000Y-79200000D01*
X127712000Y-79600000D01*
X127704236Y-79639034D01*
X127682125Y-79672125D01*
X127649034Y-79694236D01*
X127610000Y-79702000D01*
X126810000Y-79702000D01*
X126770966Y-79694236D01*
X126737875Y-79672125D01*
X126715764Y-79639034D01*
X126708000Y-79600000D01*
X126708000Y-79200000D01*
X126715764Y-79160966D01*
X126737875Y-79127875D01*
X126770966Y-79105764D01*
X126810000Y-79098000D01*
X127610000Y-79098000D01*
X127649034Y-79105764D01*
G37*
G36*
X139449034Y-79105764D02*
G01*
X139482125Y-79127875D01*
X139504236Y-79160966D01*
X139512000Y-79200000D01*
X139512000Y-79600000D01*
X139504236Y-79639034D01*
X139482125Y-79672125D01*
X139449034Y-79694236D01*
X139410000Y-79702000D01*
X138610000Y-79702000D01*
X138570966Y-79694236D01*
X138537875Y-79672125D01*
X138515764Y-79639034D01*
X138508000Y-79600000D01*
X138508000Y-79200000D01*
X138515764Y-79160966D01*
X138537875Y-79127875D01*
X138570966Y-79105764D01*
X138610000Y-79098000D01*
X139410000Y-79098000D01*
X139449034Y-79105764D01*
G37*
G36*
X142302640Y-78837352D02*
G01*
X142398724Y-78892826D01*
X142477175Y-78971277D01*
X142532649Y-79067361D01*
X142561364Y-79174527D01*
X142561364Y-79285475D01*
X142532649Y-79392641D01*
X142477175Y-79488725D01*
X142398724Y-79567176D01*
X142302640Y-79622650D01*
X142195474Y-79651365D01*
X142084526Y-79651365D01*
X141977360Y-79622650D01*
X141881276Y-79567176D01*
X141802825Y-79488725D01*
X141747351Y-79392641D01*
X141718636Y-79285475D01*
X141718636Y-79174527D01*
X141747351Y-79067361D01*
X141802825Y-78971277D01*
X141881276Y-78892826D01*
X141977360Y-78837352D01*
X142084526Y-78808637D01*
X142195474Y-78808637D01*
X142302640Y-78837352D01*
G37*
G36*
X145350000Y-79550000D02*
G01*
X144350000Y-79550000D01*
X144350000Y-78750000D01*
X145350000Y-78750000D01*
X145350000Y-79550000D01*
G37*
G36*
X152650000Y-79550000D02*
G01*
X151650000Y-79550000D01*
X151650000Y-78750000D01*
X152650000Y-78750000D01*
X152650000Y-79550000D01*
G37*
G36*
X127649034Y-78305764D02*
G01*
X127682125Y-78327875D01*
X127704236Y-78360966D01*
X127712000Y-78400000D01*
X127712000Y-78800000D01*
X127704236Y-78839034D01*
X127682125Y-78872125D01*
X127649034Y-78894236D01*
X127610000Y-78902000D01*
X126810000Y-78902000D01*
X126770966Y-78894236D01*
X126737875Y-78872125D01*
X126715764Y-78839034D01*
X126708000Y-78800000D01*
X126708000Y-78400000D01*
X126715764Y-78360966D01*
X126737875Y-78327875D01*
X126770966Y-78305764D01*
X126810000Y-78298000D01*
X127610000Y-78298000D01*
X127649034Y-78305764D01*
G37*
G36*
X139449034Y-78305764D02*
G01*
X139482125Y-78327875D01*
X139504236Y-78360966D01*
X139512000Y-78400000D01*
X139512000Y-78800000D01*
X139504236Y-78839034D01*
X139482125Y-78872125D01*
X139449034Y-78894236D01*
X139410000Y-78902000D01*
X138610000Y-78902000D01*
X138570966Y-78894236D01*
X138537875Y-78872125D01*
X138515764Y-78839034D01*
X138508000Y-78800000D01*
X138508000Y-78400000D01*
X138515764Y-78360966D01*
X138537875Y-78327875D01*
X138570966Y-78305764D01*
X138610000Y-78298000D01*
X139410000Y-78298000D01*
X139449034Y-78305764D01*
G37*
G36*
X147172208Y-77624254D02*
G01*
X147273943Y-77682991D01*
X147357009Y-77766057D01*
X147415746Y-77867792D01*
X147446150Y-77981263D01*
X147446150Y-78098737D01*
X147415746Y-78212208D01*
X147357009Y-78313943D01*
X147273943Y-78397009D01*
X147172208Y-78455746D01*
X147058737Y-78486150D01*
X146941263Y-78486150D01*
X146827792Y-78455746D01*
X146726057Y-78397009D01*
X146642991Y-78313943D01*
X146584254Y-78212208D01*
X146553850Y-78098737D01*
X146553850Y-77981263D01*
X146584254Y-77867792D01*
X146642991Y-77766057D01*
X146726057Y-77682991D01*
X146827792Y-77624254D01*
X146941263Y-77593850D01*
X147058737Y-77593850D01*
X147172208Y-77624254D01*
G37*
G36*
X150172208Y-77624254D02*
G01*
X150273943Y-77682991D01*
X150357009Y-77766057D01*
X150415746Y-77867792D01*
X150446150Y-77981263D01*
X150446150Y-78098737D01*
X150415746Y-78212208D01*
X150357009Y-78313943D01*
X150273943Y-78397009D01*
X150172208Y-78455746D01*
X150058737Y-78486150D01*
X149941263Y-78486150D01*
X149827792Y-78455746D01*
X149726057Y-78397009D01*
X149642991Y-78313943D01*
X149584254Y-78212208D01*
X149553850Y-78098737D01*
X149553850Y-77981263D01*
X149584254Y-77867792D01*
X149642991Y-77766057D01*
X149726057Y-77682991D01*
X149827792Y-77624254D01*
X149941263Y-77593850D01*
X150058737Y-77593850D01*
X150172208Y-77624254D01*
G37*
G36*
X114231615Y-77370818D02*
G01*
X114280017Y-77376434D01*
X114296555Y-77383736D01*
X114318387Y-77388079D01*
X114341759Y-77403695D01*
X114361224Y-77412290D01*
X114374517Y-77425583D01*
X114395438Y-77439562D01*
X114409416Y-77460482D01*
X114422709Y-77473775D01*
X114431302Y-77493238D01*
X114446921Y-77516613D01*
X114451264Y-77538446D01*
X114458565Y-77554982D01*
X114464178Y-77603372D01*
X114465000Y-77607500D01*
X114465000Y-78207500D01*
X114464178Y-78211627D01*
X114458565Y-78260017D01*
X114451264Y-78276551D01*
X114446921Y-78298387D01*
X114431301Y-78321763D01*
X114422709Y-78341224D01*
X114409418Y-78354514D01*
X114395438Y-78375438D01*
X114374514Y-78389418D01*
X114361224Y-78402709D01*
X114341763Y-78411301D01*
X114318387Y-78426921D01*
X114296551Y-78431264D01*
X114280017Y-78438565D01*
X114231629Y-78444178D01*
X114227500Y-78445000D01*
X113752500Y-78445000D01*
X113748373Y-78444179D01*
X113699982Y-78438565D01*
X113683446Y-78431264D01*
X113661613Y-78426921D01*
X113638238Y-78411302D01*
X113618775Y-78402709D01*
X113605482Y-78389416D01*
X113584562Y-78375438D01*
X113570583Y-78354517D01*
X113557290Y-78341224D01*
X113548695Y-78321759D01*
X113533079Y-78298387D01*
X113528736Y-78276555D01*
X113521434Y-78260017D01*
X113515818Y-78211616D01*
X113515000Y-78207500D01*
X113515000Y-77607500D01*
X113515818Y-77603385D01*
X113521434Y-77554982D01*
X113528736Y-77538442D01*
X113533079Y-77516613D01*
X113548694Y-77493242D01*
X113557290Y-77473775D01*
X113570585Y-77460479D01*
X113584562Y-77439562D01*
X113605479Y-77425585D01*
X113618775Y-77412290D01*
X113638242Y-77403694D01*
X113661613Y-77388079D01*
X113683442Y-77383736D01*
X113699982Y-77376434D01*
X113748384Y-77370818D01*
X113752500Y-77370000D01*
X114227500Y-77370000D01*
X114231615Y-77370818D01*
G37*
G36*
X125521615Y-77298318D02*
G01*
X125570017Y-77303934D01*
X125586555Y-77311236D01*
X125608387Y-77315579D01*
X125631759Y-77331195D01*
X125651224Y-77339790D01*
X125664517Y-77353083D01*
X125685438Y-77367062D01*
X125699416Y-77387982D01*
X125712709Y-77401275D01*
X125721302Y-77420738D01*
X125736921Y-77444113D01*
X125741264Y-77465946D01*
X125748565Y-77482482D01*
X125754178Y-77530872D01*
X125755000Y-77535000D01*
X125755000Y-78135000D01*
X125754178Y-78139127D01*
X125748565Y-78187517D01*
X125741264Y-78204051D01*
X125736921Y-78225887D01*
X125721301Y-78249263D01*
X125712709Y-78268724D01*
X125699418Y-78282014D01*
X125685438Y-78302938D01*
X125664514Y-78316918D01*
X125651224Y-78330209D01*
X125631763Y-78338801D01*
X125608387Y-78354421D01*
X125586551Y-78358764D01*
X125570017Y-78366065D01*
X125521629Y-78371678D01*
X125517500Y-78372500D01*
X125042500Y-78372500D01*
X125038373Y-78371679D01*
X124989982Y-78366065D01*
X124973446Y-78358764D01*
X124951613Y-78354421D01*
X124928238Y-78338802D01*
X124908775Y-78330209D01*
X124895482Y-78316916D01*
X124874562Y-78302938D01*
X124860583Y-78282017D01*
X124847290Y-78268724D01*
X124838695Y-78249259D01*
X124823079Y-78225887D01*
X124818736Y-78204055D01*
X124811434Y-78187517D01*
X124805818Y-78139116D01*
X124805000Y-78135000D01*
X124805000Y-77535000D01*
X124805818Y-77530885D01*
X124811434Y-77482482D01*
X124818736Y-77465942D01*
X124823079Y-77444113D01*
X124838694Y-77420742D01*
X124847290Y-77401275D01*
X124860585Y-77387979D01*
X124874562Y-77367062D01*
X124895479Y-77353085D01*
X124908775Y-77339790D01*
X124928242Y-77331194D01*
X124951613Y-77315579D01*
X124973442Y-77311236D01*
X124989982Y-77303934D01*
X125038384Y-77298318D01*
X125042500Y-77297500D01*
X125517500Y-77297500D01*
X125521615Y-77298318D01*
G37*
G36*
X122211615Y-77350818D02*
G01*
X122260017Y-77356434D01*
X122276555Y-77363736D01*
X122298387Y-77368079D01*
X122321759Y-77383695D01*
X122341224Y-77392290D01*
X122354517Y-77405583D01*
X122375438Y-77419562D01*
X122389416Y-77440482D01*
X122402709Y-77453775D01*
X122411302Y-77473238D01*
X122426921Y-77496613D01*
X122431264Y-77518446D01*
X122438565Y-77534982D01*
X122444178Y-77583372D01*
X122445000Y-77587500D01*
X122445000Y-78087500D01*
X122444178Y-78091627D01*
X122438565Y-78140017D01*
X122431264Y-78156551D01*
X122426921Y-78178387D01*
X122411301Y-78201763D01*
X122402709Y-78221224D01*
X122389418Y-78234514D01*
X122375438Y-78255438D01*
X122354514Y-78269418D01*
X122341224Y-78282709D01*
X122321763Y-78291301D01*
X122298387Y-78306921D01*
X122276551Y-78311264D01*
X122260017Y-78318565D01*
X122211629Y-78324178D01*
X122207500Y-78325000D01*
X121732500Y-78325000D01*
X121728373Y-78324179D01*
X121679982Y-78318565D01*
X121663446Y-78311264D01*
X121641613Y-78306921D01*
X121618238Y-78291302D01*
X121598775Y-78282709D01*
X121585482Y-78269416D01*
X121564562Y-78255438D01*
X121550583Y-78234517D01*
X121537290Y-78221224D01*
X121528695Y-78201759D01*
X121513079Y-78178387D01*
X121508736Y-78156555D01*
X121501434Y-78140017D01*
X121495818Y-78091616D01*
X121495000Y-78087500D01*
X121495000Y-77587500D01*
X121495818Y-77583385D01*
X121501434Y-77534982D01*
X121508736Y-77518442D01*
X121513079Y-77496613D01*
X121528694Y-77473242D01*
X121537290Y-77453775D01*
X121550585Y-77440479D01*
X121564562Y-77419562D01*
X121585479Y-77405585D01*
X121598775Y-77392290D01*
X121618242Y-77383694D01*
X121641613Y-77368079D01*
X121663442Y-77363736D01*
X121679982Y-77356434D01*
X121728384Y-77350818D01*
X121732500Y-77350000D01*
X122207500Y-77350000D01*
X122211615Y-77350818D01*
G37*
G36*
X127649034Y-77505764D02*
G01*
X127682125Y-77527875D01*
X127704236Y-77560966D01*
X127712000Y-77600000D01*
X127712000Y-78000000D01*
X127704236Y-78039034D01*
X127682125Y-78072125D01*
X127649034Y-78094236D01*
X127610000Y-78102000D01*
X126810000Y-78102000D01*
X126770966Y-78094236D01*
X126737875Y-78072125D01*
X126715764Y-78039034D01*
X126708000Y-78000000D01*
X126708000Y-77600000D01*
X126715764Y-77560966D01*
X126737875Y-77527875D01*
X126770966Y-77505764D01*
X126810000Y-77498000D01*
X127610000Y-77498000D01*
X127649034Y-77505764D01*
G37*
G36*
X139449034Y-77505764D02*
G01*
X139482125Y-77527875D01*
X139504236Y-77560966D01*
X139512000Y-77600000D01*
X139512000Y-78000000D01*
X139504236Y-78039034D01*
X139482125Y-78072125D01*
X139449034Y-78094236D01*
X139410000Y-78102000D01*
X138610000Y-78102000D01*
X138570966Y-78094236D01*
X138537875Y-78072125D01*
X138515764Y-78039034D01*
X138508000Y-78000000D01*
X138508000Y-77600000D01*
X138515764Y-77560966D01*
X138537875Y-77527875D01*
X138570966Y-77505764D01*
X138610000Y-77498000D01*
X139410000Y-77498000D01*
X139449034Y-77505764D01*
G37*
G36*
X116395000Y-78005000D02*
G01*
X115345000Y-78005000D01*
X115345000Y-77355000D01*
X116395000Y-77355000D01*
X116395000Y-78005000D01*
G37*
G36*
X120545000Y-78005000D02*
G01*
X119495000Y-78005000D01*
X119495000Y-77355000D01*
X120545000Y-77355000D01*
X120545000Y-78005000D01*
G37*
G36*
X128549034Y-76405764D02*
G01*
X128582125Y-76427875D01*
X128604236Y-76460966D01*
X128612000Y-76500000D01*
X128612000Y-77300000D01*
X128604236Y-77339034D01*
X128582125Y-77372125D01*
X128549034Y-77394236D01*
X128510000Y-77402000D01*
X128110000Y-77402000D01*
X128070966Y-77394236D01*
X128037875Y-77372125D01*
X128015764Y-77339034D01*
X128008000Y-77300000D01*
X128008000Y-76500000D01*
X128015764Y-76460966D01*
X128037875Y-76427875D01*
X128070966Y-76405764D01*
X128110000Y-76398000D01*
X128510000Y-76398000D01*
X128549034Y-76405764D01*
G37*
G36*
X129349034Y-76405764D02*
G01*
X129382125Y-76427875D01*
X129404236Y-76460966D01*
X129412000Y-76500000D01*
X129412000Y-77300000D01*
X129404236Y-77339034D01*
X129382125Y-77372125D01*
X129349034Y-77394236D01*
X129310000Y-77402000D01*
X128910000Y-77402000D01*
X128870966Y-77394236D01*
X128837875Y-77372125D01*
X128815764Y-77339034D01*
X128808000Y-77300000D01*
X128808000Y-76500000D01*
X128815764Y-76460966D01*
X128837875Y-76427875D01*
X128870966Y-76405764D01*
X128910000Y-76398000D01*
X129310000Y-76398000D01*
X129349034Y-76405764D01*
G37*
G36*
X130149034Y-76405764D02*
G01*
X130182125Y-76427875D01*
X130204236Y-76460966D01*
X130212000Y-76500000D01*
X130212000Y-77300000D01*
X130204236Y-77339034D01*
X130182125Y-77372125D01*
X130149034Y-77394236D01*
X130110000Y-77402000D01*
X129710000Y-77402000D01*
X129670966Y-77394236D01*
X129637875Y-77372125D01*
X129615764Y-77339034D01*
X129608000Y-77300000D01*
X129608000Y-76500000D01*
X129615764Y-76460966D01*
X129637875Y-76427875D01*
X129670966Y-76405764D01*
X129710000Y-76398000D01*
X130110000Y-76398000D01*
X130149034Y-76405764D01*
G37*
G36*
X130949034Y-76405764D02*
G01*
X130982125Y-76427875D01*
X131004236Y-76460966D01*
X131012000Y-76500000D01*
X131012000Y-77300000D01*
X131004236Y-77339034D01*
X130982125Y-77372125D01*
X130949034Y-77394236D01*
X130910000Y-77402000D01*
X130510000Y-77402000D01*
X130470966Y-77394236D01*
X130437875Y-77372125D01*
X130415764Y-77339034D01*
X130408000Y-77300000D01*
X130408000Y-76500000D01*
X130415764Y-76460966D01*
X130437875Y-76427875D01*
X130470966Y-76405764D01*
X130510000Y-76398000D01*
X130910000Y-76398000D01*
X130949034Y-76405764D01*
G37*
G36*
X131749034Y-76405764D02*
G01*
X131782125Y-76427875D01*
X131804236Y-76460966D01*
X131812000Y-76500000D01*
X131812000Y-77300000D01*
X131804236Y-77339034D01*
X131782125Y-77372125D01*
X131749034Y-77394236D01*
X131710000Y-77402000D01*
X131310000Y-77402000D01*
X131270966Y-77394236D01*
X131237875Y-77372125D01*
X131215764Y-77339034D01*
X131208000Y-77300000D01*
X131208000Y-76500000D01*
X131215764Y-76460966D01*
X131237875Y-76427875D01*
X131270966Y-76405764D01*
X131310000Y-76398000D01*
X131710000Y-76398000D01*
X131749034Y-76405764D01*
G37*
G36*
X132549034Y-76405764D02*
G01*
X132582125Y-76427875D01*
X132604236Y-76460966D01*
X132612000Y-76500000D01*
X132612000Y-77300000D01*
X132604236Y-77339034D01*
X132582125Y-77372125D01*
X132549034Y-77394236D01*
X132510000Y-77402000D01*
X132110000Y-77402000D01*
X132070966Y-77394236D01*
X132037875Y-77372125D01*
X132015764Y-77339034D01*
X132008000Y-77300000D01*
X132008000Y-76500000D01*
X132015764Y-76460966D01*
X132037875Y-76427875D01*
X132070966Y-76405764D01*
X132110000Y-76398000D01*
X132510000Y-76398000D01*
X132549034Y-76405764D01*
G37*
G36*
X133349034Y-76405764D02*
G01*
X133382125Y-76427875D01*
X133404236Y-76460966D01*
X133412000Y-76500000D01*
X133412000Y-77300000D01*
X133404236Y-77339034D01*
X133382125Y-77372125D01*
X133349034Y-77394236D01*
X133310000Y-77402000D01*
X132910000Y-77402000D01*
X132870966Y-77394236D01*
X132837875Y-77372125D01*
X132815764Y-77339034D01*
X132808000Y-77300000D01*
X132808000Y-76500000D01*
X132815764Y-76460966D01*
X132837875Y-76427875D01*
X132870966Y-76405764D01*
X132910000Y-76398000D01*
X133310000Y-76398000D01*
X133349034Y-76405764D01*
G37*
G36*
X134149034Y-76405764D02*
G01*
X134182125Y-76427875D01*
X134204236Y-76460966D01*
X134212000Y-76500000D01*
X134212000Y-77300000D01*
X134204236Y-77339034D01*
X134182125Y-77372125D01*
X134149034Y-77394236D01*
X134110000Y-77402000D01*
X133710000Y-77402000D01*
X133670966Y-77394236D01*
X133637875Y-77372125D01*
X133615764Y-77339034D01*
X133608000Y-77300000D01*
X133608000Y-76500000D01*
X133615764Y-76460966D01*
X133637875Y-76427875D01*
X133670966Y-76405764D01*
X133710000Y-76398000D01*
X134110000Y-76398000D01*
X134149034Y-76405764D01*
G37*
G36*
X134949034Y-76405764D02*
G01*
X134982125Y-76427875D01*
X135004236Y-76460966D01*
X135012000Y-76500000D01*
X135012000Y-77300000D01*
X135004236Y-77339034D01*
X134982125Y-77372125D01*
X134949034Y-77394236D01*
X134910000Y-77402000D01*
X134510000Y-77402000D01*
X134470966Y-77394236D01*
X134437875Y-77372125D01*
X134415764Y-77339034D01*
X134408000Y-77300000D01*
X134408000Y-76500000D01*
X134415764Y-76460966D01*
X134437875Y-76427875D01*
X134470966Y-76405764D01*
X134510000Y-76398000D01*
X134910000Y-76398000D01*
X134949034Y-76405764D01*
G37*
G36*
X135749034Y-76405764D02*
G01*
X135782125Y-76427875D01*
X135804236Y-76460966D01*
X135812000Y-76500000D01*
X135812000Y-77300000D01*
X135804236Y-77339034D01*
X135782125Y-77372125D01*
X135749034Y-77394236D01*
X135710000Y-77402000D01*
X135310000Y-77402000D01*
X135270966Y-77394236D01*
X135237875Y-77372125D01*
X135215764Y-77339034D01*
X135208000Y-77300000D01*
X135208000Y-76500000D01*
X135215764Y-76460966D01*
X135237875Y-76427875D01*
X135270966Y-76405764D01*
X135310000Y-76398000D01*
X135710000Y-76398000D01*
X135749034Y-76405764D01*
G37*
G36*
X136549034Y-76405764D02*
G01*
X136582125Y-76427875D01*
X136604236Y-76460966D01*
X136612000Y-76500000D01*
X136612000Y-77300000D01*
X136604236Y-77339034D01*
X136582125Y-77372125D01*
X136549034Y-77394236D01*
X136510000Y-77402000D01*
X136110000Y-77402000D01*
X136070966Y-77394236D01*
X136037875Y-77372125D01*
X136015764Y-77339034D01*
X136008000Y-77300000D01*
X136008000Y-76500000D01*
X136015764Y-76460966D01*
X136037875Y-76427875D01*
X136070966Y-76405764D01*
X136110000Y-76398000D01*
X136510000Y-76398000D01*
X136549034Y-76405764D01*
G37*
G36*
X137349034Y-76405764D02*
G01*
X137382125Y-76427875D01*
X137404236Y-76460966D01*
X137412000Y-76500000D01*
X137412000Y-77300000D01*
X137404236Y-77339034D01*
X137382125Y-77372125D01*
X137349034Y-77394236D01*
X137310000Y-77402000D01*
X136910000Y-77402000D01*
X136870966Y-77394236D01*
X136837875Y-77372125D01*
X136815764Y-77339034D01*
X136808000Y-77300000D01*
X136808000Y-76500000D01*
X136815764Y-76460966D01*
X136837875Y-76427875D01*
X136870966Y-76405764D01*
X136910000Y-76398000D01*
X137310000Y-76398000D01*
X137349034Y-76405764D01*
G37*
G36*
X138149034Y-76405764D02*
G01*
X138182125Y-76427875D01*
X138204236Y-76460966D01*
X138212000Y-76500000D01*
X138212000Y-77300000D01*
X138204236Y-77339034D01*
X138182125Y-77372125D01*
X138149034Y-77394236D01*
X138110000Y-77402000D01*
X137710000Y-77402000D01*
X137670966Y-77394236D01*
X137637875Y-77372125D01*
X137615764Y-77339034D01*
X137608000Y-77300000D01*
X137608000Y-76500000D01*
X137615764Y-76460966D01*
X137637875Y-76427875D01*
X137670966Y-76405764D01*
X137710000Y-76398000D01*
X138110000Y-76398000D01*
X138149034Y-76405764D01*
G37*
G36*
X145350000Y-77340000D02*
G01*
X144350000Y-77340000D01*
X144350000Y-76540000D01*
X145350000Y-76540000D01*
X145350000Y-77340000D01*
G37*
G36*
X152650000Y-77340000D02*
G01*
X151650000Y-77340000D01*
X151650000Y-76540000D01*
X152650000Y-76540000D01*
X152650000Y-77340000D01*
G37*
G36*
X127549034Y-76405764D02*
G01*
X127582125Y-76427875D01*
X127604236Y-76460966D01*
X127612000Y-76500000D01*
X127612000Y-77200000D01*
X127604236Y-77239034D01*
X127582125Y-77272125D01*
X127549034Y-77294236D01*
X127510000Y-77302000D01*
X126810000Y-77302000D01*
X126770966Y-77294236D01*
X126737875Y-77272125D01*
X126715764Y-77239034D01*
X126708000Y-77200000D01*
X126708000Y-76500000D01*
X126715764Y-76460966D01*
X126737875Y-76427875D01*
X126770966Y-76405764D01*
X126810000Y-76398000D01*
X127510000Y-76398000D01*
X127549034Y-76405764D01*
G37*
G36*
X139449034Y-76405764D02*
G01*
X139482125Y-76427875D01*
X139504236Y-76460966D01*
X139512000Y-76500000D01*
X139512000Y-77200000D01*
X139504236Y-77239034D01*
X139482125Y-77272125D01*
X139449034Y-77294236D01*
X139410000Y-77302000D01*
X138710000Y-77302000D01*
X138670966Y-77294236D01*
X138637875Y-77272125D01*
X138615764Y-77239034D01*
X138608000Y-77200000D01*
X138608000Y-76500000D01*
X138615764Y-76460966D01*
X138637875Y-76427875D01*
X138670966Y-76405764D01*
X138710000Y-76398000D01*
X139410000Y-76398000D01*
X139449034Y-76405764D01*
G37*
M02*
