%TF.GenerationSoftware,KiCad,Pcbnew,10.0.0*%
%TF.CreationDate,2026-04-21T22:51:41+03:00*%
%TF.ProjectId,Dobule shawarma PCB,446f6275-6c65-4207-9368-617761726d61,rev?*%
%TF.SameCoordinates,Original*%
%TF.FileFunction,Soldermask,Bot*%
%TF.FilePolarity,Negative*%
%FSLAX46Y46*%
G04 Gerber Fmt 4.6, Leading zero omitted, Abs format (unit mm)*
G04 Created by KiCad (PCBNEW 10.0.0) date 2026-04-21 22:51:41*
%MOMM*%
%LPD*%
G01*
G04 APERTURE LIST*
G04 APERTURE END LIST*
G36*
X151725527Y-108101318D02*
G01*
X151852306Y-108153831D01*
X151966403Y-108230069D01*
X152063435Y-108327101D01*
X152139673Y-108441198D01*
X152192186Y-108567977D01*
X152218957Y-108702564D01*
X152218957Y-108839788D01*
X152192186Y-108974375D01*
X152139673Y-109101154D01*
X152063435Y-109215251D01*
X151966403Y-109312283D01*
X151852306Y-109388521D01*
X151725527Y-109441034D01*
X151590940Y-109467805D01*
X151453716Y-109467805D01*
X151319129Y-109441034D01*
X151192350Y-109388521D01*
X151078253Y-109312283D01*
X150981221Y-109215251D01*
X150904983Y-109101154D01*
X150852470Y-108974375D01*
X150825699Y-108839788D01*
X150825699Y-108702564D01*
X150852470Y-108567977D01*
X150904983Y-108441198D01*
X150981221Y-108327101D01*
X151078253Y-108230069D01*
X151192350Y-108153831D01*
X151319129Y-108101318D01*
X151453716Y-108074547D01*
X151590940Y-108074547D01*
X151725527Y-108101318D01*
G37*
G36*
X116503489Y-108090432D02*
G01*
X116630268Y-108142945D01*
X116744365Y-108219183D01*
X116841397Y-108316215D01*
X116917635Y-108430312D01*
X116970148Y-108557091D01*
X116996919Y-108691678D01*
X116996919Y-108828902D01*
X116970148Y-108963489D01*
X116917635Y-109090268D01*
X116841397Y-109204365D01*
X116744365Y-109301397D01*
X116630268Y-109377635D01*
X116503489Y-109430148D01*
X116368902Y-109456919D01*
X116231678Y-109456919D01*
X116097091Y-109430148D01*
X115970312Y-109377635D01*
X115856215Y-109301397D01*
X115759183Y-109204365D01*
X115682945Y-109090268D01*
X115630432Y-108963489D01*
X115603661Y-108828902D01*
X115603661Y-108691678D01*
X115630432Y-108557091D01*
X115682945Y-108430312D01*
X115759183Y-108316215D01*
X115856215Y-108219183D01*
X115970312Y-108142945D01*
X116097091Y-108090432D01*
X116231678Y-108063661D01*
X116368902Y-108063661D01*
X116503489Y-108090432D01*
G37*
G36*
X153521578Y-106305267D02*
G01*
X153648357Y-106357780D01*
X153762454Y-106434018D01*
X153859486Y-106531050D01*
X153935724Y-106645147D01*
X153988237Y-106771926D01*
X154015008Y-106906513D01*
X154015008Y-107043737D01*
X153988237Y-107178324D01*
X153935724Y-107305103D01*
X153859486Y-107419200D01*
X153762454Y-107516232D01*
X153648357Y-107592470D01*
X153521578Y-107644983D01*
X153386991Y-107671754D01*
X153249767Y-107671754D01*
X153115180Y-107644983D01*
X152988401Y-107592470D01*
X152874304Y-107516232D01*
X152777272Y-107419200D01*
X152701034Y-107305103D01*
X152648521Y-107178324D01*
X152621750Y-107043737D01*
X152621750Y-106906513D01*
X152648521Y-106771926D01*
X152701034Y-106645147D01*
X152777272Y-106531050D01*
X152874304Y-106434018D01*
X152988401Y-106357780D01*
X153115180Y-106305267D01*
X153249767Y-106278496D01*
X153386991Y-106278496D01*
X153521578Y-106305267D01*
G37*
G36*
X114707438Y-106294381D02*
G01*
X114834217Y-106346894D01*
X114948314Y-106423132D01*
X115045346Y-106520164D01*
X115121584Y-106634261D01*
X115174097Y-106761040D01*
X115200868Y-106895627D01*
X115200868Y-107032851D01*
X115174097Y-107167438D01*
X115121584Y-107294217D01*
X115045346Y-107408314D01*
X114948314Y-107505346D01*
X114834217Y-107581584D01*
X114707438Y-107634097D01*
X114572851Y-107660868D01*
X114435627Y-107660868D01*
X114301040Y-107634097D01*
X114174261Y-107581584D01*
X114060164Y-107505346D01*
X113963132Y-107408314D01*
X113886894Y-107294217D01*
X113834381Y-107167438D01*
X113807610Y-107032851D01*
X113807610Y-106895627D01*
X113834381Y-106761040D01*
X113886894Y-106634261D01*
X113963132Y-106520164D01*
X114060164Y-106423132D01*
X114174261Y-106346894D01*
X114301040Y-106294381D01*
X114435627Y-106267610D01*
X114572851Y-106267610D01*
X114707438Y-106294381D01*
G37*
G36*
X175339199Y-102392272D02*
G01*
X175617167Y-102466754D01*
X175883035Y-102576880D01*
X176132255Y-102720767D01*
X176360561Y-102895952D01*
X176564048Y-103099439D01*
X176739233Y-103327745D01*
X176883120Y-103576965D01*
X176993246Y-103842833D01*
X177067728Y-104120801D01*
X177105290Y-104406113D01*
X177105290Y-104693887D01*
X177067728Y-104979199D01*
X176993246Y-105257167D01*
X176883120Y-105523035D01*
X176739233Y-105772255D01*
X176564048Y-106000561D01*
X176360561Y-106204048D01*
X176132255Y-106379233D01*
X175883035Y-106523120D01*
X175617167Y-106633246D01*
X175339199Y-106707728D01*
X175053887Y-106745290D01*
X174766113Y-106745290D01*
X174480801Y-106707728D01*
X174202833Y-106633246D01*
X173936965Y-106523120D01*
X173687745Y-106379233D01*
X173459439Y-106204048D01*
X173255952Y-106000561D01*
X173080767Y-105772255D01*
X172936880Y-105523035D01*
X172826754Y-105257167D01*
X172752272Y-104979199D01*
X172714710Y-104693887D01*
X172714710Y-104406113D01*
X172752272Y-104120801D01*
X172826754Y-103842833D01*
X172936880Y-103576965D01*
X173080767Y-103327745D01*
X173255952Y-103099439D01*
X173459439Y-102895952D01*
X173687745Y-102720767D01*
X173936965Y-102576880D01*
X174202833Y-102466754D01*
X174480801Y-102392272D01*
X174766113Y-102354710D01*
X175053887Y-102354710D01*
X175339199Y-102392272D01*
G37*
G36*
X113256790Y-100930393D02*
G01*
X113420952Y-100983733D01*
X113574748Y-101062096D01*
X113714393Y-101163553D01*
X113836447Y-101285607D01*
X113937904Y-101425252D01*
X114016267Y-101579048D01*
X114069607Y-101743210D01*
X114096609Y-101913695D01*
X114096609Y-102086305D01*
X114069607Y-102256790D01*
X114016267Y-102420952D01*
X113937904Y-102574748D01*
X113836447Y-102714393D01*
X113714393Y-102836447D01*
X113574748Y-102937904D01*
X113420952Y-103016267D01*
X113256790Y-103069607D01*
X113086305Y-103096609D01*
X112913695Y-103096609D01*
X112743210Y-103069607D01*
X112579048Y-103016267D01*
X112425252Y-102937904D01*
X112285607Y-102836447D01*
X112163553Y-102714393D01*
X112062096Y-102574748D01*
X111983733Y-102420952D01*
X111930393Y-102256790D01*
X111903391Y-102086305D01*
X111903391Y-101913695D01*
X111930393Y-101743210D01*
X111983733Y-101579048D01*
X112062096Y-101425252D01*
X112163553Y-101285607D01*
X112285607Y-101163553D01*
X112425252Y-101062096D01*
X112579048Y-100983733D01*
X112743210Y-100930393D01*
X112913695Y-100903391D01*
X113086305Y-100903391D01*
X113256790Y-100930393D01*
G37*
G36*
X175339199Y-96442272D02*
G01*
X175617167Y-96516754D01*
X175883035Y-96626880D01*
X176132255Y-96770767D01*
X176360561Y-96945952D01*
X176564048Y-97149439D01*
X176739233Y-97377745D01*
X176883120Y-97626965D01*
X176993246Y-97892833D01*
X177067728Y-98170801D01*
X177105290Y-98456113D01*
X177105290Y-98743887D01*
X177067728Y-99029199D01*
X176993246Y-99307167D01*
X176883120Y-99573035D01*
X176739233Y-99822255D01*
X176564048Y-100050561D01*
X176360561Y-100254048D01*
X176132255Y-100429233D01*
X175883035Y-100573120D01*
X175617167Y-100683246D01*
X175339199Y-100757728D01*
X175053887Y-100795290D01*
X174766113Y-100795290D01*
X174480801Y-100757728D01*
X174202833Y-100683246D01*
X173936965Y-100573120D01*
X173687745Y-100429233D01*
X173459439Y-100254048D01*
X173255952Y-100050561D01*
X173080767Y-99822255D01*
X172936880Y-99573035D01*
X172826754Y-99307167D01*
X172752272Y-99029199D01*
X172714710Y-98743887D01*
X172714710Y-98456113D01*
X172752272Y-98170801D01*
X172826754Y-97892833D01*
X172936880Y-97626965D01*
X173080767Y-97377745D01*
X173255952Y-97149439D01*
X173459439Y-96945952D01*
X173687745Y-96770767D01*
X173936965Y-96626880D01*
X174202833Y-96516754D01*
X174480801Y-96442272D01*
X174766113Y-96404710D01*
X175053887Y-96404710D01*
X175339199Y-96442272D01*
G37*
G36*
X144981615Y-97245815D02*
G01*
X145030017Y-97251431D01*
X145046555Y-97258733D01*
X145068387Y-97263076D01*
X145091759Y-97278692D01*
X145111224Y-97287287D01*
X145124517Y-97300580D01*
X145145438Y-97314559D01*
X145159416Y-97335479D01*
X145172709Y-97348772D01*
X145181302Y-97368235D01*
X145196921Y-97391610D01*
X145201264Y-97413443D01*
X145208565Y-97429979D01*
X145214178Y-97478369D01*
X145215000Y-97482497D01*
X145215000Y-98057497D01*
X145214178Y-98061624D01*
X145208565Y-98110014D01*
X145201264Y-98126548D01*
X145196921Y-98148384D01*
X145181301Y-98171760D01*
X145172709Y-98191221D01*
X145159418Y-98204511D01*
X145145438Y-98225435D01*
X145124514Y-98239415D01*
X145111224Y-98252706D01*
X145091763Y-98261298D01*
X145068387Y-98276918D01*
X145046551Y-98281261D01*
X145030017Y-98288562D01*
X144981629Y-98294175D01*
X144977500Y-98294997D01*
X144502500Y-98294997D01*
X144498373Y-98294176D01*
X144449982Y-98288562D01*
X144433446Y-98281261D01*
X144411613Y-98276918D01*
X144388238Y-98261299D01*
X144368775Y-98252706D01*
X144355482Y-98239413D01*
X144334562Y-98225435D01*
X144320583Y-98204514D01*
X144307290Y-98191221D01*
X144298695Y-98171756D01*
X144283079Y-98148384D01*
X144278736Y-98126552D01*
X144271434Y-98110014D01*
X144265818Y-98061613D01*
X144265000Y-98057497D01*
X144265000Y-97482497D01*
X144265818Y-97478382D01*
X144271434Y-97429979D01*
X144278736Y-97413439D01*
X144283079Y-97391610D01*
X144298694Y-97368239D01*
X144307290Y-97348772D01*
X144320585Y-97335476D01*
X144334562Y-97314559D01*
X144355479Y-97300582D01*
X144368775Y-97287287D01*
X144388242Y-97278691D01*
X144411613Y-97263076D01*
X144433442Y-97258733D01*
X144449982Y-97251431D01*
X144498384Y-97245815D01*
X144502500Y-97244997D01*
X144977500Y-97244997D01*
X144981615Y-97245815D01*
G37*
G36*
X152828744Y-96020245D02*
G01*
X152882555Y-96022889D01*
X152889178Y-96024206D01*
X152903316Y-96025133D01*
X152930622Y-96032449D01*
X152999100Y-96046070D01*
X153031423Y-96059459D01*
X153054610Y-96065672D01*
X153075401Y-96077676D01*
X153107722Y-96091064D01*
X153165770Y-96129850D01*
X153190257Y-96143988D01*
X153196959Y-96150690D01*
X153205482Y-96156385D01*
X153288614Y-96239517D01*
X153294308Y-96248039D01*
X153301012Y-96254743D01*
X153315151Y-96279233D01*
X153353935Y-96337277D01*
X153367321Y-96369594D01*
X153379328Y-96390390D01*
X153385541Y-96413580D01*
X153398929Y-96445899D01*
X153412548Y-96514371D01*
X153419867Y-96541684D01*
X153419867Y-96551164D01*
X153421866Y-96561214D01*
X153421866Y-96678785D01*
X153419867Y-96688834D01*
X153419867Y-96698316D01*
X153412547Y-96725631D01*
X153398929Y-96794100D01*
X153385542Y-96826416D01*
X153379328Y-96849610D01*
X153367320Y-96870407D01*
X153353935Y-96902722D01*
X153315155Y-96960759D01*
X153301012Y-96985257D01*
X153294306Y-96991962D01*
X153288614Y-97000482D01*
X153205482Y-97083614D01*
X153196962Y-97089306D01*
X153190257Y-97096012D01*
X153165759Y-97110155D01*
X153107722Y-97148935D01*
X153075407Y-97162320D01*
X153054610Y-97174328D01*
X153031416Y-97180542D01*
X152999100Y-97193929D01*
X152930636Y-97207546D01*
X152903316Y-97214867D01*
X152889170Y-97215794D01*
X152882555Y-97217110D01*
X152828749Y-97219754D01*
X152825000Y-97220000D01*
X152823749Y-97220000D01*
X152276251Y-97220000D01*
X152275000Y-97220000D01*
X152271250Y-97219754D01*
X152217444Y-97217110D01*
X152210827Y-97215794D01*
X152196684Y-97214867D01*
X152169366Y-97207547D01*
X152100899Y-97193929D01*
X152068580Y-97180541D01*
X152045390Y-97174328D01*
X152024594Y-97162321D01*
X151992277Y-97148935D01*
X151934233Y-97110151D01*
X151909743Y-97096012D01*
X151903039Y-97089308D01*
X151894517Y-97083614D01*
X151811385Y-97000482D01*
X151805690Y-96991959D01*
X151798988Y-96985257D01*
X151784850Y-96960770D01*
X151746064Y-96902722D01*
X151732676Y-96870401D01*
X151720672Y-96849610D01*
X151714459Y-96826423D01*
X151701070Y-96794100D01*
X151687450Y-96725625D01*
X151680133Y-96698316D01*
X151680133Y-96688835D01*
X151678134Y-96678785D01*
X151678134Y-96561214D01*
X151680133Y-96551163D01*
X151680133Y-96541684D01*
X151687449Y-96514377D01*
X151701070Y-96445899D01*
X151714459Y-96413573D01*
X151720672Y-96390390D01*
X151732674Y-96369600D01*
X151746064Y-96337277D01*
X151784854Y-96279222D01*
X151798988Y-96254743D01*
X151805688Y-96248042D01*
X151811385Y-96239517D01*
X151894517Y-96156385D01*
X151903042Y-96150688D01*
X151909743Y-96143988D01*
X151934222Y-96129854D01*
X151992277Y-96091064D01*
X152024600Y-96077674D01*
X152045390Y-96065672D01*
X152068573Y-96059459D01*
X152100899Y-96046070D01*
X152169380Y-96032448D01*
X152196684Y-96025133D01*
X152210820Y-96024206D01*
X152217444Y-96022889D01*
X152271256Y-96020245D01*
X152275000Y-96020000D01*
X152825000Y-96020000D01*
X152828744Y-96020245D01*
G37*
G36*
X120676615Y-95958318D02*
G01*
X120725017Y-95963934D01*
X120741555Y-95971236D01*
X120763387Y-95975579D01*
X120786759Y-95991195D01*
X120806224Y-95999790D01*
X120819517Y-96013083D01*
X120840438Y-96027062D01*
X120854416Y-96047982D01*
X120867709Y-96061275D01*
X120876302Y-96080738D01*
X120891921Y-96104113D01*
X120896264Y-96125946D01*
X120903565Y-96142482D01*
X120909178Y-96190872D01*
X120910000Y-96195000D01*
X120910000Y-96770000D01*
X120909178Y-96774127D01*
X120903565Y-96822517D01*
X120896264Y-96839051D01*
X120891921Y-96860887D01*
X120876301Y-96884263D01*
X120867709Y-96903724D01*
X120854418Y-96917014D01*
X120840438Y-96937938D01*
X120819514Y-96951918D01*
X120806224Y-96965209D01*
X120786763Y-96973801D01*
X120763387Y-96989421D01*
X120741551Y-96993764D01*
X120725017Y-97001065D01*
X120676629Y-97006678D01*
X120672500Y-97007500D01*
X120197500Y-97007500D01*
X120193373Y-97006679D01*
X120144982Y-97001065D01*
X120128446Y-96993764D01*
X120106613Y-96989421D01*
X120083238Y-96973802D01*
X120063775Y-96965209D01*
X120050482Y-96951916D01*
X120029562Y-96937938D01*
X120015583Y-96917017D01*
X120002290Y-96903724D01*
X119993695Y-96884259D01*
X119978079Y-96860887D01*
X119973736Y-96839055D01*
X119966434Y-96822517D01*
X119960818Y-96774116D01*
X119960000Y-96770000D01*
X119960000Y-96195000D01*
X119960818Y-96190885D01*
X119966434Y-96142482D01*
X119973736Y-96125942D01*
X119978079Y-96104113D01*
X119993694Y-96080742D01*
X120002290Y-96061275D01*
X120015585Y-96047979D01*
X120029562Y-96027062D01*
X120050479Y-96013085D01*
X120063775Y-95999790D01*
X120083242Y-95991194D01*
X120106613Y-95975579D01*
X120128442Y-95971236D01*
X120144982Y-95963934D01*
X120193384Y-95958318D01*
X120197500Y-95957500D01*
X120672500Y-95957500D01*
X120676615Y-95958318D01*
G37*
G36*
X144981615Y-95495815D02*
G01*
X145030017Y-95501431D01*
X145046555Y-95508733D01*
X145068387Y-95513076D01*
X145091759Y-95528692D01*
X145111224Y-95537287D01*
X145124517Y-95550580D01*
X145145438Y-95564559D01*
X145159416Y-95585479D01*
X145172709Y-95598772D01*
X145181302Y-95618235D01*
X145196921Y-95641610D01*
X145201264Y-95663443D01*
X145208565Y-95679979D01*
X145214178Y-95728369D01*
X145215000Y-95732497D01*
X145215000Y-96307497D01*
X145214178Y-96311624D01*
X145208565Y-96360014D01*
X145201264Y-96376548D01*
X145196921Y-96398384D01*
X145181301Y-96421760D01*
X145172709Y-96441221D01*
X145159418Y-96454511D01*
X145145438Y-96475435D01*
X145124514Y-96489415D01*
X145111224Y-96502706D01*
X145091763Y-96511298D01*
X145068387Y-96526918D01*
X145046551Y-96531261D01*
X145030017Y-96538562D01*
X144981629Y-96544175D01*
X144977500Y-96544997D01*
X144502500Y-96544997D01*
X144498373Y-96544176D01*
X144449982Y-96538562D01*
X144433446Y-96531261D01*
X144411613Y-96526918D01*
X144388238Y-96511299D01*
X144368775Y-96502706D01*
X144355482Y-96489413D01*
X144334562Y-96475435D01*
X144320583Y-96454514D01*
X144307290Y-96441221D01*
X144298695Y-96421756D01*
X144283079Y-96398384D01*
X144278736Y-96376552D01*
X144271434Y-96360014D01*
X144265818Y-96311613D01*
X144265000Y-96307497D01*
X144265000Y-95732497D01*
X144265818Y-95728382D01*
X144271434Y-95679979D01*
X144278736Y-95663439D01*
X144283079Y-95641610D01*
X144298694Y-95618239D01*
X144307290Y-95598772D01*
X144320585Y-95585476D01*
X144334562Y-95564559D01*
X144355479Y-95550582D01*
X144368775Y-95537287D01*
X144388242Y-95528691D01*
X144411613Y-95513076D01*
X144433442Y-95508733D01*
X144449982Y-95501431D01*
X144498384Y-95495815D01*
X144502500Y-95494997D01*
X144977500Y-95494997D01*
X144981615Y-95495815D01*
G37*
G36*
X120676615Y-94208318D02*
G01*
X120725017Y-94213934D01*
X120741555Y-94221236D01*
X120763387Y-94225579D01*
X120786759Y-94241195D01*
X120806224Y-94249790D01*
X120819517Y-94263083D01*
X120840438Y-94277062D01*
X120854416Y-94297982D01*
X120867709Y-94311275D01*
X120876302Y-94330738D01*
X120891921Y-94354113D01*
X120896264Y-94375946D01*
X120903565Y-94392482D01*
X120909178Y-94440872D01*
X120910000Y-94445000D01*
X120910000Y-95020000D01*
X120909178Y-95024127D01*
X120903565Y-95072517D01*
X120896264Y-95089051D01*
X120891921Y-95110887D01*
X120876301Y-95134263D01*
X120867709Y-95153724D01*
X120854418Y-95167014D01*
X120840438Y-95187938D01*
X120819514Y-95201918D01*
X120806224Y-95215209D01*
X120786763Y-95223801D01*
X120763387Y-95239421D01*
X120741551Y-95243764D01*
X120725017Y-95251065D01*
X120676629Y-95256678D01*
X120672500Y-95257500D01*
X120197500Y-95257500D01*
X120193373Y-95256679D01*
X120144982Y-95251065D01*
X120128446Y-95243764D01*
X120106613Y-95239421D01*
X120083238Y-95223802D01*
X120063775Y-95215209D01*
X120050482Y-95201916D01*
X120029562Y-95187938D01*
X120015583Y-95167017D01*
X120002290Y-95153724D01*
X119993695Y-95134259D01*
X119978079Y-95110887D01*
X119973736Y-95089055D01*
X119966434Y-95072517D01*
X119960818Y-95024116D01*
X119960000Y-95020000D01*
X119960000Y-94445000D01*
X119960818Y-94440885D01*
X119966434Y-94392482D01*
X119973736Y-94375942D01*
X119978079Y-94354113D01*
X119993694Y-94330742D01*
X120002290Y-94311275D01*
X120015585Y-94297979D01*
X120029562Y-94277062D01*
X120050479Y-94263085D01*
X120063775Y-94249790D01*
X120083242Y-94241194D01*
X120106613Y-94225579D01*
X120128442Y-94221236D01*
X120144982Y-94213934D01*
X120193384Y-94208318D01*
X120197500Y-94207500D01*
X120672500Y-94207500D01*
X120676615Y-94208318D01*
G37*
G36*
X153179116Y-94020818D02*
G01*
X153230379Y-94026766D01*
X153247892Y-94034499D01*
X153270671Y-94039030D01*
X153295057Y-94055324D01*
X153315788Y-94064478D01*
X153329946Y-94078636D01*
X153351777Y-94093223D01*
X153366363Y-94115053D01*
X153380521Y-94129211D01*
X153389673Y-94149939D01*
X153405970Y-94174329D01*
X153410501Y-94197109D01*
X153418233Y-94214620D01*
X153424178Y-94265872D01*
X153425000Y-94270000D01*
X153425000Y-94970000D01*
X153424178Y-94974128D01*
X153418233Y-95025379D01*
X153410501Y-95042888D01*
X153405970Y-95065671D01*
X153389672Y-95090062D01*
X153380521Y-95110788D01*
X153366365Y-95124943D01*
X153351777Y-95146777D01*
X153329943Y-95161365D01*
X153315788Y-95175521D01*
X153295062Y-95184672D01*
X153270671Y-95200970D01*
X153247888Y-95205501D01*
X153230379Y-95213233D01*
X153179129Y-95219178D01*
X153175000Y-95220000D01*
X151925000Y-95220000D01*
X151920873Y-95219179D01*
X151869620Y-95213233D01*
X151852109Y-95205501D01*
X151829329Y-95200970D01*
X151804939Y-95184673D01*
X151784211Y-95175521D01*
X151770053Y-95161363D01*
X151748223Y-95146777D01*
X151733636Y-95124946D01*
X151719478Y-95110788D01*
X151710324Y-95090057D01*
X151694030Y-95065671D01*
X151689499Y-95042892D01*
X151681766Y-95025379D01*
X151675818Y-94974117D01*
X151675000Y-94970000D01*
X151675000Y-94270000D01*
X151675818Y-94265885D01*
X151681766Y-94214620D01*
X151689499Y-94197105D01*
X151694030Y-94174329D01*
X151710323Y-94149944D01*
X151719478Y-94129211D01*
X151733638Y-94115050D01*
X151748223Y-94093223D01*
X151770050Y-94078638D01*
X151784211Y-94064478D01*
X151804944Y-94055323D01*
X151829329Y-94039030D01*
X151852105Y-94034499D01*
X151869620Y-94026766D01*
X151920884Y-94020818D01*
X151925000Y-94020000D01*
X153175000Y-94020000D01*
X153179116Y-94020818D01*
G37*
G36*
X145011615Y-93888318D02*
G01*
X145060017Y-93893934D01*
X145076555Y-93901236D01*
X145098387Y-93905579D01*
X145121759Y-93921195D01*
X145141224Y-93929790D01*
X145154517Y-93943083D01*
X145175438Y-93957062D01*
X145189416Y-93977982D01*
X145202709Y-93991275D01*
X145211302Y-94010738D01*
X145226921Y-94034113D01*
X145231264Y-94055946D01*
X145238565Y-94072482D01*
X145244178Y-94120872D01*
X145245000Y-94125000D01*
X145245000Y-94625000D01*
X145244178Y-94629127D01*
X145238565Y-94677517D01*
X145231264Y-94694051D01*
X145226921Y-94715887D01*
X145211301Y-94739263D01*
X145202709Y-94758724D01*
X145189418Y-94772014D01*
X145175438Y-94792938D01*
X145154514Y-94806918D01*
X145141224Y-94820209D01*
X145121763Y-94828801D01*
X145098387Y-94844421D01*
X145076551Y-94848764D01*
X145060017Y-94856065D01*
X145011629Y-94861678D01*
X145007500Y-94862500D01*
X144532500Y-94862500D01*
X144528373Y-94861679D01*
X144479982Y-94856065D01*
X144463446Y-94848764D01*
X144441613Y-94844421D01*
X144418238Y-94828802D01*
X144398775Y-94820209D01*
X144385482Y-94806916D01*
X144364562Y-94792938D01*
X144350583Y-94772017D01*
X144337290Y-94758724D01*
X144328695Y-94739259D01*
X144313079Y-94715887D01*
X144308736Y-94694055D01*
X144301434Y-94677517D01*
X144295818Y-94629116D01*
X144295000Y-94625000D01*
X144295000Y-94125000D01*
X144295818Y-94120885D01*
X144301434Y-94072482D01*
X144308736Y-94055942D01*
X144313079Y-94034113D01*
X144328694Y-94010742D01*
X144337290Y-93991275D01*
X144350585Y-93977979D01*
X144364562Y-93957062D01*
X144385479Y-93943085D01*
X144398775Y-93929790D01*
X144418242Y-93921194D01*
X144441613Y-93905579D01*
X144463442Y-93901236D01*
X144479982Y-93893934D01*
X144528384Y-93888318D01*
X144532500Y-93887500D01*
X145007500Y-93887500D01*
X145011615Y-93888318D01*
G37*
G36*
X175339199Y-90492272D02*
G01*
X175617167Y-90566754D01*
X175883035Y-90676880D01*
X176132255Y-90820767D01*
X176360561Y-90995952D01*
X176564048Y-91199439D01*
X176739233Y-91427745D01*
X176883120Y-91676965D01*
X176993246Y-91942833D01*
X177067728Y-92220801D01*
X177105290Y-92506113D01*
X177105290Y-92793887D01*
X177067728Y-93079199D01*
X176993246Y-93357167D01*
X176883120Y-93623035D01*
X176739233Y-93872255D01*
X176564048Y-94100561D01*
X176360561Y-94304048D01*
X176132255Y-94479233D01*
X175883035Y-94623120D01*
X175617167Y-94733246D01*
X175339199Y-94807728D01*
X175053887Y-94845290D01*
X174766113Y-94845290D01*
X174480801Y-94807728D01*
X174202833Y-94733246D01*
X173936965Y-94623120D01*
X173687745Y-94479233D01*
X173459439Y-94304048D01*
X173255952Y-94100561D01*
X173080767Y-93872255D01*
X172936880Y-93623035D01*
X172826754Y-93357167D01*
X172752272Y-93079199D01*
X172714710Y-92793887D01*
X172714710Y-92506113D01*
X172752272Y-92220801D01*
X172826754Y-91942833D01*
X172936880Y-91676965D01*
X173080767Y-91427745D01*
X173255952Y-91199439D01*
X173459439Y-90995952D01*
X173687745Y-90820767D01*
X173936965Y-90676880D01*
X174202833Y-90566754D01*
X174480801Y-90492272D01*
X174766113Y-90454710D01*
X175053887Y-90454710D01*
X175339199Y-90492272D01*
G37*
G36*
X120701615Y-92620818D02*
G01*
X120750017Y-92626434D01*
X120766555Y-92633736D01*
X120788387Y-92638079D01*
X120811759Y-92653695D01*
X120831224Y-92662290D01*
X120844517Y-92675583D01*
X120865438Y-92689562D01*
X120879416Y-92710482D01*
X120892709Y-92723775D01*
X120901302Y-92743238D01*
X120916921Y-92766613D01*
X120921264Y-92788446D01*
X120928565Y-92804982D01*
X120934178Y-92853372D01*
X120935000Y-92857500D01*
X120935000Y-93357500D01*
X120934178Y-93361627D01*
X120928565Y-93410017D01*
X120921264Y-93426551D01*
X120916921Y-93448387D01*
X120901301Y-93471763D01*
X120892709Y-93491224D01*
X120879418Y-93504514D01*
X120865438Y-93525438D01*
X120844514Y-93539418D01*
X120831224Y-93552709D01*
X120811763Y-93561301D01*
X120788387Y-93576921D01*
X120766551Y-93581264D01*
X120750017Y-93588565D01*
X120701629Y-93594178D01*
X120697500Y-93595000D01*
X120222500Y-93595000D01*
X120218373Y-93594179D01*
X120169982Y-93588565D01*
X120153446Y-93581264D01*
X120131613Y-93576921D01*
X120108238Y-93561302D01*
X120088775Y-93552709D01*
X120075482Y-93539416D01*
X120054562Y-93525438D01*
X120040583Y-93504517D01*
X120027290Y-93491224D01*
X120018695Y-93471759D01*
X120003079Y-93448387D01*
X119998736Y-93426555D01*
X119991434Y-93410017D01*
X119985818Y-93361616D01*
X119985000Y-93357500D01*
X119985000Y-92857500D01*
X119985818Y-92853385D01*
X119991434Y-92804982D01*
X119998736Y-92788442D01*
X120003079Y-92766613D01*
X120018694Y-92743242D01*
X120027290Y-92723775D01*
X120040585Y-92710479D01*
X120054562Y-92689562D01*
X120075479Y-92675585D01*
X120088775Y-92662290D01*
X120108242Y-92653694D01*
X120131613Y-92638079D01*
X120153442Y-92633736D01*
X120169982Y-92626434D01*
X120218384Y-92620818D01*
X120222500Y-92620000D01*
X120697500Y-92620000D01*
X120701615Y-92620818D01*
G37*
G36*
X145011615Y-92063318D02*
G01*
X145060017Y-92068934D01*
X145076555Y-92076236D01*
X145098387Y-92080579D01*
X145121759Y-92096195D01*
X145141224Y-92104790D01*
X145154517Y-92118083D01*
X145175438Y-92132062D01*
X145189416Y-92152982D01*
X145202709Y-92166275D01*
X145211302Y-92185738D01*
X145226921Y-92209113D01*
X145231264Y-92230946D01*
X145238565Y-92247482D01*
X145244178Y-92295872D01*
X145245000Y-92300000D01*
X145245000Y-92800000D01*
X145244178Y-92804127D01*
X145238565Y-92852517D01*
X145231264Y-92869051D01*
X145226921Y-92890887D01*
X145211301Y-92914263D01*
X145202709Y-92933724D01*
X145189418Y-92947014D01*
X145175438Y-92967938D01*
X145154514Y-92981918D01*
X145141224Y-92995209D01*
X145121763Y-93003801D01*
X145098387Y-93019421D01*
X145076551Y-93023764D01*
X145060017Y-93031065D01*
X145011629Y-93036678D01*
X145007500Y-93037500D01*
X144532500Y-93037500D01*
X144528373Y-93036679D01*
X144479982Y-93031065D01*
X144463446Y-93023764D01*
X144441613Y-93019421D01*
X144418238Y-93003802D01*
X144398775Y-92995209D01*
X144385482Y-92981916D01*
X144364562Y-92967938D01*
X144350583Y-92947017D01*
X144337290Y-92933724D01*
X144328695Y-92914259D01*
X144313079Y-92890887D01*
X144308736Y-92869055D01*
X144301434Y-92852517D01*
X144295818Y-92804116D01*
X144295000Y-92800000D01*
X144295000Y-92300000D01*
X144295818Y-92295885D01*
X144301434Y-92247482D01*
X144308736Y-92230942D01*
X144313079Y-92209113D01*
X144328694Y-92185742D01*
X144337290Y-92166275D01*
X144350585Y-92152979D01*
X144364562Y-92132062D01*
X144385479Y-92118085D01*
X144398775Y-92104790D01*
X144418242Y-92096194D01*
X144441613Y-92080579D01*
X144463442Y-92076236D01*
X144479982Y-92068934D01*
X144528384Y-92063318D01*
X144532500Y-92062500D01*
X145007500Y-92062500D01*
X145011615Y-92063318D01*
G37*
G36*
X120701615Y-90795818D02*
G01*
X120750017Y-90801434D01*
X120766555Y-90808736D01*
X120788387Y-90813079D01*
X120811759Y-90828695D01*
X120831224Y-90837290D01*
X120844517Y-90850583D01*
X120865438Y-90864562D01*
X120879416Y-90885482D01*
X120892709Y-90898775D01*
X120901302Y-90918238D01*
X120916921Y-90941613D01*
X120921264Y-90963446D01*
X120928565Y-90979982D01*
X120934178Y-91028372D01*
X120935000Y-91032500D01*
X120935000Y-91532500D01*
X120934178Y-91536627D01*
X120928565Y-91585017D01*
X120921264Y-91601551D01*
X120916921Y-91623387D01*
X120901301Y-91646763D01*
X120892709Y-91666224D01*
X120879418Y-91679514D01*
X120865438Y-91700438D01*
X120844514Y-91714418D01*
X120831224Y-91727709D01*
X120811763Y-91736301D01*
X120788387Y-91751921D01*
X120766551Y-91756264D01*
X120750017Y-91763565D01*
X120701629Y-91769178D01*
X120697500Y-91770000D01*
X120222500Y-91770000D01*
X120218373Y-91769179D01*
X120169982Y-91763565D01*
X120153446Y-91756264D01*
X120131613Y-91751921D01*
X120108238Y-91736302D01*
X120088775Y-91727709D01*
X120075482Y-91714416D01*
X120054562Y-91700438D01*
X120040583Y-91679517D01*
X120027290Y-91666224D01*
X120018695Y-91646759D01*
X120003079Y-91623387D01*
X119998736Y-91601555D01*
X119991434Y-91585017D01*
X119985818Y-91536616D01*
X119985000Y-91532500D01*
X119985000Y-91032500D01*
X119985818Y-91028385D01*
X119991434Y-90979982D01*
X119998736Y-90963442D01*
X120003079Y-90941613D01*
X120018694Y-90918242D01*
X120027290Y-90898775D01*
X120040585Y-90885479D01*
X120054562Y-90864562D01*
X120075479Y-90850585D01*
X120088775Y-90837290D01*
X120108242Y-90828694D01*
X120131613Y-90813079D01*
X120153442Y-90808736D01*
X120169982Y-90801434D01*
X120218384Y-90795818D01*
X120222500Y-90795000D01*
X120697500Y-90795000D01*
X120701615Y-90795818D01*
G37*
G36*
X154756790Y-87930393D02*
G01*
X154920952Y-87983733D01*
X155074748Y-88062096D01*
X155214393Y-88163553D01*
X155336447Y-88285607D01*
X155437904Y-88425252D01*
X155516267Y-88579048D01*
X155569607Y-88743210D01*
X155596609Y-88913695D01*
X155596609Y-89086305D01*
X155569607Y-89256790D01*
X155516267Y-89420952D01*
X155437904Y-89574748D01*
X155336447Y-89714393D01*
X155214393Y-89836447D01*
X155074748Y-89937904D01*
X154920952Y-90016267D01*
X154756790Y-90069607D01*
X154586305Y-90096609D01*
X154413695Y-90096609D01*
X154243210Y-90069607D01*
X154079048Y-90016267D01*
X153925252Y-89937904D01*
X153785607Y-89836447D01*
X153663553Y-89714393D01*
X153562096Y-89574748D01*
X153483733Y-89420952D01*
X153430393Y-89256790D01*
X153403391Y-89086305D01*
X153403391Y-88913695D01*
X153430393Y-88743210D01*
X153483733Y-88579048D01*
X153562096Y-88425252D01*
X153663553Y-88285607D01*
X153785607Y-88163553D01*
X153925252Y-88062096D01*
X154079048Y-87983733D01*
X154243210Y-87930393D01*
X154413695Y-87903391D01*
X154586305Y-87903391D01*
X154756790Y-87930393D01*
G37*
G36*
X175279199Y-84842272D02*
G01*
X175557167Y-84916754D01*
X175823035Y-85026880D01*
X176072255Y-85170767D01*
X176300561Y-85345952D01*
X176504048Y-85549439D01*
X176679233Y-85777745D01*
X176823120Y-86026965D01*
X176933246Y-86292833D01*
X177007728Y-86570801D01*
X177045290Y-86856113D01*
X177045290Y-87143887D01*
X177007728Y-87429199D01*
X176933246Y-87707167D01*
X176823120Y-87973035D01*
X176679233Y-88222255D01*
X176504048Y-88450561D01*
X176300561Y-88654048D01*
X176072255Y-88829233D01*
X175823035Y-88973120D01*
X175557167Y-89083246D01*
X175279199Y-89157728D01*
X174993887Y-89195290D01*
X174706113Y-89195290D01*
X174420801Y-89157728D01*
X174142833Y-89083246D01*
X173876965Y-88973120D01*
X173627745Y-88829233D01*
X173399439Y-88654048D01*
X173195952Y-88450561D01*
X173020767Y-88222255D01*
X172876880Y-87973035D01*
X172766754Y-87707167D01*
X172692272Y-87429199D01*
X172654710Y-87143887D01*
X172654710Y-86856113D01*
X172692272Y-86570801D01*
X172766754Y-86292833D01*
X172876880Y-86026965D01*
X173020767Y-85777745D01*
X173195952Y-85549439D01*
X173399439Y-85345952D01*
X173627745Y-85170767D01*
X173876965Y-85026880D01*
X174142833Y-84916754D01*
X174420801Y-84842272D01*
X174706113Y-84804710D01*
X174993887Y-84804710D01*
X175279199Y-84842272D01*
G37*
G36*
X153611225Y-84038168D02*
G01*
X153738004Y-84090681D01*
X153852101Y-84166919D01*
X153949133Y-84263951D01*
X154025371Y-84378048D01*
X154077884Y-84504827D01*
X154104655Y-84639414D01*
X154104655Y-84776638D01*
X154077884Y-84911225D01*
X154025371Y-85038004D01*
X153949133Y-85152101D01*
X153852101Y-85249133D01*
X153738004Y-85325371D01*
X153611225Y-85377884D01*
X153476638Y-85404655D01*
X153339414Y-85404655D01*
X153204827Y-85377884D01*
X153078048Y-85325371D01*
X152963951Y-85249133D01*
X152866919Y-85152101D01*
X152790681Y-85038004D01*
X152738168Y-84911225D01*
X152711397Y-84776638D01*
X152711397Y-84639414D01*
X152738168Y-84504827D01*
X152790681Y-84378048D01*
X152866919Y-84263951D01*
X152963951Y-84166919D01*
X153078048Y-84090681D01*
X153204827Y-84038168D01*
X153339414Y-84011397D01*
X153476638Y-84011397D01*
X153611225Y-84038168D01*
G37*
G36*
X114367148Y-83646193D02*
G01*
X114493927Y-83698706D01*
X114608024Y-83774944D01*
X114705056Y-83871976D01*
X114781294Y-83986073D01*
X114833807Y-84112852D01*
X114860578Y-84247439D01*
X114860578Y-84384663D01*
X114833807Y-84519250D01*
X114781294Y-84646029D01*
X114705056Y-84760126D01*
X114608024Y-84857158D01*
X114493927Y-84933396D01*
X114367148Y-84985909D01*
X114232561Y-85012680D01*
X114095337Y-85012680D01*
X113960750Y-84985909D01*
X113833971Y-84933396D01*
X113719874Y-84857158D01*
X113622842Y-84760126D01*
X113546604Y-84646029D01*
X113494091Y-84519250D01*
X113467320Y-84384663D01*
X113467320Y-84247439D01*
X113494091Y-84112852D01*
X113546604Y-83986073D01*
X113622842Y-83871976D01*
X113719874Y-83774944D01*
X113833971Y-83698706D01*
X113960750Y-83646193D01*
X114095337Y-83619422D01*
X114232561Y-83619422D01*
X114367148Y-83646193D01*
G37*
G36*
X151815174Y-82242117D02*
G01*
X151941953Y-82294630D01*
X152056050Y-82370868D01*
X152153082Y-82467900D01*
X152229320Y-82581997D01*
X152281833Y-82708776D01*
X152308604Y-82843363D01*
X152308604Y-82980587D01*
X152281833Y-83115174D01*
X152229320Y-83241953D01*
X152153082Y-83356050D01*
X152056050Y-83453082D01*
X151941953Y-83529320D01*
X151815174Y-83581833D01*
X151680587Y-83608604D01*
X151543363Y-83608604D01*
X151408776Y-83581833D01*
X151281997Y-83529320D01*
X151167900Y-83453082D01*
X151070868Y-83356050D01*
X150994630Y-83241953D01*
X150942117Y-83115174D01*
X150915346Y-82980587D01*
X150915346Y-82843363D01*
X150942117Y-82708776D01*
X150994630Y-82581997D01*
X151070868Y-82467900D01*
X151167900Y-82370868D01*
X151281997Y-82294630D01*
X151408776Y-82242117D01*
X151543363Y-82215346D01*
X151680587Y-82215346D01*
X151815174Y-82242117D01*
G37*
G36*
X116163199Y-81850142D02*
G01*
X116289978Y-81902655D01*
X116404075Y-81978893D01*
X116501107Y-82075925D01*
X116577345Y-82190022D01*
X116629858Y-82316801D01*
X116656629Y-82451388D01*
X116656629Y-82588612D01*
X116629858Y-82723199D01*
X116577345Y-82849978D01*
X116501107Y-82964075D01*
X116404075Y-83061107D01*
X116289978Y-83137345D01*
X116163199Y-83189858D01*
X116028612Y-83216629D01*
X115891388Y-83216629D01*
X115756801Y-83189858D01*
X115630022Y-83137345D01*
X115515925Y-83061107D01*
X115418893Y-82964075D01*
X115342655Y-82849978D01*
X115290142Y-82723199D01*
X115263371Y-82588612D01*
X115263371Y-82451388D01*
X115290142Y-82316801D01*
X115342655Y-82190022D01*
X115418893Y-82075925D01*
X115515925Y-81978893D01*
X115630022Y-81902655D01*
X115756801Y-81850142D01*
X115891388Y-81823371D01*
X116028612Y-81823371D01*
X116163199Y-81850142D01*
G37*
G36*
X142565000Y-82655001D02*
G01*
X141715000Y-82655001D01*
X141715000Y-81805001D01*
X142565000Y-81805001D01*
X142565000Y-82655001D01*
G37*
G36*
X142302640Y-80837352D02*
G01*
X142398724Y-80892826D01*
X142477175Y-80971277D01*
X142532649Y-81067361D01*
X142561364Y-81174527D01*
X142561364Y-81285475D01*
X142532649Y-81392641D01*
X142477175Y-81488725D01*
X142398724Y-81567176D01*
X142302640Y-81622650D01*
X142195474Y-81651365D01*
X142084526Y-81651365D01*
X141977360Y-81622650D01*
X141881276Y-81567176D01*
X141802825Y-81488725D01*
X141747351Y-81392641D01*
X141718636Y-81285475D01*
X141718636Y-81174527D01*
X141747351Y-81067361D01*
X141802825Y-80971277D01*
X141881276Y-80892826D01*
X141977360Y-80837352D01*
X142084526Y-80808637D01*
X142195474Y-80808637D01*
X142302640Y-80837352D01*
G37*
G36*
X142302640Y-79837351D02*
G01*
X142398724Y-79892825D01*
X142477175Y-79971276D01*
X142532649Y-80067360D01*
X142561364Y-80174526D01*
X142561364Y-80285474D01*
X142532649Y-80392640D01*
X142477175Y-80488724D01*
X142398724Y-80567175D01*
X142302640Y-80622649D01*
X142195474Y-80651364D01*
X142084526Y-80651364D01*
X141977360Y-80622649D01*
X141881276Y-80567175D01*
X141802825Y-80488724D01*
X141747351Y-80392640D01*
X141718636Y-80285474D01*
X141718636Y-80174526D01*
X141747351Y-80067360D01*
X141802825Y-79971276D01*
X141881276Y-79892825D01*
X141977360Y-79837351D01*
X142084526Y-79808636D01*
X142195474Y-79808636D01*
X142302640Y-79837351D01*
G37*
G36*
X142302640Y-78837352D02*
G01*
X142398724Y-78892826D01*
X142477175Y-78971277D01*
X142532649Y-79067361D01*
X142561364Y-79174527D01*
X142561364Y-79285475D01*
X142532649Y-79392641D01*
X142477175Y-79488725D01*
X142398724Y-79567176D01*
X142302640Y-79622650D01*
X142195474Y-79651365D01*
X142084526Y-79651365D01*
X141977360Y-79622650D01*
X141881276Y-79567176D01*
X141802825Y-79488725D01*
X141747351Y-79392641D01*
X141718636Y-79285475D01*
X141718636Y-79174527D01*
X141747351Y-79067361D01*
X141802825Y-78971277D01*
X141881276Y-78892826D01*
X141977360Y-78837352D01*
X142084526Y-78808637D01*
X142195474Y-78808637D01*
X142302640Y-78837352D01*
G37*
G36*
X147172208Y-77624254D02*
G01*
X147273943Y-77682991D01*
X147357009Y-77766057D01*
X147415746Y-77867792D01*
X147446150Y-77981263D01*
X147446150Y-78098737D01*
X147415746Y-78212208D01*
X147357009Y-78313943D01*
X147273943Y-78397009D01*
X147172208Y-78455746D01*
X147058737Y-78486150D01*
X146941263Y-78486150D01*
X146827792Y-78455746D01*
X146726057Y-78397009D01*
X146642991Y-78313943D01*
X146584254Y-78212208D01*
X146553850Y-78098737D01*
X146553850Y-77981263D01*
X146584254Y-77867792D01*
X146642991Y-77766057D01*
X146726057Y-77682991D01*
X146827792Y-77624254D01*
X146941263Y-77593850D01*
X147058737Y-77593850D01*
X147172208Y-77624254D01*
G37*
G36*
X150172208Y-77624254D02*
G01*
X150273943Y-77682991D01*
X150357009Y-77766057D01*
X150415746Y-77867792D01*
X150446150Y-77981263D01*
X150446150Y-78098737D01*
X150415746Y-78212208D01*
X150357009Y-78313943D01*
X150273943Y-78397009D01*
X150172208Y-78455746D01*
X150058737Y-78486150D01*
X149941263Y-78486150D01*
X149827792Y-78455746D01*
X149726057Y-78397009D01*
X149642991Y-78313943D01*
X149584254Y-78212208D01*
X149553850Y-78098737D01*
X149553850Y-77981263D01*
X149584254Y-77867792D01*
X149642991Y-77766057D01*
X149726057Y-77682991D01*
X149827792Y-77624254D01*
X149941263Y-77593850D01*
X150058737Y-77593850D01*
X150172208Y-77624254D01*
G37*
M02*
