%TF.GenerationSoftware,KiCad,Pcbnew,10.0.0*%
%TF.CreationDate,2026-04-21T22:51:41+03:00*%
%TF.ProjectId,Dobule shawarma PCB,446f6275-6c65-4207-9368-617761726d61,rev?*%
%TF.SameCoordinates,Original*%
%TF.FileFunction,Legend,Top*%
%TF.FilePolarity,Positive*%
%FSLAX46Y46*%
G04 Gerber Fmt 4.6, Leading zero omitted, Abs format (unit mm)*
G04 Created by KiCad (PCBNEW 10.0.0) date 2026-04-21 22:51:41*
%MOMM*%
%LPD*%
G01*
G04 APERTURE LIST*
%ADD10C,0.150000*%
%ADD11C,0.120000*%
%ADD12C,0.152400*%
%ADD13C,0.127000*%
%ADD14C,0.200000*%
G04 APERTURE END LIST*
D10*
X140670000Y-103333866D02*
X141431905Y-103333866D01*
X141908095Y-103048152D02*
X142670000Y-103333866D01*
X142670000Y-103333866D02*
X141908095Y-103619580D01*
X122495125Y-92149338D02*
X123033873Y-91610590D01*
X123168559Y-91071842D02*
X123909338Y-90735124D01*
X123909338Y-90735124D02*
X123572620Y-91475903D01*
X124593866Y-85159999D02*
X124593866Y-84398095D01*
X124308152Y-83921904D02*
X124593866Y-83160000D01*
X124593866Y-83160000D02*
X124879580Y-83921904D01*
X144313333Y-85014819D02*
X143980000Y-84538628D01*
X143741905Y-85014819D02*
X143741905Y-84014819D01*
X143741905Y-84014819D02*
X144122857Y-84014819D01*
X144122857Y-84014819D02*
X144218095Y-84062438D01*
X144218095Y-84062438D02*
X144265714Y-84110057D01*
X144265714Y-84110057D02*
X144313333Y-84205295D01*
X144313333Y-84205295D02*
X144313333Y-84348152D01*
X144313333Y-84348152D02*
X144265714Y-84443390D01*
X144265714Y-84443390D02*
X144218095Y-84491009D01*
X144218095Y-84491009D02*
X144122857Y-84538628D01*
X144122857Y-84538628D02*
X143741905Y-84538628D01*
X145265714Y-85014819D02*
X144694286Y-85014819D01*
X144980000Y-85014819D02*
X144980000Y-84014819D01*
X144980000Y-84014819D02*
X144884762Y-84157676D01*
X144884762Y-84157676D02*
X144789524Y-84252914D01*
X144789524Y-84252914D02*
X144694286Y-84300533D01*
X149708937Y-88535873D02*
X149809952Y-87963454D01*
X149304876Y-88131812D02*
X150011983Y-87424706D01*
X150011983Y-87424706D02*
X150281357Y-87694080D01*
X150281357Y-87694080D02*
X150315029Y-87795095D01*
X150315029Y-87795095D02*
X150315029Y-87862438D01*
X150315029Y-87862438D02*
X150281357Y-87963454D01*
X150281357Y-87963454D02*
X150180342Y-88064469D01*
X150180342Y-88064469D02*
X150079326Y-88098141D01*
X150079326Y-88098141D02*
X150011983Y-88098141D01*
X150011983Y-88098141D02*
X149910968Y-88064469D01*
X149910968Y-88064469D02*
X149641594Y-87795095D01*
X150618074Y-88165484D02*
X150685418Y-88165484D01*
X150685418Y-88165484D02*
X150786433Y-88199156D01*
X150786433Y-88199156D02*
X150954792Y-88367515D01*
X150954792Y-88367515D02*
X150988464Y-88468530D01*
X150988464Y-88468530D02*
X150988464Y-88535873D01*
X150988464Y-88535873D02*
X150954792Y-88636889D01*
X150954792Y-88636889D02*
X150887448Y-88704232D01*
X150887448Y-88704232D02*
X150752761Y-88771576D01*
X150752761Y-88771576D02*
X149944639Y-88771576D01*
X149944639Y-88771576D02*
X150382372Y-89209308D01*
X151325181Y-88737904D02*
X151762914Y-89175637D01*
X151762914Y-89175637D02*
X151257838Y-89209309D01*
X151257838Y-89209309D02*
X151358853Y-89310324D01*
X151358853Y-89310324D02*
X151392525Y-89411339D01*
X151392525Y-89411339D02*
X151392525Y-89478683D01*
X151392525Y-89478683D02*
X151358853Y-89579698D01*
X151358853Y-89579698D02*
X151190494Y-89748057D01*
X151190494Y-89748057D02*
X151089479Y-89781728D01*
X151089479Y-89781728D02*
X151022136Y-89781728D01*
X151022136Y-89781728D02*
X150921120Y-89748057D01*
X150921120Y-89748057D02*
X150719090Y-89546026D01*
X150719090Y-89546026D02*
X150685418Y-89445011D01*
X150685418Y-89445011D02*
X150685418Y-89377667D01*
X132123333Y-88694819D02*
X131790000Y-88218628D01*
X131551905Y-88694819D02*
X131551905Y-87694819D01*
X131551905Y-87694819D02*
X131932857Y-87694819D01*
X131932857Y-87694819D02*
X132028095Y-87742438D01*
X132028095Y-87742438D02*
X132075714Y-87790057D01*
X132075714Y-87790057D02*
X132123333Y-87885295D01*
X132123333Y-87885295D02*
X132123333Y-88028152D01*
X132123333Y-88028152D02*
X132075714Y-88123390D01*
X132075714Y-88123390D02*
X132028095Y-88171009D01*
X132028095Y-88171009D02*
X131932857Y-88218628D01*
X131932857Y-88218628D02*
X131551905Y-88218628D01*
X132456667Y-87694819D02*
X133123333Y-87694819D01*
X133123333Y-87694819D02*
X132694762Y-88694819D01*
X120079137Y-86092668D02*
X119506718Y-85991653D01*
X119675076Y-86496729D02*
X118967970Y-85789622D01*
X118967970Y-85789622D02*
X119237344Y-85520248D01*
X119237344Y-85520248D02*
X119338359Y-85486576D01*
X119338359Y-85486576D02*
X119405702Y-85486576D01*
X119405702Y-85486576D02*
X119506718Y-85520248D01*
X119506718Y-85520248D02*
X119607733Y-85621263D01*
X119607733Y-85621263D02*
X119641405Y-85722279D01*
X119641405Y-85722279D02*
X119641405Y-85789622D01*
X119641405Y-85789622D02*
X119607733Y-85890637D01*
X119607733Y-85890637D02*
X119338359Y-86160011D01*
X119708748Y-85183531D02*
X119708748Y-85116187D01*
X119708748Y-85116187D02*
X119742420Y-85015172D01*
X119742420Y-85015172D02*
X119910779Y-84846813D01*
X119910779Y-84846813D02*
X120011794Y-84813141D01*
X120011794Y-84813141D02*
X120079137Y-84813141D01*
X120079137Y-84813141D02*
X120180153Y-84846813D01*
X120180153Y-84846813D02*
X120247496Y-84914157D01*
X120247496Y-84914157D02*
X120314840Y-85048844D01*
X120314840Y-85048844D02*
X120314840Y-85856966D01*
X120314840Y-85856966D02*
X120752572Y-85419233D01*
X120651557Y-84106034D02*
X120516870Y-84240721D01*
X120516870Y-84240721D02*
X120483199Y-84341737D01*
X120483199Y-84341737D02*
X120483199Y-84409080D01*
X120483199Y-84409080D02*
X120516870Y-84577439D01*
X120516870Y-84577439D02*
X120617886Y-84745798D01*
X120617886Y-84745798D02*
X120887260Y-85015172D01*
X120887260Y-85015172D02*
X120988275Y-85048843D01*
X120988275Y-85048843D02*
X121055618Y-85048843D01*
X121055618Y-85048843D02*
X121156634Y-85015172D01*
X121156634Y-85015172D02*
X121291321Y-84880485D01*
X121291321Y-84880485D02*
X121324992Y-84779469D01*
X121324992Y-84779469D02*
X121324992Y-84712126D01*
X121324992Y-84712126D02*
X121291321Y-84611111D01*
X121291321Y-84611111D02*
X121122962Y-84442752D01*
X121122962Y-84442752D02*
X121021947Y-84409080D01*
X121021947Y-84409080D02*
X120954603Y-84409080D01*
X120954603Y-84409080D02*
X120853588Y-84442752D01*
X120853588Y-84442752D02*
X120718901Y-84577439D01*
X120718901Y-84577439D02*
X120685229Y-84678454D01*
X120685229Y-84678454D02*
X120685229Y-84745798D01*
X120685229Y-84745798D02*
X120718901Y-84846813D01*
X118837718Y-99343014D02*
X118742480Y-99295395D01*
X118742480Y-99295395D02*
X118647242Y-99200157D01*
X118647242Y-99200157D02*
X118504385Y-99057299D01*
X118504385Y-99057299D02*
X118409147Y-99009680D01*
X118409147Y-99009680D02*
X118313909Y-99009680D01*
X118361528Y-99247776D02*
X118266290Y-99200157D01*
X118266290Y-99200157D02*
X118171052Y-99104918D01*
X118171052Y-99104918D02*
X118123433Y-98914442D01*
X118123433Y-98914442D02*
X118123433Y-98581109D01*
X118123433Y-98581109D02*
X118171052Y-98390633D01*
X118171052Y-98390633D02*
X118266290Y-98295395D01*
X118266290Y-98295395D02*
X118361528Y-98247776D01*
X118361528Y-98247776D02*
X118552004Y-98247776D01*
X118552004Y-98247776D02*
X118647242Y-98295395D01*
X118647242Y-98295395D02*
X118742480Y-98390633D01*
X118742480Y-98390633D02*
X118790099Y-98581109D01*
X118790099Y-98581109D02*
X118790099Y-98914442D01*
X118790099Y-98914442D02*
X118742480Y-99104918D01*
X118742480Y-99104918D02*
X118647242Y-99200157D01*
X118647242Y-99200157D02*
X118552004Y-99247776D01*
X118552004Y-99247776D02*
X118361528Y-99247776D01*
X119647242Y-98581109D02*
X119647242Y-99247776D01*
X119409147Y-98200157D02*
X119171052Y-98914442D01*
X119171052Y-98914442D02*
X119790099Y-98914442D01*
X153256667Y-80597200D02*
X153399524Y-80644819D01*
X153399524Y-80644819D02*
X153637619Y-80644819D01*
X153637619Y-80644819D02*
X153732857Y-80597200D01*
X153732857Y-80597200D02*
X153780476Y-80549580D01*
X153780476Y-80549580D02*
X153828095Y-80454342D01*
X153828095Y-80454342D02*
X153828095Y-80359104D01*
X153828095Y-80359104D02*
X153780476Y-80263866D01*
X153780476Y-80263866D02*
X153732857Y-80216247D01*
X153732857Y-80216247D02*
X153637619Y-80168628D01*
X153637619Y-80168628D02*
X153447143Y-80121009D01*
X153447143Y-80121009D02*
X153351905Y-80073390D01*
X153351905Y-80073390D02*
X153304286Y-80025771D01*
X153304286Y-80025771D02*
X153256667Y-79930533D01*
X153256667Y-79930533D02*
X153256667Y-79835295D01*
X153256667Y-79835295D02*
X153304286Y-79740057D01*
X153304286Y-79740057D02*
X153351905Y-79692438D01*
X153351905Y-79692438D02*
X153447143Y-79644819D01*
X153447143Y-79644819D02*
X153685238Y-79644819D01*
X153685238Y-79644819D02*
X153828095Y-79692438D01*
X154161429Y-79644819D02*
X154399524Y-80644819D01*
X154399524Y-80644819D02*
X154590000Y-79930533D01*
X154590000Y-79930533D02*
X154780476Y-80644819D01*
X154780476Y-80644819D02*
X155018572Y-79644819D01*
X155923333Y-80644819D02*
X155351905Y-80644819D01*
X155637619Y-80644819D02*
X155637619Y-79644819D01*
X155637619Y-79644819D02*
X155542381Y-79787676D01*
X155542381Y-79787676D02*
X155447143Y-79882914D01*
X155447143Y-79882914D02*
X155351905Y-79930533D01*
X120664337Y-104039874D02*
X120765352Y-103467455D01*
X120260276Y-103635813D02*
X120967383Y-102928707D01*
X120967383Y-102928707D02*
X121236757Y-103198081D01*
X121236757Y-103198081D02*
X121270429Y-103299096D01*
X121270429Y-103299096D02*
X121270429Y-103366439D01*
X121270429Y-103366439D02*
X121236757Y-103467455D01*
X121236757Y-103467455D02*
X121135742Y-103568470D01*
X121135742Y-103568470D02*
X121034726Y-103602142D01*
X121034726Y-103602142D02*
X120967383Y-103602142D01*
X120967383Y-103602142D02*
X120866368Y-103568470D01*
X120866368Y-103568470D02*
X120596994Y-103299096D01*
X121573474Y-103669485D02*
X121640818Y-103669485D01*
X121640818Y-103669485D02*
X121741833Y-103703157D01*
X121741833Y-103703157D02*
X121910192Y-103871516D01*
X121910192Y-103871516D02*
X121943864Y-103972531D01*
X121943864Y-103972531D02*
X121943864Y-104039874D01*
X121943864Y-104039874D02*
X121910192Y-104140890D01*
X121910192Y-104140890D02*
X121842848Y-104208233D01*
X121842848Y-104208233D02*
X121708161Y-104275577D01*
X121708161Y-104275577D02*
X120900039Y-104275577D01*
X120900039Y-104275577D02*
X121337772Y-104713309D01*
X122246910Y-104342920D02*
X122314253Y-104342920D01*
X122314253Y-104342920D02*
X122415268Y-104376592D01*
X122415268Y-104376592D02*
X122583627Y-104544951D01*
X122583627Y-104544951D02*
X122617299Y-104645966D01*
X122617299Y-104645966D02*
X122617299Y-104713310D01*
X122617299Y-104713310D02*
X122583627Y-104814325D01*
X122583627Y-104814325D02*
X122516284Y-104881668D01*
X122516284Y-104881668D02*
X122381597Y-104949012D01*
X122381597Y-104949012D02*
X121573475Y-104949012D01*
X121573475Y-104949012D02*
X122011207Y-105386745D01*
X114466483Y-89189693D02*
X115173590Y-88482587D01*
X115173590Y-88482587D02*
X115341949Y-88650945D01*
X115341949Y-88650945D02*
X115409292Y-88785632D01*
X115409292Y-88785632D02*
X115409292Y-88920319D01*
X115409292Y-88920319D02*
X115375620Y-89021335D01*
X115375620Y-89021335D02*
X115274605Y-89189693D01*
X115274605Y-89189693D02*
X115173590Y-89290709D01*
X115173590Y-89290709D02*
X115005231Y-89391724D01*
X115005231Y-89391724D02*
X114904216Y-89425396D01*
X114904216Y-89425396D02*
X114769529Y-89425396D01*
X114769529Y-89425396D02*
X114634842Y-89358052D01*
X114634842Y-89358052D02*
X114466483Y-89189693D01*
X115813353Y-89122350D02*
X116251086Y-89560083D01*
X116251086Y-89560083D02*
X115746010Y-89593754D01*
X115746010Y-89593754D02*
X115847025Y-89694770D01*
X115847025Y-89694770D02*
X115880697Y-89795785D01*
X115880697Y-89795785D02*
X115880697Y-89863128D01*
X115880697Y-89863128D02*
X115847025Y-89964144D01*
X115847025Y-89964144D02*
X115678666Y-90132502D01*
X115678666Y-90132502D02*
X115577651Y-90166174D01*
X115577651Y-90166174D02*
X115510307Y-90166174D01*
X115510307Y-90166174D02*
X115409292Y-90132502D01*
X115409292Y-90132502D02*
X115207262Y-89930472D01*
X115207262Y-89930472D02*
X115173590Y-89829457D01*
X115173590Y-89829457D02*
X115173590Y-89762113D01*
X117107985Y-84406933D02*
X117276343Y-84575292D01*
X117040641Y-84676307D02*
X117276343Y-84575292D01*
X117276343Y-84575292D02*
X117377359Y-84339590D01*
X117310015Y-84810994D02*
X117276343Y-84575292D01*
X117276343Y-84575292D02*
X117512046Y-84608964D01*
X122267142Y-93369580D02*
X122219523Y-93417200D01*
X122219523Y-93417200D02*
X122076666Y-93464819D01*
X122076666Y-93464819D02*
X121981428Y-93464819D01*
X121981428Y-93464819D02*
X121838571Y-93417200D01*
X121838571Y-93417200D02*
X121743333Y-93321961D01*
X121743333Y-93321961D02*
X121695714Y-93226723D01*
X121695714Y-93226723D02*
X121648095Y-93036247D01*
X121648095Y-93036247D02*
X121648095Y-92893390D01*
X121648095Y-92893390D02*
X121695714Y-92702914D01*
X121695714Y-92702914D02*
X121743333Y-92607676D01*
X121743333Y-92607676D02*
X121838571Y-92512438D01*
X121838571Y-92512438D02*
X121981428Y-92464819D01*
X121981428Y-92464819D02*
X122076666Y-92464819D01*
X122076666Y-92464819D02*
X122219523Y-92512438D01*
X122219523Y-92512438D02*
X122267142Y-92560057D01*
X122648095Y-92560057D02*
X122695714Y-92512438D01*
X122695714Y-92512438D02*
X122790952Y-92464819D01*
X122790952Y-92464819D02*
X123029047Y-92464819D01*
X123029047Y-92464819D02*
X123124285Y-92512438D01*
X123124285Y-92512438D02*
X123171904Y-92560057D01*
X123171904Y-92560057D02*
X123219523Y-92655295D01*
X123219523Y-92655295D02*
X123219523Y-92750533D01*
X123219523Y-92750533D02*
X123171904Y-92893390D01*
X123171904Y-92893390D02*
X122600476Y-93464819D01*
X122600476Y-93464819D02*
X123219523Y-93464819D01*
X123695714Y-93464819D02*
X123886190Y-93464819D01*
X123886190Y-93464819D02*
X123981428Y-93417200D01*
X123981428Y-93417200D02*
X124029047Y-93369580D01*
X124029047Y-93369580D02*
X124124285Y-93226723D01*
X124124285Y-93226723D02*
X124171904Y-93036247D01*
X124171904Y-93036247D02*
X124171904Y-92655295D01*
X124171904Y-92655295D02*
X124124285Y-92560057D01*
X124124285Y-92560057D02*
X124076666Y-92512438D01*
X124076666Y-92512438D02*
X123981428Y-92464819D01*
X123981428Y-92464819D02*
X123790952Y-92464819D01*
X123790952Y-92464819D02*
X123695714Y-92512438D01*
X123695714Y-92512438D02*
X123648095Y-92560057D01*
X123648095Y-92560057D02*
X123600476Y-92655295D01*
X123600476Y-92655295D02*
X123600476Y-92893390D01*
X123600476Y-92893390D02*
X123648095Y-92988628D01*
X123648095Y-92988628D02*
X123695714Y-93036247D01*
X123695714Y-93036247D02*
X123790952Y-93083866D01*
X123790952Y-93083866D02*
X123981428Y-93083866D01*
X123981428Y-93083866D02*
X124076666Y-93036247D01*
X124076666Y-93036247D02*
X124124285Y-92988628D01*
X124124285Y-92988628D02*
X124171904Y-92893390D01*
X123288659Y-89317797D02*
X122716240Y-89216782D01*
X122884598Y-89721858D02*
X122177492Y-89014751D01*
X122177492Y-89014751D02*
X122446866Y-88745377D01*
X122446866Y-88745377D02*
X122547881Y-88711705D01*
X122547881Y-88711705D02*
X122615224Y-88711705D01*
X122615224Y-88711705D02*
X122716240Y-88745377D01*
X122716240Y-88745377D02*
X122817255Y-88846392D01*
X122817255Y-88846392D02*
X122850927Y-88947408D01*
X122850927Y-88947408D02*
X122850927Y-89014751D01*
X122850927Y-89014751D02*
X122817255Y-89115766D01*
X122817255Y-89115766D02*
X122547881Y-89385140D01*
X122918270Y-88408660D02*
X122918270Y-88341316D01*
X122918270Y-88341316D02*
X122951942Y-88240301D01*
X122951942Y-88240301D02*
X123120301Y-88071942D01*
X123120301Y-88071942D02*
X123221316Y-88038270D01*
X123221316Y-88038270D02*
X123288659Y-88038270D01*
X123288659Y-88038270D02*
X123389675Y-88071942D01*
X123389675Y-88071942D02*
X123457018Y-88139286D01*
X123457018Y-88139286D02*
X123524362Y-88273973D01*
X123524362Y-88273973D02*
X123524362Y-89082095D01*
X123524362Y-89082095D02*
X123962094Y-88644362D01*
X123894751Y-87297492D02*
X123558033Y-87634209D01*
X123558033Y-87634209D02*
X123861079Y-88004598D01*
X123861079Y-88004598D02*
X123861079Y-87937255D01*
X123861079Y-87937255D02*
X123894751Y-87836240D01*
X123894751Y-87836240D02*
X124063110Y-87667881D01*
X124063110Y-87667881D02*
X124164125Y-87634209D01*
X124164125Y-87634209D02*
X124231469Y-87634209D01*
X124231469Y-87634209D02*
X124332484Y-87667881D01*
X124332484Y-87667881D02*
X124500843Y-87836240D01*
X124500843Y-87836240D02*
X124534514Y-87937255D01*
X124534514Y-87937255D02*
X124534514Y-88004598D01*
X124534514Y-88004598D02*
X124500843Y-88105614D01*
X124500843Y-88105614D02*
X124332484Y-88273972D01*
X124332484Y-88273972D02*
X124231469Y-88307644D01*
X124231469Y-88307644D02*
X124164125Y-88307644D01*
X111666666Y-99304819D02*
X111333333Y-98828628D01*
X111095238Y-99304819D02*
X111095238Y-98304819D01*
X111095238Y-98304819D02*
X111476190Y-98304819D01*
X111476190Y-98304819D02*
X111571428Y-98352438D01*
X111571428Y-98352438D02*
X111619047Y-98400057D01*
X111619047Y-98400057D02*
X111666666Y-98495295D01*
X111666666Y-98495295D02*
X111666666Y-98638152D01*
X111666666Y-98638152D02*
X111619047Y-98733390D01*
X111619047Y-98733390D02*
X111571428Y-98781009D01*
X111571428Y-98781009D02*
X111476190Y-98828628D01*
X111476190Y-98828628D02*
X111095238Y-98828628D01*
X112095238Y-98781009D02*
X112428571Y-98781009D01*
X112571428Y-99304819D02*
X112095238Y-99304819D01*
X112095238Y-99304819D02*
X112095238Y-98304819D01*
X112095238Y-98304819D02*
X112571428Y-98304819D01*
X113333333Y-98781009D02*
X113000000Y-98781009D01*
X113000000Y-99304819D02*
X113000000Y-98304819D01*
X113000000Y-98304819D02*
X113476190Y-98304819D01*
X114000000Y-98304819D02*
X114000000Y-98542914D01*
X113761905Y-98447676D02*
X114000000Y-98542914D01*
X114000000Y-98542914D02*
X114238095Y-98447676D01*
X113857143Y-98733390D02*
X114000000Y-98542914D01*
X114000000Y-98542914D02*
X114142857Y-98733390D01*
X114761905Y-98304819D02*
X114761905Y-98542914D01*
X114523810Y-98447676D02*
X114761905Y-98542914D01*
X114761905Y-98542914D02*
X115000000Y-98447676D01*
X114619048Y-98733390D02*
X114761905Y-98542914D01*
X114761905Y-98542914D02*
X114904762Y-98733390D01*
X123854819Y-79392857D02*
X123378628Y-79726190D01*
X123854819Y-79964285D02*
X122854819Y-79964285D01*
X122854819Y-79964285D02*
X122854819Y-79583333D01*
X122854819Y-79583333D02*
X122902438Y-79488095D01*
X122902438Y-79488095D02*
X122950057Y-79440476D01*
X122950057Y-79440476D02*
X123045295Y-79392857D01*
X123045295Y-79392857D02*
X123188152Y-79392857D01*
X123188152Y-79392857D02*
X123283390Y-79440476D01*
X123283390Y-79440476D02*
X123331009Y-79488095D01*
X123331009Y-79488095D02*
X123378628Y-79583333D01*
X123378628Y-79583333D02*
X123378628Y-79964285D01*
X123854819Y-78440476D02*
X123854819Y-79011904D01*
X123854819Y-78726190D02*
X122854819Y-78726190D01*
X122854819Y-78726190D02*
X122997676Y-78821428D01*
X122997676Y-78821428D02*
X123092914Y-78916666D01*
X123092914Y-78916666D02*
X123140533Y-79011904D01*
X122950057Y-78059523D02*
X122902438Y-78011904D01*
X122902438Y-78011904D02*
X122854819Y-77916666D01*
X122854819Y-77916666D02*
X122854819Y-77678571D01*
X122854819Y-77678571D02*
X122902438Y-77583333D01*
X122902438Y-77583333D02*
X122950057Y-77535714D01*
X122950057Y-77535714D02*
X123045295Y-77488095D01*
X123045295Y-77488095D02*
X123140533Y-77488095D01*
X123140533Y-77488095D02*
X123283390Y-77535714D01*
X123283390Y-77535714D02*
X123854819Y-78107142D01*
X123854819Y-78107142D02*
X123854819Y-77488095D01*
X153592501Y-102689290D02*
X152885394Y-103396396D01*
X152885394Y-103396396D02*
X152717035Y-103228038D01*
X152717035Y-103228038D02*
X152649692Y-103093351D01*
X152649692Y-103093351D02*
X152649692Y-102958664D01*
X152649692Y-102958664D02*
X152683364Y-102857648D01*
X152683364Y-102857648D02*
X152784379Y-102689290D01*
X152784379Y-102689290D02*
X152885394Y-102588274D01*
X152885394Y-102588274D02*
X153053753Y-102487259D01*
X153053753Y-102487259D02*
X153154768Y-102453587D01*
X153154768Y-102453587D02*
X153289455Y-102453587D01*
X153289455Y-102453587D02*
X153424142Y-102520931D01*
X153424142Y-102520931D02*
X153592501Y-102689290D01*
X152515005Y-101611794D02*
X152919066Y-102015855D01*
X152717035Y-101813824D02*
X152009929Y-102520931D01*
X152009929Y-102520931D02*
X152178287Y-102487259D01*
X152178287Y-102487259D02*
X152312974Y-102487259D01*
X152312974Y-102487259D02*
X152413990Y-102520931D01*
X135763333Y-91569819D02*
X135430000Y-91093628D01*
X135191905Y-91569819D02*
X135191905Y-90569819D01*
X135191905Y-90569819D02*
X135572857Y-90569819D01*
X135572857Y-90569819D02*
X135668095Y-90617438D01*
X135668095Y-90617438D02*
X135715714Y-90665057D01*
X135715714Y-90665057D02*
X135763333Y-90760295D01*
X135763333Y-90760295D02*
X135763333Y-90903152D01*
X135763333Y-90903152D02*
X135715714Y-90998390D01*
X135715714Y-90998390D02*
X135668095Y-91046009D01*
X135668095Y-91046009D02*
X135572857Y-91093628D01*
X135572857Y-91093628D02*
X135191905Y-91093628D01*
X136620476Y-90569819D02*
X136430000Y-90569819D01*
X136430000Y-90569819D02*
X136334762Y-90617438D01*
X136334762Y-90617438D02*
X136287143Y-90665057D01*
X136287143Y-90665057D02*
X136191905Y-90807914D01*
X136191905Y-90807914D02*
X136144286Y-90998390D01*
X136144286Y-90998390D02*
X136144286Y-91379342D01*
X136144286Y-91379342D02*
X136191905Y-91474580D01*
X136191905Y-91474580D02*
X136239524Y-91522200D01*
X136239524Y-91522200D02*
X136334762Y-91569819D01*
X136334762Y-91569819D02*
X136525238Y-91569819D01*
X136525238Y-91569819D02*
X136620476Y-91522200D01*
X136620476Y-91522200D02*
X136668095Y-91474580D01*
X136668095Y-91474580D02*
X136715714Y-91379342D01*
X136715714Y-91379342D02*
X136715714Y-91141247D01*
X136715714Y-91141247D02*
X136668095Y-91046009D01*
X136668095Y-91046009D02*
X136620476Y-90998390D01*
X136620476Y-90998390D02*
X136525238Y-90950771D01*
X136525238Y-90950771D02*
X136334762Y-90950771D01*
X136334762Y-90950771D02*
X136239524Y-90998390D01*
X136239524Y-90998390D02*
X136191905Y-91046009D01*
X136191905Y-91046009D02*
X136144286Y-91141247D01*
X116431605Y-91956292D02*
X116330590Y-91989964D01*
X116330590Y-91989964D02*
X116195903Y-91989964D01*
X116195903Y-91989964D02*
X115993872Y-91989964D01*
X115993872Y-91989964D02*
X115892857Y-92023636D01*
X115892857Y-92023636D02*
X115825514Y-92090979D01*
X116027544Y-92225666D02*
X115926529Y-92259338D01*
X115926529Y-92259338D02*
X115791842Y-92259338D01*
X115791842Y-92259338D02*
X115623483Y-92158323D01*
X115623483Y-92158323D02*
X115387781Y-91922620D01*
X115387781Y-91922620D02*
X115286766Y-91754262D01*
X115286766Y-91754262D02*
X115286766Y-91619575D01*
X115286766Y-91619575D02*
X115320437Y-91518559D01*
X115320437Y-91518559D02*
X115455124Y-91383872D01*
X115455124Y-91383872D02*
X115556140Y-91350201D01*
X115556140Y-91350201D02*
X115690827Y-91350201D01*
X115690827Y-91350201D02*
X115859185Y-91451216D01*
X115859185Y-91451216D02*
X116094888Y-91686918D01*
X116094888Y-91686918D02*
X116195903Y-91855277D01*
X116195903Y-91855277D02*
X116195903Y-91989964D01*
X116195903Y-91989964D02*
X116162231Y-92090979D01*
X116162231Y-92090979D02*
X116027544Y-92225666D01*
X115960201Y-91013483D02*
X115960201Y-90946140D01*
X115960201Y-90946140D02*
X115993872Y-90845124D01*
X115993872Y-90845124D02*
X116162231Y-90676766D01*
X116162231Y-90676766D02*
X116263246Y-90643094D01*
X116263246Y-90643094D02*
X116330590Y-90643094D01*
X116330590Y-90643094D02*
X116431605Y-90676766D01*
X116431605Y-90676766D02*
X116498949Y-90744109D01*
X116498949Y-90744109D02*
X116566292Y-90878796D01*
X116566292Y-90878796D02*
X116566292Y-91686918D01*
X116566292Y-91686918D02*
X117004025Y-91249185D01*
X125259580Y-95906666D02*
X125307200Y-95954285D01*
X125307200Y-95954285D02*
X125354819Y-96097142D01*
X125354819Y-96097142D02*
X125354819Y-96192380D01*
X125354819Y-96192380D02*
X125307200Y-96335237D01*
X125307200Y-96335237D02*
X125211961Y-96430475D01*
X125211961Y-96430475D02*
X125116723Y-96478094D01*
X125116723Y-96478094D02*
X124926247Y-96525713D01*
X124926247Y-96525713D02*
X124783390Y-96525713D01*
X124783390Y-96525713D02*
X124592914Y-96478094D01*
X124592914Y-96478094D02*
X124497676Y-96430475D01*
X124497676Y-96430475D02*
X124402438Y-96335237D01*
X124402438Y-96335237D02*
X124354819Y-96192380D01*
X124354819Y-96192380D02*
X124354819Y-96097142D01*
X124354819Y-96097142D02*
X124402438Y-95954285D01*
X124402438Y-95954285D02*
X124450057Y-95906666D01*
X124354819Y-95573332D02*
X124354819Y-94906666D01*
X124354819Y-94906666D02*
X125354819Y-95335237D01*
X174088095Y-84304819D02*
X174088095Y-83304819D01*
X174088095Y-83781009D02*
X174659523Y-83781009D01*
X174659523Y-84304819D02*
X174659523Y-83304819D01*
X175659523Y-84304819D02*
X175088095Y-84304819D01*
X175373809Y-84304819D02*
X175373809Y-83304819D01*
X175373809Y-83304819D02*
X175278571Y-83447676D01*
X175278571Y-83447676D02*
X175183333Y-83542914D01*
X175183333Y-83542914D02*
X175088095Y-83590533D01*
X113377142Y-81539580D02*
X113329523Y-81587200D01*
X113329523Y-81587200D02*
X113186666Y-81634819D01*
X113186666Y-81634819D02*
X113091428Y-81634819D01*
X113091428Y-81634819D02*
X112948571Y-81587200D01*
X112948571Y-81587200D02*
X112853333Y-81491961D01*
X112853333Y-81491961D02*
X112805714Y-81396723D01*
X112805714Y-81396723D02*
X112758095Y-81206247D01*
X112758095Y-81206247D02*
X112758095Y-81063390D01*
X112758095Y-81063390D02*
X112805714Y-80872914D01*
X112805714Y-80872914D02*
X112853333Y-80777676D01*
X112853333Y-80777676D02*
X112948571Y-80682438D01*
X112948571Y-80682438D02*
X113091428Y-80634819D01*
X113091428Y-80634819D02*
X113186666Y-80634819D01*
X113186666Y-80634819D02*
X113329523Y-80682438D01*
X113329523Y-80682438D02*
X113377142Y-80730057D01*
X114329523Y-81634819D02*
X113758095Y-81634819D01*
X114043809Y-81634819D02*
X114043809Y-80634819D01*
X114043809Y-80634819D02*
X113948571Y-80777676D01*
X113948571Y-80777676D02*
X113853333Y-80872914D01*
X113853333Y-80872914D02*
X113758095Y-80920533D01*
X114900952Y-81063390D02*
X114805714Y-81015771D01*
X114805714Y-81015771D02*
X114758095Y-80968152D01*
X114758095Y-80968152D02*
X114710476Y-80872914D01*
X114710476Y-80872914D02*
X114710476Y-80825295D01*
X114710476Y-80825295D02*
X114758095Y-80730057D01*
X114758095Y-80730057D02*
X114805714Y-80682438D01*
X114805714Y-80682438D02*
X114900952Y-80634819D01*
X114900952Y-80634819D02*
X115091428Y-80634819D01*
X115091428Y-80634819D02*
X115186666Y-80682438D01*
X115186666Y-80682438D02*
X115234285Y-80730057D01*
X115234285Y-80730057D02*
X115281904Y-80825295D01*
X115281904Y-80825295D02*
X115281904Y-80872914D01*
X115281904Y-80872914D02*
X115234285Y-80968152D01*
X115234285Y-80968152D02*
X115186666Y-81015771D01*
X115186666Y-81015771D02*
X115091428Y-81063390D01*
X115091428Y-81063390D02*
X114900952Y-81063390D01*
X114900952Y-81063390D02*
X114805714Y-81111009D01*
X114805714Y-81111009D02*
X114758095Y-81158628D01*
X114758095Y-81158628D02*
X114710476Y-81253866D01*
X114710476Y-81253866D02*
X114710476Y-81444342D01*
X114710476Y-81444342D02*
X114758095Y-81539580D01*
X114758095Y-81539580D02*
X114805714Y-81587200D01*
X114805714Y-81587200D02*
X114900952Y-81634819D01*
X114900952Y-81634819D02*
X115091428Y-81634819D01*
X115091428Y-81634819D02*
X115186666Y-81587200D01*
X115186666Y-81587200D02*
X115234285Y-81539580D01*
X115234285Y-81539580D02*
X115281904Y-81444342D01*
X115281904Y-81444342D02*
X115281904Y-81253866D01*
X115281904Y-81253866D02*
X115234285Y-81158628D01*
X115234285Y-81158628D02*
X115186666Y-81111009D01*
X115186666Y-81111009D02*
X115091428Y-81063390D01*
X145528095Y-97564819D02*
X145528095Y-98374342D01*
X145528095Y-98374342D02*
X145575714Y-98469580D01*
X145575714Y-98469580D02*
X145623333Y-98517200D01*
X145623333Y-98517200D02*
X145718571Y-98564819D01*
X145718571Y-98564819D02*
X145909047Y-98564819D01*
X145909047Y-98564819D02*
X146004285Y-98517200D01*
X146004285Y-98517200D02*
X146051904Y-98469580D01*
X146051904Y-98469580D02*
X146099523Y-98374342D01*
X146099523Y-98374342D02*
X146099523Y-97564819D01*
X147099523Y-98564819D02*
X146528095Y-98564819D01*
X146813809Y-98564819D02*
X146813809Y-97564819D01*
X146813809Y-97564819D02*
X146718571Y-97707676D01*
X146718571Y-97707676D02*
X146623333Y-97802914D01*
X146623333Y-97802914D02*
X146528095Y-97850533D01*
X125859580Y-85314166D02*
X125907200Y-85361785D01*
X125907200Y-85361785D02*
X125954819Y-85504642D01*
X125954819Y-85504642D02*
X125954819Y-85599880D01*
X125954819Y-85599880D02*
X125907200Y-85742737D01*
X125907200Y-85742737D02*
X125811961Y-85837975D01*
X125811961Y-85837975D02*
X125716723Y-85885594D01*
X125716723Y-85885594D02*
X125526247Y-85933213D01*
X125526247Y-85933213D02*
X125383390Y-85933213D01*
X125383390Y-85933213D02*
X125192914Y-85885594D01*
X125192914Y-85885594D02*
X125097676Y-85837975D01*
X125097676Y-85837975D02*
X125002438Y-85742737D01*
X125002438Y-85742737D02*
X124954819Y-85599880D01*
X124954819Y-85599880D02*
X124954819Y-85504642D01*
X124954819Y-85504642D02*
X125002438Y-85361785D01*
X125002438Y-85361785D02*
X125050057Y-85314166D01*
X125050057Y-84933213D02*
X125002438Y-84885594D01*
X125002438Y-84885594D02*
X124954819Y-84790356D01*
X124954819Y-84790356D02*
X124954819Y-84552261D01*
X124954819Y-84552261D02*
X125002438Y-84457023D01*
X125002438Y-84457023D02*
X125050057Y-84409404D01*
X125050057Y-84409404D02*
X125145295Y-84361785D01*
X125145295Y-84361785D02*
X125240533Y-84361785D01*
X125240533Y-84361785D02*
X125383390Y-84409404D01*
X125383390Y-84409404D02*
X125954819Y-84980832D01*
X125954819Y-84980832D02*
X125954819Y-84361785D01*
X147089693Y-83803517D02*
X146382587Y-83096410D01*
X146382587Y-83096410D02*
X146550945Y-82928051D01*
X146550945Y-82928051D02*
X146685632Y-82860708D01*
X146685632Y-82860708D02*
X146820319Y-82860708D01*
X146820319Y-82860708D02*
X146921335Y-82894380D01*
X146921335Y-82894380D02*
X147089693Y-82995395D01*
X147089693Y-82995395D02*
X147190709Y-83096410D01*
X147190709Y-83096410D02*
X147291724Y-83264769D01*
X147291724Y-83264769D02*
X147325396Y-83365784D01*
X147325396Y-83365784D02*
X147325396Y-83500471D01*
X147325396Y-83500471D02*
X147258052Y-83635158D01*
X147258052Y-83635158D02*
X147089693Y-83803517D01*
X147628441Y-82321960D02*
X148099846Y-82793364D01*
X147190709Y-82220945D02*
X147527426Y-82894380D01*
X147527426Y-82894380D02*
X147965159Y-82456647D01*
X150953693Y-85713742D02*
X150785334Y-85882100D01*
X150684319Y-85646398D02*
X150785334Y-85882100D01*
X150785334Y-85882100D02*
X151021036Y-85983116D01*
X150549632Y-85915772D02*
X150785334Y-85882100D01*
X150785334Y-85882100D02*
X150751662Y-86117803D01*
X120879368Y-108465069D02*
X120879368Y-108532413D01*
X120879368Y-108532413D02*
X120812024Y-108667100D01*
X120812024Y-108667100D02*
X120744681Y-108734443D01*
X120744681Y-108734443D02*
X120609994Y-108801787D01*
X120609994Y-108801787D02*
X120475307Y-108801787D01*
X120475307Y-108801787D02*
X120374292Y-108768115D01*
X120374292Y-108768115D02*
X120205933Y-108667100D01*
X120205933Y-108667100D02*
X120104918Y-108566085D01*
X120104918Y-108566085D02*
X120003902Y-108397726D01*
X120003902Y-108397726D02*
X119970231Y-108296711D01*
X119970231Y-108296711D02*
X119970231Y-108162024D01*
X119970231Y-108162024D02*
X120037574Y-108027337D01*
X120037574Y-108027337D02*
X120104918Y-107959993D01*
X120104918Y-107959993D02*
X120239605Y-107892650D01*
X120239605Y-107892650D02*
X120306948Y-107892650D01*
X120845696Y-107219215D02*
X120711009Y-107353902D01*
X120711009Y-107353902D02*
X120677337Y-107454917D01*
X120677337Y-107454917D02*
X120677337Y-107522260D01*
X120677337Y-107522260D02*
X120711009Y-107690619D01*
X120711009Y-107690619D02*
X120812024Y-107858978D01*
X120812024Y-107858978D02*
X121081398Y-108128352D01*
X121081398Y-108128352D02*
X121182414Y-108162024D01*
X121182414Y-108162024D02*
X121249757Y-108162024D01*
X121249757Y-108162024D02*
X121350772Y-108128352D01*
X121350772Y-108128352D02*
X121485459Y-107993665D01*
X121485459Y-107993665D02*
X121519131Y-107892650D01*
X121519131Y-107892650D02*
X121519131Y-107825306D01*
X121519131Y-107825306D02*
X121485459Y-107724291D01*
X121485459Y-107724291D02*
X121317101Y-107555932D01*
X121317101Y-107555932D02*
X121216085Y-107522260D01*
X121216085Y-107522260D02*
X121148742Y-107522260D01*
X121148742Y-107522260D02*
X121047727Y-107555932D01*
X121047727Y-107555932D02*
X120913040Y-107690619D01*
X120913040Y-107690619D02*
X120879368Y-107791634D01*
X120879368Y-107791634D02*
X120879368Y-107858978D01*
X120879368Y-107858978D02*
X120913040Y-107959993D01*
X146356611Y-91788199D02*
X146457626Y-91215780D01*
X145952550Y-91384138D02*
X146659657Y-90677032D01*
X146659657Y-90677032D02*
X146929031Y-90946406D01*
X146929031Y-90946406D02*
X146962703Y-91047421D01*
X146962703Y-91047421D02*
X146962703Y-91114764D01*
X146962703Y-91114764D02*
X146929031Y-91215780D01*
X146929031Y-91215780D02*
X146828016Y-91316795D01*
X146828016Y-91316795D02*
X146727000Y-91350467D01*
X146727000Y-91350467D02*
X146659657Y-91350467D01*
X146659657Y-91350467D02*
X146558642Y-91316795D01*
X146558642Y-91316795D02*
X146289268Y-91047421D01*
X147265748Y-91417810D02*
X147333092Y-91417810D01*
X147333092Y-91417810D02*
X147434107Y-91451482D01*
X147434107Y-91451482D02*
X147602466Y-91619841D01*
X147602466Y-91619841D02*
X147636138Y-91720856D01*
X147636138Y-91720856D02*
X147636138Y-91788199D01*
X147636138Y-91788199D02*
X147602466Y-91889215D01*
X147602466Y-91889215D02*
X147535122Y-91956558D01*
X147535122Y-91956558D02*
X147400435Y-92023902D01*
X147400435Y-92023902D02*
X146592313Y-92023902D01*
X146592313Y-92023902D02*
X147030046Y-92461634D01*
X148174886Y-92192261D02*
X148242229Y-92259604D01*
X148242229Y-92259604D02*
X148275901Y-92360619D01*
X148275901Y-92360619D02*
X148275901Y-92427963D01*
X148275901Y-92427963D02*
X148242229Y-92528978D01*
X148242229Y-92528978D02*
X148141214Y-92697337D01*
X148141214Y-92697337D02*
X147972855Y-92865696D01*
X147972855Y-92865696D02*
X147804497Y-92966711D01*
X147804497Y-92966711D02*
X147703481Y-93000383D01*
X147703481Y-93000383D02*
X147636138Y-93000383D01*
X147636138Y-93000383D02*
X147535123Y-92966711D01*
X147535123Y-92966711D02*
X147467779Y-92899367D01*
X147467779Y-92899367D02*
X147434107Y-92798352D01*
X147434107Y-92798352D02*
X147434107Y-92731009D01*
X147434107Y-92731009D02*
X147467779Y-92629993D01*
X147467779Y-92629993D02*
X147568794Y-92461635D01*
X147568794Y-92461635D02*
X147737153Y-92293276D01*
X147737153Y-92293276D02*
X147905512Y-92192261D01*
X147905512Y-92192261D02*
X148006527Y-92158589D01*
X148006527Y-92158589D02*
X148073871Y-92158589D01*
X148073871Y-92158589D02*
X148174886Y-92192261D01*
X116223263Y-101319439D02*
X116930369Y-102026546D01*
X116930369Y-102026546D02*
X116762011Y-102194905D01*
X116762011Y-102194905D02*
X116627324Y-102262248D01*
X116627324Y-102262248D02*
X116492637Y-102262248D01*
X116492637Y-102262248D02*
X116391621Y-102228576D01*
X116391621Y-102228576D02*
X116223263Y-102127561D01*
X116223263Y-102127561D02*
X116122247Y-102026546D01*
X116122247Y-102026546D02*
X116021232Y-101858187D01*
X116021232Y-101858187D02*
X115987560Y-101757172D01*
X115987560Y-101757172D02*
X115987560Y-101622485D01*
X115987560Y-101622485D02*
X116054904Y-101487798D01*
X116054904Y-101487798D02*
X116223263Y-101319439D01*
X116189591Y-102632637D02*
X116189591Y-102699981D01*
X116189591Y-102699981D02*
X116155919Y-102800996D01*
X116155919Y-102800996D02*
X115987560Y-102969355D01*
X115987560Y-102969355D02*
X115886545Y-103003027D01*
X115886545Y-103003027D02*
X115819202Y-103003027D01*
X115819202Y-103003027D02*
X115718186Y-102969355D01*
X115718186Y-102969355D02*
X115650843Y-102902011D01*
X115650843Y-102902011D02*
X115583499Y-102767324D01*
X115583499Y-102767324D02*
X115583499Y-101959202D01*
X115583499Y-101959202D02*
X115145767Y-102396935D01*
X118815330Y-105813262D02*
X118983689Y-105644904D01*
X119084704Y-105880606D02*
X118983689Y-105644904D01*
X118983689Y-105644904D02*
X118747987Y-105543888D01*
X119219391Y-105611232D02*
X118983689Y-105644904D01*
X118983689Y-105644904D02*
X119017361Y-105409201D01*
X119937887Y-83206411D02*
X119870543Y-83206411D01*
X119870543Y-83206411D02*
X119735856Y-83139067D01*
X119735856Y-83139067D02*
X119668513Y-83071724D01*
X119668513Y-83071724D02*
X119601169Y-82937037D01*
X119601169Y-82937037D02*
X119601169Y-82802350D01*
X119601169Y-82802350D02*
X119634841Y-82701335D01*
X119634841Y-82701335D02*
X119735856Y-82532976D01*
X119735856Y-82532976D02*
X119836871Y-82431961D01*
X119836871Y-82431961D02*
X120005230Y-82330945D01*
X120005230Y-82330945D02*
X120106245Y-82297274D01*
X120106245Y-82297274D02*
X120240932Y-82297274D01*
X120240932Y-82297274D02*
X120375619Y-82364617D01*
X120375619Y-82364617D02*
X120442963Y-82431961D01*
X120442963Y-82431961D02*
X120510306Y-82566648D01*
X120510306Y-82566648D02*
X120510306Y-82633991D01*
X120813352Y-82802350D02*
X121251085Y-83240083D01*
X121251085Y-83240083D02*
X120746009Y-83273754D01*
X120746009Y-83273754D02*
X120847024Y-83374770D01*
X120847024Y-83374770D02*
X120880696Y-83475785D01*
X120880696Y-83475785D02*
X120880696Y-83543128D01*
X120880696Y-83543128D02*
X120847024Y-83644144D01*
X120847024Y-83644144D02*
X120678665Y-83812502D01*
X120678665Y-83812502D02*
X120577650Y-83846174D01*
X120577650Y-83846174D02*
X120510306Y-83846174D01*
X120510306Y-83846174D02*
X120409291Y-83812502D01*
X120409291Y-83812502D02*
X120207261Y-83610472D01*
X120207261Y-83610472D02*
X120173589Y-83509457D01*
X120173589Y-83509457D02*
X120173589Y-83442113D01*
X116736667Y-81637200D02*
X116879524Y-81684819D01*
X116879524Y-81684819D02*
X117117619Y-81684819D01*
X117117619Y-81684819D02*
X117212857Y-81637200D01*
X117212857Y-81637200D02*
X117260476Y-81589580D01*
X117260476Y-81589580D02*
X117308095Y-81494342D01*
X117308095Y-81494342D02*
X117308095Y-81399104D01*
X117308095Y-81399104D02*
X117260476Y-81303866D01*
X117260476Y-81303866D02*
X117212857Y-81256247D01*
X117212857Y-81256247D02*
X117117619Y-81208628D01*
X117117619Y-81208628D02*
X116927143Y-81161009D01*
X116927143Y-81161009D02*
X116831905Y-81113390D01*
X116831905Y-81113390D02*
X116784286Y-81065771D01*
X116784286Y-81065771D02*
X116736667Y-80970533D01*
X116736667Y-80970533D02*
X116736667Y-80875295D01*
X116736667Y-80875295D02*
X116784286Y-80780057D01*
X116784286Y-80780057D02*
X116831905Y-80732438D01*
X116831905Y-80732438D02*
X116927143Y-80684819D01*
X116927143Y-80684819D02*
X117165238Y-80684819D01*
X117165238Y-80684819D02*
X117308095Y-80732438D01*
X117641429Y-80684819D02*
X117879524Y-81684819D01*
X117879524Y-81684819D02*
X118070000Y-80970533D01*
X118070000Y-80970533D02*
X118260476Y-81684819D01*
X118260476Y-81684819D02*
X118498572Y-80684819D01*
X118831905Y-80780057D02*
X118879524Y-80732438D01*
X118879524Y-80732438D02*
X118974762Y-80684819D01*
X118974762Y-80684819D02*
X119212857Y-80684819D01*
X119212857Y-80684819D02*
X119308095Y-80732438D01*
X119308095Y-80732438D02*
X119355714Y-80780057D01*
X119355714Y-80780057D02*
X119403333Y-80875295D01*
X119403333Y-80875295D02*
X119403333Y-80970533D01*
X119403333Y-80970533D02*
X119355714Y-81113390D01*
X119355714Y-81113390D02*
X118784286Y-81684819D01*
X118784286Y-81684819D02*
X119403333Y-81684819D01*
X125068333Y-87514819D02*
X124735000Y-87038628D01*
X124496905Y-87514819D02*
X124496905Y-86514819D01*
X124496905Y-86514819D02*
X124877857Y-86514819D01*
X124877857Y-86514819D02*
X124973095Y-86562438D01*
X124973095Y-86562438D02*
X125020714Y-86610057D01*
X125020714Y-86610057D02*
X125068333Y-86705295D01*
X125068333Y-86705295D02*
X125068333Y-86848152D01*
X125068333Y-86848152D02*
X125020714Y-86943390D01*
X125020714Y-86943390D02*
X124973095Y-86991009D01*
X124973095Y-86991009D02*
X124877857Y-87038628D01*
X124877857Y-87038628D02*
X124496905Y-87038628D01*
X125449286Y-86610057D02*
X125496905Y-86562438D01*
X125496905Y-86562438D02*
X125592143Y-86514819D01*
X125592143Y-86514819D02*
X125830238Y-86514819D01*
X125830238Y-86514819D02*
X125925476Y-86562438D01*
X125925476Y-86562438D02*
X125973095Y-86610057D01*
X125973095Y-86610057D02*
X126020714Y-86705295D01*
X126020714Y-86705295D02*
X126020714Y-86800533D01*
X126020714Y-86800533D02*
X125973095Y-86943390D01*
X125973095Y-86943390D02*
X125401667Y-87514819D01*
X125401667Y-87514819D02*
X126020714Y-87514819D01*
X140829580Y-91352857D02*
X140877200Y-91400476D01*
X140877200Y-91400476D02*
X140924819Y-91543333D01*
X140924819Y-91543333D02*
X140924819Y-91638571D01*
X140924819Y-91638571D02*
X140877200Y-91781428D01*
X140877200Y-91781428D02*
X140781961Y-91876666D01*
X140781961Y-91876666D02*
X140686723Y-91924285D01*
X140686723Y-91924285D02*
X140496247Y-91971904D01*
X140496247Y-91971904D02*
X140353390Y-91971904D01*
X140353390Y-91971904D02*
X140162914Y-91924285D01*
X140162914Y-91924285D02*
X140067676Y-91876666D01*
X140067676Y-91876666D02*
X139972438Y-91781428D01*
X139972438Y-91781428D02*
X139924819Y-91638571D01*
X139924819Y-91638571D02*
X139924819Y-91543333D01*
X139924819Y-91543333D02*
X139972438Y-91400476D01*
X139972438Y-91400476D02*
X140020057Y-91352857D01*
X140924819Y-90400476D02*
X140924819Y-90971904D01*
X140924819Y-90686190D02*
X139924819Y-90686190D01*
X139924819Y-90686190D02*
X140067676Y-90781428D01*
X140067676Y-90781428D02*
X140162914Y-90876666D01*
X140162914Y-90876666D02*
X140210533Y-90971904D01*
X139924819Y-89495714D02*
X139924819Y-89971904D01*
X139924819Y-89971904D02*
X140401009Y-90019523D01*
X140401009Y-90019523D02*
X140353390Y-89971904D01*
X140353390Y-89971904D02*
X140305771Y-89876666D01*
X140305771Y-89876666D02*
X140305771Y-89638571D01*
X140305771Y-89638571D02*
X140353390Y-89543333D01*
X140353390Y-89543333D02*
X140401009Y-89495714D01*
X140401009Y-89495714D02*
X140496247Y-89448095D01*
X140496247Y-89448095D02*
X140734342Y-89448095D01*
X140734342Y-89448095D02*
X140829580Y-89495714D01*
X140829580Y-89495714D02*
X140877200Y-89543333D01*
X140877200Y-89543333D02*
X140924819Y-89638571D01*
X140924819Y-89638571D02*
X140924819Y-89876666D01*
X140924819Y-89876666D02*
X140877200Y-89971904D01*
X140877200Y-89971904D02*
X140829580Y-90019523D01*
X174148095Y-89954819D02*
X174148095Y-88954819D01*
X174148095Y-89431009D02*
X174719523Y-89431009D01*
X174719523Y-89954819D02*
X174719523Y-88954819D01*
X175148095Y-89050057D02*
X175195714Y-89002438D01*
X175195714Y-89002438D02*
X175290952Y-88954819D01*
X175290952Y-88954819D02*
X175529047Y-88954819D01*
X175529047Y-88954819D02*
X175624285Y-89002438D01*
X175624285Y-89002438D02*
X175671904Y-89050057D01*
X175671904Y-89050057D02*
X175719523Y-89145295D01*
X175719523Y-89145295D02*
X175719523Y-89240533D01*
X175719523Y-89240533D02*
X175671904Y-89383390D01*
X175671904Y-89383390D02*
X175100476Y-89954819D01*
X175100476Y-89954819D02*
X175719523Y-89954819D01*
X138253333Y-99369580D02*
X138205714Y-99417200D01*
X138205714Y-99417200D02*
X138062857Y-99464819D01*
X138062857Y-99464819D02*
X137967619Y-99464819D01*
X137967619Y-99464819D02*
X137824762Y-99417200D01*
X137824762Y-99417200D02*
X137729524Y-99321961D01*
X137729524Y-99321961D02*
X137681905Y-99226723D01*
X137681905Y-99226723D02*
X137634286Y-99036247D01*
X137634286Y-99036247D02*
X137634286Y-98893390D01*
X137634286Y-98893390D02*
X137681905Y-98702914D01*
X137681905Y-98702914D02*
X137729524Y-98607676D01*
X137729524Y-98607676D02*
X137824762Y-98512438D01*
X137824762Y-98512438D02*
X137967619Y-98464819D01*
X137967619Y-98464819D02*
X138062857Y-98464819D01*
X138062857Y-98464819D02*
X138205714Y-98512438D01*
X138205714Y-98512438D02*
X138253333Y-98560057D01*
X138729524Y-99464819D02*
X138920000Y-99464819D01*
X138920000Y-99464819D02*
X139015238Y-99417200D01*
X139015238Y-99417200D02*
X139062857Y-99369580D01*
X139062857Y-99369580D02*
X139158095Y-99226723D01*
X139158095Y-99226723D02*
X139205714Y-99036247D01*
X139205714Y-99036247D02*
X139205714Y-98655295D01*
X139205714Y-98655295D02*
X139158095Y-98560057D01*
X139158095Y-98560057D02*
X139110476Y-98512438D01*
X139110476Y-98512438D02*
X139015238Y-98464819D01*
X139015238Y-98464819D02*
X138824762Y-98464819D01*
X138824762Y-98464819D02*
X138729524Y-98512438D01*
X138729524Y-98512438D02*
X138681905Y-98560057D01*
X138681905Y-98560057D02*
X138634286Y-98655295D01*
X138634286Y-98655295D02*
X138634286Y-98893390D01*
X138634286Y-98893390D02*
X138681905Y-98988628D01*
X138681905Y-98988628D02*
X138729524Y-99036247D01*
X138729524Y-99036247D02*
X138824762Y-99083866D01*
X138824762Y-99083866D02*
X139015238Y-99083866D01*
X139015238Y-99083866D02*
X139110476Y-99036247D01*
X139110476Y-99036247D02*
X139158095Y-98988628D01*
X139158095Y-98988628D02*
X139205714Y-98893390D01*
X125118095Y-92234819D02*
X125118095Y-93044342D01*
X125118095Y-93044342D02*
X125165714Y-93139580D01*
X125165714Y-93139580D02*
X125213333Y-93187200D01*
X125213333Y-93187200D02*
X125308571Y-93234819D01*
X125308571Y-93234819D02*
X125499047Y-93234819D01*
X125499047Y-93234819D02*
X125594285Y-93187200D01*
X125594285Y-93187200D02*
X125641904Y-93139580D01*
X125641904Y-93139580D02*
X125689523Y-93044342D01*
X125689523Y-93044342D02*
X125689523Y-92234819D01*
X126118095Y-92330057D02*
X126165714Y-92282438D01*
X126165714Y-92282438D02*
X126260952Y-92234819D01*
X126260952Y-92234819D02*
X126499047Y-92234819D01*
X126499047Y-92234819D02*
X126594285Y-92282438D01*
X126594285Y-92282438D02*
X126641904Y-92330057D01*
X126641904Y-92330057D02*
X126689523Y-92425295D01*
X126689523Y-92425295D02*
X126689523Y-92520533D01*
X126689523Y-92520533D02*
X126641904Y-92663390D01*
X126641904Y-92663390D02*
X126070476Y-93234819D01*
X126070476Y-93234819D02*
X126689523Y-93234819D01*
X174148095Y-95904819D02*
X174148095Y-94904819D01*
X174148095Y-95381009D02*
X174719523Y-95381009D01*
X174719523Y-95904819D02*
X174719523Y-94904819D01*
X175100476Y-94904819D02*
X175719523Y-94904819D01*
X175719523Y-94904819D02*
X175386190Y-95285771D01*
X175386190Y-95285771D02*
X175529047Y-95285771D01*
X175529047Y-95285771D02*
X175624285Y-95333390D01*
X175624285Y-95333390D02*
X175671904Y-95381009D01*
X175671904Y-95381009D02*
X175719523Y-95476247D01*
X175719523Y-95476247D02*
X175719523Y-95714342D01*
X175719523Y-95714342D02*
X175671904Y-95809580D01*
X175671904Y-95809580D02*
X175624285Y-95857200D01*
X175624285Y-95857200D02*
X175529047Y-95904819D01*
X175529047Y-95904819D02*
X175243333Y-95904819D01*
X175243333Y-95904819D02*
X175148095Y-95857200D01*
X175148095Y-95857200D02*
X175100476Y-95809580D01*
X127494641Y-90104820D02*
X127161308Y-89628629D01*
X126923213Y-90104820D02*
X126923213Y-89104820D01*
X126923213Y-89104820D02*
X127304165Y-89104820D01*
X127304165Y-89104820D02*
X127399403Y-89152439D01*
X127399403Y-89152439D02*
X127447022Y-89200058D01*
X127447022Y-89200058D02*
X127494641Y-89295296D01*
X127494641Y-89295296D02*
X127494641Y-89438153D01*
X127494641Y-89438153D02*
X127447022Y-89533391D01*
X127447022Y-89533391D02*
X127399403Y-89581010D01*
X127399403Y-89581010D02*
X127304165Y-89628629D01*
X127304165Y-89628629D02*
X126923213Y-89628629D01*
X128447022Y-90104820D02*
X127875594Y-90104820D01*
X128161308Y-90104820D02*
X128161308Y-89104820D01*
X128161308Y-89104820D02*
X128066070Y-89247677D01*
X128066070Y-89247677D02*
X127970832Y-89342915D01*
X127970832Y-89342915D02*
X127875594Y-89390534D01*
X129399403Y-90104820D02*
X128827975Y-90104820D01*
X129113689Y-90104820D02*
X129113689Y-89104820D01*
X129113689Y-89104820D02*
X129018451Y-89247677D01*
X129018451Y-89247677D02*
X128923213Y-89342915D01*
X128923213Y-89342915D02*
X128827975Y-89390534D01*
X135439524Y-93664819D02*
X135439524Y-92664819D01*
X135439524Y-92664819D02*
X135772857Y-93379104D01*
X135772857Y-93379104D02*
X136106190Y-92664819D01*
X136106190Y-92664819D02*
X136106190Y-93664819D01*
X136439524Y-92664819D02*
X137010952Y-92664819D01*
X136725238Y-93664819D02*
X136725238Y-92664819D01*
X137868095Y-93664819D02*
X137296667Y-93664819D01*
X137582381Y-93664819D02*
X137582381Y-92664819D01*
X137582381Y-92664819D02*
X137487143Y-92807676D01*
X137487143Y-92807676D02*
X137391905Y-92902914D01*
X137391905Y-92902914D02*
X137296667Y-92950533D01*
X148377142Y-98799580D02*
X148329523Y-98847200D01*
X148329523Y-98847200D02*
X148186666Y-98894819D01*
X148186666Y-98894819D02*
X148091428Y-98894819D01*
X148091428Y-98894819D02*
X147948571Y-98847200D01*
X147948571Y-98847200D02*
X147853333Y-98751961D01*
X147853333Y-98751961D02*
X147805714Y-98656723D01*
X147805714Y-98656723D02*
X147758095Y-98466247D01*
X147758095Y-98466247D02*
X147758095Y-98323390D01*
X147758095Y-98323390D02*
X147805714Y-98132914D01*
X147805714Y-98132914D02*
X147853333Y-98037676D01*
X147853333Y-98037676D02*
X147948571Y-97942438D01*
X147948571Y-97942438D02*
X148091428Y-97894819D01*
X148091428Y-97894819D02*
X148186666Y-97894819D01*
X148186666Y-97894819D02*
X148329523Y-97942438D01*
X148329523Y-97942438D02*
X148377142Y-97990057D01*
X149329523Y-98894819D02*
X148758095Y-98894819D01*
X149043809Y-98894819D02*
X149043809Y-97894819D01*
X149043809Y-97894819D02*
X148948571Y-98037676D01*
X148948571Y-98037676D02*
X148853333Y-98132914D01*
X148853333Y-98132914D02*
X148758095Y-98180533D01*
X150186666Y-98228152D02*
X150186666Y-98894819D01*
X149948571Y-97847200D02*
X149710476Y-98561485D01*
X149710476Y-98561485D02*
X150329523Y-98561485D01*
X147767887Y-108456411D02*
X147700543Y-108456411D01*
X147700543Y-108456411D02*
X147565856Y-108389067D01*
X147565856Y-108389067D02*
X147498513Y-108321724D01*
X147498513Y-108321724D02*
X147431169Y-108187037D01*
X147431169Y-108187037D02*
X147431169Y-108052350D01*
X147431169Y-108052350D02*
X147464841Y-107951335D01*
X147464841Y-107951335D02*
X147565856Y-107782976D01*
X147565856Y-107782976D02*
X147666871Y-107681961D01*
X147666871Y-107681961D02*
X147835230Y-107580945D01*
X147835230Y-107580945D02*
X147936245Y-107547274D01*
X147936245Y-107547274D02*
X148070932Y-107547274D01*
X148070932Y-107547274D02*
X148205619Y-107614617D01*
X148205619Y-107614617D02*
X148272963Y-107681961D01*
X148272963Y-107681961D02*
X148340306Y-107816648D01*
X148340306Y-107816648D02*
X148340306Y-107883991D01*
X148778039Y-108658441D02*
X148306635Y-109129846D01*
X148879054Y-108220709D02*
X148205619Y-108557426D01*
X148205619Y-108557426D02*
X148643352Y-108995159D01*
X135923333Y-99419580D02*
X135875714Y-99467200D01*
X135875714Y-99467200D02*
X135732857Y-99514819D01*
X135732857Y-99514819D02*
X135637619Y-99514819D01*
X135637619Y-99514819D02*
X135494762Y-99467200D01*
X135494762Y-99467200D02*
X135399524Y-99371961D01*
X135399524Y-99371961D02*
X135351905Y-99276723D01*
X135351905Y-99276723D02*
X135304286Y-99086247D01*
X135304286Y-99086247D02*
X135304286Y-98943390D01*
X135304286Y-98943390D02*
X135351905Y-98752914D01*
X135351905Y-98752914D02*
X135399524Y-98657676D01*
X135399524Y-98657676D02*
X135494762Y-98562438D01*
X135494762Y-98562438D02*
X135637619Y-98514819D01*
X135637619Y-98514819D02*
X135732857Y-98514819D01*
X135732857Y-98514819D02*
X135875714Y-98562438D01*
X135875714Y-98562438D02*
X135923333Y-98610057D01*
X136494762Y-98943390D02*
X136399524Y-98895771D01*
X136399524Y-98895771D02*
X136351905Y-98848152D01*
X136351905Y-98848152D02*
X136304286Y-98752914D01*
X136304286Y-98752914D02*
X136304286Y-98705295D01*
X136304286Y-98705295D02*
X136351905Y-98610057D01*
X136351905Y-98610057D02*
X136399524Y-98562438D01*
X136399524Y-98562438D02*
X136494762Y-98514819D01*
X136494762Y-98514819D02*
X136685238Y-98514819D01*
X136685238Y-98514819D02*
X136780476Y-98562438D01*
X136780476Y-98562438D02*
X136828095Y-98610057D01*
X136828095Y-98610057D02*
X136875714Y-98705295D01*
X136875714Y-98705295D02*
X136875714Y-98752914D01*
X136875714Y-98752914D02*
X136828095Y-98848152D01*
X136828095Y-98848152D02*
X136780476Y-98895771D01*
X136780476Y-98895771D02*
X136685238Y-98943390D01*
X136685238Y-98943390D02*
X136494762Y-98943390D01*
X136494762Y-98943390D02*
X136399524Y-98991009D01*
X136399524Y-98991009D02*
X136351905Y-99038628D01*
X136351905Y-99038628D02*
X136304286Y-99133866D01*
X136304286Y-99133866D02*
X136304286Y-99324342D01*
X136304286Y-99324342D02*
X136351905Y-99419580D01*
X136351905Y-99419580D02*
X136399524Y-99467200D01*
X136399524Y-99467200D02*
X136494762Y-99514819D01*
X136494762Y-99514819D02*
X136685238Y-99514819D01*
X136685238Y-99514819D02*
X136780476Y-99467200D01*
X136780476Y-99467200D02*
X136828095Y-99419580D01*
X136828095Y-99419580D02*
X136875714Y-99324342D01*
X136875714Y-99324342D02*
X136875714Y-99133866D01*
X136875714Y-99133866D02*
X136828095Y-99038628D01*
X136828095Y-99038628D02*
X136780476Y-98991009D01*
X136780476Y-98991009D02*
X136685238Y-98943390D01*
X144135873Y-103305011D02*
X143563454Y-103203996D01*
X143731812Y-103709072D02*
X143024706Y-103001965D01*
X143024706Y-103001965D02*
X143294080Y-102732591D01*
X143294080Y-102732591D02*
X143395095Y-102698919D01*
X143395095Y-102698919D02*
X143462438Y-102698919D01*
X143462438Y-102698919D02*
X143563454Y-102732591D01*
X143563454Y-102732591D02*
X143664469Y-102833606D01*
X143664469Y-102833606D02*
X143698141Y-102934622D01*
X143698141Y-102934622D02*
X143698141Y-103001965D01*
X143698141Y-103001965D02*
X143664469Y-103102980D01*
X143664469Y-103102980D02*
X143395095Y-103372354D01*
X144809308Y-102631576D02*
X144405247Y-103035637D01*
X144607278Y-102833606D02*
X143900171Y-102126500D01*
X143900171Y-102126500D02*
X143933843Y-102294858D01*
X143933843Y-102294858D02*
X143933843Y-102429545D01*
X143933843Y-102429545D02*
X143900171Y-102530561D01*
X144809309Y-101823454D02*
X144708293Y-101857125D01*
X144708293Y-101857125D02*
X144640950Y-101857125D01*
X144640950Y-101857125D02*
X144539935Y-101823454D01*
X144539935Y-101823454D02*
X144506263Y-101789782D01*
X144506263Y-101789782D02*
X144472591Y-101688767D01*
X144472591Y-101688767D02*
X144472591Y-101621423D01*
X144472591Y-101621423D02*
X144506263Y-101520408D01*
X144506263Y-101520408D02*
X144640950Y-101385721D01*
X144640950Y-101385721D02*
X144741965Y-101352049D01*
X144741965Y-101352049D02*
X144809309Y-101352049D01*
X144809309Y-101352049D02*
X144910324Y-101385721D01*
X144910324Y-101385721D02*
X144943996Y-101419393D01*
X144943996Y-101419393D02*
X144977667Y-101520408D01*
X144977667Y-101520408D02*
X144977667Y-101587751D01*
X144977667Y-101587751D02*
X144943996Y-101688767D01*
X144943996Y-101688767D02*
X144809309Y-101823454D01*
X144809309Y-101823454D02*
X144775637Y-101924469D01*
X144775637Y-101924469D02*
X144775637Y-101991812D01*
X144775637Y-101991812D02*
X144809309Y-102092828D01*
X144809309Y-102092828D02*
X144943996Y-102227515D01*
X144943996Y-102227515D02*
X145045011Y-102261186D01*
X145045011Y-102261186D02*
X145112354Y-102261186D01*
X145112354Y-102261186D02*
X145213370Y-102227515D01*
X145213370Y-102227515D02*
X145348057Y-102092828D01*
X145348057Y-102092828D02*
X145381728Y-101991812D01*
X145381728Y-101991812D02*
X145381728Y-101924469D01*
X145381728Y-101924469D02*
X145348057Y-101823454D01*
X145348057Y-101823454D02*
X145213370Y-101688767D01*
X145213370Y-101688767D02*
X145112354Y-101655095D01*
X145112354Y-101655095D02*
X145045011Y-101655095D01*
X145045011Y-101655095D02*
X144943996Y-101688767D01*
X152536411Y-88622112D02*
X152536411Y-88689456D01*
X152536411Y-88689456D02*
X152469067Y-88824143D01*
X152469067Y-88824143D02*
X152401724Y-88891486D01*
X152401724Y-88891486D02*
X152267037Y-88958830D01*
X152267037Y-88958830D02*
X152132350Y-88958830D01*
X152132350Y-88958830D02*
X152031335Y-88925158D01*
X152031335Y-88925158D02*
X151862976Y-88824143D01*
X151862976Y-88824143D02*
X151761961Y-88723128D01*
X151761961Y-88723128D02*
X151660945Y-88554769D01*
X151660945Y-88554769D02*
X151627274Y-88453754D01*
X151627274Y-88453754D02*
X151627274Y-88319067D01*
X151627274Y-88319067D02*
X151694617Y-88184380D01*
X151694617Y-88184380D02*
X151761961Y-88117036D01*
X151761961Y-88117036D02*
X151896648Y-88049693D01*
X151896648Y-88049693D02*
X151963991Y-88049693D01*
X152536411Y-87342586D02*
X152199693Y-87679303D01*
X152199693Y-87679303D02*
X152502739Y-88049693D01*
X152502739Y-88049693D02*
X152502739Y-87982349D01*
X152502739Y-87982349D02*
X152536411Y-87881334D01*
X152536411Y-87881334D02*
X152704770Y-87712975D01*
X152704770Y-87712975D02*
X152805785Y-87679303D01*
X152805785Y-87679303D02*
X152873128Y-87679303D01*
X152873128Y-87679303D02*
X152974144Y-87712975D01*
X152974144Y-87712975D02*
X153142502Y-87881334D01*
X153142502Y-87881334D02*
X153176174Y-87982349D01*
X153176174Y-87982349D02*
X153176174Y-88049693D01*
X153176174Y-88049693D02*
X153142502Y-88150708D01*
X153142502Y-88150708D02*
X152974144Y-88319067D01*
X152974144Y-88319067D02*
X152873128Y-88352738D01*
X152873128Y-88352738D02*
X152805785Y-88352738D01*
X174148095Y-101854819D02*
X174148095Y-100854819D01*
X174148095Y-101331009D02*
X174719523Y-101331009D01*
X174719523Y-101854819D02*
X174719523Y-100854819D01*
X175624285Y-101188152D02*
X175624285Y-101854819D01*
X175386190Y-100807200D02*
X175148095Y-101521485D01*
X175148095Y-101521485D02*
X175767142Y-101521485D01*
X153166666Y-86304819D02*
X152833333Y-85828628D01*
X152595238Y-86304819D02*
X152595238Y-85304819D01*
X152595238Y-85304819D02*
X152976190Y-85304819D01*
X152976190Y-85304819D02*
X153071428Y-85352438D01*
X153071428Y-85352438D02*
X153119047Y-85400057D01*
X153119047Y-85400057D02*
X153166666Y-85495295D01*
X153166666Y-85495295D02*
X153166666Y-85638152D01*
X153166666Y-85638152D02*
X153119047Y-85733390D01*
X153119047Y-85733390D02*
X153071428Y-85781009D01*
X153071428Y-85781009D02*
X152976190Y-85828628D01*
X152976190Y-85828628D02*
X152595238Y-85828628D01*
X153595238Y-85781009D02*
X153928571Y-85781009D01*
X154071428Y-86304819D02*
X153595238Y-86304819D01*
X153595238Y-86304819D02*
X153595238Y-85304819D01*
X153595238Y-85304819D02*
X154071428Y-85304819D01*
X154833333Y-85781009D02*
X154500000Y-85781009D01*
X154500000Y-86304819D02*
X154500000Y-85304819D01*
X154500000Y-85304819D02*
X154976190Y-85304819D01*
X155500000Y-85304819D02*
X155500000Y-85542914D01*
X155261905Y-85447676D02*
X155500000Y-85542914D01*
X155500000Y-85542914D02*
X155738095Y-85447676D01*
X155357143Y-85733390D02*
X155500000Y-85542914D01*
X155500000Y-85542914D02*
X155642857Y-85733390D01*
X156261905Y-85304819D02*
X156261905Y-85542914D01*
X156023810Y-85447676D02*
X156261905Y-85542914D01*
X156261905Y-85542914D02*
X156500000Y-85447676D01*
X156119048Y-85733390D02*
X156261905Y-85542914D01*
X156261905Y-85542914D02*
X156404762Y-85733390D01*
X128570833Y-99389580D02*
X128523214Y-99437200D01*
X128523214Y-99437200D02*
X128380357Y-99484819D01*
X128380357Y-99484819D02*
X128285119Y-99484819D01*
X128285119Y-99484819D02*
X128142262Y-99437200D01*
X128142262Y-99437200D02*
X128047024Y-99341961D01*
X128047024Y-99341961D02*
X127999405Y-99246723D01*
X127999405Y-99246723D02*
X127951786Y-99056247D01*
X127951786Y-99056247D02*
X127951786Y-98913390D01*
X127951786Y-98913390D02*
X127999405Y-98722914D01*
X127999405Y-98722914D02*
X128047024Y-98627676D01*
X128047024Y-98627676D02*
X128142262Y-98532438D01*
X128142262Y-98532438D02*
X128285119Y-98484819D01*
X128285119Y-98484819D02*
X128380357Y-98484819D01*
X128380357Y-98484819D02*
X128523214Y-98532438D01*
X128523214Y-98532438D02*
X128570833Y-98580057D01*
X129523214Y-99484819D02*
X128951786Y-99484819D01*
X129237500Y-99484819D02*
X129237500Y-98484819D01*
X129237500Y-98484819D02*
X129142262Y-98627676D01*
X129142262Y-98627676D02*
X129047024Y-98722914D01*
X129047024Y-98722914D02*
X128951786Y-98770533D01*
X132407142Y-99349580D02*
X132359523Y-99397200D01*
X132359523Y-99397200D02*
X132216666Y-99444819D01*
X132216666Y-99444819D02*
X132121428Y-99444819D01*
X132121428Y-99444819D02*
X131978571Y-99397200D01*
X131978571Y-99397200D02*
X131883333Y-99301961D01*
X131883333Y-99301961D02*
X131835714Y-99206723D01*
X131835714Y-99206723D02*
X131788095Y-99016247D01*
X131788095Y-99016247D02*
X131788095Y-98873390D01*
X131788095Y-98873390D02*
X131835714Y-98682914D01*
X131835714Y-98682914D02*
X131883333Y-98587676D01*
X131883333Y-98587676D02*
X131978571Y-98492438D01*
X131978571Y-98492438D02*
X132121428Y-98444819D01*
X132121428Y-98444819D02*
X132216666Y-98444819D01*
X132216666Y-98444819D02*
X132359523Y-98492438D01*
X132359523Y-98492438D02*
X132407142Y-98540057D01*
X133359523Y-99444819D02*
X132788095Y-99444819D01*
X133073809Y-99444819D02*
X133073809Y-98444819D01*
X133073809Y-98444819D02*
X132978571Y-98587676D01*
X132978571Y-98587676D02*
X132883333Y-98682914D01*
X132883333Y-98682914D02*
X132788095Y-98730533D01*
X133978571Y-98444819D02*
X134073809Y-98444819D01*
X134073809Y-98444819D02*
X134169047Y-98492438D01*
X134169047Y-98492438D02*
X134216666Y-98540057D01*
X134216666Y-98540057D02*
X134264285Y-98635295D01*
X134264285Y-98635295D02*
X134311904Y-98825771D01*
X134311904Y-98825771D02*
X134311904Y-99063866D01*
X134311904Y-99063866D02*
X134264285Y-99254342D01*
X134264285Y-99254342D02*
X134216666Y-99349580D01*
X134216666Y-99349580D02*
X134169047Y-99397200D01*
X134169047Y-99397200D02*
X134073809Y-99444819D01*
X134073809Y-99444819D02*
X133978571Y-99444819D01*
X133978571Y-99444819D02*
X133883333Y-99397200D01*
X133883333Y-99397200D02*
X133835714Y-99349580D01*
X133835714Y-99349580D02*
X133788095Y-99254342D01*
X133788095Y-99254342D02*
X133740476Y-99063866D01*
X133740476Y-99063866D02*
X133740476Y-98825771D01*
X133740476Y-98825771D02*
X133788095Y-98635295D01*
X133788095Y-98635295D02*
X133835714Y-98540057D01*
X133835714Y-98540057D02*
X133883333Y-98492438D01*
X133883333Y-98492438D02*
X133978571Y-98444819D01*
X121380749Y-103281634D02*
X121481764Y-102709215D01*
X120976688Y-102877573D02*
X121683795Y-102170467D01*
X121683795Y-102170467D02*
X121953169Y-102439841D01*
X121953169Y-102439841D02*
X121986841Y-102540856D01*
X121986841Y-102540856D02*
X121986841Y-102608199D01*
X121986841Y-102608199D02*
X121953169Y-102709215D01*
X121953169Y-102709215D02*
X121852154Y-102810230D01*
X121852154Y-102810230D02*
X121751138Y-102843902D01*
X121751138Y-102843902D02*
X121683795Y-102843902D01*
X121683795Y-102843902D02*
X121582780Y-102810230D01*
X121582780Y-102810230D02*
X121313406Y-102540856D01*
X122289886Y-102911245D02*
X122357230Y-102911245D01*
X122357230Y-102911245D02*
X122458245Y-102944917D01*
X122458245Y-102944917D02*
X122626604Y-103113276D01*
X122626604Y-103113276D02*
X122660276Y-103214291D01*
X122660276Y-103214291D02*
X122660276Y-103281634D01*
X122660276Y-103281634D02*
X122626604Y-103382650D01*
X122626604Y-103382650D02*
X122559260Y-103449993D01*
X122559260Y-103449993D02*
X122424573Y-103517337D01*
X122424573Y-103517337D02*
X121616451Y-103517337D01*
X121616451Y-103517337D02*
X122054184Y-103955069D01*
X122727619Y-104628505D02*
X122323558Y-104224444D01*
X122525589Y-104426474D02*
X123232696Y-103719367D01*
X123232696Y-103719367D02*
X123064337Y-103753039D01*
X123064337Y-103753039D02*
X122929650Y-103753039D01*
X122929650Y-103753039D02*
X122828635Y-103719367D01*
X143852837Y-87123283D02*
X143819165Y-87022268D01*
X143819165Y-87022268D02*
X143819165Y-86887581D01*
X143819165Y-86887581D02*
X143819165Y-86685550D01*
X143819165Y-86685550D02*
X143785493Y-86584535D01*
X143785493Y-86584535D02*
X143718150Y-86517192D01*
X143583463Y-86719222D02*
X143549791Y-86618207D01*
X143549791Y-86618207D02*
X143549791Y-86483520D01*
X143549791Y-86483520D02*
X143650806Y-86315161D01*
X143650806Y-86315161D02*
X143886509Y-86079459D01*
X143886509Y-86079459D02*
X144054867Y-85978444D01*
X144054867Y-85978444D02*
X144189554Y-85978444D01*
X144189554Y-85978444D02*
X144290570Y-86012115D01*
X144290570Y-86012115D02*
X144425257Y-86146802D01*
X144425257Y-86146802D02*
X144458928Y-86247818D01*
X144458928Y-86247818D02*
X144458928Y-86382505D01*
X144458928Y-86382505D02*
X144357913Y-86550863D01*
X144357913Y-86550863D02*
X144122211Y-86786566D01*
X144122211Y-86786566D02*
X143953852Y-86887581D01*
X143953852Y-86887581D02*
X143819165Y-86887581D01*
X143819165Y-86887581D02*
X143718150Y-86853909D01*
X143718150Y-86853909D02*
X143583463Y-86719222D01*
X144829318Y-86550863D02*
X145267050Y-86988596D01*
X145267050Y-86988596D02*
X144761974Y-87022268D01*
X144761974Y-87022268D02*
X144862989Y-87123283D01*
X144862989Y-87123283D02*
X144896661Y-87224298D01*
X144896661Y-87224298D02*
X144896661Y-87291642D01*
X144896661Y-87291642D02*
X144862989Y-87392657D01*
X144862989Y-87392657D02*
X144694631Y-87561016D01*
X144694631Y-87561016D02*
X144593615Y-87594688D01*
X144593615Y-87594688D02*
X144526272Y-87594688D01*
X144526272Y-87594688D02*
X144425257Y-87561016D01*
X144425257Y-87561016D02*
X144223226Y-87358985D01*
X144223226Y-87358985D02*
X144189554Y-87257970D01*
X144189554Y-87257970D02*
X144189554Y-87190627D01*
X127274819Y-90817856D02*
X126798628Y-91151189D01*
X127274819Y-91389284D02*
X126274819Y-91389284D01*
X126274819Y-91389284D02*
X126274819Y-91008332D01*
X126274819Y-91008332D02*
X126322438Y-90913094D01*
X126322438Y-90913094D02*
X126370057Y-90865475D01*
X126370057Y-90865475D02*
X126465295Y-90817856D01*
X126465295Y-90817856D02*
X126608152Y-90817856D01*
X126608152Y-90817856D02*
X126703390Y-90865475D01*
X126703390Y-90865475D02*
X126751009Y-90913094D01*
X126751009Y-90913094D02*
X126798628Y-91008332D01*
X126798628Y-91008332D02*
X126798628Y-91389284D01*
X127274819Y-89865475D02*
X127274819Y-90436903D01*
X127274819Y-90151189D02*
X126274819Y-90151189D01*
X126274819Y-90151189D02*
X126417676Y-90246427D01*
X126417676Y-90246427D02*
X126512914Y-90341665D01*
X126512914Y-90341665D02*
X126560533Y-90436903D01*
X126274819Y-89008332D02*
X126274819Y-89198808D01*
X126274819Y-89198808D02*
X126322438Y-89294046D01*
X126322438Y-89294046D02*
X126370057Y-89341665D01*
X126370057Y-89341665D02*
X126512914Y-89436903D01*
X126512914Y-89436903D02*
X126703390Y-89484522D01*
X126703390Y-89484522D02*
X127084342Y-89484522D01*
X127084342Y-89484522D02*
X127179580Y-89436903D01*
X127179580Y-89436903D02*
X127227200Y-89389284D01*
X127227200Y-89389284D02*
X127274819Y-89294046D01*
X127274819Y-89294046D02*
X127274819Y-89103570D01*
X127274819Y-89103570D02*
X127227200Y-89008332D01*
X127227200Y-89008332D02*
X127179580Y-88960713D01*
X127179580Y-88960713D02*
X127084342Y-88913094D01*
X127084342Y-88913094D02*
X126846247Y-88913094D01*
X126846247Y-88913094D02*
X126751009Y-88960713D01*
X126751009Y-88960713D02*
X126703390Y-89008332D01*
X126703390Y-89008332D02*
X126655771Y-89103570D01*
X126655771Y-89103570D02*
X126655771Y-89294046D01*
X126655771Y-89294046D02*
X126703390Y-89389284D01*
X126703390Y-89389284D02*
X126751009Y-89436903D01*
X126751009Y-89436903D02*
X126846247Y-89484522D01*
X147039663Y-101002699D02*
X146938648Y-101036371D01*
X146938648Y-101036371D02*
X146803961Y-101036371D01*
X146803961Y-101036371D02*
X146601930Y-101036371D01*
X146601930Y-101036371D02*
X146500915Y-101070043D01*
X146500915Y-101070043D02*
X146433572Y-101137386D01*
X146635602Y-101272073D02*
X146534587Y-101305745D01*
X146534587Y-101305745D02*
X146399900Y-101305745D01*
X146399900Y-101305745D02*
X146231541Y-101204730D01*
X146231541Y-101204730D02*
X145995839Y-100969027D01*
X145995839Y-100969027D02*
X145894824Y-100800669D01*
X145894824Y-100800669D02*
X145894824Y-100665982D01*
X145894824Y-100665982D02*
X145928495Y-100564966D01*
X145928495Y-100564966D02*
X146063182Y-100430279D01*
X146063182Y-100430279D02*
X146164198Y-100396608D01*
X146164198Y-100396608D02*
X146298885Y-100396608D01*
X146298885Y-100396608D02*
X146467243Y-100497623D01*
X146467243Y-100497623D02*
X146702946Y-100733325D01*
X146702946Y-100733325D02*
X146803961Y-100901684D01*
X146803961Y-100901684D02*
X146803961Y-101036371D01*
X146803961Y-101036371D02*
X146770289Y-101137386D01*
X146770289Y-101137386D02*
X146635602Y-101272073D01*
X147612083Y-100295592D02*
X147208022Y-100699653D01*
X147410052Y-100497623D02*
X146702946Y-99790516D01*
X146702946Y-99790516D02*
X146736617Y-99958875D01*
X146736617Y-99958875D02*
X146736617Y-100093562D01*
X146736617Y-100093562D02*
X146702946Y-100194577D01*
X143249580Y-99922857D02*
X143297200Y-99970476D01*
X143297200Y-99970476D02*
X143344819Y-100113333D01*
X143344819Y-100113333D02*
X143344819Y-100208571D01*
X143344819Y-100208571D02*
X143297200Y-100351428D01*
X143297200Y-100351428D02*
X143201961Y-100446666D01*
X143201961Y-100446666D02*
X143106723Y-100494285D01*
X143106723Y-100494285D02*
X142916247Y-100541904D01*
X142916247Y-100541904D02*
X142773390Y-100541904D01*
X142773390Y-100541904D02*
X142582914Y-100494285D01*
X142582914Y-100494285D02*
X142487676Y-100446666D01*
X142487676Y-100446666D02*
X142392438Y-100351428D01*
X142392438Y-100351428D02*
X142344819Y-100208571D01*
X142344819Y-100208571D02*
X142344819Y-100113333D01*
X142344819Y-100113333D02*
X142392438Y-99970476D01*
X142392438Y-99970476D02*
X142440057Y-99922857D01*
X143344819Y-98970476D02*
X143344819Y-99541904D01*
X143344819Y-99256190D02*
X142344819Y-99256190D01*
X142344819Y-99256190D02*
X142487676Y-99351428D01*
X142487676Y-99351428D02*
X142582914Y-99446666D01*
X142582914Y-99446666D02*
X142630533Y-99541904D01*
X142344819Y-98113333D02*
X142344819Y-98303809D01*
X142344819Y-98303809D02*
X142392438Y-98399047D01*
X142392438Y-98399047D02*
X142440057Y-98446666D01*
X142440057Y-98446666D02*
X142582914Y-98541904D01*
X142582914Y-98541904D02*
X142773390Y-98589523D01*
X142773390Y-98589523D02*
X143154342Y-98589523D01*
X143154342Y-98589523D02*
X143249580Y-98541904D01*
X143249580Y-98541904D02*
X143297200Y-98494285D01*
X143297200Y-98494285D02*
X143344819Y-98399047D01*
X143344819Y-98399047D02*
X143344819Y-98208571D01*
X143344819Y-98208571D02*
X143297200Y-98113333D01*
X143297200Y-98113333D02*
X143249580Y-98065714D01*
X143249580Y-98065714D02*
X143154342Y-98018095D01*
X143154342Y-98018095D02*
X142916247Y-98018095D01*
X142916247Y-98018095D02*
X142821009Y-98065714D01*
X142821009Y-98065714D02*
X142773390Y-98113333D01*
X142773390Y-98113333D02*
X142725771Y-98208571D01*
X142725771Y-98208571D02*
X142725771Y-98399047D01*
X142725771Y-98399047D02*
X142773390Y-98494285D01*
X142773390Y-98494285D02*
X142821009Y-98541904D01*
X142821009Y-98541904D02*
X142916247Y-98589523D01*
X147378199Y-106637337D02*
X146805780Y-106536322D01*
X146974138Y-107041398D02*
X146267032Y-106334291D01*
X146267032Y-106334291D02*
X146536406Y-106064917D01*
X146536406Y-106064917D02*
X146637421Y-106031245D01*
X146637421Y-106031245D02*
X146704764Y-106031245D01*
X146704764Y-106031245D02*
X146805780Y-106064917D01*
X146805780Y-106064917D02*
X146906795Y-106165932D01*
X146906795Y-106165932D02*
X146940467Y-106266948D01*
X146940467Y-106266948D02*
X146940467Y-106334291D01*
X146940467Y-106334291D02*
X146906795Y-106435306D01*
X146906795Y-106435306D02*
X146637421Y-106704680D01*
X147007810Y-105728200D02*
X147007810Y-105660856D01*
X147007810Y-105660856D02*
X147041482Y-105559841D01*
X147041482Y-105559841D02*
X147209841Y-105391482D01*
X147209841Y-105391482D02*
X147310856Y-105357810D01*
X147310856Y-105357810D02*
X147378199Y-105357810D01*
X147378199Y-105357810D02*
X147479215Y-105391482D01*
X147479215Y-105391482D02*
X147546558Y-105458826D01*
X147546558Y-105458826D02*
X147613902Y-105593513D01*
X147613902Y-105593513D02*
X147613902Y-106401635D01*
X147613902Y-106401635D02*
X148051634Y-105963902D01*
X148186322Y-104886406D02*
X148657726Y-105357810D01*
X147748589Y-104785390D02*
X148085306Y-105458825D01*
X148085306Y-105458825D02*
X148523039Y-105021093D01*
%TO.C,R1*%
D11*
X144837500Y-82637258D02*
X144837500Y-82162742D01*
X145882500Y-82637258D02*
X145882500Y-82162742D01*
%TO.C,R23*%
X148924369Y-89869346D02*
X149284603Y-90229580D01*
X149663295Y-89130420D02*
X150023529Y-89490654D01*
%TO.C,R7*%
X132260276Y-89167500D02*
X132769724Y-89167500D01*
X132260276Y-90212500D02*
X132769724Y-90212500D01*
%TO.C,R26*%
X120673684Y-86138311D02*
X121033918Y-85778077D01*
X121412610Y-86877237D02*
X121772844Y-86517003D01*
%TO.C,Q4*%
X117231308Y-101923978D02*
X117938415Y-101216872D01*
X118306111Y-102998781D02*
X117231308Y-101923978D01*
X118341466Y-102963425D02*
X118306111Y-102998781D01*
X118730375Y-100424912D02*
X119437481Y-99717805D01*
X119437481Y-99717805D02*
X120512284Y-100792608D01*
X119684969Y-101619923D02*
X119133426Y-102171466D01*
X120512284Y-100792608D02*
X120476928Y-100827963D01*
X119925385Y-102482593D02*
X119522334Y-102546232D01*
X119585974Y-102143182D01*
X119925385Y-102482593D01*
G36*
X119925385Y-102482593D02*
G01*
X119522334Y-102546232D01*
X119585974Y-102143182D01*
X119925385Y-102482593D01*
G37*
%TO.C,SW1*%
X145050000Y-77650001D02*
X145050000Y-78440000D01*
X147100000Y-79490000D02*
X146900000Y-79490000D01*
X150100000Y-79490000D02*
X148400000Y-79490000D01*
X151350000Y-76640000D02*
X145650000Y-76640000D01*
X151950000Y-78440000D02*
X151950000Y-77650001D01*
%TO.C,R22*%
X122262329Y-103711255D02*
X121902095Y-103351021D01*
X123001255Y-102972329D02*
X122641021Y-102612095D01*
%TO.C,D3*%
D12*
X116357598Y-87734835D02*
X117812400Y-86280033D01*
X116680888Y-85148521D02*
X115226086Y-86603323D01*
%TO.C,C29*%
D11*
X127823733Y-88900000D02*
X128116267Y-88900000D01*
X127823733Y-89920000D02*
X128116267Y-89920000D01*
%TO.C,R25*%
X122221114Y-86980880D02*
X121860880Y-87341114D01*
X122960040Y-87719806D02*
X122599806Y-88080040D01*
%TO.C,R12*%
X121447500Y-78495276D02*
X121447500Y-79004724D01*
X122492500Y-78495276D02*
X122492500Y-79004724D01*
%TO.C,D1*%
D12*
X150848355Y-106003157D02*
X152303157Y-104548355D01*
X151171645Y-103416843D02*
X149716843Y-104871645D01*
%TO.C,R6*%
D11*
X136184724Y-89162500D02*
X135675276Y-89162500D01*
X136184724Y-90207500D02*
X135675276Y-90207500D01*
%TO.C,Q2*%
X116686837Y-88411414D02*
X117761640Y-87336611D01*
X117393944Y-89118520D02*
X116686837Y-88411414D01*
X117761640Y-87336611D02*
X117796995Y-87371967D01*
X118588955Y-88163926D02*
X119140498Y-88715469D01*
X118893010Y-90617587D02*
X118185904Y-89910480D01*
X119932457Y-89507429D02*
X119967813Y-89542784D01*
X119967813Y-89542784D02*
X118893010Y-90617587D01*
X119515264Y-88326561D02*
X119112214Y-88262921D01*
X119451625Y-87923510D01*
X119515264Y-88326561D01*
G36*
X119515264Y-88326561D02*
G01*
X119112214Y-88262921D01*
X119451625Y-87923510D01*
X119515264Y-88326561D01*
G37*
%TO.C,C7*%
X125760000Y-95196267D02*
X125760000Y-94903733D01*
X126780000Y-95196267D02*
X126780000Y-94903733D01*
%TO.C,C18*%
X113480000Y-78623733D02*
X113480000Y-78916267D01*
X114500000Y-78623733D02*
X114500000Y-78916267D01*
%TO.C,U1*%
D13*
X145115000Y-93880000D02*
X145115000Y-93980000D01*
X145115000Y-93880000D02*
X146815000Y-93880000D01*
X145115000Y-96980000D02*
X145115000Y-96880000D01*
X145115000Y-96980000D02*
X146815000Y-96980000D01*
X146815000Y-93880000D02*
X146815000Y-93980000D01*
X146815000Y-96980000D02*
X146815000Y-96880000D01*
D14*
X147565000Y-97430000D02*
G75*
G02*
X147365000Y-97430000I-100000J0D01*
G01*
X147365000Y-97430000D02*
G75*
G02*
X147565000Y-97430000I100000J0D01*
G01*
%TO.C,C2*%
D11*
X124770000Y-78843767D02*
X124770000Y-78551233D01*
X125790000Y-78843767D02*
X125790000Y-78551233D01*
%TO.C,D4*%
D12*
X147660792Y-84798355D02*
X149115594Y-86253157D01*
X150247106Y-85121645D02*
X148792304Y-83666843D01*
%TO.C,C6*%
D11*
X119365879Y-106518786D02*
X119159026Y-106725639D01*
X120087128Y-107240035D02*
X119880275Y-107446888D01*
%TO.C,R20*%
X147954603Y-91459580D02*
X147594369Y-91099346D01*
X148693529Y-90720654D02*
X148333295Y-90360420D01*
%TO.C,D2*%
D12*
X115910557Y-104732069D02*
X117365359Y-106186871D01*
X118496871Y-105055359D02*
X117042069Y-103600557D01*
%TO.C,C3*%
D11*
X119061288Y-85006486D02*
X118854435Y-84799633D01*
X119782537Y-84285237D02*
X119575684Y-84078384D01*
%TO.C,SW2*%
X115745000Y-78185000D02*
X115745000Y-79325000D01*
X115745000Y-80335000D02*
X115745001Y-80455000D01*
X115745001Y-77055000D02*
X115745000Y-77175000D01*
X115745001Y-80455000D02*
X120144999Y-80455000D01*
X120144999Y-77055000D02*
X115745001Y-77055000D01*
X120144999Y-80455000D02*
X120145000Y-80335000D01*
X120145000Y-77175000D02*
X120144999Y-77055000D01*
X120145000Y-79325000D02*
X120145000Y-78185000D01*
%TO.C,R2*%
X124112742Y-81017500D02*
X124587258Y-81017500D01*
X124112742Y-82062500D02*
X124587258Y-82062500D01*
%TO.C,C15*%
X139565000Y-93070000D02*
X139565000Y-97165000D01*
X139565000Y-97165000D02*
X141475000Y-97165000D01*
X141475000Y-97165000D02*
X141475000Y-93070000D01*
%TO.C,C9*%
X137550000Y-95743733D02*
X137550000Y-96036267D01*
X138570000Y-95743733D02*
X138570000Y-96036267D01*
%TO.C,U2*%
D12*
X127229401Y-93419401D02*
X127229401Y-96670601D01*
X127229401Y-96670601D02*
X130480601Y-96670601D01*
X130480601Y-93419401D02*
X127229401Y-93419401D01*
X130480601Y-96670601D02*
X130480601Y-93419401D01*
X127431201Y-93045001D02*
G75*
G02*
X127278801Y-93045001I-76200J0D01*
G01*
X127278801Y-93045001D02*
G75*
G02*
X127431201Y-93045001I76200J0D01*
G01*
%TO.C,R11*%
D11*
X127882775Y-90557501D02*
X128392223Y-90557501D01*
X127882775Y-91602501D02*
X128392223Y-91602501D01*
%TO.C,MT1*%
D13*
X132007499Y-92630000D02*
X132562500Y-92630000D01*
X132007499Y-92685000D02*
X132007499Y-92630000D01*
X132007499Y-95130000D02*
X132007499Y-95075000D01*
X132562500Y-95130000D02*
X132007499Y-95130000D01*
X134452498Y-92630000D02*
X135007499Y-92630000D01*
X135007499Y-92630000D02*
X135007499Y-92685000D01*
X135007499Y-95130000D02*
X134452498Y-95130000D01*
X135007499Y-95130000D02*
X135007499Y-95075000D01*
D14*
X131607499Y-93129999D02*
G75*
G02*
X131407499Y-93129999I-100000J0D01*
G01*
X131407499Y-93129999D02*
G75*
G02*
X131607499Y-93129999I100000J0D01*
G01*
%TO.C,C14*%
D11*
X148580000Y-96086267D02*
X148580000Y-95793733D01*
X149600000Y-96086267D02*
X149600000Y-95793733D01*
%TO.C,C4*%
X148087463Y-106885684D02*
X148294316Y-107092537D01*
X148808712Y-106164435D02*
X149015565Y-106371288D01*
%TO.C,C8*%
X135740000Y-95673733D02*
X135740000Y-95966267D01*
X136760000Y-95673733D02*
X136760000Y-95966267D01*
%TO.C,J1*%
X141395000Y-81495001D02*
X141395000Y-78620001D01*
X141454435Y-81495001D02*
X141395000Y-81495001D01*
X141729970Y-78620002D02*
X141395000Y-78620001D01*
X142885000Y-78620001D02*
X142550030Y-78620002D01*
X142885000Y-81495001D02*
X142825565Y-81495001D01*
X142885000Y-81495001D02*
X142885000Y-78620001D01*
X142885000Y-82965001D02*
X142140000Y-82965000D01*
X142885001Y-82230001D02*
X142885000Y-82965001D01*
%TO.C,R18*%
X144730420Y-103350654D02*
X145090654Y-102990420D01*
X145469346Y-104089580D02*
X145829580Y-103729346D01*
%TO.C,U7*%
D14*
X125710000Y-76600000D02*
G75*
G02*
X125510000Y-76600000I-100000J0D01*
G01*
X125510000Y-76600000D02*
G75*
G02*
X125710000Y-76600000I100000J0D01*
G01*
%TO.C,C5*%
D11*
X150439898Y-87322802D02*
X150646751Y-87115949D01*
X151161147Y-88044051D02*
X151368000Y-87837198D01*
%TO.C,C1*%
X128883767Y-97090000D02*
X128591233Y-97090000D01*
X128883767Y-98110000D02*
X128591233Y-98110000D01*
%TO.C,C10*%
X133141233Y-95900000D02*
X133433767Y-95900000D01*
X133141233Y-96920000D02*
X133433767Y-96920000D01*
%TO.C,R21*%
X120596181Y-104615107D02*
X120956415Y-104975341D01*
X121335107Y-103876181D02*
X121695341Y-104236415D01*
%TO.C,Q3*%
X144992300Y-87661021D02*
X145699407Y-86953915D01*
X146067103Y-88735824D02*
X144992300Y-87661021D01*
X146102458Y-88700468D02*
X146067103Y-88735824D01*
X146491367Y-86161955D02*
X147198473Y-85454848D01*
X147198473Y-85454848D02*
X148273276Y-86529651D01*
X147445961Y-87356966D02*
X146894418Y-87908509D01*
X148273276Y-86529651D02*
X148237920Y-86565006D01*
X147686377Y-88219636D02*
X147283326Y-88283275D01*
X147346966Y-87880225D01*
X147686377Y-88219636D01*
G36*
X147686377Y-88219636D02*
G01*
X147283326Y-88283275D01*
X147346966Y-87880225D01*
X147686377Y-88219636D01*
G37*
%TO.C,R16*%
X124867500Y-89920275D02*
X124867500Y-90429723D01*
X125912500Y-89920275D02*
X125912500Y-90429723D01*
%TO.C,Q1*%
X147220673Y-101179651D02*
X148295476Y-100104848D01*
X147256029Y-101215006D02*
X147220673Y-101179651D01*
X148295476Y-100104848D02*
X149002582Y-100811955D01*
X148599531Y-102558509D02*
X148047988Y-102006966D01*
X149426846Y-103385824D02*
X149391491Y-103350468D01*
X149794542Y-101603915D02*
X150501649Y-102311021D01*
X150501649Y-102311021D02*
X149426846Y-103385824D01*
X148076272Y-102459514D02*
X147736861Y-102798925D01*
X147673222Y-102395874D01*
X148076272Y-102459514D01*
G36*
X148076272Y-102459514D02*
G01*
X147736861Y-102798925D01*
X147673222Y-102395874D01*
X148076272Y-102459514D01*
G37*
%TO.C,C16*%
X142200000Y-95526267D02*
X142200000Y-95233733D01*
X143220000Y-95526267D02*
X143220000Y-95233733D01*
%TO.C,R24*%
X146310654Y-104300420D02*
X145950420Y-104660654D01*
X147049580Y-105039346D02*
X146689346Y-105399580D01*
%TD*%
M02*
