M48
; DRILL file KiCad 10.0.0 date 2026-04-21T22:53:30
; FORMAT={-:-/ absolute / metric / decimal}
; #@! TF.CreationDate,2026-04-21T22:53:30+03:00
; #@! TF.GenerationSoftware,Kicad,Pcbnew,10.0.0
; #@! TF.FileFunction,Plated,1,4,PTH
FMAT,2
METRIC
; #@! TA.AperFunction,Plated,PTH,ViaDrill
T1C0.330
; #@! TA.AperFunction,Plated,PTH,ComponentDrill
T2C0.400
; #@! TA.AperFunction,Plated,PTH,ComponentDrill
T3C0.500
; #@! TA.AperFunction,Plated,PTH,ComponentDrill
T4C0.700
; #@! TA.AperFunction,Plated,PTH,ComponentDrill
T5C0.750
; #@! TA.AperFunction,Plated,PTH,ComponentDrill
T6C2.200
%
G90
G05
T1
X112.0Y-81.4
X112.3Y-80.32
X112.32Y-78.94
X113.43Y-95.41
X113.82Y-92.65
X114.2Y-97.59
X114.83Y-100.44
X115.18Y-90.79
X115.52Y-93.8
X115.6Y-95.31
X116.52Y-106.71
X116.58Y-84.43
X117.16Y-92.69
X117.39Y-96.82
X117.44Y-94.56
X117.87Y-76.75
X118.1Y-78.98
X118.35Y-103.81
X118.99Y-91.77
X119.213Y-104.493
X119.25Y-86.57
X119.57Y-93.89
X119.81Y-81.39
X120.4Y-99.81
X120.42Y-97.86
X121.0Y-84.49
X121.19Y-89.57
X121.343Y-100.853
X121.717Y-99.473
X121.763Y-106.583
X121.78Y-95.48
X121.998Y-84.422
X122.45Y-91.11
X122.85Y-92.97
X123.64Y-78.98
X123.68Y-77.91
X123.75Y-91.99
X124.03Y-89.28
X124.53Y-98.3
X124.85Y-94.63
X124.93Y-76.746
X125.14Y-82.87
X128.13Y-95.1
X128.54Y-92.76
X128.69Y-78.06
X128.72Y-85.11
X129.23Y-95.07
X129.58Y-78.0
X129.89Y-88.3
X129.9Y-85.18
X129.97Y-89.65
X130.24Y-90.46
X130.53Y-78.03
X130.97Y-83.89
X131.18Y-79.81
X131.25Y-97.81
X131.26Y-92.5
X131.35Y-78.0
X131.35Y-93.69
X132.3Y-78.03
X132.4Y-88.25
X133.13Y-81.76
X133.15Y-79.81
X133.19Y-77.97
X133.84Y-91.06
X134.14Y-78.0
X134.26Y-97.76
X135.05Y-78.0
X135.09Y-81.77
X135.09Y-83.66
X135.13Y-79.81
X135.78Y-93.19
X135.83Y-97.92
X136.0Y-78.03
X136.77Y-97.96
X136.84Y-91.13
X136.89Y-77.97
X136.92Y-93.11
X137.16Y-79.52
X137.24Y-85.13
X137.57Y-98.0
X137.84Y-78.0
X138.17Y-92.81
X139.29Y-88.47
X140.46Y-91.23
X140.66Y-83.25
X140.69Y-76.9
X140.72Y-82.26
X141.06Y-91.7
X141.45Y-97.75
X141.99Y-76.93
X142.31Y-97.51
X143.14Y-76.87
X143.32Y-102.94
X143.37Y-93.3
X143.65Y-79.44
X143.78Y-87.35
X143.86Y-81.4
X143.92Y-80.45
X144.53Y-91.09
X144.61Y-88.38
X145.29Y-99.47
X145.93Y-95.4
X146.77Y-106.5
X147.01Y-82.59
X147.21Y-99.07
X147.58Y-81.48
X147.67Y-93.32
X148.53Y-77.34
X148.76Y-104.78
X149.25Y-93.33
X149.32Y-79.91
X149.49Y-87.28
X150.36Y-91.79
X151.25Y-84.86
X153.84Y-93.14
X154.14Y-79.35
X154.34Y-94.9
X154.37Y-93.97
X154.92Y-78.47
X155.14Y-81.62
T2
X173.2Y-87.0
X173.26Y-92.65
X173.26Y-98.6
X173.26Y-104.55
X173.683Y-85.833
X173.683Y-88.167
X173.743Y-91.483
X173.743Y-93.817
X173.743Y-97.433
X173.743Y-99.767
X173.743Y-103.383
X173.743Y-105.717
X174.85Y-85.35
X174.85Y-88.65
X174.91Y-91.0
X174.91Y-94.3
X174.91Y-96.95
X174.91Y-100.25
X174.91Y-102.9
X174.91Y-106.2
X176.017Y-85.833
X176.017Y-88.167
X176.077Y-91.483
X176.077Y-93.817
X176.077Y-97.433
X176.077Y-99.767
X176.077Y-103.383
X176.077Y-105.717
X176.5Y-87.0
X176.56Y-92.65
X176.56Y-98.6
X176.56Y-104.55
T3
X142.14Y-79.23
X142.14Y-80.23
X142.14Y-81.23
X142.14Y-82.23
T4
X114.164Y-84.316
X114.504Y-106.964
X115.96Y-82.52
X116.3Y-108.76
X151.522Y-108.771
X151.612Y-82.912
X153.318Y-106.975
X153.408Y-84.708
T5
X152.55Y-94.62
X152.55Y-96.62
T6
X174.85Y-87.0
X174.91Y-92.65
X174.91Y-98.6
X174.91Y-104.55
M30
