%TF.GenerationSoftware,KiCad,Pcbnew,10.0.0*%
%TF.CreationDate,2026-04-21T22:51:41+03:00*%
%TF.ProjectId,Dobule shawarma PCB,446f6275-6c65-4207-9368-617761726d61,rev?*%
%TF.SameCoordinates,Original*%
%TF.FileFunction,Paste,Top*%
%TF.FilePolarity,Positive*%
%FSLAX46Y46*%
G04 Gerber Fmt 4.6, Leading zero omitted, Abs format (unit mm)*
G04 Created by KiCad (PCBNEW 10.0.0) date 2026-04-21 22:51:41*
%MOMM*%
%LPD*%
G01*
G04 APERTURE LIST*
G04 Aperture macros list*
%AMRoundRect*
0 Rectangle with rounded corners*
0 $1 Rounding radius*
0 $2 $3 $4 $5 $6 $7 $8 $9 X,Y pos of 4 corners*
0 Add a 4 corners polygon primitive as box body*
4,1,4,$2,$3,$4,$5,$6,$7,$8,$9,$2,$3,0*
0 Add four circle primitives for the rounded corners*
1,1,$1+$1,$2,$3*
1,1,$1+$1,$4,$5*
1,1,$1+$1,$6,$7*
1,1,$1+$1,$8,$9*
0 Add four rect primitives between the rounded corners*
20,1,$1+$1,$2,$3,$4,$5,0*
20,1,$1+$1,$4,$5,$6,$7,0*
20,1,$1+$1,$6,$7,$8,$9,0*
20,1,$1+$1,$8,$9,$2,$3,0*%
%AMRotRect*
0 Rectangle, with rotation*
0 The origin of the aperture is its center*
0 $1 length*
0 $2 width*
0 $3 Rotation angle, in degrees counterclockwise*
0 Add horizontal line*
21,1,$1,$2,0,0,$3*%
G04 Aperture macros list end*
%ADD10C,0.010000*%
%ADD11RoundRect,0.200000X0.275000X-0.200000X0.275000X0.200000X-0.275000X0.200000X-0.275000X-0.200000X0*%
%ADD12RoundRect,0.237500X-0.344715X0.008839X0.008839X-0.344715X0.344715X-0.008839X-0.008839X0.344715X0*%
%ADD13RoundRect,0.237500X-0.250000X-0.237500X0.250000X-0.237500X0.250000X0.237500X-0.250000X0.237500X0*%
%ADD14RoundRect,0.237500X-0.008839X-0.344715X0.344715X0.008839X0.008839X0.344715X-0.344715X-0.008839X0*%
%ADD15RoundRect,0.150000X0.521491X-0.309359X-0.309359X0.521491X-0.521491X0.309359X0.309359X-0.521491X0*%
%ADD16R,1.000000X0.800000*%
%ADD17R,0.700000X1.500000*%
%ADD18RoundRect,0.237500X0.344715X-0.008839X-0.008839X0.344715X-0.344715X0.008839X0.008839X-0.344715X0*%
%ADD19RotRect,1.168400X0.457200X225.000000*%
%ADD20RoundRect,0.237500X-0.300000X-0.237500X0.300000X-0.237500X0.300000X0.237500X-0.300000X0.237500X0*%
%ADD21RoundRect,0.237500X0.008839X0.344715X-0.344715X-0.008839X-0.008839X-0.344715X0.344715X0.008839X0*%
%ADD22RoundRect,0.237500X-0.237500X0.250000X-0.237500X-0.250000X0.237500X-0.250000X0.237500X0.250000X0*%
%ADD23RotRect,1.168400X0.457200X45.000000*%
%ADD24RoundRect,0.237500X0.250000X0.237500X-0.250000X0.237500X-0.250000X-0.237500X0.250000X-0.237500X0*%
%ADD25RoundRect,0.150000X0.309359X0.521491X-0.521491X-0.309359X-0.309359X-0.521491X0.521491X0.309359X0*%
%ADD26RoundRect,0.237500X0.237500X-0.300000X0.237500X0.300000X-0.237500X0.300000X-0.237500X-0.300000X0*%
%ADD27RoundRect,0.237500X-0.237500X0.300000X-0.237500X-0.300000X0.237500X-0.300000X0.237500X0.300000X0*%
%ADD28RoundRect,0.045000X0.630000X0.255000X-0.630000X0.255000X-0.630000X-0.255000X0.630000X-0.255000X0*%
%ADD29RotRect,1.168400X0.457200X135.000000*%
%ADD30RoundRect,0.237500X0.044194X0.380070X-0.380070X-0.044194X-0.044194X-0.380070X0.380070X0.044194X0*%
%ADD31RoundRect,0.237500X0.380070X-0.044194X-0.044194X0.380070X-0.380070X0.044194X0.044194X-0.380070X0*%
%ADD32R,1.050000X0.650000*%
%ADD33RoundRect,0.200000X-0.200000X-0.275000X0.200000X-0.275000X0.200000X0.275000X-0.200000X0.275000X0*%
%ADD34RoundRect,0.250000X0.445000X-0.545000X0.445000X0.545000X-0.445000X0.545000X-0.445000X-0.545000X0*%
%ADD35R,0.355600X0.508000*%
%ADD36RoundRect,0.237500X-0.380070X0.044194X0.044194X-0.380070X0.380070X-0.044194X-0.044194X0.380070X0*%
%ADD37R,0.800000X0.400000*%
%ADD38R,0.400000X0.800000*%
%ADD39R,1.450000X1.450000*%
%ADD40R,0.700000X0.700000*%
%ADD41RoundRect,0.237500X-0.044194X-0.380070X0.380070X0.044194X0.044194X0.380070X-0.380070X-0.044194X0*%
%ADD42RoundRect,0.237500X0.300000X0.237500X-0.300000X0.237500X-0.300000X-0.237500X0.300000X-0.237500X0*%
%ADD43RoundRect,0.150000X-0.309359X-0.521491X0.521491X0.309359X0.309359X0.521491X-0.521491X-0.309359X0*%
G04 APERTURE END LIST*
D10*
%TO.C,MT1*%
X132569999Y-93249000D02*
X132119999Y-93249000D01*
X132119999Y-93011000D01*
X132569999Y-93011000D01*
X132569999Y-93249000D01*
G36*
X132569999Y-93249000D02*
G01*
X132119999Y-93249000D01*
X132119999Y-93011000D01*
X132569999Y-93011000D01*
X132569999Y-93249000D01*
G37*
X132569998Y-93749000D02*
X132119999Y-93749000D01*
X132119999Y-93511000D01*
X132569999Y-93511000D01*
X132569998Y-93749000D01*
G36*
X132569998Y-93749000D02*
G01*
X132119999Y-93749000D01*
X132119999Y-93511000D01*
X132569999Y-93511000D01*
X132569998Y-93749000D01*
G37*
X132569999Y-94249000D02*
X132119999Y-94249000D01*
X132119999Y-94011000D01*
X132569998Y-94011000D01*
X132569999Y-94249000D01*
G36*
X132569999Y-94249000D02*
G01*
X132119999Y-94249000D01*
X132119999Y-94011000D01*
X132569998Y-94011000D01*
X132569999Y-94249000D01*
G37*
X132569999Y-94749000D02*
X132119999Y-94749000D01*
X132119999Y-94511000D01*
X132569999Y-94511000D01*
X132569999Y-94749000D01*
G36*
X132569999Y-94749000D02*
G01*
X132119999Y-94749000D01*
X132119999Y-94511000D01*
X132569999Y-94511000D01*
X132569999Y-94749000D01*
G37*
X133126499Y-93192500D02*
X132888499Y-93192500D01*
X132888499Y-92742500D01*
X133126499Y-92742500D01*
X133126499Y-93192500D01*
G36*
X133126499Y-93192500D02*
G01*
X132888499Y-93192500D01*
X132888499Y-92742500D01*
X133126499Y-92742500D01*
X133126499Y-93192500D01*
G37*
X133126499Y-95017500D02*
X132888499Y-95017500D01*
X132888499Y-94567500D01*
X133126499Y-94567500D01*
X133126499Y-95017500D01*
G36*
X133126499Y-95017500D02*
G01*
X132888499Y-95017500D01*
X132888499Y-94567500D01*
X133126499Y-94567500D01*
X133126499Y-95017500D01*
G37*
X133626499Y-93192500D02*
X133388499Y-93192500D01*
X133388499Y-92742500D01*
X133626499Y-92742500D01*
X133626499Y-93192500D01*
G36*
X133626499Y-93192500D02*
G01*
X133388499Y-93192500D01*
X133388499Y-92742500D01*
X133626499Y-92742500D01*
X133626499Y-93192500D01*
G37*
X133626499Y-95017500D02*
X133388499Y-95017500D01*
X133388499Y-94567500D01*
X133626499Y-94567500D01*
X133626499Y-95017500D01*
G36*
X133626499Y-95017500D02*
G01*
X133388499Y-95017500D01*
X133388499Y-94567500D01*
X133626499Y-94567500D01*
X133626499Y-95017500D01*
G37*
X134126499Y-93192500D02*
X133888499Y-93192500D01*
X133888499Y-92742500D01*
X134126499Y-92742500D01*
X134126499Y-93192500D01*
G36*
X134126499Y-93192500D02*
G01*
X133888499Y-93192500D01*
X133888499Y-92742500D01*
X134126499Y-92742500D01*
X134126499Y-93192500D01*
G37*
X134126499Y-95017500D02*
X133888499Y-95017500D01*
X133888499Y-94567500D01*
X134126499Y-94567500D01*
X134126499Y-95017500D01*
G36*
X134126499Y-95017500D02*
G01*
X133888499Y-95017500D01*
X133888499Y-94567500D01*
X134126499Y-94567500D01*
X134126499Y-95017500D01*
G37*
X134894999Y-93249000D02*
X134444999Y-93249000D01*
X134444999Y-93011000D01*
X134894999Y-93011000D01*
X134894999Y-93249000D01*
G36*
X134894999Y-93249000D02*
G01*
X134444999Y-93249000D01*
X134444999Y-93011000D01*
X134894999Y-93011000D01*
X134894999Y-93249000D01*
G37*
X134894999Y-93749000D02*
X134445000Y-93749000D01*
X134444999Y-93511000D01*
X134894999Y-93511000D01*
X134894999Y-93749000D01*
G36*
X134894999Y-93749000D02*
G01*
X134445000Y-93749000D01*
X134444999Y-93511000D01*
X134894999Y-93511000D01*
X134894999Y-93749000D01*
G37*
X134894999Y-94749000D02*
X134444999Y-94749000D01*
X134444999Y-94511000D01*
X134894999Y-94511000D01*
X134894999Y-94749000D01*
G36*
X134894999Y-94749000D02*
G01*
X134444999Y-94749000D01*
X134444999Y-94511000D01*
X134894999Y-94511000D01*
X134894999Y-94749000D01*
G37*
X134894999Y-94249000D02*
X134444999Y-94249000D01*
X134445000Y-94011000D01*
X134894999Y-94011000D01*
X134894999Y-94249000D01*
G36*
X134894999Y-94249000D02*
G01*
X134444999Y-94249000D01*
X134445000Y-94011000D01*
X134894999Y-94011000D01*
X134894999Y-94249000D01*
G37*
%TO.C,U7*%
X131860000Y-80550000D02*
X130410000Y-80550000D01*
X130410000Y-79700000D01*
X131010000Y-79100000D01*
X131860000Y-79100000D01*
X131860000Y-80550000D01*
G36*
X131860000Y-80550000D02*
G01*
X130410000Y-80550000D01*
X130410000Y-79700000D01*
X131010000Y-79100000D01*
X131860000Y-79100000D01*
X131860000Y-80550000D01*
G37*
%TD*%
D11*
%TO.C,R1*%
X145360000Y-83225000D03*
X145360000Y-81575000D03*
%TD*%
D12*
%TO.C,R23*%
X148828714Y-89034765D03*
X150119184Y-90325235D03*
%TD*%
D13*
%TO.C,R7*%
X131602500Y-89690000D03*
X133427500Y-89690000D03*
%TD*%
D14*
%TO.C,R26*%
X120578029Y-86972892D03*
X121868499Y-85682422D03*
%TD*%
D15*
%TO.C,Q4*%
X118862957Y-102692957D03*
X120206460Y-101349454D03*
X118208883Y-100695380D03*
%TD*%
D16*
%TO.C,SW1*%
X152150000Y-79150000D03*
X152150000Y-76940000D03*
X144850000Y-79150000D03*
X144850000Y-76940000D03*
D17*
X150750000Y-79800000D03*
X147750000Y-79800000D03*
X146250000Y-79800000D03*
%TD*%
D18*
%TO.C,R22*%
X123096910Y-103806910D03*
X121806440Y-102516440D03*
%TD*%
D19*
%TO.C,D3*%
X117318486Y-85642435D03*
X115720000Y-87240921D03*
%TD*%
D20*
%TO.C,C29*%
X127107499Y-89410000D03*
X128832501Y-89410000D03*
%TD*%
D21*
%TO.C,R25*%
X123055695Y-86885225D03*
X121765225Y-88175695D03*
%TD*%
D22*
%TO.C,R12*%
X121970000Y-77837500D03*
X121970000Y-79662500D03*
%TD*%
D23*
%TO.C,D1*%
X150210757Y-105509243D03*
X151809243Y-103910757D03*
%TD*%
D24*
%TO.C,R6*%
X136842500Y-89685000D03*
X135017500Y-89685000D03*
%TD*%
D25*
%TO.C,Q2*%
X119661989Y-88985938D03*
X118318486Y-87642435D03*
X117664412Y-89640012D03*
%TD*%
D26*
%TO.C,C7*%
X126270000Y-95912500D03*
X126270000Y-94187500D03*
%TD*%
D27*
%TO.C,C18*%
X113990000Y-77907500D03*
X113990000Y-79632500D03*
%TD*%
D28*
%TO.C,U1*%
X147150000Y-96380000D03*
X147150001Y-95430000D03*
X147150000Y-94480000D03*
X144780000Y-94480000D03*
X144780000Y-96380000D03*
%TD*%
D26*
%TO.C,C2*%
X125280000Y-79560000D03*
X125280000Y-77835000D03*
%TD*%
D29*
%TO.C,D4*%
X149753192Y-85759243D03*
X148154706Y-84160757D03*
%TD*%
D30*
%TO.C,C6*%
X120232957Y-106372957D03*
X119013197Y-107592717D03*
%TD*%
D18*
%TO.C,R20*%
X148789184Y-91555235D03*
X147498714Y-90264765D03*
%TD*%
D29*
%TO.C,D2*%
X118002957Y-105692957D03*
X116404471Y-104094471D03*
%TD*%
D31*
%TO.C,C3*%
X119928366Y-85152315D03*
X118708606Y-83932555D03*
%TD*%
D32*
%TO.C,SW2*%
X120020000Y-79830000D03*
X115870000Y-79830000D03*
X120020000Y-77680000D03*
X115870000Y-77680000D03*
%TD*%
D33*
%TO.C,R2*%
X123525000Y-81540000D03*
X125175000Y-81540000D03*
%TD*%
D34*
%TO.C,C15*%
X140520000Y-96110000D03*
X140520000Y-93230000D03*
%TD*%
D27*
%TO.C,C9*%
X138060000Y-95027500D03*
X138060000Y-96752500D03*
%TD*%
D35*
%TO.C,U2*%
X127880002Y-94020002D03*
X128530000Y-94020002D03*
X129180002Y-94020002D03*
X129830000Y-94020002D03*
X129830000Y-96070000D03*
X129180002Y-96070000D03*
X128530000Y-96070000D03*
X127880002Y-96070000D03*
%TD*%
D13*
%TO.C,R11*%
X127224999Y-91080001D03*
X129049999Y-91080001D03*
%TD*%
D26*
%TO.C,C14*%
X149090000Y-96802500D03*
X149090000Y-95077500D03*
%TD*%
D36*
%TO.C,C4*%
X147941634Y-106018606D03*
X149161394Y-107238366D03*
%TD*%
D27*
%TO.C,C8*%
X136250000Y-94957500D03*
X136250000Y-96682500D03*
%TD*%
D14*
%TO.C,R18*%
X144634765Y-104185235D03*
X145925235Y-102894765D03*
%TD*%
D37*
%TO.C,U7*%
X127210000Y-77800000D03*
X127210000Y-78600000D03*
X127210000Y-79400000D03*
X127210000Y-80200000D03*
X127210000Y-81000000D03*
X127210000Y-81800000D03*
X127210000Y-82600000D03*
X127210000Y-83400000D03*
X127210000Y-84200000D03*
X127210000Y-85000000D03*
X127210000Y-85800000D03*
D38*
X128310000Y-86700000D03*
X129110000Y-86700000D03*
X129910000Y-86700000D03*
X130710000Y-86700000D03*
X131510000Y-86700000D03*
X132310000Y-86700000D03*
X133110000Y-86700000D03*
X133910000Y-86700000D03*
X134710000Y-86700000D03*
X135510000Y-86700000D03*
X136310000Y-86700000D03*
X137110000Y-86700000D03*
X137910000Y-86700000D03*
D37*
X139010000Y-85800000D03*
X139010000Y-85000000D03*
X139010000Y-84200000D03*
X139010000Y-83400000D03*
X139010000Y-82600000D03*
X139010000Y-81800000D03*
X139010000Y-81000000D03*
X139010000Y-80200000D03*
X139010000Y-79400000D03*
X139010000Y-78600000D03*
X139010000Y-77800000D03*
D38*
X137910000Y-76900000D03*
X137110000Y-76900000D03*
X136310000Y-76900000D03*
X135510000Y-76900000D03*
X134710000Y-76900000D03*
X133910000Y-76900000D03*
X133110000Y-76900000D03*
X132310000Y-76900000D03*
X131510000Y-76900000D03*
X130710000Y-76900000D03*
X129910000Y-76900000D03*
X129110000Y-76900000D03*
X128310000Y-76900000D03*
D39*
X133110000Y-79825000D03*
X135085000Y-79825000D03*
X135085000Y-81800000D03*
X135085000Y-83775000D03*
X133110000Y-83775000D03*
X131135000Y-83775000D03*
X131135000Y-81800000D03*
X133110000Y-81800000D03*
D40*
X139060000Y-76850000D03*
X139060000Y-86750000D03*
X127160000Y-86750000D03*
X127160000Y-76850000D03*
%TD*%
D41*
%TO.C,C5*%
X150294069Y-88189880D03*
X151513829Y-86970120D03*
%TD*%
D42*
%TO.C,C1*%
X129600000Y-97600000D03*
X127875000Y-97600000D03*
%TD*%
D20*
%TO.C,C10*%
X132425000Y-96410000D03*
X134150000Y-96410000D03*
%TD*%
D12*
%TO.C,R21*%
X120500526Y-103780526D03*
X121790996Y-105070996D03*
%TD*%
D15*
%TO.C,Q3*%
X146623949Y-88430000D03*
X147967452Y-87086497D03*
X145969875Y-86432423D03*
%TD*%
D22*
%TO.C,R16*%
X125390000Y-89262499D03*
X125390000Y-91087499D03*
%TD*%
D43*
%TO.C,Q1*%
X147526497Y-101736497D03*
X148870000Y-103080000D03*
X149524074Y-101082423D03*
%TD*%
D26*
%TO.C,C16*%
X142710000Y-96242500D03*
X142710000Y-94517500D03*
%TD*%
D21*
%TO.C,R24*%
X147145235Y-104204765D03*
X145854765Y-105495235D03*
%TD*%
M02*
