%TF.GenerationSoftware,KiCad,Pcbnew,10.0.0*%
%TF.CreationDate,2026-04-21T22:51:41+03:00*%
%TF.ProjectId,Dobule shawarma PCB,446f6275-6c65-4207-9368-617761726d61,rev?*%
%TF.SameCoordinates,Original*%
%TF.FileFunction,Copper,L2,Inr*%
%TF.FilePolarity,Positive*%
%FSLAX46Y46*%
G04 Gerber Fmt 4.6, Leading zero omitted, Abs format (unit mm)*
G04 Created by KiCad (PCBNEW 10.0.0) date 2026-04-21 22:51:41*
%MOMM*%
%LPD*%
G01*
G04 APERTURE LIST*
G04 Aperture macros list*
%AMRoundRect*
0 Rectangle with rounded corners*
0 $1 Rounding radius*
0 $2 $3 $4 $5 $6 $7 $8 $9 X,Y pos of 4 corners*
0 Add a 4 corners polygon primitive as box body*
4,1,4,$2,$3,$4,$5,$6,$7,$8,$9,$2,$3,0*
0 Add four circle primitives for the rounded corners*
1,1,$1+$1,$2,$3*
1,1,$1+$1,$4,$5*
1,1,$1+$1,$6,$7*
1,1,$1+$1,$8,$9*
0 Add four rect primitives between the rounded corners*
20,1,$1+$1,$2,$3,$4,$5,0*
20,1,$1+$1,$4,$5,$6,$7,0*
20,1,$1+$1,$6,$7,$8,$9,0*
20,1,$1+$1,$8,$9,$2,$3,0*%
G04 Aperture macros list end*
%TA.AperFunction,ComponentPad*%
%ADD10RoundRect,0.250000X0.625000X-0.350000X0.625000X0.350000X-0.625000X0.350000X-0.625000X-0.350000X0*%
%TD*%
%TA.AperFunction,ComponentPad*%
%ADD11O,1.750000X1.200000*%
%TD*%
%TA.AperFunction,ComponentPad*%
%ADD12C,1.400000*%
%TD*%
%TA.AperFunction,ComponentPad*%
%ADD13C,0.700000*%
%TD*%
%TA.AperFunction,ComponentPad*%
%ADD14C,4.400000*%
%TD*%
%TA.AperFunction,ComponentPad*%
%ADD15R,0.850000X0.850000*%
%TD*%
%TA.AperFunction,ComponentPad*%
%ADD16C,0.850000*%
%TD*%
%TA.AperFunction,ViaPad*%
%ADD17C,0.685800*%
%TD*%
%TA.AperFunction,Conductor*%
%ADD18C,0.762000*%
%TD*%
%TA.AperFunction,Conductor*%
%ADD19C,0.300000*%
%TD*%
G04 APERTURE END LIST*
D10*
%TO.N,GND*%
%TO.C,J2*%
X152550000Y-94620000D03*
D11*
%TO.N,+BATT*%
X152550000Y-96620000D03*
%TD*%
D12*
%TO.N,+BATT*%
%TO.C,M3*%
X153408026Y-84708026D03*
%TO.N,/Motors and snubbers/Source 3*%
X151611975Y-82911975D03*
%TD*%
D13*
%TO.N,N/C*%
%TO.C,H1*%
X173200000Y-87000000D03*
X173683274Y-85833274D03*
X173683274Y-88166726D03*
X174850000Y-85350000D03*
D14*
X174850000Y-87000000D03*
D13*
X174850000Y-88650000D03*
X176016726Y-85833274D03*
X176016726Y-88166726D03*
X176500000Y-87000000D03*
%TD*%
%TO.N,N/C*%
%TO.C,H2*%
X173260000Y-92650000D03*
X173743274Y-91483274D03*
X173743274Y-93816726D03*
X174910000Y-91000000D03*
D14*
X174910000Y-92650000D03*
D13*
X174910000Y-94300000D03*
X176076726Y-91483274D03*
X176076726Y-93816726D03*
X176560000Y-92650000D03*
%TD*%
%TO.N,N/C*%
%TO.C,H3*%
X173260000Y-98600000D03*
X173743274Y-97433274D03*
X173743274Y-99766726D03*
X174910000Y-96950000D03*
D14*
X174910000Y-98600000D03*
D13*
X174910000Y-100250000D03*
X176076726Y-97433274D03*
X176076726Y-99766726D03*
X176560000Y-98600000D03*
%TD*%
D12*
%TO.N,+BATT*%
%TO.C,M1*%
X151522328Y-108771176D03*
%TO.N,/Motors and snubbers/Source 2*%
X153318379Y-106975125D03*
%TD*%
%TO.N,+BATT*%
%TO.C,M4*%
X116300290Y-108760290D03*
%TO.N,/Motors and snubbers/Source 4*%
X114504239Y-106964239D03*
%TD*%
D15*
%TO.N,+3.3V*%
%TO.C,J1*%
X142140000Y-82230001D03*
D16*
%TO.N,GND*%
X142140000Y-81230001D03*
%TO.N,/MCU/RX*%
X142140000Y-80230000D03*
%TO.N,/MCU/TX*%
X142140000Y-79230001D03*
%TD*%
D13*
%TO.N,N/C*%
%TO.C,H4*%
X173260000Y-104550000D03*
X173743274Y-103383274D03*
X173743274Y-105716726D03*
X174910000Y-102900000D03*
D14*
X174910000Y-104550000D03*
D13*
X174910000Y-106200000D03*
X176076726Y-103383274D03*
X176076726Y-105716726D03*
X176560000Y-104550000D03*
%TD*%
D12*
%TO.N,+BATT*%
%TO.C,M2*%
X115960000Y-82520000D03*
%TO.N,/Motors and snubbers/Source 1*%
X114163949Y-84316051D03*
%TD*%
D17*
%TO.N,+3.3V*%
X123640000Y-78980000D03*
X128540000Y-92760000D03*
X142310000Y-97510000D03*
X132400000Y-88250000D03*
X131250000Y-97810000D03*
X123680000Y-77910000D03*
X141450000Y-97750000D03*
X136840000Y-91130000D03*
%TO.N,GND*%
X140690000Y-76900000D03*
X134260000Y-97760000D03*
X130530000Y-78030000D03*
X149490000Y-87280000D03*
X121190000Y-89570000D03*
X135090000Y-81770000D03*
X136920000Y-93110000D03*
X121000460Y-84490460D03*
X133150000Y-79810000D03*
X149320000Y-79910000D03*
X119212957Y-104492957D03*
X136000000Y-78030000D03*
X136890000Y-77970000D03*
X143780000Y-87350000D03*
X135050000Y-78000000D03*
X122450000Y-91110000D03*
X120420000Y-97860000D03*
X129900000Y-85180000D03*
X128130000Y-95100000D03*
X120400000Y-99810000D03*
X153840000Y-93140000D03*
X131180000Y-79810000D03*
X122850000Y-92970000D03*
X113820000Y-92650000D03*
X112300000Y-80320000D03*
X131350000Y-93690000D03*
X145930000Y-95400000D03*
X150360000Y-91790000D03*
X114830000Y-100440000D03*
X115180000Y-90790000D03*
X130240000Y-90460000D03*
X117440000Y-94560000D03*
X128720000Y-85110000D03*
X124850000Y-94630000D03*
X143860000Y-81400000D03*
X128690000Y-78060000D03*
X143140000Y-76870000D03*
X149250000Y-93330000D03*
X131350000Y-78000000D03*
X135130000Y-79810000D03*
X114200000Y-97590000D03*
X123750000Y-91990000D03*
X124530000Y-98300000D03*
X140720000Y-82260000D03*
X143650000Y-79440000D03*
X137160000Y-79520000D03*
X148530000Y-77340000D03*
X135780000Y-93190000D03*
X146770000Y-106500000D03*
X154140000Y-79350000D03*
X121998486Y-84422435D03*
X115600000Y-95310000D03*
X129970000Y-89650000D03*
X144610000Y-88380000D03*
X121780000Y-95480000D03*
X118350000Y-103810000D03*
X147010000Y-82590000D03*
X130970000Y-83890000D03*
X129230000Y-95070000D03*
X129580000Y-78000000D03*
X140660000Y-83250000D03*
X141060000Y-91700000D03*
X134140000Y-78000000D03*
X117160000Y-92690000D03*
X135830000Y-97920000D03*
X141990000Y-76930000D03*
X132300000Y-78030000D03*
X155140000Y-81620000D03*
X112320000Y-78940000D03*
X135090000Y-83660000D03*
X118100000Y-78980000D03*
X151250000Y-84860000D03*
X115520000Y-93800000D03*
X116580000Y-84430000D03*
X140460000Y-91230000D03*
X117390000Y-96820000D03*
X137840000Y-78000000D03*
X119810000Y-81390000D03*
X121342957Y-100852957D03*
X154920000Y-78470000D03*
X124929729Y-76745732D03*
X154340000Y-94900000D03*
X133130000Y-81760000D03*
X118990000Y-91770000D03*
X145290000Y-99470000D03*
X117870000Y-76750000D03*
X112000000Y-81400000D03*
X119570000Y-93890000D03*
X119250460Y-86570460D03*
X133190000Y-77970000D03*
X147210000Y-99070000D03*
X113430000Y-95410000D03*
X148760000Y-104780000D03*
X137570000Y-98000000D03*
X154370000Y-93970000D03*
X136770000Y-97960000D03*
X121762957Y-106582957D03*
X116520000Y-106710000D03*
X143920000Y-80450000D03*
X143370000Y-93300000D03*
X139290000Y-88470000D03*
%TO.N,+BATT*%
X124030000Y-89280000D03*
X147670000Y-93320000D03*
%TO.N,/MCU/Boot*%
X137240000Y-85130000D03*
X147580000Y-81480000D03*
%TO.N,/MCU/PWM4*%
X121717436Y-99472564D03*
X129890000Y-88300000D03*
%TO.N,/MCU/I2C_SCL*%
X131260348Y-92499652D03*
X133840000Y-91060000D03*
%TO.N,/MCU/PWM2*%
X143320000Y-102940000D03*
X138170000Y-92810000D03*
%TO.N,/MCU/RED LED*%
X125140000Y-82870000D03*
%TO.N,/MCU/Blue_LED*%
X144530000Y-91090000D03*
%TD*%
%TO.N,GND*%
D18*
X142140000Y-81230001D02*
X143690001Y-81230001D01*
X142140000Y-81230001D02*
X141410001Y-81230001D01*
X142759999Y-81230001D02*
X144070000Y-79920000D01*
X142140000Y-81230001D02*
X142759999Y-81230001D01*
D19*
X142140000Y-81230001D02*
X140929999Y-81230001D01*
X140929999Y-81230001D02*
X140680000Y-81480000D01*
D18*
X143690001Y-81230001D02*
X143860000Y-81400000D01*
X141410001Y-81230001D02*
X141000000Y-80820000D01*
%TD*%
%TA.AperFunction,Conductor*%
%TO.N,GND*%
G36*
X152436959Y-76440399D02*
G01*
X152438453Y-76440500D01*
X152440375Y-76440500D01*
X152440484Y-76440467D01*
X152441374Y-76440500D01*
X152444108Y-76440500D01*
X152507838Y-76440500D01*
X152516403Y-76443282D01*
X152897193Y-76457407D01*
X152906434Y-76458185D01*
X153287046Y-76508293D01*
X153295551Y-76509792D01*
X153670349Y-76592884D01*
X153678660Y-76595110D01*
X154044797Y-76710553D01*
X154052913Y-76713507D01*
X154407587Y-76860418D01*
X154415398Y-76864060D01*
X154755910Y-77041320D01*
X154763390Y-77045638D01*
X155087167Y-77251906D01*
X155094240Y-77256859D01*
X155340859Y-77446097D01*
X155398797Y-77490554D01*
X155405398Y-77496093D01*
X155688459Y-77755470D01*
X155694529Y-77761540D01*
X155953905Y-78044599D01*
X155959445Y-78051202D01*
X156193139Y-78355758D01*
X156198093Y-78362832D01*
X156404361Y-78686609D01*
X156408679Y-78694089D01*
X156585935Y-79034593D01*
X156589585Y-79042420D01*
X156736492Y-79397086D01*
X156739446Y-79405202D01*
X156854884Y-79771324D01*
X156857119Y-79779666D01*
X156940206Y-80154447D01*
X156941706Y-80162953D01*
X156991813Y-80543554D01*
X156992566Y-80552158D01*
X157009406Y-80937847D01*
X157009500Y-80942165D01*
X157009500Y-106797834D01*
X157009406Y-106802152D01*
X156992566Y-107187841D01*
X156991813Y-107196445D01*
X156941706Y-107577046D01*
X156940206Y-107585552D01*
X156857119Y-107960333D01*
X156854884Y-107968675D01*
X156739446Y-108334797D01*
X156736492Y-108342913D01*
X156589585Y-108697579D01*
X156585935Y-108705406D01*
X156408679Y-109045910D01*
X156404361Y-109053390D01*
X156198093Y-109377167D01*
X156193139Y-109384241D01*
X155959445Y-109688797D01*
X155953895Y-109695411D01*
X155694540Y-109978447D01*
X155688447Y-109984540D01*
X155405413Y-110243894D01*
X155398797Y-110249445D01*
X155094241Y-110483139D01*
X155087167Y-110488093D01*
X154763390Y-110694361D01*
X154755910Y-110698679D01*
X154415406Y-110875935D01*
X154407579Y-110879585D01*
X154052913Y-111026492D01*
X154044797Y-111029446D01*
X153678675Y-111144884D01*
X153670333Y-111147119D01*
X153295552Y-111230206D01*
X153287046Y-111231706D01*
X152906445Y-111281813D01*
X152897841Y-111282566D01*
X152512153Y-111299406D01*
X152507835Y-111299500D01*
X148726522Y-111299500D01*
X148668331Y-111280593D01*
X148639093Y-111246946D01*
X148622163Y-111215077D01*
X148622157Y-111215067D01*
X148216987Y-110533517D01*
X147932375Y-110103287D01*
X147779496Y-109872189D01*
X147779491Y-109872183D01*
X147779485Y-109872173D01*
X147310749Y-109232688D01*
X147310740Y-109232677D01*
X147310739Y-109232676D01*
X147310729Y-109232662D01*
X146883809Y-108705389D01*
X146857287Y-108672632D01*
X150521828Y-108672632D01*
X150521828Y-108672635D01*
X150521828Y-108869717D01*
X150558111Y-109052124D01*
X150560277Y-109063010D01*
X150560277Y-109063012D01*
X150635695Y-109245089D01*
X150635696Y-109245090D01*
X150745189Y-109408958D01*
X150884546Y-109548315D01*
X151048414Y-109657808D01*
X151230493Y-109733227D01*
X151423787Y-109771676D01*
X151423788Y-109771676D01*
X151620868Y-109771676D01*
X151620869Y-109771676D01*
X151814163Y-109733227D01*
X151996242Y-109657808D01*
X152160110Y-109548315D01*
X152299467Y-109408958D01*
X152408960Y-109245090D01*
X152484379Y-109063011D01*
X152522828Y-108869717D01*
X152522828Y-108672635D01*
X152484379Y-108479341D01*
X152408960Y-108297262D01*
X152299467Y-108133394D01*
X152160110Y-107994037D01*
X151996242Y-107884544D01*
X151996243Y-107884544D01*
X151996241Y-107884543D01*
X151814163Y-107809125D01*
X151620871Y-107770676D01*
X151620869Y-107770676D01*
X151423787Y-107770676D01*
X151423784Y-107770676D01*
X151230493Y-107809125D01*
X151230491Y-107809125D01*
X151048414Y-107884543D01*
X150884546Y-107994037D01*
X150884542Y-107994040D01*
X150745192Y-108133390D01*
X150745189Y-108133394D01*
X150635695Y-108297262D01*
X150560277Y-108479339D01*
X150560277Y-108479341D01*
X150521828Y-108672632D01*
X146857287Y-108672632D01*
X146811767Y-108616412D01*
X146283763Y-108024862D01*
X146283759Y-108024858D01*
X146283752Y-108024850D01*
X145727916Y-107459357D01*
X145145541Y-106921234D01*
X145092294Y-106876581D01*
X152317879Y-106876581D01*
X152317879Y-106876584D01*
X152317879Y-107073666D01*
X152354162Y-107256073D01*
X152356328Y-107266959D01*
X152356328Y-107266961D01*
X152431746Y-107449038D01*
X152453071Y-107480953D01*
X152541240Y-107612907D01*
X152680597Y-107752264D01*
X152844465Y-107861757D01*
X153026544Y-107937176D01*
X153219838Y-107975625D01*
X153219839Y-107975625D01*
X153416919Y-107975625D01*
X153416920Y-107975625D01*
X153610214Y-107937176D01*
X153792293Y-107861757D01*
X153956161Y-107752264D01*
X154095518Y-107612907D01*
X154205011Y-107449039D01*
X154280430Y-107266960D01*
X154318879Y-107073666D01*
X154318879Y-106876584D01*
X154280430Y-106683290D01*
X154205011Y-106501211D01*
X154095518Y-106337343D01*
X153956161Y-106197986D01*
X153792293Y-106088493D01*
X153792294Y-106088493D01*
X153792292Y-106088492D01*
X153610214Y-106013074D01*
X153416922Y-105974625D01*
X153416920Y-105974625D01*
X153219838Y-105974625D01*
X153219835Y-105974625D01*
X153026544Y-106013074D01*
X153026542Y-106013074D01*
X152844465Y-106088492D01*
X152680597Y-106197986D01*
X152680593Y-106197989D01*
X152541243Y-106337339D01*
X152541240Y-106337343D01*
X152431746Y-106501211D01*
X152356328Y-106683288D01*
X152356328Y-106683290D01*
X152317879Y-106876581D01*
X145092294Y-106876581D01*
X144537972Y-106411728D01*
X144537969Y-106411726D01*
X144537961Y-106411719D01*
X143906618Y-105932015D01*
X143252945Y-105483213D01*
X143252939Y-105483209D01*
X143252930Y-105483203D01*
X142864791Y-105243318D01*
X142578438Y-105066340D01*
X142578431Y-105066336D01*
X142578426Y-105066333D01*
X141884664Y-104682366D01*
X141173248Y-104332190D01*
X140445821Y-104016615D01*
X140445817Y-104016613D01*
X140445809Y-104016610D01*
X139704060Y-103736368D01*
X138949690Y-103492103D01*
X138632375Y-103405968D01*
X138184462Y-103284383D01*
X138184446Y-103284379D01*
X138184437Y-103284377D01*
X137410121Y-103113683D01*
X136628504Y-102980406D01*
X136599795Y-102976921D01*
X136073988Y-102913091D01*
X135841321Y-102884847D01*
X135841297Y-102884845D01*
X135728496Y-102876628D01*
X142676600Y-102876628D01*
X142676600Y-102876631D01*
X142676600Y-103003369D01*
X142698543Y-103113684D01*
X142701326Y-103127672D01*
X142701326Y-103127674D01*
X142749823Y-103244759D01*
X142749829Y-103244770D01*
X142820238Y-103350143D01*
X142909856Y-103439761D01*
X143015229Y-103510170D01*
X143015240Y-103510176D01*
X143058492Y-103528091D01*
X143132327Y-103558674D01*
X143256631Y-103583400D01*
X143256632Y-103583400D01*
X143383368Y-103583400D01*
X143383369Y-103583400D01*
X143507673Y-103558674D01*
X143624764Y-103510174D01*
X143730144Y-103439761D01*
X143819761Y-103350144D01*
X143890174Y-103244764D01*
X143938674Y-103127673D01*
X143963400Y-103003369D01*
X143963400Y-102876631D01*
X143938674Y-102752327D01*
X143890174Y-102635236D01*
X143890173Y-102635234D01*
X143890170Y-102635229D01*
X143819761Y-102529856D01*
X143730143Y-102440238D01*
X143624770Y-102369829D01*
X143624759Y-102369823D01*
X143507673Y-102321326D01*
X143383371Y-102296600D01*
X143383369Y-102296600D01*
X143256631Y-102296600D01*
X143256628Y-102296600D01*
X143132327Y-102321326D01*
X143132325Y-102321326D01*
X143015240Y-102369823D01*
X143015229Y-102369829D01*
X142909856Y-102440238D01*
X142820238Y-102529856D01*
X142749829Y-102635229D01*
X142749823Y-102635240D01*
X142701326Y-102752325D01*
X142701326Y-102752327D01*
X142676600Y-102876628D01*
X135728496Y-102876628D01*
X135050497Y-102827239D01*
X134402998Y-102811288D01*
X134257805Y-102807712D01*
X134257799Y-102807712D01*
X134257795Y-102807712D01*
X133465093Y-102826310D01*
X132674212Y-102882988D01*
X132674178Y-102882991D01*
X131886933Y-102977620D01*
X131886917Y-102977622D01*
X131105122Y-103109986D01*
X130330598Y-103279773D01*
X130313536Y-103284383D01*
X129565111Y-103486600D01*
X129565104Y-103486602D01*
X129565090Y-103486606D01*
X129565087Y-103486607D01*
X128810476Y-103729973D01*
X128810466Y-103729976D01*
X128068366Y-104009356D01*
X127340603Y-104324062D01*
X127340564Y-104324080D01*
X126628785Y-104673397D01*
X126628740Y-104673420D01*
X125934531Y-105056571D01*
X125259564Y-105472635D01*
X125259557Y-105472640D01*
X124605328Y-105920694D01*
X124605316Y-105920703D01*
X123973431Y-106399649D01*
X123973427Y-106399652D01*
X123365243Y-106908461D01*
X123365242Y-106908462D01*
X122782244Y-107445892D01*
X122225757Y-108010721D01*
X122225751Y-108010727D01*
X121903569Y-108370834D01*
X121697040Y-108601673D01*
X121697035Y-108601679D01*
X121697034Y-108601679D01*
X121197359Y-109217330D01*
X121197330Y-109217369D01*
X120727838Y-109856310D01*
X120727837Y-109856312D01*
X120289586Y-110517101D01*
X120289577Y-110517115D01*
X119883575Y-111198244D01*
X119883574Y-111198246D01*
X119865664Y-111231864D01*
X119821616Y-111274330D01*
X119778670Y-111284313D01*
X115812162Y-111299486D01*
X115807464Y-111299393D01*
X115422031Y-111282562D01*
X115413427Y-111281809D01*
X115032825Y-111231697D01*
X115024320Y-111230197D01*
X114649544Y-111147109D01*
X114641201Y-111144874D01*
X114275075Y-111029431D01*
X114266960Y-111026477D01*
X113912303Y-110879571D01*
X113904475Y-110875921D01*
X113563963Y-110698659D01*
X113556484Y-110694341D01*
X113232718Y-110488079D01*
X113225643Y-110483125D01*
X112921085Y-110249428D01*
X112914470Y-110243877D01*
X112631442Y-109984530D01*
X112625334Y-109978422D01*
X112495660Y-109836908D01*
X112365984Y-109695390D01*
X112360436Y-109688779D01*
X112306140Y-109618020D01*
X112126737Y-109384218D01*
X112121785Y-109377146D01*
X111915523Y-109053380D01*
X111911205Y-109045901D01*
X111733943Y-108705389D01*
X111730297Y-108697570D01*
X111729141Y-108694780D01*
X111729140Y-108694775D01*
X111729138Y-108694773D01*
X111715458Y-108661746D01*
X115299790Y-108661746D01*
X115299790Y-108858833D01*
X115338239Y-109052124D01*
X115338239Y-109052126D01*
X115413657Y-109234203D01*
X115413658Y-109234204D01*
X115523151Y-109398072D01*
X115662508Y-109537429D01*
X115826376Y-109646922D01*
X116008455Y-109722341D01*
X116201749Y-109760790D01*
X116201750Y-109760790D01*
X116398830Y-109760790D01*
X116398831Y-109760790D01*
X116592125Y-109722341D01*
X116774204Y-109646922D01*
X116938072Y-109537429D01*
X117077429Y-109398072D01*
X117186922Y-109234204D01*
X117262341Y-109052125D01*
X117300790Y-108858831D01*
X117300790Y-108661749D01*
X117262341Y-108468455D01*
X117186922Y-108286376D01*
X117077429Y-108122508D01*
X116938072Y-107983151D01*
X116774204Y-107873658D01*
X116774205Y-107873658D01*
X116774203Y-107873657D01*
X116592125Y-107798239D01*
X116398833Y-107759790D01*
X116398831Y-107759790D01*
X116201749Y-107759790D01*
X116201746Y-107759790D01*
X116008455Y-107798239D01*
X116008453Y-107798239D01*
X115826376Y-107873657D01*
X115662508Y-107983151D01*
X115662504Y-107983154D01*
X115523154Y-108122504D01*
X115523151Y-108122508D01*
X115413657Y-108286376D01*
X115338239Y-108468453D01*
X115338239Y-108468455D01*
X115299790Y-108661746D01*
X111715458Y-108661746D01*
X111583385Y-108342899D01*
X111580433Y-108334789D01*
X111464985Y-107968645D01*
X111462760Y-107960338D01*
X111379666Y-107585543D01*
X111378167Y-107577039D01*
X111362674Y-107459368D01*
X111328054Y-107196426D01*
X111327302Y-107187833D01*
X111322316Y-107073666D01*
X111319430Y-107007580D01*
X111313235Y-106865695D01*
X113503739Y-106865695D01*
X113503739Y-107062782D01*
X113542188Y-107256073D01*
X113542188Y-107256075D01*
X113617606Y-107438152D01*
X113617607Y-107438153D01*
X113727100Y-107602021D01*
X113866457Y-107741378D01*
X114030325Y-107850871D01*
X114212404Y-107926290D01*
X114405698Y-107964739D01*
X114405699Y-107964739D01*
X114602779Y-107964739D01*
X114602780Y-107964739D01*
X114796074Y-107926290D01*
X114978153Y-107850871D01*
X115142021Y-107741378D01*
X115281378Y-107602021D01*
X115390871Y-107438153D01*
X115466290Y-107256074D01*
X115504739Y-107062780D01*
X115504739Y-106865698D01*
X115466290Y-106672404D01*
X115390871Y-106490325D01*
X115281378Y-106326457D01*
X115142021Y-106187100D01*
X114978153Y-106077607D01*
X114978154Y-106077607D01*
X114978152Y-106077606D01*
X114796074Y-106002188D01*
X114602782Y-105963739D01*
X114602780Y-105963739D01*
X114405698Y-105963739D01*
X114405695Y-105963739D01*
X114212404Y-106002188D01*
X114212402Y-106002188D01*
X114030325Y-106077606D01*
X113866457Y-106187100D01*
X113866453Y-106187103D01*
X113727103Y-106326453D01*
X113727100Y-106326457D01*
X113617606Y-106490325D01*
X113542188Y-106672402D01*
X113542188Y-106672404D01*
X113503739Y-106865695D01*
X111313235Y-106865695D01*
X111313211Y-106865154D01*
X111310459Y-106802147D01*
X111310365Y-106797827D01*
X111310365Y-101893709D01*
X111649500Y-101893709D01*
X111649500Y-102106290D01*
X111682752Y-102316238D01*
X111748443Y-102518412D01*
X111844948Y-102707815D01*
X111844950Y-102707819D01*
X111969891Y-102879786D01*
X111969893Y-102879788D01*
X111969896Y-102879792D01*
X112120208Y-103030104D01*
X112120211Y-103030106D01*
X112120213Y-103030108D01*
X112292180Y-103155049D01*
X112292184Y-103155051D01*
X112481588Y-103251557D01*
X112683757Y-103317246D01*
X112683758Y-103317246D01*
X112683761Y-103317247D01*
X112893710Y-103350500D01*
X112893713Y-103350500D01*
X113106290Y-103350500D01*
X113316238Y-103317247D01*
X113316239Y-103317246D01*
X113316243Y-103317246D01*
X113518412Y-103251557D01*
X113707816Y-103155051D01*
X113745498Y-103127674D01*
X113879786Y-103030108D01*
X113879792Y-103030104D01*
X114030104Y-102879792D01*
X114155051Y-102707816D01*
X114251557Y-102518412D01*
X114317246Y-102316243D01*
X114350500Y-102106287D01*
X114350500Y-101893713D01*
X114350500Y-101893709D01*
X114317247Y-101683761D01*
X114317246Y-101683757D01*
X114251557Y-101481588D01*
X114155051Y-101292184D01*
X114155049Y-101292180D01*
X114030108Y-101120213D01*
X114030106Y-101120211D01*
X114030104Y-101120208D01*
X113879792Y-100969896D01*
X113879788Y-100969893D01*
X113879786Y-100969891D01*
X113707819Y-100844950D01*
X113707815Y-100844948D01*
X113518412Y-100748443D01*
X113316238Y-100682752D01*
X113106290Y-100649500D01*
X113106287Y-100649500D01*
X112893713Y-100649500D01*
X112893710Y-100649500D01*
X112683761Y-100682752D01*
X112481587Y-100748443D01*
X112292184Y-100844948D01*
X112292180Y-100844950D01*
X112120213Y-100969891D01*
X111969891Y-101120213D01*
X111844950Y-101292180D01*
X111844948Y-101292184D01*
X111748443Y-101481587D01*
X111682752Y-101683761D01*
X111649500Y-101893709D01*
X111310365Y-101893709D01*
X111310365Y-99409192D01*
X121074036Y-99409192D01*
X121074036Y-99535935D01*
X121098762Y-99660236D01*
X121098762Y-99660238D01*
X121147259Y-99777323D01*
X121147265Y-99777334D01*
X121217674Y-99882707D01*
X121307292Y-99972325D01*
X121412665Y-100042734D01*
X121412676Y-100042740D01*
X121455928Y-100060655D01*
X121529763Y-100091238D01*
X121654067Y-100115964D01*
X121654068Y-100115964D01*
X121780804Y-100115964D01*
X121780805Y-100115964D01*
X121905109Y-100091238D01*
X122022200Y-100042738D01*
X122127580Y-99972325D01*
X122217197Y-99882708D01*
X122287610Y-99777328D01*
X122336110Y-99660237D01*
X122360836Y-99535933D01*
X122360836Y-99409195D01*
X122336110Y-99284891D01*
X122287610Y-99167800D01*
X122287609Y-99167798D01*
X122287606Y-99167793D01*
X122217197Y-99062420D01*
X122127579Y-98972802D01*
X122022206Y-98902393D01*
X122022195Y-98902387D01*
X121905109Y-98853890D01*
X121780807Y-98829164D01*
X121780805Y-98829164D01*
X121654067Y-98829164D01*
X121654064Y-98829164D01*
X121529763Y-98853890D01*
X121529761Y-98853890D01*
X121412676Y-98902387D01*
X121412665Y-98902393D01*
X121307292Y-98972802D01*
X121217674Y-99062420D01*
X121147265Y-99167793D01*
X121147259Y-99167804D01*
X121098762Y-99284889D01*
X121098762Y-99284891D01*
X121074036Y-99409192D01*
X111310365Y-99409192D01*
X111310365Y-97746628D01*
X130606600Y-97746628D01*
X130606600Y-97873371D01*
X130631326Y-97997672D01*
X130631326Y-97997674D01*
X130679823Y-98114759D01*
X130679829Y-98114770D01*
X130750238Y-98220143D01*
X130839856Y-98309761D01*
X130945229Y-98380170D01*
X130945240Y-98380176D01*
X130977164Y-98393399D01*
X131062327Y-98428674D01*
X131186631Y-98453400D01*
X131186632Y-98453400D01*
X131313368Y-98453400D01*
X131313369Y-98453400D01*
X131437673Y-98428674D01*
X131554764Y-98380174D01*
X131660144Y-98309761D01*
X131749761Y-98220144D01*
X131820174Y-98114764D01*
X131868674Y-97997673D01*
X131893400Y-97873369D01*
X131893400Y-97746631D01*
X131881464Y-97686628D01*
X140806600Y-97686628D01*
X140806600Y-97813371D01*
X140831326Y-97937672D01*
X140831326Y-97937674D01*
X140879823Y-98054759D01*
X140879829Y-98054770D01*
X140950238Y-98160143D01*
X141039856Y-98249761D01*
X141145229Y-98320170D01*
X141145240Y-98320176D01*
X141188492Y-98338091D01*
X141262327Y-98368674D01*
X141386631Y-98393400D01*
X141386632Y-98393400D01*
X141513368Y-98393400D01*
X141513369Y-98393400D01*
X141637673Y-98368674D01*
X141754764Y-98320174D01*
X141860144Y-98249761D01*
X141949761Y-98160144D01*
X141958499Y-98147065D01*
X142006547Y-98109187D01*
X142067685Y-98106783D01*
X142078689Y-98110599D01*
X142122327Y-98128674D01*
X142246631Y-98153400D01*
X142246632Y-98153400D01*
X142373368Y-98153400D01*
X142373369Y-98153400D01*
X142497673Y-98128674D01*
X142614764Y-98080174D01*
X142720144Y-98009761D01*
X142809761Y-97920144D01*
X142880174Y-97814764D01*
X142928674Y-97697673D01*
X142953400Y-97573369D01*
X142953400Y-97446631D01*
X142928674Y-97322327D01*
X142894503Y-97239829D01*
X142880176Y-97205240D01*
X142880170Y-97205229D01*
X142809761Y-97099856D01*
X142720143Y-97010238D01*
X142614770Y-96939829D01*
X142614759Y-96939823D01*
X142497673Y-96891326D01*
X142373371Y-96866600D01*
X142373369Y-96866600D01*
X142246631Y-96866600D01*
X142246628Y-96866600D01*
X142122327Y-96891326D01*
X142122325Y-96891326D01*
X142005240Y-96939823D01*
X142005229Y-96939829D01*
X141899856Y-97010238D01*
X141899847Y-97010246D01*
X141810237Y-97099857D01*
X141810235Y-97099859D01*
X141801496Y-97112938D01*
X141753444Y-97150815D01*
X141692306Y-97153214D01*
X141681299Y-97149396D01*
X141637673Y-97131326D01*
X141513371Y-97106600D01*
X141513369Y-97106600D01*
X141386631Y-97106600D01*
X141386628Y-97106600D01*
X141262327Y-97131326D01*
X141262325Y-97131326D01*
X141145240Y-97179823D01*
X141145229Y-97179829D01*
X141039856Y-97250238D01*
X140950238Y-97339856D01*
X140879829Y-97445229D01*
X140879823Y-97445240D01*
X140831326Y-97562325D01*
X140831326Y-97562327D01*
X140806600Y-97686628D01*
X131881464Y-97686628D01*
X131868674Y-97622327D01*
X131843821Y-97562325D01*
X131820176Y-97505240D01*
X131820170Y-97505229D01*
X131749761Y-97399856D01*
X131660143Y-97310238D01*
X131554770Y-97239829D01*
X131554759Y-97239823D01*
X131437673Y-97191326D01*
X131313371Y-97166600D01*
X131313369Y-97166600D01*
X131186631Y-97166600D01*
X131186628Y-97166600D01*
X131062327Y-97191326D01*
X131062325Y-97191326D01*
X130945240Y-97239823D01*
X130945229Y-97239829D01*
X130839856Y-97310238D01*
X130750238Y-97399856D01*
X130679829Y-97505229D01*
X130679823Y-97505240D01*
X130631326Y-97622325D01*
X130631326Y-97622327D01*
X130606600Y-97746628D01*
X111310365Y-97746628D01*
X111310365Y-94220012D01*
X151175000Y-94220012D01*
X151175000Y-94369999D01*
X151175001Y-94370000D01*
X152269670Y-94370000D01*
X152249925Y-94389745D01*
X152200556Y-94475255D01*
X152175000Y-94570630D01*
X152175000Y-94669370D01*
X152200556Y-94764745D01*
X152249925Y-94850255D01*
X152269670Y-94870000D01*
X151175002Y-94870000D01*
X151175001Y-94870001D01*
X151175001Y-95019986D01*
X151185492Y-95122687D01*
X151185495Y-95122699D01*
X151240643Y-95289124D01*
X151332680Y-95438340D01*
X151456659Y-95562319D01*
X151605875Y-95654356D01*
X151743419Y-95699934D01*
X151792709Y-95736185D01*
X151811277Y-95794485D01*
X151792032Y-95852565D01*
X151767281Y-95876224D01*
X151700965Y-95920535D01*
X151575535Y-96045965D01*
X151476985Y-96193454D01*
X151476985Y-96193455D01*
X151409106Y-96357332D01*
X151409106Y-96357334D01*
X151374500Y-96531306D01*
X151374500Y-96708693D01*
X151409106Y-96882665D01*
X151409106Y-96882667D01*
X151476985Y-97046544D01*
X151476985Y-97046545D01*
X151566671Y-97180768D01*
X151575536Y-97194035D01*
X151700965Y-97319464D01*
X151848453Y-97418013D01*
X152012334Y-97485894D01*
X152186309Y-97520500D01*
X152186310Y-97520500D01*
X152913690Y-97520500D01*
X152913691Y-97520500D01*
X153087666Y-97485894D01*
X153251547Y-97418013D01*
X153399035Y-97319464D01*
X153524464Y-97194035D01*
X153623013Y-97046547D01*
X153690894Y-96882666D01*
X153725500Y-96708691D01*
X153725500Y-96531309D01*
X153690894Y-96357334D01*
X153623014Y-96193455D01*
X153623014Y-96193454D01*
X153524464Y-96045965D01*
X153399034Y-95920535D01*
X153332718Y-95876224D01*
X153294839Y-95828174D01*
X153292437Y-95767036D01*
X153326430Y-95716162D01*
X153356580Y-95699934D01*
X153494124Y-95654356D01*
X153643340Y-95562319D01*
X153767319Y-95438340D01*
X153859356Y-95289124D01*
X153914506Y-95122693D01*
X153925000Y-95019987D01*
X153925000Y-94870001D01*
X153924999Y-94870000D01*
X152830330Y-94870000D01*
X152850075Y-94850255D01*
X152899444Y-94764745D01*
X152925000Y-94669370D01*
X152925000Y-94570630D01*
X152899444Y-94475255D01*
X152850075Y-94389745D01*
X152830330Y-94370000D01*
X153924998Y-94370000D01*
X153924999Y-94369999D01*
X153924999Y-94220013D01*
X153914507Y-94117312D01*
X153914504Y-94117300D01*
X153859356Y-93950875D01*
X153767319Y-93801659D01*
X153643340Y-93677680D01*
X153494124Y-93585643D01*
X153327693Y-93530493D01*
X153224987Y-93520000D01*
X152800001Y-93520000D01*
X152800000Y-93520001D01*
X152800000Y-94339670D01*
X152780255Y-94319925D01*
X152694745Y-94270556D01*
X152599370Y-94245000D01*
X152500630Y-94245000D01*
X152405255Y-94270556D01*
X152319745Y-94319925D01*
X152300000Y-94339670D01*
X152300000Y-93520001D01*
X152299999Y-93520000D01*
X151875013Y-93520000D01*
X151772312Y-93530492D01*
X151772300Y-93530495D01*
X151605875Y-93585643D01*
X151456659Y-93677680D01*
X151332680Y-93801659D01*
X151240643Y-93950875D01*
X151185493Y-94117306D01*
X151175000Y-94220012D01*
X111310365Y-94220012D01*
X111310365Y-92696628D01*
X127896600Y-92696628D01*
X127896600Y-92823371D01*
X127921326Y-92947672D01*
X127921326Y-92947674D01*
X127969823Y-93064759D01*
X127969829Y-93064770D01*
X128040238Y-93170143D01*
X128129856Y-93259761D01*
X128235229Y-93330170D01*
X128235240Y-93330176D01*
X128266969Y-93343318D01*
X128352327Y-93378674D01*
X128476631Y-93403400D01*
X128476632Y-93403400D01*
X128603368Y-93403400D01*
X128603369Y-93403400D01*
X128727673Y-93378674D01*
X128844764Y-93330174D01*
X128950144Y-93259761D01*
X129039761Y-93170144D01*
X129110174Y-93064764D01*
X129158674Y-92947673D01*
X129183400Y-92823369D01*
X129183400Y-92696631D01*
X129158674Y-92572327D01*
X129110174Y-92455236D01*
X129110171Y-92455232D01*
X129110170Y-92455229D01*
X129097509Y-92436280D01*
X130616948Y-92436280D01*
X130616948Y-92563023D01*
X130641674Y-92687324D01*
X130641674Y-92687326D01*
X130690171Y-92804411D01*
X130690177Y-92804422D01*
X130760586Y-92909795D01*
X130850204Y-92999413D01*
X130955577Y-93069822D01*
X130955588Y-93069828D01*
X130998840Y-93087743D01*
X131072675Y-93118326D01*
X131196979Y-93143052D01*
X131196980Y-93143052D01*
X131323716Y-93143052D01*
X131323717Y-93143052D01*
X131448021Y-93118326D01*
X131565112Y-93069826D01*
X131670492Y-92999413D01*
X131760109Y-92909796D01*
X131830522Y-92804416D01*
X131854458Y-92746628D01*
X137526600Y-92746628D01*
X137526600Y-92873371D01*
X137551326Y-92997672D01*
X137551326Y-92997674D01*
X137599823Y-93114759D01*
X137599829Y-93114770D01*
X137670238Y-93220143D01*
X137759856Y-93309761D01*
X137865229Y-93380170D01*
X137865240Y-93380176D01*
X137872954Y-93383371D01*
X137982327Y-93428674D01*
X138106631Y-93453400D01*
X138106632Y-93453400D01*
X138233368Y-93453400D01*
X138233369Y-93453400D01*
X138357673Y-93428674D01*
X138474764Y-93380174D01*
X138580144Y-93309761D01*
X138633277Y-93256628D01*
X147026600Y-93256628D01*
X147026600Y-93383371D01*
X147051326Y-93507672D01*
X147051326Y-93507674D01*
X147099823Y-93624759D01*
X147099829Y-93624770D01*
X147170238Y-93730143D01*
X147259856Y-93819761D01*
X147365229Y-93890170D01*
X147365240Y-93890176D01*
X147408492Y-93908091D01*
X147482327Y-93938674D01*
X147606631Y-93963400D01*
X147606632Y-93963400D01*
X147733368Y-93963400D01*
X147733369Y-93963400D01*
X147857673Y-93938674D01*
X147974764Y-93890174D01*
X148080144Y-93819761D01*
X148169761Y-93730144D01*
X148240174Y-93624764D01*
X148288674Y-93507673D01*
X148313400Y-93383369D01*
X148313400Y-93256631D01*
X148288674Y-93132327D01*
X148272507Y-93093296D01*
X148240176Y-93015240D01*
X148240170Y-93015229D01*
X148169761Y-92909856D01*
X148080143Y-92820238D01*
X147974770Y-92749829D01*
X147974759Y-92749823D01*
X147857673Y-92701326D01*
X147733371Y-92676600D01*
X147733369Y-92676600D01*
X147606631Y-92676600D01*
X147606628Y-92676600D01*
X147482327Y-92701326D01*
X147482325Y-92701326D01*
X147365240Y-92749823D01*
X147365229Y-92749829D01*
X147259856Y-92820238D01*
X147170238Y-92909856D01*
X147099829Y-93015229D01*
X147099823Y-93015240D01*
X147051326Y-93132325D01*
X147051326Y-93132327D01*
X147026600Y-93256628D01*
X138633277Y-93256628D01*
X138669761Y-93220144D01*
X138740174Y-93114764D01*
X138788674Y-92997673D01*
X138813400Y-92873369D01*
X138813400Y-92746631D01*
X138788674Y-92622327D01*
X138764108Y-92563019D01*
X138740176Y-92505240D01*
X138740170Y-92505229D01*
X138669761Y-92399856D01*
X138580143Y-92310238D01*
X138474770Y-92239829D01*
X138474759Y-92239823D01*
X138357673Y-92191326D01*
X138233371Y-92166600D01*
X138233369Y-92166600D01*
X138106631Y-92166600D01*
X138106628Y-92166600D01*
X137982327Y-92191326D01*
X137982325Y-92191326D01*
X137865240Y-92239823D01*
X137865229Y-92239829D01*
X137759856Y-92310238D01*
X137670238Y-92399856D01*
X137599829Y-92505229D01*
X137599823Y-92505240D01*
X137551326Y-92622325D01*
X137551326Y-92622327D01*
X137526600Y-92746628D01*
X131854458Y-92746628D01*
X131879022Y-92687325D01*
X131903748Y-92563021D01*
X131903748Y-92436283D01*
X131879022Y-92311979D01*
X131857591Y-92260239D01*
X131830524Y-92194892D01*
X131830518Y-92194881D01*
X131760109Y-92089508D01*
X131670491Y-91999890D01*
X131565118Y-91929481D01*
X131565107Y-91929475D01*
X131448021Y-91880978D01*
X131323719Y-91856252D01*
X131323717Y-91856252D01*
X131196979Y-91856252D01*
X131196976Y-91856252D01*
X131072675Y-91880978D01*
X131072673Y-91880978D01*
X130955588Y-91929475D01*
X130955577Y-91929481D01*
X130850204Y-91999890D01*
X130760586Y-92089508D01*
X130690177Y-92194881D01*
X130690171Y-92194892D01*
X130641674Y-92311977D01*
X130641674Y-92311979D01*
X130616948Y-92436280D01*
X129097509Y-92436280D01*
X129039761Y-92349856D01*
X128950143Y-92260238D01*
X128844770Y-92189829D01*
X128844759Y-92189823D01*
X128727673Y-92141326D01*
X128603371Y-92116600D01*
X128603369Y-92116600D01*
X128476631Y-92116600D01*
X128476628Y-92116600D01*
X128352327Y-92141326D01*
X128352325Y-92141326D01*
X128235240Y-92189823D01*
X128235229Y-92189829D01*
X128129856Y-92260238D01*
X128040238Y-92349856D01*
X127969829Y-92455229D01*
X127969823Y-92455240D01*
X127921326Y-92572325D01*
X127921326Y-92572327D01*
X127896600Y-92696628D01*
X111310365Y-92696628D01*
X111310365Y-90996628D01*
X133196600Y-90996628D01*
X133196600Y-91123371D01*
X133221326Y-91247672D01*
X133221326Y-91247674D01*
X133269823Y-91364759D01*
X133269829Y-91364770D01*
X133340238Y-91470143D01*
X133429856Y-91559761D01*
X133535229Y-91630170D01*
X133535240Y-91630176D01*
X133578492Y-91648091D01*
X133652327Y-91678674D01*
X133776631Y-91703400D01*
X133776632Y-91703400D01*
X133903368Y-91703400D01*
X133903369Y-91703400D01*
X134027673Y-91678674D01*
X134144764Y-91630174D01*
X134250144Y-91559761D01*
X134339761Y-91470144D01*
X134410174Y-91364764D01*
X134458674Y-91247673D01*
X134483400Y-91123369D01*
X134483400Y-91066628D01*
X136196600Y-91066628D01*
X136196600Y-91193371D01*
X136221326Y-91317672D01*
X136221326Y-91317674D01*
X136269823Y-91434759D01*
X136269829Y-91434770D01*
X136340238Y-91540143D01*
X136429856Y-91629761D01*
X136535229Y-91700170D01*
X136535240Y-91700176D01*
X136555757Y-91708674D01*
X136652327Y-91748674D01*
X136776631Y-91773400D01*
X136776632Y-91773400D01*
X136903368Y-91773400D01*
X136903369Y-91773400D01*
X137027673Y-91748674D01*
X137144764Y-91700174D01*
X137250144Y-91629761D01*
X137339761Y-91540144D01*
X137410174Y-91434764D01*
X137458674Y-91317673D01*
X137483400Y-91193369D01*
X137483400Y-91066631D01*
X137475443Y-91026631D01*
X137475442Y-91026628D01*
X143886600Y-91026628D01*
X143886600Y-91153371D01*
X143911326Y-91277672D01*
X143911326Y-91277674D01*
X143959823Y-91394759D01*
X143959829Y-91394770D01*
X144030238Y-91500143D01*
X144119856Y-91589761D01*
X144225229Y-91660170D01*
X144225240Y-91660176D01*
X144268492Y-91678091D01*
X144342327Y-91708674D01*
X144466631Y-91733400D01*
X144466632Y-91733400D01*
X144593368Y-91733400D01*
X144593369Y-91733400D01*
X144717673Y-91708674D01*
X144834764Y-91660174D01*
X144940144Y-91589761D01*
X145029761Y-91500144D01*
X145100174Y-91394764D01*
X145148674Y-91277673D01*
X145173400Y-91153369D01*
X145173400Y-91026631D01*
X145148674Y-90902327D01*
X145116742Y-90825236D01*
X145100176Y-90785240D01*
X145100170Y-90785229D01*
X145029761Y-90679856D01*
X144940143Y-90590238D01*
X144834770Y-90519829D01*
X144834759Y-90519823D01*
X144717673Y-90471326D01*
X144593371Y-90446600D01*
X144593369Y-90446600D01*
X144466631Y-90446600D01*
X144466628Y-90446600D01*
X144342327Y-90471326D01*
X144342325Y-90471326D01*
X144225240Y-90519823D01*
X144225229Y-90519829D01*
X144119856Y-90590238D01*
X144030238Y-90679856D01*
X143959829Y-90785229D01*
X143959823Y-90785240D01*
X143911326Y-90902325D01*
X143911326Y-90902327D01*
X143886600Y-91026628D01*
X137475442Y-91026628D01*
X137466401Y-90981175D01*
X137458674Y-90942327D01*
X137442105Y-90902325D01*
X137410176Y-90825240D01*
X137410170Y-90825229D01*
X137339761Y-90719856D01*
X137250143Y-90630238D01*
X137144770Y-90559829D01*
X137144759Y-90559823D01*
X137027673Y-90511326D01*
X136903371Y-90486600D01*
X136903369Y-90486600D01*
X136776631Y-90486600D01*
X136776628Y-90486600D01*
X136652327Y-90511326D01*
X136652325Y-90511326D01*
X136535240Y-90559823D01*
X136535229Y-90559829D01*
X136429856Y-90630238D01*
X136340238Y-90719856D01*
X136269829Y-90825229D01*
X136269823Y-90825240D01*
X136221326Y-90942325D01*
X136221326Y-90942327D01*
X136196600Y-91066628D01*
X134483400Y-91066628D01*
X134483400Y-90996631D01*
X134458674Y-90872327D01*
X134422600Y-90785236D01*
X134410176Y-90755240D01*
X134410170Y-90755229D01*
X134339761Y-90649856D01*
X134250143Y-90560238D01*
X134144770Y-90489829D01*
X134144759Y-90489823D01*
X134027673Y-90441326D01*
X133903371Y-90416600D01*
X133903369Y-90416600D01*
X133776631Y-90416600D01*
X133776628Y-90416600D01*
X133652327Y-90441326D01*
X133652325Y-90441326D01*
X133535240Y-90489823D01*
X133535229Y-90489829D01*
X133429856Y-90560238D01*
X133340238Y-90649856D01*
X133269829Y-90755229D01*
X133269823Y-90755240D01*
X133221326Y-90872325D01*
X133221326Y-90872327D01*
X133196600Y-90996628D01*
X111310365Y-90996628D01*
X111310365Y-89216628D01*
X123386600Y-89216628D01*
X123386600Y-89343371D01*
X123411326Y-89467672D01*
X123411326Y-89467674D01*
X123459823Y-89584759D01*
X123459829Y-89584770D01*
X123530238Y-89690143D01*
X123619856Y-89779761D01*
X123725229Y-89850170D01*
X123725240Y-89850176D01*
X123768492Y-89868091D01*
X123842327Y-89898674D01*
X123966631Y-89923400D01*
X123966632Y-89923400D01*
X124093368Y-89923400D01*
X124093369Y-89923400D01*
X124217673Y-89898674D01*
X124334764Y-89850174D01*
X124440144Y-89779761D01*
X124529761Y-89690144D01*
X124600174Y-89584764D01*
X124648674Y-89467673D01*
X124673400Y-89343369D01*
X124673400Y-89216631D01*
X124648674Y-89092327D01*
X124600174Y-88975236D01*
X124600173Y-88975234D01*
X124600170Y-88975229D01*
X124529761Y-88869856D01*
X124440143Y-88780238D01*
X124334770Y-88709829D01*
X124334759Y-88709823D01*
X124217673Y-88661326D01*
X124093371Y-88636600D01*
X124093369Y-88636600D01*
X123966631Y-88636600D01*
X123966628Y-88636600D01*
X123842327Y-88661326D01*
X123842325Y-88661326D01*
X123725240Y-88709823D01*
X123725229Y-88709829D01*
X123619856Y-88780238D01*
X123530238Y-88869856D01*
X123459829Y-88975229D01*
X123459823Y-88975240D01*
X123411326Y-89092325D01*
X123411326Y-89092327D01*
X123386600Y-89216628D01*
X111310365Y-89216628D01*
X111310365Y-88236628D01*
X129246600Y-88236628D01*
X129246600Y-88236631D01*
X129246600Y-88363369D01*
X129270115Y-88481587D01*
X129271326Y-88487672D01*
X129271326Y-88487674D01*
X129319823Y-88604759D01*
X129319829Y-88604770D01*
X129390238Y-88710143D01*
X129479856Y-88799761D01*
X129585229Y-88870170D01*
X129585240Y-88870176D01*
X129628492Y-88888091D01*
X129702327Y-88918674D01*
X129826631Y-88943400D01*
X129826632Y-88943400D01*
X129953368Y-88943400D01*
X129953369Y-88943400D01*
X130077673Y-88918674D01*
X130137945Y-88893709D01*
X153149500Y-88893709D01*
X153149500Y-89106290D01*
X153182752Y-89316238D01*
X153248443Y-89518412D01*
X153344948Y-89707815D01*
X153344950Y-89707819D01*
X153469891Y-89879786D01*
X153469893Y-89879788D01*
X153469896Y-89879792D01*
X153620208Y-90030104D01*
X153620211Y-90030106D01*
X153620213Y-90030108D01*
X153792180Y-90155049D01*
X153792184Y-90155051D01*
X153981588Y-90251557D01*
X154183757Y-90317246D01*
X154183758Y-90317246D01*
X154183761Y-90317247D01*
X154393710Y-90350500D01*
X154393713Y-90350500D01*
X154606290Y-90350500D01*
X154816238Y-90317247D01*
X154816239Y-90317246D01*
X154816243Y-90317246D01*
X155018412Y-90251557D01*
X155207816Y-90155051D01*
X155215457Y-90149500D01*
X155379786Y-90030108D01*
X155379792Y-90030104D01*
X155530104Y-89879792D01*
X155655051Y-89707816D01*
X155751557Y-89518412D01*
X155817246Y-89316243D01*
X155850500Y-89106287D01*
X155850500Y-88893713D01*
X155850500Y-88893709D01*
X155817247Y-88683761D01*
X155812394Y-88668825D01*
X155751557Y-88481588D01*
X155655051Y-88292184D01*
X155655049Y-88292180D01*
X155530108Y-88120213D01*
X155530106Y-88120211D01*
X155530104Y-88120208D01*
X155379792Y-87969896D01*
X155379788Y-87969893D01*
X155379786Y-87969891D01*
X155207819Y-87844950D01*
X155207815Y-87844948D01*
X155018412Y-87748443D01*
X154816238Y-87682752D01*
X154606290Y-87649500D01*
X154606287Y-87649500D01*
X154393713Y-87649500D01*
X154393710Y-87649500D01*
X154183761Y-87682752D01*
X153981587Y-87748443D01*
X153792184Y-87844948D01*
X153792180Y-87844950D01*
X153620213Y-87969891D01*
X153469891Y-88120213D01*
X153344950Y-88292180D01*
X153344948Y-88292184D01*
X153248443Y-88481587D01*
X153182752Y-88683761D01*
X153149500Y-88893709D01*
X130137945Y-88893709D01*
X130194764Y-88870174D01*
X130300144Y-88799761D01*
X130389761Y-88710144D01*
X130460174Y-88604764D01*
X130508674Y-88487673D01*
X130533400Y-88363369D01*
X130533400Y-88236631D01*
X130523454Y-88186632D01*
X130523453Y-88186628D01*
X131756600Y-88186628D01*
X131756600Y-88313371D01*
X131781326Y-88437672D01*
X131781326Y-88437674D01*
X131829823Y-88554759D01*
X131829829Y-88554770D01*
X131900238Y-88660143D01*
X131989856Y-88749761D01*
X132095229Y-88820170D01*
X132095240Y-88820176D01*
X132138492Y-88838091D01*
X132212327Y-88868674D01*
X132336631Y-88893400D01*
X132336632Y-88893400D01*
X132463368Y-88893400D01*
X132463369Y-88893400D01*
X132587673Y-88868674D01*
X132704764Y-88820174D01*
X132704766Y-88820172D01*
X132704771Y-88820170D01*
X132723721Y-88807508D01*
X132768626Y-88777502D01*
X132810144Y-88749761D01*
X132899761Y-88660144D01*
X132970174Y-88554764D01*
X133018674Y-88437673D01*
X133043400Y-88313369D01*
X133043400Y-88186631D01*
X133018674Y-88062327D01*
X132990886Y-87995240D01*
X132970176Y-87945240D01*
X132970170Y-87945229D01*
X132899761Y-87839856D01*
X132810143Y-87750238D01*
X132704770Y-87679829D01*
X132704759Y-87679823D01*
X132587673Y-87631326D01*
X132463371Y-87606600D01*
X132463369Y-87606600D01*
X132336631Y-87606600D01*
X132336628Y-87606600D01*
X132212327Y-87631326D01*
X132212325Y-87631326D01*
X132095240Y-87679823D01*
X132095229Y-87679829D01*
X131989856Y-87750238D01*
X131900238Y-87839856D01*
X131829829Y-87945229D01*
X131829823Y-87945240D01*
X131781326Y-88062325D01*
X131781326Y-88062327D01*
X131756600Y-88186628D01*
X130523453Y-88186628D01*
X130518794Y-88163207D01*
X130508674Y-88112327D01*
X130460174Y-87995236D01*
X130460173Y-87995234D01*
X130460170Y-87995229D01*
X130389761Y-87889856D01*
X130300143Y-87800238D01*
X130194770Y-87729829D01*
X130194759Y-87729823D01*
X130077673Y-87681326D01*
X129953371Y-87656600D01*
X129953369Y-87656600D01*
X129826631Y-87656600D01*
X129826628Y-87656600D01*
X129702327Y-87681326D01*
X129702325Y-87681326D01*
X129585240Y-87729823D01*
X129585229Y-87729829D01*
X129479856Y-87800238D01*
X129390238Y-87889856D01*
X129319829Y-87995229D01*
X129319823Y-87995240D01*
X129271326Y-88112325D01*
X129271326Y-88112327D01*
X129246600Y-88236628D01*
X111310365Y-88236628D01*
X111310365Y-84217507D01*
X113163449Y-84217507D01*
X113163449Y-84414594D01*
X113163767Y-84416191D01*
X113199024Y-84593440D01*
X113201898Y-84607885D01*
X113201898Y-84607887D01*
X113277316Y-84789964D01*
X113277317Y-84789965D01*
X113386810Y-84953833D01*
X113526167Y-85093190D01*
X113690035Y-85202683D01*
X113872114Y-85278102D01*
X114065408Y-85316551D01*
X114065409Y-85316551D01*
X114262489Y-85316551D01*
X114262490Y-85316551D01*
X114455784Y-85278102D01*
X114637863Y-85202683D01*
X114801731Y-85093190D01*
X114828293Y-85066628D01*
X136596600Y-85066628D01*
X136596600Y-85193371D01*
X136621326Y-85317672D01*
X136621326Y-85317674D01*
X136669823Y-85434759D01*
X136669829Y-85434770D01*
X136740238Y-85540143D01*
X136829856Y-85629761D01*
X136935229Y-85700170D01*
X136935240Y-85700176D01*
X136978492Y-85718091D01*
X137052327Y-85748674D01*
X137176631Y-85773400D01*
X137176632Y-85773400D01*
X137303368Y-85773400D01*
X137303369Y-85773400D01*
X137427673Y-85748674D01*
X137544764Y-85700174D01*
X137650144Y-85629761D01*
X137739761Y-85540144D01*
X137810174Y-85434764D01*
X137858674Y-85317673D01*
X137883400Y-85193369D01*
X137883400Y-85066631D01*
X137858674Y-84942327D01*
X137810174Y-84825236D01*
X137810173Y-84825234D01*
X137810170Y-84825229D01*
X137739761Y-84719856D01*
X137650143Y-84630238D01*
X137619080Y-84609482D01*
X152407526Y-84609482D01*
X152407526Y-84806569D01*
X152445975Y-84999860D01*
X152445975Y-84999862D01*
X152521393Y-85181939D01*
X152529032Y-85193371D01*
X152630887Y-85345808D01*
X152770244Y-85485165D01*
X152934112Y-85594658D01*
X153116191Y-85670077D01*
X153309485Y-85708526D01*
X153309486Y-85708526D01*
X153506566Y-85708526D01*
X153506567Y-85708526D01*
X153699861Y-85670077D01*
X153881940Y-85594658D01*
X154045808Y-85485165D01*
X154185165Y-85345808D01*
X154294658Y-85181940D01*
X154370077Y-84999861D01*
X154408526Y-84806567D01*
X154408526Y-84609485D01*
X154370077Y-84416191D01*
X154294658Y-84234112D01*
X154185165Y-84070244D01*
X154045808Y-83930887D01*
X153881940Y-83821394D01*
X153881941Y-83821394D01*
X153881939Y-83821393D01*
X153699861Y-83745975D01*
X153506569Y-83707526D01*
X153506567Y-83707526D01*
X153309485Y-83707526D01*
X153309482Y-83707526D01*
X153116191Y-83745975D01*
X153116189Y-83745975D01*
X152934112Y-83821393D01*
X152770244Y-83930887D01*
X152770240Y-83930890D01*
X152630890Y-84070240D01*
X152630887Y-84070244D01*
X152521393Y-84234112D01*
X152445975Y-84416189D01*
X152445975Y-84416191D01*
X152407526Y-84609482D01*
X137619080Y-84609482D01*
X137544770Y-84559829D01*
X137544759Y-84559823D01*
X137427673Y-84511326D01*
X137303371Y-84486600D01*
X137303369Y-84486600D01*
X137176631Y-84486600D01*
X137176628Y-84486600D01*
X137052327Y-84511326D01*
X137052325Y-84511326D01*
X136935240Y-84559823D01*
X136935229Y-84559829D01*
X136829856Y-84630238D01*
X136740238Y-84719856D01*
X136669829Y-84825229D01*
X136669823Y-84825240D01*
X136621326Y-84942325D01*
X136621326Y-84942327D01*
X136596600Y-85066628D01*
X114828293Y-85066628D01*
X114941088Y-84953833D01*
X115050581Y-84789965D01*
X115126000Y-84607886D01*
X115164449Y-84414592D01*
X115164449Y-84217510D01*
X115126000Y-84024216D01*
X115050581Y-83842137D01*
X114941088Y-83678269D01*
X114801731Y-83538912D01*
X114637863Y-83429419D01*
X114637864Y-83429419D01*
X114637862Y-83429418D01*
X114455784Y-83354000D01*
X114262492Y-83315551D01*
X114262490Y-83315551D01*
X114065408Y-83315551D01*
X114065405Y-83315551D01*
X113872114Y-83354000D01*
X113872112Y-83354000D01*
X113690035Y-83429418D01*
X113526167Y-83538912D01*
X113526163Y-83538915D01*
X113386813Y-83678265D01*
X113386810Y-83678269D01*
X113277316Y-83842137D01*
X113201898Y-84024214D01*
X113201898Y-84024216D01*
X113163449Y-84217507D01*
X111310365Y-84217507D01*
X111310365Y-82421456D01*
X114959500Y-82421456D01*
X114959500Y-82618543D01*
X114997949Y-82811834D01*
X114997949Y-82811836D01*
X115073367Y-82993913D01*
X115073368Y-82993914D01*
X115182861Y-83157782D01*
X115322218Y-83297139D01*
X115486086Y-83406632D01*
X115668165Y-83482051D01*
X115861459Y-83520500D01*
X115861460Y-83520500D01*
X116058540Y-83520500D01*
X116058541Y-83520500D01*
X116251835Y-83482051D01*
X116433914Y-83406632D01*
X116597782Y-83297139D01*
X116737139Y-83157782D01*
X116846632Y-82993914D01*
X116922051Y-82811835D01*
X116923087Y-82806628D01*
X124496600Y-82806628D01*
X124496600Y-82933371D01*
X124521326Y-83057672D01*
X124521326Y-83057674D01*
X124569823Y-83174759D01*
X124569829Y-83174770D01*
X124640238Y-83280143D01*
X124729856Y-83369761D01*
X124835229Y-83440170D01*
X124835240Y-83440176D01*
X124878492Y-83458091D01*
X124952327Y-83488674D01*
X125076631Y-83513400D01*
X125076632Y-83513400D01*
X125203368Y-83513400D01*
X125203369Y-83513400D01*
X125327673Y-83488674D01*
X125444764Y-83440174D01*
X125550144Y-83369761D01*
X125639761Y-83280144D01*
X125710174Y-83174764D01*
X125758674Y-83057673D01*
X125783400Y-82933369D01*
X125783400Y-82806631D01*
X125758674Y-82682327D01*
X125710174Y-82565236D01*
X125710173Y-82565234D01*
X125710170Y-82565229D01*
X125639761Y-82459856D01*
X125550143Y-82370238D01*
X125444770Y-82299829D01*
X125444759Y-82299823D01*
X125327673Y-82251326D01*
X125203371Y-82226600D01*
X125203369Y-82226600D01*
X125076631Y-82226600D01*
X125076628Y-82226600D01*
X124952327Y-82251326D01*
X124952325Y-82251326D01*
X124835240Y-82299823D01*
X124835229Y-82299829D01*
X124729856Y-82370238D01*
X124640238Y-82459856D01*
X124569829Y-82565229D01*
X124569823Y-82565240D01*
X124521326Y-82682325D01*
X124521326Y-82682327D01*
X124496600Y-82806628D01*
X116923087Y-82806628D01*
X116960500Y-82618541D01*
X116960500Y-82421459D01*
X116922051Y-82228165D01*
X116846632Y-82046086D01*
X116737139Y-81882218D01*
X116597782Y-81742861D01*
X116433914Y-81633368D01*
X116433915Y-81633368D01*
X116433913Y-81633367D01*
X116251835Y-81557949D01*
X116058543Y-81519500D01*
X116058541Y-81519500D01*
X115861459Y-81519500D01*
X115861456Y-81519500D01*
X115668165Y-81557949D01*
X115668163Y-81557949D01*
X115486086Y-81633367D01*
X115322218Y-81742861D01*
X115322214Y-81742864D01*
X115182864Y-81882214D01*
X115182861Y-81882218D01*
X115073367Y-82046086D01*
X114997949Y-82228163D01*
X114997949Y-82228165D01*
X114959500Y-82421456D01*
X111310365Y-82421456D01*
X111310365Y-81138893D01*
X141215000Y-81138893D01*
X141215000Y-81321108D01*
X141250547Y-81499813D01*
X141250547Y-81499815D01*
X141320273Y-81668150D01*
X141320276Y-81668155D01*
X141333510Y-81687962D01*
X141381261Y-81708849D01*
X141412200Y-81761636D01*
X141414500Y-81782852D01*
X141414500Y-82699861D01*
X141414501Y-82699864D01*
X141417414Y-82724991D01*
X141436662Y-82768583D01*
X141462794Y-82827766D01*
X141542235Y-82907207D01*
X141645009Y-82952586D01*
X141670135Y-82955501D01*
X142609864Y-82955500D01*
X142634991Y-82952586D01*
X142737765Y-82907207D01*
X142817206Y-82827766D01*
X142823535Y-82813431D01*
X150611475Y-82813431D01*
X150611475Y-83010518D01*
X150649924Y-83203809D01*
X150649924Y-83203811D01*
X150725342Y-83385888D01*
X150725343Y-83385889D01*
X150834836Y-83549757D01*
X150974193Y-83689114D01*
X151138061Y-83798607D01*
X151320140Y-83874026D01*
X151513434Y-83912475D01*
X151513435Y-83912475D01*
X151710515Y-83912475D01*
X151710516Y-83912475D01*
X151903810Y-83874026D01*
X152085889Y-83798607D01*
X152249757Y-83689114D01*
X152389114Y-83549757D01*
X152498607Y-83385889D01*
X152574026Y-83203810D01*
X152612475Y-83010516D01*
X152612475Y-82813434D01*
X152574026Y-82620140D01*
X152498607Y-82438061D01*
X152389114Y-82274193D01*
X152249757Y-82134836D01*
X152085889Y-82025343D01*
X152085890Y-82025343D01*
X152085888Y-82025342D01*
X151903810Y-81949924D01*
X151710518Y-81911475D01*
X151710516Y-81911475D01*
X151513434Y-81911475D01*
X151513431Y-81911475D01*
X151320140Y-81949924D01*
X151320138Y-81949924D01*
X151138061Y-82025342D01*
X150974193Y-82134836D01*
X150974189Y-82134839D01*
X150834839Y-82274189D01*
X150834836Y-82274193D01*
X150725342Y-82438061D01*
X150649924Y-82620138D01*
X150649924Y-82620140D01*
X150611475Y-82813431D01*
X142823535Y-82813431D01*
X142862585Y-82724992D01*
X142865500Y-82699866D01*
X142865499Y-81782851D01*
X142884406Y-81724661D01*
X142933906Y-81688697D01*
X142947961Y-81685758D01*
X142959726Y-81668150D01*
X143029452Y-81499815D01*
X143029452Y-81499813D01*
X143045999Y-81416628D01*
X146936600Y-81416628D01*
X146936600Y-81543371D01*
X146961326Y-81667672D01*
X146961326Y-81667674D01*
X147009823Y-81784759D01*
X147009829Y-81784770D01*
X147080238Y-81890143D01*
X147169856Y-81979761D01*
X147275229Y-82050170D01*
X147275240Y-82050176D01*
X147318492Y-82068091D01*
X147392327Y-82098674D01*
X147516631Y-82123400D01*
X147516632Y-82123400D01*
X147643368Y-82123400D01*
X147643369Y-82123400D01*
X147767673Y-82098674D01*
X147884764Y-82050174D01*
X147990144Y-81979761D01*
X148079761Y-81890144D01*
X148150174Y-81784764D01*
X148198674Y-81667673D01*
X148223400Y-81543369D01*
X148223400Y-81416631D01*
X148198674Y-81292327D01*
X148172858Y-81230001D01*
X148150176Y-81175240D01*
X148150170Y-81175229D01*
X148079761Y-81069856D01*
X147990143Y-80980238D01*
X147884770Y-80909829D01*
X147884759Y-80909823D01*
X147767673Y-80861326D01*
X147643371Y-80836600D01*
X147643369Y-80836600D01*
X147516631Y-80836600D01*
X147516628Y-80836600D01*
X147392327Y-80861326D01*
X147392325Y-80861326D01*
X147275240Y-80909823D01*
X147275229Y-80909829D01*
X147169856Y-80980238D01*
X147080238Y-81069856D01*
X147009829Y-81175229D01*
X147009823Y-81175240D01*
X146961326Y-81292325D01*
X146961326Y-81292327D01*
X146936600Y-81416628D01*
X143045999Y-81416628D01*
X143050808Y-81392453D01*
X143064999Y-81321108D01*
X143065000Y-81321104D01*
X143065000Y-81138897D01*
X143064999Y-81138893D01*
X143029452Y-80960188D01*
X143029452Y-80960186D01*
X142959727Y-80791854D01*
X142948501Y-80775053D01*
X142493554Y-81230001D01*
X142599050Y-81335498D01*
X142626827Y-81390014D01*
X142617255Y-81450446D01*
X142573991Y-81493711D01*
X142529046Y-81504501D01*
X141750951Y-81504501D01*
X141692760Y-81485594D01*
X141656796Y-81436094D01*
X141656796Y-81374908D01*
X141680948Y-81335497D01*
X141786445Y-81230001D01*
X141736717Y-81180273D01*
X141890000Y-81180273D01*
X141890000Y-81279729D01*
X141928060Y-81371615D01*
X141998386Y-81441941D01*
X142090272Y-81480001D01*
X142189728Y-81480001D01*
X142281614Y-81441941D01*
X142351940Y-81371615D01*
X142390000Y-81279729D01*
X142390000Y-81180273D01*
X142351940Y-81088387D01*
X142281614Y-81018061D01*
X142189728Y-80980001D01*
X142090272Y-80980001D01*
X141998386Y-81018061D01*
X141928060Y-81088387D01*
X141890000Y-81180273D01*
X141736717Y-81180273D01*
X141331496Y-80775052D01*
X141320277Y-80791843D01*
X141320275Y-80791847D01*
X141250547Y-80960186D01*
X141250547Y-80960188D01*
X141215000Y-81138893D01*
X111310365Y-81138893D01*
X111310365Y-80955892D01*
X111310366Y-80955889D01*
X111310365Y-80892160D01*
X111310459Y-80887843D01*
X111314576Y-80793528D01*
X111327297Y-80502139D01*
X111328047Y-80493564D01*
X111378156Y-80112937D01*
X111379655Y-80104442D01*
X111398735Y-80018380D01*
X111462742Y-79729656D01*
X111464975Y-79721321D01*
X111474069Y-79692480D01*
X111580414Y-79355189D01*
X111583366Y-79347082D01*
X111657680Y-79167672D01*
X111730277Y-78992406D01*
X111733915Y-78984603D01*
X111769300Y-78916628D01*
X122996600Y-78916628D01*
X122996600Y-78916631D01*
X122996600Y-79043369D01*
X123019510Y-79158546D01*
X123021326Y-79167672D01*
X123021326Y-79167674D01*
X123069823Y-79284759D01*
X123069829Y-79284770D01*
X123140238Y-79390143D01*
X123229856Y-79479761D01*
X123335229Y-79550170D01*
X123335240Y-79550176D01*
X123378492Y-79568091D01*
X123452327Y-79598674D01*
X123576631Y-79623400D01*
X123576632Y-79623400D01*
X123703368Y-79623400D01*
X123703369Y-79623400D01*
X123827673Y-79598674D01*
X123944764Y-79550174D01*
X124050144Y-79479761D01*
X124139761Y-79390144D01*
X124210174Y-79284764D01*
X124258674Y-79167673D01*
X124260490Y-79158543D01*
X141414500Y-79158543D01*
X141414500Y-79301458D01*
X141442381Y-79441620D01*
X141442381Y-79441622D01*
X141497068Y-79573649D01*
X141497074Y-79573660D01*
X141530310Y-79623400D01*
X141564787Y-79674998D01*
X141581396Y-79733885D01*
X141564788Y-79785000D01*
X141497073Y-79886342D01*
X141497068Y-79886351D01*
X141442381Y-80018378D01*
X141442381Y-80018380D01*
X141414500Y-80158542D01*
X141414500Y-80301457D01*
X141442381Y-80441619D01*
X141442381Y-80441621D01*
X141497068Y-80573648D01*
X141497074Y-80573659D01*
X141544839Y-80645143D01*
X141576468Y-80692479D01*
X141677521Y-80793532D01*
X141723280Y-80824107D01*
X141796340Y-80872925D01*
X141796351Y-80872931D01*
X141799193Y-80874108D01*
X141928380Y-80927619D01*
X142068545Y-80955500D01*
X142068546Y-80955500D01*
X142211454Y-80955500D01*
X142211455Y-80955500D01*
X142351620Y-80927619D01*
X142483653Y-80872929D01*
X142602479Y-80793532D01*
X142703532Y-80692479D01*
X142782929Y-80573653D01*
X142837619Y-80441620D01*
X142865500Y-80301455D01*
X142865500Y-80158545D01*
X142837619Y-80018380D01*
X142782929Y-79886347D01*
X142782926Y-79886342D01*
X142782925Y-79886340D01*
X142715212Y-79785002D01*
X142698603Y-79726114D01*
X142715210Y-79675002D01*
X142782929Y-79573654D01*
X142837619Y-79441621D01*
X142865500Y-79301456D01*
X142865500Y-79158546D01*
X142837619Y-79018381D01*
X142795473Y-78916631D01*
X142782931Y-78886352D01*
X142782925Y-78886341D01*
X142720106Y-78792327D01*
X142703532Y-78767522D01*
X142602479Y-78666469D01*
X142555143Y-78634840D01*
X142483659Y-78587075D01*
X142483648Y-78587069D01*
X142351620Y-78532382D01*
X142211457Y-78504501D01*
X142211455Y-78504501D01*
X142068545Y-78504501D01*
X142068542Y-78504501D01*
X141928380Y-78532382D01*
X141928378Y-78532382D01*
X141796351Y-78587069D01*
X141796340Y-78587075D01*
X141677521Y-78666469D01*
X141677517Y-78666472D01*
X141576471Y-78767518D01*
X141576468Y-78767522D01*
X141497074Y-78886341D01*
X141497068Y-78886352D01*
X141442381Y-79018379D01*
X141442381Y-79018381D01*
X141414500Y-79158543D01*
X124260490Y-79158543D01*
X124283400Y-79043369D01*
X124283400Y-78916631D01*
X124258674Y-78792327D01*
X124237206Y-78740499D01*
X124210176Y-78675240D01*
X124210170Y-78675229D01*
X124139761Y-78569856D01*
X124104908Y-78535003D01*
X124077131Y-78480486D01*
X124086702Y-78420054D01*
X124104906Y-78394998D01*
X124179761Y-78320144D01*
X124250174Y-78214764D01*
X124298674Y-78097673D01*
X124323400Y-77973369D01*
X124323400Y-77971004D01*
X146299500Y-77971004D01*
X146299500Y-78108995D01*
X146326420Y-78244327D01*
X146326420Y-78244329D01*
X146379222Y-78371806D01*
X146379228Y-78371817D01*
X146455885Y-78486541D01*
X146553458Y-78584114D01*
X146668182Y-78660771D01*
X146668193Y-78660777D01*
X146703084Y-78675229D01*
X146795672Y-78713580D01*
X146931007Y-78740500D01*
X146931008Y-78740500D01*
X147068992Y-78740500D01*
X147068993Y-78740500D01*
X147204328Y-78713580D01*
X147331811Y-78660775D01*
X147446542Y-78584114D01*
X147544114Y-78486542D01*
X147620775Y-78371811D01*
X147673580Y-78244328D01*
X147700500Y-78108993D01*
X147700500Y-77971007D01*
X147700499Y-77971004D01*
X149299500Y-77971004D01*
X149299500Y-78108995D01*
X149326420Y-78244327D01*
X149326420Y-78244329D01*
X149379222Y-78371806D01*
X149379228Y-78371817D01*
X149455885Y-78486541D01*
X149553458Y-78584114D01*
X149668182Y-78660771D01*
X149668193Y-78660777D01*
X149703084Y-78675229D01*
X149795672Y-78713580D01*
X149931007Y-78740500D01*
X149931008Y-78740500D01*
X150068992Y-78740500D01*
X150068993Y-78740500D01*
X150204328Y-78713580D01*
X150331811Y-78660775D01*
X150446542Y-78584114D01*
X150544114Y-78486542D01*
X150620775Y-78371811D01*
X150673580Y-78244328D01*
X150700500Y-78108993D01*
X150700500Y-77971007D01*
X150673580Y-77835672D01*
X150655978Y-77793177D01*
X150620777Y-77708193D01*
X150620771Y-77708182D01*
X150544114Y-77593458D01*
X150446541Y-77495885D01*
X150331817Y-77419228D01*
X150331806Y-77419222D01*
X150204328Y-77366420D01*
X150068995Y-77339500D01*
X150068993Y-77339500D01*
X149931007Y-77339500D01*
X149931004Y-77339500D01*
X149795672Y-77366420D01*
X149795670Y-77366420D01*
X149668193Y-77419222D01*
X149668182Y-77419228D01*
X149553458Y-77495885D01*
X149455885Y-77593458D01*
X149379228Y-77708182D01*
X149379222Y-77708193D01*
X149326420Y-77835670D01*
X149326420Y-77835672D01*
X149299500Y-77971004D01*
X147700499Y-77971004D01*
X147673580Y-77835672D01*
X147655978Y-77793177D01*
X147620777Y-77708193D01*
X147620771Y-77708182D01*
X147544114Y-77593458D01*
X147446541Y-77495885D01*
X147331817Y-77419228D01*
X147331806Y-77419222D01*
X147204328Y-77366420D01*
X147068995Y-77339500D01*
X147068993Y-77339500D01*
X146931007Y-77339500D01*
X146931004Y-77339500D01*
X146795672Y-77366420D01*
X146795670Y-77366420D01*
X146668193Y-77419222D01*
X146668182Y-77419228D01*
X146553458Y-77495885D01*
X146455885Y-77593458D01*
X146379228Y-77708182D01*
X146379222Y-77708193D01*
X146326420Y-77835670D01*
X146326420Y-77835672D01*
X146299500Y-77971004D01*
X124323400Y-77971004D01*
X124323400Y-77846631D01*
X124298674Y-77722327D01*
X124250174Y-77605236D01*
X124250173Y-77605234D01*
X124250170Y-77605229D01*
X124179761Y-77499856D01*
X124090143Y-77410238D01*
X123984770Y-77339829D01*
X123984759Y-77339823D01*
X123867673Y-77291326D01*
X123743371Y-77266600D01*
X123743369Y-77266600D01*
X123616631Y-77266600D01*
X123616628Y-77266600D01*
X123492327Y-77291326D01*
X123492325Y-77291326D01*
X123375240Y-77339823D01*
X123375229Y-77339829D01*
X123269856Y-77410238D01*
X123180238Y-77499856D01*
X123109829Y-77605229D01*
X123109823Y-77605240D01*
X123061326Y-77722325D01*
X123061326Y-77722327D01*
X123036600Y-77846628D01*
X123036600Y-77973371D01*
X123061326Y-78097672D01*
X123061326Y-78097674D01*
X123109823Y-78214759D01*
X123109829Y-78214770D01*
X123180238Y-78320143D01*
X123215091Y-78354996D01*
X123242868Y-78409513D01*
X123233297Y-78469945D01*
X123215091Y-78495004D01*
X123140242Y-78569852D01*
X123140238Y-78569856D01*
X123069829Y-78675229D01*
X123069823Y-78675240D01*
X123021326Y-78792325D01*
X123021326Y-78792327D01*
X122996600Y-78916628D01*
X111769300Y-78916628D01*
X111911187Y-78644064D01*
X111915491Y-78636609D01*
X112121769Y-78312815D01*
X112126704Y-78305768D01*
X112360422Y-78001181D01*
X112365941Y-77994604D01*
X112625339Y-77711520D01*
X112631386Y-77705473D01*
X112914470Y-77446075D01*
X112921047Y-77440556D01*
X113225634Y-77206838D01*
X113232681Y-77201903D01*
X113556475Y-76995625D01*
X113563930Y-76991321D01*
X113904469Y-76814049D01*
X113912272Y-76810411D01*
X114266948Y-76663500D01*
X114275055Y-76660548D01*
X114641195Y-76545106D01*
X114649522Y-76542876D01*
X115024317Y-76459787D01*
X115032803Y-76458290D01*
X115413430Y-76408181D01*
X115422005Y-76407431D01*
X115807626Y-76390595D01*
X115812075Y-76390502D01*
X152436959Y-76440399D01*
G37*
%TD.AperFunction*%
%TD*%
M02*
